<?xml version="1.0" encoding="utf-8"?>
<!DOCTYPE svg PUBLIC "-//W3C//DTD SVG 20010904//EN" "http://www.w3.org/TR/2001/REC-SVG-20010904/DTD/svg10.dtd">
<svg version="1.0" xmlns="http://www.w3.org/2000/svg" width="3000px" height="2000px" viewBox="0 0 3000 2000" preserveAspectRatio="xMidYMid meet">
 <g fill="#ffffff">
  <path d="M955.5 1998.5 c-1.6 -0.2 -11.3 -0.9 -21.5 -1.5 -40.5 -2.4 -86.8 -8.4 -127.5 -16.5 -24.1 -4.8 -30.4 -6.2 -44 -9.6 -75 -18.7 -137.1 -41.4 -205 -74.9 -59.3 -29.3 -111.4 -61.7 -163.5 -101.4 -34.7 -26.5 -66.5 -54.3 -97.5 -85.1 -23.8 -23.7 -36.2 -37.1 -62.1 -67.1 -5.8 -6.8 -39.2 -49.6 -44.4 -57 -1.9 -2.7 -6.6 -9.4 -10.5 -14.9 -12.8 -18.2 -43.5 -66.2 -43.5 -68.1 0 -0.2 -2.2 -4.1 -4.9 -8.6 -25.2 -43 -55 -107.9 -73.4 -160.3 -4.9 -13.8 -12.6 -37.7 -16.1 -49.5 -0.8 -3 -2.4 -8.4 -3.5 -12 -6.3 -21.3 -16.6 -66 -21.5 -94 -24.1 -136.5 -20.5 -275.8 10.4 -406.5 3.4 -14.4 9.1 -36.9 11.1 -43.5 1.1 -3.6 2.7 -9 3.5 -12 5.8 -19.8 16.3 -51.1 22.9 -68 15.9 -40.9 23 -57 39 -89.5 12.8 -25.7 19.2 -37.9 27.6 -52.3 2.7 -4.5 4.9 -8.4 4.9 -8.6 0 -1.9 30.7 -49.9 43.5 -68.1 3.9 -5.5 8.6 -12.2 10.5 -14.9 5.2 -7.4 38.6 -50.2 44.4 -57 25.9 -30 38.3 -43.4 62.1 -67.1 22.7 -22.5 46.6 -44.2 71 -64.2 103.2 -84.5 225.5 -149 352.5 -185.8 21.2 -6.1 47.4 -12.9 62 -16 81.6 -17.3 135.5 -23 218 -23 72.2 0 112.7 3.5 183 15.9 20 3.5 51.1 10.6 79 17.9 30.5 8.1 73.7 22.5 107 35.7 34.7 13.7 83.5 36.9 115.7 54.8 l14.3 7.9 -12.9 7.6 c-53.8 32 -113.2 76.3 -160.6 119.7 -13.5 12.4 -49.9 48.5 -58.5 57.9 -9.7 10.7 -17.3 19.2 -19.8 22.1 -13.9 16.1 -19.1 22.3 -28.7 34.5 -9.9 12.5 -19.3 24.8 -30.7 40 -9 12.2 -35.9 52.7 -42.7 64.5 -3.8 6.5 -5.1 8.6 -7.2 12 -1.5 2.4 -3.4 5.6 -9.5 16.8 -1.5 2.6 -3.4 6.1 -4.4 7.7 -5.6 9.5 -25.3 48.3 -32.8 64.6 -4.5 9.5 -14.2 31.8 -15.7 35.9 -0.8 1.9 -3.2 8 -5.5 13.5 -3.8 9.1 -6.7 16.7 -9 23.5 -0.5 1.4 -2 5.7 -3.5 9.5 -1.4 3.9 -3 8.4 -3.5 10 -0.5 1.7 -2.2 6.8 -3.8 11.5 -1.6 4.7 -3.9 11.9 -5.1 16 -1.3 4.1 -2.9 9.3 -3.6 11.5 -0.7 2.2 -2.3 7.6 -3.5 12 -1.3 4.4 -2.8 10 -3.5 12.5 -5.8 20.4 -13.6 54.3 -17.4 75.5 -5.9 32.3 -7.5 43 -11 73 -5 41.4 -5.6 54.1 -5.6 114.5 0 60.4 0.6 73.1 5.6 114.5 3.5 30 5.1 40.7 11 73 3.8 21.2 11.6 55.1 17.4 75.5 0.7 2.5 2.2 8.1 3.5 12.5 1.2 4.4 2.8 9.8 3.5 12 0.7 2.2 2.3 7.4 3.6 11.5 1.2 4.1 3.5 11.3 5.1 16 1.6 4.7 3.3 9.9 3.8 11.5 0.5 1.7 2 5.9 3.3 9.5 5 13.4 6.9 18.6 7.7 21 0.4 1.4 2.7 7 5 12.5 2.3 5.5 4.7 11.6 5.5 13.5 1.5 4.1 11.2 26.4 15.7 35.9 7.5 16.3 27.2 55.1 32.8 64.6 1 1.7 2.9 5.1 4.4 7.8 6.1 11.1 8 14.3 9.5 16.7 2.1 3.4 3.4 5.5 7.2 12 6.8 11.8 33.7 52.3 42.7 64.5 19.4 26 37.9 49.6 49 62.5 12.1 14 13.2 15.1 21.1 24 17.7 19.7 46.2 48.4 67.6 68 47.4 43.4 106.8 87.7 160.6 119.7 l12.9 7.6 -14.3 7.9 c-32.2 17.9 -81 41.1 -115.7 54.8 -93.8 37.2 -190.5 59.5 -294 67.6 -17.6 1.4 -110.7 2.8 -119.5 1.9z m-282 -810.4 c20.7 -5.3 36.4 -15.9 44.3 -30 4.5 -8 5.6 -10.8 8.9 -23.1 l2.6 -9.5 0 -48.5 0.1 -48.5 -2.7 -10.3 c-5.9 -23.1 -16.5 -37.5 -33.7 -45.9 -21.1 -10.2 -22 -10.3 -137.2 -10.3 -99.8 0 -108.6 -0.3 -115.9 -4.1 -9.5 -4.8 -11.2 -11.1 -10.7 -39.7 0.3 -20.2 0.5 -22 2.5 -25.9 3.5 -6.5 7.9 -9.2 17.6 -10.9 7 -1.2 22.1 -1.4 88.8 -1.2 79.5 0.3 80.5 0.3 84.9 2.4 2.5 1.2 5.5 3.2 6.7 4.6 3.1 3.3 5.3 11.1 5.3 18.9 0 8.3 1.3 12.1 4.9 14.2 2.6 1.5 6.8 1.7 39.1 1.7 l36.2 0 3.5 -3.5 3.5 -3.5 -0.4 -22.2 c-0.7 -35.2 -5 -50.3 -18.3 -64.6 -9 -9.7 -20.6 -15.2 -39.5 -18.9 -8.9 -1.7 -17.7 -1.8 -131.5 -1.8 -114.1 0 -122.6 0.1 -131.4 1.8 -24.3 4.7 -40.5 14.6 -49.6 30.3 -4.7 8.1 -5.8 10.9 -9.3 23.4 l-2.6 9.5 0 47 c-0.1 45.8 0 47.2 2.2 56.3 7.8 31.6 22.4 46.2 54.7 54.5 7.7 2 11.4 2.1 115 2.7 80.5 0.5 108.2 1 111.7 1.9 6.9 1.8 11 5 13.8 10.6 2.5 4.9 2.5 5.3 2.5 30 l0 25 -2.7 5.8 c-2.5 5.2 -3.3 6 -8.5 8.5 l-5.8 2.7 -91.3 0.3 c-65.3 0.2 -92.5 -0.1 -95.4 -0.9 -5.3 -1.4 -11.2 -7.2 -12.7 -12.4 -0.6 -2.2 -1.1 -7.5 -1.1 -11.9 0 -9.2 -2.1 -13.7 -7.2 -15.5 -2 -0.7 -15.1 -1.1 -37 -1.1 -38.2 0 -39.7 0.2 -42.3 6.4 -3.2 7.6 -0.9 49.6 3.4 63.1 4.1 12.7 8.4 19.8 16.8 27.5 9.6 8.9 24.2 14.7 42.6 16.9 4 0.5 65.5 0.8 136.7 0.7 l129.5 -0.2 9 -2.3z"/>
  <path d="M1955.5 1998.5 c-1.6 -0.2 -11.3 -0.9 -21.5 -1.5 -40.5 -2.4 -86.8 -8.4 -127.5 -16.5 -24.1 -4.8 -30.4 -6.2 -44 -9.6 -76.4 -19 -141.6 -43.1 -210 -77.4 -34.1 -17.1 -50.8 -26.6 -49.2 -28.1 0.7 -0.6 8.2 -5.3 16.7 -10.4 90.1 -54.3 174.6 -126.8 246.3 -211.4 9.1 -10.7 27.5 -34.2 45.7 -58.6 12.5 -16.7 46.6 -69.3 53.8 -83 0.7 -1.4 3.5 -6.3 6.2 -11 10.8 -18.9 30.7 -57.7 37.4 -73 1.6 -3.6 4.1 -9.2 5.6 -12.5 4 -8.9 8.1 -18.3 10.5 -24.5 1.3 -3 3.9 -9.5 6 -14.5 2 -4.9 4.3 -10.8 5 -13 0.7 -2.2 2.3 -6.5 3.5 -9.5 6.4 -16.5 20.8 -62.2 26.4 -83.5 0.8 -3.3 2.4 -9.4 3.5 -13.5 2 -7.4 3.1 -12.2 7 -29.5 10.1 -44.5 17.8 -97.2 21.3 -145 0.8 -11.6 1.3 -37.4 1.3 -72.5 0 -35.1 -0.5 -60.9 -1.3 -72.5 -3.5 -47.8 -11.2 -100.5 -21.3 -145 -3.9 -17.3 -5 -22.1 -7 -29.5 -1.1 -4.1 -2.7 -10.2 -3.5 -13.5 -5.6 -21.3 -20 -67 -26.4 -83.5 -1.2 -3 -2.8 -7.3 -3.5 -9.5 -0.7 -2.2 -3 -8 -5 -13 -2.1 -4.9 -4.7 -11.5 -6 -14.5 -2.4 -6.2 -6.5 -15.6 -10.5 -24.5 -1.5 -3.3 -4 -8.9 -5.6 -12.5 -6.7 -15.3 -26.6 -54.1 -37.4 -73 -2.7 -4.7 -5.5 -9.6 -6.2 -11 -7.2 -13.7 -41.3 -66.3 -53.8 -83 -18.2 -24.4 -36.6 -47.9 -45.7 -58.6 -71.7 -84.6 -156.2 -157.1 -246.3 -211.4 -8.5 -5.1 -16 -9.8 -16.7 -10.4 -3.3 -3 69.3 -39.6 118.7 -59.9 49.2 -20.2 112.8 -40.2 160 -50.2 81.6 -17.3 135.5 -23 218 -23 72.2 0 112.7 3.5 183 15.9 20 3.5 51.1 10.6 79 17.9 98.2 25.9 203.9 73.9 291.1 132.3 57.7 38.6 104.8 77.2 152.9 125.4 27 27 30.1 30.3 60.9 66 5.6 6.4 39 49.3 44.1 56.6 1.9 2.7 5.2 7.4 7.4 10.4 5.3 7.3 24.5 36.2 28.2 42.3 1.6 2.7 3.7 6.1 4.6 7.5 0.9 1.5 2.3 3.7 3 4.9 0.7 1.3 5.3 9.1 10.2 17.4 4.8 8.3 10.4 18.1 12.4 21.7 2 3.7 5.5 10.3 7.9 14.7 2.3 4.4 7.7 15 11.8 23.5 4.2 8.5 8.2 16.6 8.9 18 2.2 4.1 20.2 45.9 23.9 55.5 8.9 22.5 16.2 42.4 17.7 48 0.4 1.7 1.3 4.4 2 6 0.7 1.7 1.6 4.4 2 6 0.5 1.7 2.5 8.2 4.5 14.5 4.8 15.3 6.6 21.8 14.9 54 9.6 37 19.7 94.7 23.6 135 2.3 23.4 2.9 31.5 4.1 53.5 3.6 65.1 0 137.3 -10.2 204 -4.7 30.5 -11.4 64 -17.5 87.5 -8.3 32.2 -10.1 38.7 -14.9 54 -2 6.3 -4 12.9 -4.5 14.5 -0.4 1.7 -1.3 4.4 -2 6 -0.7 1.7 -1.6 4.4 -2 6 -1.5 5.6 -8.8 25.5 -17.7 48 -3.7 9.6 -21.7 51.4 -23.9 55.5 -0.7 1.4 -4.7 9.5 -8.9 18 -6.7 13.9 -10.3 20.9 -18.5 36 -2.8 5.3 -21.7 37.9 -24.2 41.8 -0.9 1.5 -2.3 3.7 -3 4.9 -4.7 7.9 -8.4 13.6 -17.8 27.8 -5.9 8.8 -12.4 18.5 -14.6 21.5 -2.2 3 -5.5 7.7 -7.4 10.4 -5.1 7.3 -38.5 50.2 -44.1 56.6 -30.8 35.7 -33.9 39 -60.9 66 -77 77.1 -162.2 138.5 -260 187.4 -116 58 -238.5 91.8 -371 102.2 -17.6 1.4 -110.7 2.8 -119.5 1.9z m385.3 -809.1 c5.5 -3.8 5.2 5.3 5.2 -157.5 l0 -150.3 13 21.5 c7.2 11.8 13.4 22.1 14 22.9 3.9 6.3 9.6 15.8 10.3 17 0.4 0.8 1.6 2.9 2.7 4.5 1.1 1.7 2.6 4.2 3.5 5.7 0.8 1.5 9 15 18.2 30 9.1 15 17.3 28.4 18 29.8 0.8 1.4 2.2 3.7 3.1 5.1 0.9 1.5 3.5 5.7 5.7 9.4 5.9 9.9 6 10 21.3 35.2 15.6 25.5 16 26.1 21.7 35.8 2.2 3.7 4.8 7.9 5.7 9.3 0.9 1.5 2.3 3.8 3.1 5.2 0.7 1.4 7.1 12 14.2 23.5 7 11.6 13.5 22.2 14.4 23.7 0.9 1.4 3.6 5.9 6.1 10 2.4 4 5.3 8.9 6.3 10.8 1.1 1.9 2.7 4.3 3.6 5.4 3.9 4.6 4.5 4.6 69.6 4.6 l61.5 0 3.2 -2.9 3.3 -2.9 0 -186.1 0 -186.1 -2.8 -2.7 -2.7 -2.8 -34.3 -0.3 c-31.9 -0.2 -34.4 -0.1 -37.7 1.6 -2.3 1.2 -3.9 3.1 -4.7 5.3 -0.9 2.6 -1.2 39.9 -1.2 153.3 l-0.1 150 -2.7 -4.5 c-1.6 -2.5 -3.4 -5.4 -4 -6.5 -1.1 -1.6 -6 -9.8 -10.1 -16.7 -0.7 -1.2 -2.3 -3.8 -3.5 -5.8 -13.1 -21.6 -27.5 -45.4 -28.7 -47.4 -1.8 -2.9 -28.6 -47.2 -31.5 -52 -1.1 -1.8 -4.5 -7.4 -7.5 -12.5 -3 -5.1 -6.4 -10.7 -7.5 -12.5 -4.3 -7.1 -27.1 -44.6 -28.5 -47 -0.8 -1.4 -8 -13.3 -16 -26.5 -8 -13.1 -15.1 -24.9 -15.8 -26.2 -9.2 -16.5 -28.7 -46.9 -31.7 -49.3 l-3.7 -3 -60.9 -0.3 c-69.1 -0.3 -66.5 -0.6 -69.4 7.1 -1.4 3.8 -1.5 22.7 -1.3 186.7 0.3 171.6 0.4 182.6 2 185 3.5 4.9 4.1 4.9 40.3 5 29.3 0 34.4 -0.2 36.3 -1.6z"/>
  <path d="M1317.3 1189.3 c-1.3 -0.2 -3.2 -1.6 -4.3 -3 -2 -2.6 -2 -3.5 -2 -187.5 l0 -184.9 2.5 -2.3 c1.4 -1.3 3.9 -2.6 5.6 -3 5.7 -1.1 351.1 -0.7 355.2 0.5 2.6 0.7 4.4 2.1 5.7 4.2 1.8 3 2 5.2 2 30 0 30.8 -0.4 32.9 -6.9 34.7 -2.3 0.6 -51.2 1 -140.3 1 l-136.8 0 0 42 0 42 115.3 0 c76.7 0 116.5 0.4 118.9 1.1 6.5 1.7 6.8 3.2 6.8 33.3 0 18.4 -0.4 27.3 -1.2 29.1 -2.6 5.8 3.4 5.5 -123.3 5.5 l-116.5 0 0.2 43.8 0.3 43.7 139 0.5 c76.5 0.3 139.6 0.9 140.4 1.4 3.5 2.3 4.1 7 4.1 33.7 0 29.2 -0.5 31.8 -6.2 33.8 -2.2 0.8 -56.5 1.1 -179.7 1 -97.1 -0.1 -177.6 -0.4 -178.8 -0.6z"/>
 </g>
</svg>