  0
SECTION
  2
HEADER
  9
$ACADVER
  1
AC1009
  9
$EXTMIN
 10
0.0
 20
0.0
 30
0.0
  9
$EXTMAX
 10
1000.0
 20
1000.0
 30
0.0
  9
$FILLMODE
 70
 0
  9
$SPLFRAME
 70
 1
  0
ENDSEC
  0
SECTION
  2
TABLES
  0
TABLE
  2
LAYER
 70
1
  0
LAYER
  2
0
 70
     0
 62
     7
  6
CONTINUOUS
  0
ENDTAB
  0
ENDSEC
  0
SECTION
  2
ENTITIES
  0
LINE
  8
0
 62
     7
 10
9.9496
 20
0.0121528
 30
0.0
 11
9.94542
 21
0.0126953
 31
0.0
  0
LINE
  8
0
 62
     7
 10
9.94542
 20
0.0126953
 30
0.0
 11
9.92247
 21
0.0145942
 31
0.0
  0
LINE
  8
0
 62
     7
 10
9.92247
 20
0.0145942
 30
0.0
 11
9.87115
 21
0.0184463
 31
0.0
  0
LINE
  8
0
 62
     7
 10
9.87115
 20
0.0184463
 30
0.0
 11
9.80306
 21
0.0230035
 31
0.0
  0
LINE
  8
0
 62
     7
 10
9.80306
 20
0.0230035
 30
0.0
 11
9.74496
 21
0.0266928
 31
0.0
  0
LINE
  8
0
 62
     7
 10
9.74496
 20
0.0266928
 30
0.0
 11
9.72564
 21
0.0277778
 31
0.0
  0
LINE
  8
0
 62
     7
 10
9.72564
 20
0.0277778
 30
0.0
 11
9.64404
 21
0.0326064
 31
0.0
  0
LINE
  8
0
 62
     7
 10
9.64404
 20
0.0326064
 30
0.0
 11
9.39974
 21
0.0533311
 31
0.0
  0
LINE
  8
0
 62
     7
 10
9.39974
 20
0.0533311
 30
0.0
 11
9.06233
 21
0.0914714
 31
0.0
  0
LINE
  8
0
 62
     7
 10
9.06233
 20
0.0914714
 30
0.0
 11
8.72456
 21
0.140733
 31
0.0
  0
LINE
  8
0
 62
     7
 10
8.72456
 20
0.140733
 30
0.0
 11
8.47894
 21
0.183485
 31
0.0
  0
LINE
  8
0
 62
     7
 10
8.47894
 20
0.183485
 30
0.0
 11
8.39751
 21
0.199653
 31
0.0
  0
LINE
  8
0
 62
     7
 10
8.39751
 20
0.199653
 30
0.0
 11
8.35807
 21
0.207519
 31
0.0
  0
LINE
  8
0
 62
     7
 10
8.35807
 20
0.207519
 30
0.0
 11
8.23986
 21
0.231446
 31
0.0
  0
LINE
  8
0
 62
     7
 10
8.23986
 20
0.231446
 30
0.0
 11
8.12728
 21
0.255154
 31
0.0
  0
LINE
  8
0
 62
     7
 10
8.12728
 20
0.255154
 30
0.0
 11
8.03521
 21
0.27615
 31
0.0
  0
LINE
  8
0
 62
     7
 10
8.03521
 20
0.27615
 30
0.0
 11
7.96311
 21
0.293674
 31
0.0
  0
LINE
  8
0
 62
     7
 10
7.96311
 20
0.293674
 30
0.0
 11
7.93918
 21
0.299642
 31
0.0
  0
LINE
  8
0
 62
     7
 10
7.93918
 20
0.299642
 30
0.0
 11
7.79736
 21
0.335015
 31
0.0
  0
LINE
  8
0
 62
     7
 10
7.79736
 20
0.335015
 30
0.0
 11
7.37537
 21
0.454699
 31
0.0
  0
LINE
  8
0
 62
     7
 10
7.37537
 20
0.454699
 30
0.0
 11
6.84369
 21
0.631999
 31
0.0
  0
LINE
  8
0
 62
     7
 10
6.84369
 20
0.631999
 30
0.0
 11
6.3259
 21
0.838162
 31
0.0
  0
LINE
  8
0
 62
     7
 10
6.3259
 20
0.838162
 30
0.0
 11
5.93267
 21
1.01628
 31
0.0
  0
LINE
  8
0
 62
     7
 10
5.93267
 20
1.01628
 30
0.0
 11
5.80376
 21
1.07986
 31
0.0
  0
LINE
  8
0
 62
     7
 10
5.80376
 20
1.07986
 30
0.0
 11
5.68983
 21
1.13618
 31
0.0
  0
LINE
  8
0
 62
     7
 10
5.68983
 20
1.13618
 30
0.0
 11
5.35335
 21
1.31554
 31
0.0
  0
LINE
  8
0
 62
     7
 10
5.35335
 20
1.31554
 30
0.0
 11
4.92404
 21
1.56739
 31
0.0
  0
LINE
  8
0
 62
     7
 10
4.92404
 20
1.56739
 30
0.0
 11
4.50879
 21
1.83957
 31
0.0
  0
LINE
  8
0
 62
     7
 10
4.50879
 20
1.83957
 30
0.0
 11
4.2009
 21
2.05974
 31
0.0
  0
LINE
  8
0
 62
     7
 10
4.2009
 20
2.05974
 30
0.0
 11
4.10064
 21
2.13612
 31
0.0
  0
LINE
  8
0
 62
     7
 10
4.10064
 20
2.13612
 30
0.0
 11
4.01025
 21
2.20514
 31
0.0
  0
LINE
  8
0
 62
     7
 10
4.01025
 20
2.20514
 30
0.0
 11
3.57835
 21
2.56256
 31
0.0
  0
LINE
  8
0
 62
     7
 10
3.57835
 20
2.56256
 30
0.0
 11
3.16575
 21
2.94239
 31
0.0
  0
LINE
  8
0
 62
     7
 10
3.16575
 20
2.94239
 30
0.0
 11
3.08501
 21
3.02257
 31
0.0
  0
LINE
  8
0
 62
     7
 10
3.08501
 20
3.02257
 30
0.0
 11
3.06293
 21
3.04454
 31
0.0
  0
LINE
  8
0
 62
     7
 10
3.06293
 20
3.04454
 30
0.0
 11
2.99707
 21
3.11068
 31
0.0
  0
LINE
  8
0
 62
     7
 10
2.99707
 20
3.11068
 30
0.0
 11
2.91726
 21
3.192
 31
0.0
  0
LINE
  8
0
 62
     7
 10
2.91726
 20
3.192
 30
0.0
 11
2.8425
 21
3.26986
 31
0.0
  0
LINE
  8
0
 62
     7
 10
2.8425
 20
3.26986
 30
0.0
 11
2.76975
 21
3.34744
 31
0.0
  0
LINE
  8
0
 62
     7
 10
2.76975
 20
3.34744
 30
0.0
 11
2.69596
 21
3.42817
 31
0.0
  0
LINE
  8
0
 62
     7
 10
2.69596
 20
3.42817
 30
0.0
 11
2.61811
 21
3.51519
 31
0.0
  0
LINE
  8
0
 62
     7
 10
2.61811
 20
3.51519
 30
0.0
 11
2.53315
 21
3.61193
 31
0.0
  0
LINE
  8
0
 62
     7
 10
2.53315
 20
3.61193
 30
0.0
 11
2.46175
 21
3.69412
 31
0.0
  0
LINE
  8
0
 62
     7
 10
2.46175
 20
3.69412
 30
0.0
 11
2.4381
 21
3.72151
 31
0.0
  0
LINE
  8
0
 62
     7
 10
2.4381
 20
3.72151
 30
0.0
 11
2.42914
 21
3.73204
 31
0.0
  0
LINE
  8
0
 62
     7
 10
2.42914
 20
3.73204
 30
0.0
 11
2.4031
 21
3.76421
 31
0.0
  0
LINE
  8
0
 62
     7
 10
2.4031
 20
3.76421
 30
0.0
 11
2.34793
 21
3.83339
 31
0.0
  0
LINE
  8
0
 62
     7
 10
2.34793
 20
3.83339
 30
0.0
 11
2.27946
 21
3.92019
 31
0.0
  0
LINE
  8
0
 62
     7
 10
2.27946
 20
3.92019
 30
0.0
 11
2.20449
 21
4.01606
 31
0.0
  0
LINE
  8
0
 62
     7
 10
2.20449
 20
4.01606
 30
0.0
 11
2.12983
 21
4.11225
 31
0.0
  0
LINE
  8
0
 62
     7
 10
2.12983
 20
4.11225
 30
0.0
 11
2.06222
 21
4.19997
 31
0.0
  0
LINE
  8
0
 62
     7
 10
2.06222
 20
4.19997
 30
0.0
 11
2.00857
 21
4.27056
 31
0.0
  0
LINE
  8
0
 62
     7
 10
2.00857
 20
4.27056
 30
0.0
 11
1.98361
 21
4.30393
 31
0.0
  0
LINE
  8
0
 62
     7
 10
1.98361
 20
4.30393
 30
0.0
 11
1.97564
 21
4.31526
 31
0.0
  0
LINE
  8
0
 62
     7
 10
1.97564
 20
4.31526
 30
0.0
 11
1.97071
 21
4.32232
 31
0.0
  0
LINE
  8
0
 62
     7
 10
1.97071
 20
4.32232
 30
0.0
 11
1.95589
 21
4.34337
 31
0.0
  0
LINE
  8
0
 62
     7
 10
1.95589
 20
4.34337
 30
0.0
 11
1.92871
 21
4.382
 31
0.0
  0
LINE
  8
0
 62
     7
 10
1.92871
 20
4.382
 30
0.0
 11
1.89768
 21
4.42606
 31
0.0
  0
LINE
  8
0
 62
     7
 10
1.89768
 20
4.42606
 30
0.0
 11
1.87408
 21
4.45942
 31
0.0
  0
LINE
  8
0
 62
     7
 10
1.87408
 20
4.45942
 30
0.0
 11
1.86626
 21
4.47049
 31
0.0
  0
LINE
  8
0
 62
     7
 10
1.86626
 20
4.47049
 30
0.0
 11
1.85157
 21
4.49138
 31
0.0
  0
LINE
  8
0
 62
     7
 10
1.85157
 20
4.49138
 30
0.0
 11
1.80849
 21
4.55464
 31
0.0
  0
LINE
  8
0
 62
     7
 10
1.80849
 20
4.55464
 30
0.0
 11
1.73921
 21
4.65853
 31
0.0
  0
LINE
  8
0
 62
     7
 10
1.73921
 20
4.65853
 30
0.0
 11
1.66428
 21
4.77306
 31
0.0
  0
LINE
  8
0
 62
     7
 10
1.66428
 20
4.77306
 30
0.0
 11
1.58968
 21
4.88883
 31
0.0
  0
LINE
  8
0
 62
     7
 10
1.58968
 20
4.88883
 30
0.0
 11
1.52132
 21
4.99669
 31
0.0
  0
LINE
  8
0
 62
     7
 10
1.52132
 20
4.99669
 30
0.0
 11
1.46517
 21
5.08735
 31
0.0
  0
LINE
  8
0
 62
     7
 10
1.46517
 20
5.08735
 30
0.0
 11
1.42714
 21
5.15147
 31
0.0
  0
LINE
  8
0
 62
     7
 10
1.42714
 20
5.15147
 30
0.0
 11
1.41314
 21
5.17279
 31
0.0
  0
LINE
  8
0
 62
     7
 10
1.41314
 20
5.17279
 30
0.0
 11
1.41314
 21
5.17985
 31
0.0
  0
LINE
  8
0
 62
     7
 10
1.41314
 20
5.17985
 30
0.0
 11
1.41314
 21
5.17985
 31
0.0
  0
LINE
  8
0
 62
     7
 10
1.41314
 20
5.17985
 30
0.0
 11
1.40907
 21
5.18815
 31
0.0
  0
LINE
  8
0
 62
     7
 10
1.40907
 20
5.18815
 30
0.0
 11
1.39811
 21
5.2079
 31
0.0
  0
LINE
  8
0
 62
     7
 10
1.39811
 20
5.2079
 30
0.0
 11
1.38189
 21
5.236
 31
0.0
  0
LINE
  8
0
 62
     7
 10
1.38189
 20
5.236
 30
0.0
 11
1.36708
 21
5.26112
 31
0.0
  0
LINE
  8
0
 62
     7
 10
1.36708
 20
5.26112
 30
0.0
 11
1.36209
 21
5.26942
 31
0.0
  0
LINE
  8
0
 62
     7
 10
1.36209
 20
5.26942
 30
0.0
 11
1.33626
 21
5.31353
 31
0.0
  0
LINE
  8
0
 62
     7
 10
1.33626
 20
5.31353
 30
0.0
 11
1.26172
 21
5.44743
 31
0.0
  0
LINE
  8
0
 62
     7
 10
1.26172
 20
5.44743
 30
0.0
 11
1.1588
 21
5.64258
 31
0.0
  0
LINE
  8
0
 62
     7
 10
1.1588
 20
5.64258
 30
0.0
 11
1.05528
 21
5.85069
 31
0.0
  0
LINE
  8
0
 62
     7
 10
1.05528
 20
5.85069
 30
0.0
 11
0.953179
 21
6.06765
 31
0.0
  0
LINE
  8
0
 62
     7
 10
0.953179
 20
6.06765
 30
0.0
 11
0.854383
 21
6.28917
 31
0.0
  0
LINE
  8
0
 62
     7
 10
0.854383
 20
6.28917
 30
0.0
 11
0.760906
 21
6.51107
 31
0.0
  0
LINE
  8
0
 62
     7
 10
0.760906
 20
6.51107
 30
0.0
 11
0.674588
 21
6.72917
 31
0.0
  0
LINE
  8
0
 62
     7
 10
0.674588
 20
6.72917
 30
0.0
 11
0.615994
 21
6.8865
 31
0.0
  0
LINE
  8
0
 62
     7
 10
0.615994
 20
6.8865
 30
0.0
 11
0.597493
 21
6.93924
 31
0.0
  0
LINE
  8
0
 62
     7
 10
0.597493
 20
6.93924
 30
0.0
 11
0.586535
 21
6.97011
 31
0.0
  0
LINE
  8
0
 62
     7
 10
0.586535
 20
6.97011
 30
0.0
 11
0.55485
 21
7.06321
 31
0.0
  0
LINE
  8
0
 62
     7
 10
0.55485
 20
7.06321
 30
0.0
 11
0.508137
 21
7.20486
 31
0.0
  0
LINE
  8
0
 62
     7
 10
0.508137
 20
7.20486
 30
0.0
 11
0.464193
 21
7.34267
 31
0.0
  0
LINE
  8
0
 62
     7
 10
0.464193
 20
7.34267
 30
0.0
 11
0.438097
 21
7.42676
 31
0.0
  0
LINE
  8
0
 62
     7
 10
0.438097
 20
7.42676
 30
0.0
 11
0.429796
 21
7.45486
 31
0.0
  0
LINE
  8
0
 62
     7
 10
0.429796
 20
7.45486
 30
0.0
 11
0.427681
 21
7.46268
 31
0.0
  0
LINE
  8
0
 62
     7
 10
0.427681
 20
7.46268
 30
0.0
 11
0.412706
 21
7.51503
 31
0.0
  0
LINE
  8
0
 62
     7
 10
0.412706
 20
7.51503
 30
0.0
 11
0.396158
 21
7.57053
 31
0.0
  0
LINE
  8
0
 62
     7
 10
0.396158
 20
7.57053
 30
0.0
 11
0.393337
 21
7.57986
 31
0.0
  0
LINE
  8
0
 62
     7
 10
0.393337
 20
7.57986
 30
0.0
 11
0.386393
 21
7.60325
 31
0.0
  0
LINE
  8
0
 62
     7
 10
0.386393
 20
7.60325
 30
0.0
 11
0.366917
 21
7.67372
 31
0.0
  0
LINE
  8
0
 62
     7
 10
0.366917
 20
7.67372
 30
0.0
 11
0.337782
 21
7.78549
 31
0.0
  0
LINE
  8
0
 62
     7
 10
0.337782
 20
7.78549
 30
0.0
 11
0.307075
 21
7.91032
 31
0.0
  0
LINE
  8
0
 62
     7
 10
0.307075
 20
7.91032
 30
0.0
 11
0.275879
 21
8.04329
 31
0.0
  0
LINE
  8
0
 62
     7
 10
0.275879
 20
8.04329
 30
0.0
 11
0.245335
 21
8.17958
 31
0.0
  0
LINE
  8
0
 62
     7
 10
0.245335
 20
8.17958
 30
0.0
 11
0.216635
 21
8.31424
 31
0.0
  0
LINE
  8
0
 62
     7
 10
0.216635
 20
8.31424
 30
0.0
 11
0.190918
 21
8.44233
 31
0.0
  0
LINE
  8
0
 62
     7
 10
0.190918
 20
8.44233
 30
0.0
 11
0.174479
 21
8.52983
 31
0.0
  0
LINE
  8
0
 62
     7
 10
0.174479
 20
8.52983
 30
0.0
 11
0.169379
 21
8.55903
 31
0.0
  0
LINE
  8
0
 62
     7
 10
0.169379
 20
8.55903
 30
0.0
 11
0.145887
 21
8.69206
 31
0.0
  0
LINE
  8
0
 62
     7
 10
0.145887
 20
8.69206
 30
0.0
 11
0.0887587
 21
9.09338
 31
0.0
  0
LINE
  8
0
 62
     7
 10
0.0887587
 20
9.09338
 30
0.0
 11
0.0351019
 21
9.62907
 31
0.0
  0
LINE
  8
0
 62
     7
 10
0.0351019
 20
9.62907
 30
0.0
 11
0.00846354
 21
10.1647
 31
0.0
  0
LINE
  8
0
 62
     7
 10
0.00846354
 20
10.1647
 30
0.0
 11
0.00868056
 21
10.6989
 31
0.0
  0
LINE
  8
0
 62
     7
 10
0.00868056
 20
10.6989
 30
0.0
 11
0.0357531
 21
11.2303
 31
0.0
  0
LINE
  8
0
 62
     7
 10
0.0357531
 20
11.2303
 30
0.0
 11
0.089681
 21
11.7574
 31
0.0
  0
LINE
  8
0
 62
     7
 10
0.089681
 20
11.7574
 30
0.0
 11
0.170301
 21
12.2789
 31
0.0
  0
LINE
  8
0
 62
     7
 10
0.170301
 20
12.2789
 30
0.0
 11
0.247504
 21
12.6656
 31
0.0
  0
LINE
  8
0
 62
     7
 10
0.247504
 20
12.6656
 30
0.0
 11
0.277724
 21
12.7934
 31
0.0
  0
LINE
  8
0
 62
     7
 10
0.277724
 20
12.7934
 30
0.0
 11
0.285047
 21
12.8245
 31
0.0
  0
LINE
  8
0
 62
     7
 10
0.285047
 20
12.8245
 30
0.0
 11
0.307781
 21
12.9179
 31
0.0
  0
LINE
  8
0
 62
     7
 10
0.307781
 20
12.9179
 30
0.0
 11
0.340983
 21
13.0505
 31
0.0
  0
LINE
  8
0
 62
     7
 10
0.340983
 20
13.0505
 30
0.0
 11
0.371419
 21
13.1679
 31
0.0
  0
LINE
  8
0
 62
     7
 10
0.371419
 20
13.1679
 30
0.0
 11
0.388129
 21
13.2294
 31
0.0
  0
LINE
  8
0
 62
     7
 10
0.388129
 20
13.2294
 30
0.0
 11
0.393337
 21
13.2465
 31
0.0
  0
LINE
  8
0
 62
     7
 10
0.393337
 20
13.2465
 30
0.0
 11
0.396158
 21
13.2559
 31
0.0
  0
LINE
  8
0
 62
     7
 10
0.396158
 20
13.2559
 30
0.0
 11
0.412706
 21
13.3114
 31
0.0
  0
LINE
  8
0
 62
     7
 10
0.412706
 20
13.3114
 30
0.0
 11
0.427681
 21
13.3637
 31
0.0
  0
LINE
  8
0
 62
     7
 10
0.427681
 20
13.3637
 30
0.0
 11
0.429796
 21
13.3715
 31
0.0
  0
LINE
  8
0
 62
     7
 10
0.429796
 20
13.3715
 30
0.0
 11
0.442492
 21
13.4149
 31
0.0
  0
LINE
  8
0
 62
     7
 10
0.442492
 20
13.4149
 30
0.0
 11
0.482856
 21
13.5445
 31
0.0
  0
LINE
  8
0
 62
     7
 10
0.482856
 20
13.5445
 30
0.0
 11
0.545899
 21
13.737
 31
0.0
  0
LINE
  8
0
 62
     7
 10
0.545899
 20
13.737
 30
0.0
 11
0.610514
 21
13.9239
 31
0.0
  0
LINE
  8
0
 62
     7
 10
0.610514
 20
13.9239
 30
0.0
 11
0.653212
 21
14.0411
 31
0.0
  0
LINE
  8
0
 62
     7
 10
0.653212
 20
14.0411
 30
0.0
 11
0.668349
 21
14.0799
 31
0.0
  0
LINE
  8
0
 62
     7
 10
0.668349
 20
14.0799
 30
0.0
 11
0.682781
 21
14.1171
 31
0.0
  0
LINE
  8
0
 62
     7
 10
0.682781
 20
14.1171
 30
0.0
 11
0.726508
 21
14.2285
 31
0.0
  0
LINE
  8
0
 62
     7
 10
0.726508
 20
14.2285
 30
0.0
 11
0.778213
 21
14.3576
 31
0.0
  0
LINE
  8
0
 62
     7
 10
0.778213
 20
14.3576
 30
0.0
 11
0.825683
 21
14.4728
 31
0.0
  0
LINE
  8
0
 62
     7
 10
0.825683
 20
14.4728
 30
0.0
 11
0.871039
 21
14.5789
 31
0.0
  0
LINE
  8
0
 62
     7
 10
0.871039
 20
14.5789
 30
0.0
 11
0.91645
 21
14.6808
 31
0.0
  0
LINE
  8
0
 62
     7
 10
0.91645
 20
14.6808
 30
0.0
 11
0.964085
 21
14.7836
 31
0.0
  0
LINE
  8
0
 62
     7
 10
0.964085
 20
14.7836
 30
0.0
 11
1.01606
 21
14.8924
 31
0.0
  0
LINE
  8
0
 62
     7
 10
1.01606
 20
14.8924
 30
0.0
 11
1.05984
 21
14.9822
 31
0.0
  0
LINE
  8
0
 62
     7
 10
1.05984
 20
14.9822
 30
0.0
 11
1.0746
 21
15.0122
 31
0.0
  0
LINE
  8
0
 62
     7
 10
1.0746
 20
15.0122
 30
0.0
 11
1.09663
 21
15.0565
 31
0.0
  0
LINE
  8
0
 62
     7
 10
1.09663
 20
15.0565
 30
0.0
 11
1.16341
 21
15.1892
 31
0.0
  0
LINE
  8
0
 62
     7
 10
1.16341
 20
15.1892
 30
0.0
 11
1.23551
 21
15.3288
 31
0.0
  0
LINE
  8
0
 62
     7
 10
1.23551
 20
15.3288
 30
0.0
 11
1.29899
 21
15.4463
 31
0.0
  0
LINE
  8
0
 62
     7
 10
1.29899
 20
15.4463
 30
0.0
 11
1.34603
 21
15.5294
 31
0.0
  0
LINE
  8
0
 62
     7
 10
1.34603
 20
15.5294
 30
0.0
 11
1.36209
 21
15.5569
 31
0.0
  0
LINE
  8
0
 62
     7
 10
1.36209
 20
15.5569
 30
0.0
 11
1.36708
 21
15.5653
 31
0.0
  0
LINE
  8
0
 62
     7
 10
1.36708
 20
15.5653
 30
0.0
 11
1.38189
 21
15.5904
 31
0.0
  0
LINE
  8
0
 62
     7
 10
1.38189
 20
15.5904
 30
0.0
 11
1.39811
 21
15.6186
 31
0.0
  0
LINE
  8
0
 62
     7
 10
1.39811
 20
15.6186
 30
0.0
 11
1.40907
 21
15.6383
 31
0.0
  0
LINE
  8
0
 62
     7
 10
1.40907
 20
15.6383
 30
0.0
 11
1.41314
 21
15.6444
 31
0.0
  0
LINE
  8
0
 62
     7
 10
1.41314
 20
15.6444
 30
0.0
 11
1.41314
 21
15.6465
 31
0.0
  0
LINE
  8
0
 62
     7
 10
1.41314
 20
15.6465
 30
0.0
 11
1.41314
 21
15.6536
 31
0.0
  0
LINE
  8
0
 62
     7
 10
1.41314
 20
15.6536
 30
0.0
 11
1.42714
 21
15.675
 31
0.0
  0
LINE
  8
0
 62
     7
 10
1.42714
 20
15.675
 30
0.0
 11
1.46517
 21
15.739
 31
0.0
  0
LINE
  8
0
 62
     7
 10
1.46517
 20
15.739
 30
0.0
 11
1.52132
 21
15.8297
 31
0.0
  0
LINE
  8
0
 62
     7
 10
1.52132
 20
15.8297
 30
0.0
 11
1.58968
 21
15.9376
 31
0.0
  0
LINE
  8
0
 62
     7
 10
1.58968
 20
15.9376
 30
0.0
 11
1.66428
 21
16.0533
 31
0.0
  0
LINE
  8
0
 62
     7
 10
1.66428
 20
16.0533
 30
0.0
 11
1.73921
 21
16.1679
 31
0.0
  0
LINE
  8
0
 62
     7
 10
1.73921
 20
16.1679
 30
0.0
 11
1.80849
 21
16.2718
 31
0.0
  0
LINE
  8
0
 62
     7
 10
1.80849
 20
16.2718
 30
0.0
 11
1.85157
 21
16.3351
 31
0.0
  0
LINE
  8
0
 62
     7
 10
1.85157
 20
16.3351
 30
0.0
 11
1.86626
 21
16.356
 31
0.0
  0
LINE
  8
0
 62
     7
 10
1.86626
 20
16.356
 30
0.0
 11
1.87414
 21
16.3671
 31
0.0
  0
LINE
  8
0
 62
     7
 10
1.87414
 20
16.3671
 30
0.0
 11
1.89768
 21
16.4004
 31
0.0
  0
LINE
  8
0
 62
     7
 10
1.89768
 20
16.4004
 30
0.0
 11
1.92871
 21
16.4444
 31
0.0
  0
LINE
  8
0
 62
     7
 10
1.92871
 20
16.4444
 30
0.0
 11
1.95589
 21
16.4831
 31
0.0
  0
LINE
  8
0
 62
     7
 10
1.95589
 20
16.4831
 30
0.0
 11
1.97071
 21
16.5042
 31
0.0
  0
LINE
  8
0
 62
     7
 10
1.97071
 20
16.5042
 30
0.0
 11
1.97564
 21
16.5111
 31
0.0
  0
LINE
  8
0
 62
     7
 10
1.97564
 20
16.5111
 30
0.0
 11
1.98361
 21
16.5225
 31
0.0
  0
LINE
  8
0
 62
     7
 10
1.98361
 20
16.5225
 30
0.0
 11
2.00857
 21
16.5558
 31
0.0
  0
LINE
  8
0
 62
     7
 10
2.00857
 20
16.5558
 30
0.0
 11
2.06222
 21
16.6265
 31
0.0
  0
LINE
  8
0
 62
     7
 10
2.06222
 20
16.6265
 30
0.0
 11
2.12983
 21
16.7142
 31
0.0
  0
LINE
  8
0
 62
     7
 10
2.12983
 20
16.7142
 30
0.0
 11
2.20449
 21
16.8104
 31
0.0
  0
LINE
  8
0
 62
     7
 10
2.20449
 20
16.8104
 30
0.0
 11
2.27946
 21
16.9063
 31
0.0
  0
LINE
  8
0
 62
     7
 10
2.27946
 20
16.9063
 30
0.0
 11
2.34793
 21
16.9931
 31
0.0
  0
LINE
  8
0
 62
     7
 10
2.34793
 20
16.9931
 30
0.0
 11
2.4031
 21
17.0622
 31
0.0
  0
LINE
  8
0
 62
     7
 10
2.4031
 20
17.0622
 30
0.0
 11
2.42914
 21
17.0944
 31
0.0
  0
LINE
  8
0
 62
     7
 10
2.42914
 20
17.0944
 30
0.0
 11
2.4381
 21
17.1049
 31
0.0
  0
LINE
  8
0
 62
     7
 10
2.4381
 20
17.1049
 30
0.0
 11
2.46175
 21
17.1324
 31
0.0
  0
LINE
  8
0
 62
     7
 10
2.46175
 20
17.1324
 30
0.0
 11
2.53315
 21
17.2146
 31
0.0
  0
LINE
  8
0
 62
     7
 10
2.53315
 20
17.2146
 30
0.0
 11
2.61811
 21
17.3113
 31
0.0
  0
LINE
  8
0
 62
     7
 10
2.61811
 20
17.3113
 30
0.0
 11
2.69596
 21
17.3983
 31
0.0
  0
LINE
  8
0
 62
     7
 10
2.69596
 20
17.3983
 30
0.0
 11
2.76975
 21
17.479
 31
0.0
  0
LINE
  8
0
 62
     7
 10
2.76975
 20
17.479
 30
0.0
 11
2.8425
 21
17.5565
 31
0.0
  0
LINE
  8
0
 62
     7
 10
2.8425
 20
17.5565
 30
0.0
 11
2.91726
 21
17.6344
 31
0.0
  0
LINE
  8
0
 62
     7
 10
2.91726
 20
17.6344
 30
0.0
 11
2.99707
 21
17.7158
 31
0.0
  0
LINE
  8
0
 62
     7
 10
2.99707
 20
17.7158
 30
0.0
 11
3.06293
 21
17.7819
 31
0.0
  0
LINE
  8
0
 62
     7
 10
3.06293
 20
17.7819
 30
0.0
 11
3.08501
 21
17.8039
 31
0.0
  0
LINE
  8
0
 62
     7
 10
3.08501
 20
17.8039
 30
0.0
 11
3.1441
 21
17.8624
 31
0.0
  0
LINE
  8
0
 62
     7
 10
3.1441
 20
17.8624
 30
0.0
 11
3.44814
 21
18.1479
 31
0.0
  0
LINE
  8
0
 62
     7
 10
3.44814
 20
18.1479
 30
0.0
 11
3.76101
 21
18.4204
 31
0.0
  0
LINE
  8
0
 62
     7
 10
3.76101
 20
18.4204
 30
0.0
 11
3.8246
 21
18.4725
 31
0.0
  0
LINE
  8
0
 62
     7
 10
3.8246
 20
18.4725
 30
0.0
 11
3.92551
 21
18.5551
 31
0.0
  0
LINE
  8
0
 62
     7
 10
3.92551
 20
18.5551
 30
0.0
 11
4.23671
 21
18.7928
 31
0.0
  0
LINE
  8
0
 62
     7
 10
4.23671
 20
18.7928
 30
0.0
 11
4.66581
 21
19.0924
 31
0.0
  0
LINE
  8
0
 62
     7
 10
4.66581
 20
19.0924
 30
0.0
 11
5.10997
 21
19.3707
 31
0.0
  0
LINE
  8
0
 62
     7
 10
5.10997
 20
19.3707
 30
0.0
 11
5.56754
 21
19.6267
 31
0.0
  0
LINE
  8
0
 62
     7
 10
5.56754
 20
19.6267
 30
0.0
 11
6.03674
 21
19.8593
 31
0.0
  0
LINE
  8
0
 62
     7
 10
6.03674
 20
19.8593
 30
0.0
 11
6.51579
 21
20.0676
 31
0.0
  0
LINE
  8
0
 62
     7
 10
6.51579
 20
20.0676
 30
0.0
 11
7.00293
 21
20.2508
 31
0.0
  0
LINE
  8
0
 62
     7
 10
7.00293
 20
20.2508
 30
0.0
 11
7.37213
 21
20.3719
 31
0.0
  0
LINE
  8
0
 62
     7
 10
7.37213
 20
20.3719
 30
0.0
 11
7.49647
 21
20.4081
 31
0.0
  0
LINE
  8
0
 62
     7
 10
7.49647
 20
20.4081
 30
0.0
 11
7.5395
 21
20.4204
 31
0.0
  0
LINE
  8
0
 62
     7
 10
7.5395
 20
20.4204
 30
0.0
 11
7.66911
 21
20.4564
 31
0.0
  0
LINE
  8
0
 62
     7
 10
7.66911
 20
20.4564
 30
0.0
 11
7.84511
 21
20.5031
 31
0.0
  0
LINE
  8
0
 62
     7
 10
7.84511
 20
20.5031
 30
0.0
 11
8.00825
 21
20.5439
 31
0.0
  0
LINE
  8
0
 62
     7
 10
8.00825
 20
20.5439
 30
0.0
 11
8.10867
 21
20.5675
 31
0.0
  0
LINE
  8
0
 62
     7
 10
8.10867
 20
20.5675
 30
0.0
 11
8.14231
 21
20.5747
 31
0.0
  0
LINE
  8
0
 62
     7
 10
8.14231
 20
20.5747
 30
0.0
 11
8.21869
 21
20.5908
 31
0.0
  0
LINE
  8
0
 62
     7
 10
8.21869
 20
20.5908
 30
0.0
 11
8.44863
 21
20.6367
 31
0.0
  0
LINE
  8
0
 62
     7
 10
8.44863
 20
20.6367
 30
0.0
 11
8.73486
 21
20.6882
 31
0.0
  0
LINE
  8
0
 62
     7
 10
8.73486
 20
20.6882
 30
0.0
 11
9.00771
 21
20.7297
 31
0.0
  0
LINE
  8
0
 62
     7
 10
9.00771
 20
20.7297
 30
0.0
 11
9.27419
 21
20.7621
 31
0.0
  0
LINE
  8
0
 62
     7
 10
9.27419
 20
20.7621
 30
0.0
 11
9.54107
 21
20.786
 31
0.0
  0
LINE
  8
0
 62
     7
 10
9.54107
 20
20.786
 30
0.0
 11
9.81526
 21
20.8022
 31
0.0
  0
LINE
  8
0
 62
     7
 10
9.81526
 20
20.8022
 30
0.0
 11
10.1037
 21
20.8114
 31
0.0
  0
LINE
  8
0
 62
     7
 10
10.1037
 20
20.8114
 30
0.0
 11
10.3358
 21
20.8143
 31
0.0
  0
LINE
  8
0
 62
     7
 10
10.3358
 20
20.8143
 30
0.0
 11
10.4131
 21
20.8143
 31
0.0
  0
LINE
  8
0
 62
     7
 10
10.4131
 20
20.8143
 30
0.0
 11
10.4801
 21
20.8143
 31
0.0
  0
LINE
  8
0
 62
     7
 10
10.4801
 20
20.8143
 30
0.0
 11
10.6809
 21
20.8125
 31
0.0
  0
LINE
  8
0
 62
     7
 10
10.6809
 20
20.8125
 30
0.0
 11
10.9252
 21
20.8065
 31
0.0
  0
LINE
  8
0
 62
     7
 10
10.9252
 20
20.8065
 30
0.0
 11
11.1537
 21
20.7958
 31
0.0
  0
LINE
  8
0
 62
     7
 10
11.1537
 20
20.7958
 30
0.0
 11
11.3736
 21
20.7799
 31
0.0
  0
LINE
  8
0
 62
     7
 10
11.3736
 20
20.7799
 30
0.0
 11
11.5927
 21
20.7578
 31
0.0
  0
LINE
  8
0
 62
     7
 10
11.5927
 20
20.7578
 30
0.0
 11
11.8183
 21
20.729
 31
0.0
  0
LINE
  8
0
 62
     7
 10
11.8183
 20
20.729
 30
0.0
 11
12.0581
 21
20.6928
 31
0.0
  0
LINE
  8
0
 62
     7
 10
12.0581
 20
20.6928
 30
0.0
 11
12.2541
 21
20.6601
 31
0.0
  0
LINE
  8
0
 62
     7
 10
12.2541
 20
20.6601
 30
0.0
 11
12.3194
 21
20.6486
 31
0.0
  0
LINE
  8
0
 62
     7
 10
12.3194
 20
20.6486
 30
0.0
 11
12.3634
 21
20.641
 31
0.0
  0
LINE
  8
0
 62
     7
 10
12.3634
 20
20.641
 30
0.0
 11
12.495
 21
20.6149
 31
0.0
  0
LINE
  8
0
 62
     7
 10
12.495
 20
20.6149
 30
0.0
 11
12.7
 21
20.5703
 31
0.0
  0
LINE
  8
0
 62
     7
 10
12.7
 20
20.5703
 30
0.0
 11
12.9204
 21
20.5182
 31
0.0
  0
LINE
  8
0
 62
     7
 10
12.9204
 20
20.5182
 30
0.0
 11
13.0869
 21
20.4767
 31
0.0
  0
LINE
  8
0
 62
     7
 10
13.0869
 20
20.4767
 30
0.0
 11
13.1423
 21
20.4621
 31
0.0
  0
LINE
  8
0
 62
     7
 10
13.1423
 20
20.4621
 30
0.0
 11
13.2075
 21
20.4449
 31
0.0
  0
LINE
  8
0
 62
     7
 10
13.2075
 20
20.4449
 30
0.0
 11
13.4017
 21
20.3878
 31
0.0
  0
LINE
  8
0
 62
     7
 10
13.4017
 20
20.3878
 30
0.0
 11
13.6886
 21
20.2961
 31
0.0
  0
LINE
  8
0
 62
     7
 10
13.6886
 20
20.2961
 30
0.0
 11
13.9811
 21
20.1946
 31
0.0
  0
LINE
  8
0
 62
     7
 10
13.9811
 20
20.1946
 30
0.0
 11
14.1883
 21
20.1175
 31
0.0
  0
LINE
  8
0
 62
     7
 10
14.1883
 20
20.1175
 30
0.0
 11
14.2569
 21
20.0903
 31
0.0
  0
LINE
  8
0
 62
     7
 10
14.2569
 20
20.0903
 30
0.0
 11
14.3308
 21
20.0611
 31
0.0
  0
LINE
  8
0
 62
     7
 10
14.3308
 20
20.0611
 30
0.0
 11
14.5506
 21
19.9671
 31
0.0
  0
LINE
  8
0
 62
     7
 10
14.5506
 20
19.9671
 30
0.0
 11
14.8693
 21
19.8213
 31
0.0
  0
LINE
  8
0
 62
     7
 10
14.8693
 20
19.8213
 30
0.0
 11
15.1831
 21
19.6672
 31
0.0
  0
LINE
  8
0
 62
     7
 10
15.1831
 20
19.6672
 30
0.0
 11
15.3931
 21
19.5578
 31
0.0
  0
LINE
  8
0
 62
     7
 10
15.3931
 20
19.5578
 30
0.0
 11
15.4621
 21
19.5194
 31
0.0
  0
LINE
  8
0
 62
     7
 10
15.4621
 20
19.5194
 30
0.0
 11
15.6111
 21
19.4372
 31
0.0
  0
LINE
  8
0
 62
     7
 10
15.6111
 20
19.4372
 30
0.0
 11
15.4767
 21
19.3579
 31
0.0
  0
LINE
  8
0
 62
     7
 10
15.4767
 20
19.3579
 30
0.0
 11
15.3676
 21
19.2932
 31
0.0
  0
LINE
  8
0
 62
     7
 10
15.3676
 20
19.2932
 30
0.0
 11
15.0482
 21
19.0861
 31
0.0
  0
LINE
  8
0
 62
     7
 10
15.0482
 20
19.0861
 30
0.0
 11
14.6151
 21
18.779
 31
0.0
  0
LINE
  8
0
 62
     7
 10
14.6151
 20
18.779
 30
0.0
 11
14.1946
 21
18.4499
 31
0.0
  0
LINE
  8
0
 62
     7
 10
14.1946
 20
18.4499
 30
0.0
 11
13.899
 21
18.1985
 31
0.0
  0
LINE
  8
0
 62
     7
 10
13.899
 20
18.1985
 30
0.0
 11
13.8038
 21
18.1111
 31
0.0
  0
LINE
  8
0
 62
     7
 10
13.8038
 20
18.1111
 30
0.0
 11
13.7879
 21
18.0965
 31
0.0
  0
LINE
  8
0
 62
     7
 10
13.7879
 20
18.0965
 30
0.0
 11
13.7408
 21
18.0521
 31
0.0
  0
LINE
  8
0
 62
     7
 10
13.7408
 20
18.0521
 30
0.0
 11
13.6618
 21
17.9763
 31
0.0
  0
LINE
  8
0
 62
     7
 10
13.6618
 20
17.9763
 30
0.0
 11
13.5727
 21
17.8894
 31
0.0
  0
LINE
  8
0
 62
     7
 10
13.5727
 20
17.8894
 30
0.0
 11
13.4799
 21
17.7979
 31
0.0
  0
LINE
  8
0
 62
     7
 10
13.4799
 20
17.7979
 30
0.0
 11
13.3894
 21
17.7078
 31
0.0
  0
LINE
  8
0
 62
     7
 10
13.3894
 20
17.7078
 30
0.0
 11
13.3076
 21
17.6254
 31
0.0
  0
LINE
  8
0
 62
     7
 10
13.3076
 20
17.6254
 30
0.0
 11
13.2405
 21
17.5568
 31
0.0
  0
LINE
  8
0
 62
     7
 10
13.2405
 20
17.5568
 30
0.0
 11
13.2057
 21
17.5203
 31
0.0
  0
LINE
  8
0
 62
     7
 10
13.2057
 20
17.5203
 30
0.0
 11
13.1944
 21
17.5079
 31
0.0
  0
LINE
  8
0
 62
     7
 10
13.1944
 20
17.5079
 30
0.0
 11
13.1765
 21
17.4883
 31
0.0
  0
LINE
  8
0
 62
     7
 10
13.1765
 20
17.4883
 30
0.0
 11
13.1232
 21
17.4293
 31
0.0
  0
LINE
  8
0
 62
     7
 10
13.1232
 20
17.4293
 30
0.0
 11
13.0631
 21
17.3625
 31
0.0
  0
LINE
  8
0
 62
     7
 10
13.0631
 20
17.3625
 30
0.0
 11
13.0171
 21
17.3108
 31
0.0
  0
LINE
  8
0
 62
     7
 10
13.0171
 20
17.3108
 30
0.0
 11
12.9946
 21
17.2854
 31
0.0
  0
LINE
  8
0
 62
     7
 10
12.9946
 20
17.2854
 30
0.0
 11
12.9881
 21
17.2778
 31
0.0
  0
LINE
  8
0
 62
     7
 10
12.9881
 20
17.2778
 30
0.0
 11
12.9646
 21
17.2506
 31
0.0
  0
LINE
  8
0
 62
     7
 10
12.9646
 20
17.2506
 30
0.0
 11
12.8944
 21
17.1688
 31
0.0
  0
LINE
  8
0
 62
     7
 10
12.8944
 20
17.1688
 30
0.0
 11
12.8218
 21
17.0829
 31
0.0
  0
LINE
  8
0
 62
     7
 10
12.8218
 20
17.0829
 30
0.0
 11
12.7577
 21
17.0046
 31
0.0
  0
LINE
  8
0
 62
     7
 10
12.7577
 20
17.0046
 30
0.0
 11
12.7062
 21
16.94
 31
0.0
  0
LINE
  8
0
 62
     7
 10
12.7062
 20
16.94
 30
0.0
 11
12.6892
 21
16.9185
 31
0.0
  0
LINE
  8
0
 62
     7
 10
12.6892
 20
16.9185
 30
0.0
 11
12.6634
 21
16.8858
 31
0.0
  0
LINE
  8
0
 62
     7
 10
12.6634
 20
16.8858
 30
0.0
 11
12.5351
 21
16.7207
 31
0.0
  0
LINE
  8
0
 62
     7
 10
12.5351
 20
16.7207
 30
0.0
 11
12.399
 21
16.5414
 31
0.0
  0
LINE
  8
0
 62
     7
 10
12.399
 20
16.5414
 30
0.0
 11
12.3694
 21
16.5018
 31
0.0
  0
LINE
  8
0
 62
     7
 10
12.3694
 20
16.5018
 30
0.0
 11
12.3583
 21
16.4868
 31
0.0
  0
LINE
  8
0
 62
     7
 10
12.3583
 20
16.4868
 30
0.0
 11
12.3262
 21
16.4415
 31
0.0
  0
LINE
  8
0
 62
     7
 10
12.3262
 20
16.4415
 30
0.0
 11
12.2702
 21
16.3604
 31
0.0
  0
LINE
  8
0
 62
     7
 10
12.2702
 20
16.3604
 30
0.0
 11
12.2061
 21
16.2657
 31
0.0
  0
LINE
  8
0
 62
     7
 10
12.2061
 20
16.2657
 30
0.0
 11
12.1383
 21
16.1643
 31
0.0
  0
LINE
  8
0
 62
     7
 10
12.1383
 20
16.1643
 30
0.0
 11
12.0717
 21
16.0631
 31
0.0
  0
LINE
  8
0
 62
     7
 10
12.0717
 20
16.0631
 30
0.0
 11
12.0107
 21
15.9689
 31
0.0
  0
LINE
  8
0
 62
     7
 10
12.0107
 20
15.9689
 30
0.0
 11
11.9602
 21
15.8889
 31
0.0
  0
LINE
  8
0
 62
     7
 10
11.9602
 20
15.8889
 30
0.0
 11
11.9332
 21
15.8447
 31
0.0
  0
LINE
  8
0
 62
     7
 10
11.9332
 20
15.8447
 30
0.0
 11
11.9246
 21
15.8299
 31
0.0
  0
LINE
  8
0
 62
     7
 10
11.9246
 20
15.8299
 30
0.0
 11
11.9182
 21
15.8192
 31
0.0
  0
LINE
  8
0
 62
     7
 10
11.9182
 20
15.8192
 30
0.0
 11
11.8992
 21
15.7868
 31
0.0
  0
LINE
  8
0
 62
     7
 10
11.8992
 20
15.7868
 30
0.0
 11
11.8804
 21
15.7553
 31
0.0
  0
LINE
  8
0
 62
     7
 10
11.8804
 20
15.7553
 30
0.0
 11
11.8649
 21
15.7299
 31
0.0
  0
LINE
  8
0
 62
     7
 10
11.8649
 20
15.7299
 30
0.0
 11
11.8534
 21
15.7111
 31
0.0
  0
LINE
  8
0
 62
     7
 10
11.8534
 20
15.7111
 30
0.0
 11
11.8496
 21
15.7049
 31
0.0
  0
LINE
  8
0
 62
     7
 10
11.8496
 20
15.7049
 30
0.0
 11
11.8462
 21
15.6996
 31
0.0
  0
LINE
  8
0
 62
     7
 10
11.8462
 20
15.6996
 30
0.0
 11
11.8364
 21
15.6833
 31
0.0
  0
LINE
  8
0
 62
     7
 10
11.8364
 20
15.6833
 30
0.0
 11
11.818
 21
15.6518
 31
0.0
  0
LINE
  8
0
 62
     7
 10
11.818
 20
15.6518
 30
0.0
 11
11.7906
 21
15.6029
 31
0.0
  0
LINE
  8
0
 62
     7
 10
11.7906
 20
15.6029
 30
0.0
 11
11.7605
 21
15.5481
 31
0.0
  0
LINE
  8
0
 62
     7
 10
11.7605
 20
15.5481
 30
0.0
 11
11.7506
 21
15.5299
 31
0.0
  0
LINE
  8
0
 62
     7
 10
11.7506
 20
15.5299
 30
0.0
 11
11.7467
 21
15.5231
 31
0.0
  0
LINE
  8
0
 62
     7
 10
11.7467
 20
15.5231
 30
0.0
 11
11.7258
 21
15.4858
 31
0.0
  0
LINE
  8
0
 62
     7
 10
11.7258
 20
15.4858
 30
0.0
 11
11.7074
 21
15.4539
 31
0.0
  0
LINE
  8
0
 62
     7
 10
11.7074
 20
15.4539
 30
0.0
 11
11.7048
 21
15.4497
 31
0.0
  0
LINE
  8
0
 62
     7
 10
11.7048
 20
15.4497
 30
0.0
 11
11.6975
 21
15.4372
 31
0.0
  0
LINE
  8
0
 62
     7
 10
11.6975
 20
15.4372
 30
0.0
 11
11.6765
 21
15.3993
 31
0.0
  0
LINE
  8
0
 62
     7
 10
11.6765
 20
15.3993
 30
0.0
 11
11.6378
 21
15.3267
 31
0.0
  0
LINE
  8
0
 62
     7
 10
11.6378
 20
15.3267
 30
0.0
 11
11.5916
 21
15.2381
 31
0.0
  0
LINE
  8
0
 62
     7
 10
11.5916
 20
15.2381
 30
0.0
 11
11.5413
 21
15.1397
 31
0.0
  0
LINE
  8
0
 62
     7
 10
11.5413
 20
15.1397
 30
0.0
 11
11.4901
 21
15.0382
 31
0.0
  0
LINE
  8
0
 62
     7
 10
11.4901
 20
15.0382
 30
0.0
 11
11.4413
 21
14.9396
 31
0.0
  0
LINE
  8
0
 62
     7
 10
11.4413
 20
14.9396
 30
0.0
 11
11.3978
 21
14.8504
 31
0.0
  0
LINE
  8
0
 62
     7
 10
11.3978
 20
14.8504
 30
0.0
 11
11.3716
 21
14.7953
 31
0.0
  0
LINE
  8
0
 62
     7
 10
11.3716
 20
14.7953
 30
0.0
 11
11.3631
 21
14.7768
 31
0.0
  0
LINE
  8
0
 62
     7
 10
11.3631
 20
14.7768
 30
0.0
 11
11.3521
 21
14.7533
 31
0.0
  0
LINE
  8
0
 62
     7
 10
11.3521
 20
14.7533
 30
0.0
 11
11.32
 21
14.6826
 31
0.0
  0
LINE
  8
0
 62
     7
 10
11.32
 20
14.6826
 30
0.0
 11
11.2696
 21
14.5687
 31
0.0
  0
LINE
  8
0
 62
     7
 10
11.2696
 20
14.5687
 30
0.0
 11
11.2251
 21
14.4653
 31
0.0
  0
LINE
  8
0
 62
     7
 10
11.2251
 20
14.4653
 30
0.0
 11
11.2035
 21
14.4135
 31
0.0
  0
LINE
  8
0
 62
     7
 10
11.2035
 20
14.4135
 30
0.0
 11
11.1996
 21
14.4028
 31
0.0
  0
LINE
  8
0
 62
     7
 10
11.1996
 20
14.4028
 30
0.0
 11
11.1975
 21
14.3978
 31
0.0
  0
LINE
  8
0
 62
     7
 10
11.1975
 20
14.3978
 30
0.0
 11
11.1905
 21
14.3806
 31
0.0
  0
LINE
  8
0
 62
     7
 10
11.1905
 20
14.3806
 30
0.0
 11
11.1768
 21
14.3465
 31
0.0
  0
LINE
  8
0
 62
     7
 10
11.1768
 20
14.3465
 30
0.0
 11
11.1602
 21
14.3056
 31
0.0
  0
LINE
  8
0
 62
     7
 10
11.1602
 20
14.3056
 30
0.0
 11
11.1468
 21
14.2731
 31
0.0
  0
LINE
  8
0
 62
     7
 10
11.1468
 20
14.2731
 30
0.0
 11
11.1423
 21
14.2622
 31
0.0
  0
LINE
  8
0
 62
     7
 10
11.1423
 20
14.2622
 30
0.0
 11
11.1324
 21
14.2385
 31
0.0
  0
LINE
  8
0
 62
     7
 10
11.1324
 20
14.2385
 30
0.0
 11
11.0895
 21
14.1308
 31
0.0
  0
LINE
  8
0
 62
     7
 10
11.0895
 20
14.1308
 30
0.0
 11
11.0545
 21
14.0351
 31
0.0
  0
LINE
  8
0
 62
     7
 10
11.0545
 20
14.0351
 30
0.0
 11
11.0486
 21
14.0174
 31
0.0
  0
LINE
  8
0
 62
     7
 10
11.0486
 20
14.0174
 30
0.0
 11
11.0472
 21
14.0137
 31
0.0
  0
LINE
  8
0
 62
     7
 10
11.0472
 20
14.0137
 30
0.0
 11
11.0429
 21
14.0014
 31
0.0
  0
LINE
  8
0
 62
     7
 10
11.0429
 20
14.0014
 30
0.0
 11
11.0342
 21
13.9772
 31
0.0
  0
LINE
  8
0
 62
     7
 10
11.0342
 20
13.9772
 30
0.0
 11
11.0237
 21
13.9486
 31
0.0
  0
LINE
  8
0
 62
     7
 10
11.0237
 20
13.9486
 30
0.0
 11
11.015
 21
13.926
 31
0.0
  0
LINE
  8
0
 62
     7
 10
11.015
 20
13.926
 30
0.0
 11
11.0121
 21
13.9185
 31
0.0
  0
LINE
  8
0
 62
     7
 10
11.0121
 20
13.9185
 30
0.0
 11
11.0093
 21
13.9107
 31
0.0
  0
LINE
  8
0
 62
     7
 10
11.0093
 20
13.9107
 30
0.0
 11
11.001
 21
13.8874
 31
0.0
  0
LINE
  8
0
 62
     7
 10
11.001
 20
13.8874
 30
0.0
 11
10.9903
 21
13.8574
 31
0.0
  0
LINE
  8
0
 62
     7
 10
10.9903
 20
13.8574
 30
0.0
 11
10.9814
 21
13.8319
 31
0.0
  0
LINE
  8
0
 62
     7
 10
10.9814
 20
13.8319
 30
0.0
 11
10.9769
 21
13.8184
 31
0.0
  0
LINE
  8
0
 62
     7
 10
10.9769
 20
13.8184
 30
0.0
 11
10.9756
 21
13.8142
 31
0.0
  0
LINE
  8
0
 62
     7
 10
10.9756
 20
13.8142
 30
0.0
 11
10.9743
 21
13.8098
 31
0.0
  0
LINE
  8
0
 62
     7
 10
10.9743
 20
13.8098
 30
0.0
 11
10.9696
 21
13.795
 31
0.0
  0
LINE
  8
0
 62
     7
 10
10.9696
 20
13.795
 30
0.0
 11
10.9601
 21
13.7661
 31
0.0
  0
LINE
  8
0
 62
     7
 10
10.9601
 20
13.7661
 30
0.0
 11
10.9485
 21
13.7313
 31
0.0
  0
LINE
  8
0
 62
     7
 10
10.9485
 20
13.7313
 30
0.0
 11
10.9391
 21
13.7037
 31
0.0
  0
LINE
  8
0
 62
     7
 10
10.9391
 20
13.7037
 30
0.0
 11
10.936
 21
13.6944
 31
0.0
  0
LINE
  8
0
 62
     7
 10
10.936
 20
13.6944
 30
0.0
 11
10.9326
 21
13.6843
 31
0.0
  0
LINE
  8
0
 62
     7
 10
10.9326
 20
13.6843
 30
0.0
 11
10.9224
 21
13.6538
 31
0.0
  0
LINE
  8
0
 62
     7
 10
10.9224
 20
13.6538
 30
0.0
 11
10.9079
 21
13.6088
 31
0.0
  0
LINE
  8
0
 62
     7
 10
10.9079
 20
13.6088
 30
0.0
 11
10.8941
 21
13.565
 31
0.0
  0
LINE
  8
0
 62
     7
 10
10.8941
 20
13.565
 30
0.0
 11
10.8856
 21
13.5371
 31
0.0
  0
LINE
  8
0
 62
     7
 10
10.8856
 20
13.5371
 30
0.0
 11
10.8829
 21
13.5278
 31
0.0
  0
LINE
  8
0
 62
     7
 10
10.8829
 20
13.5278
 30
0.0
 11
10.8803
 21
13.5194
 31
0.0
  0
LINE
  8
0
 62
     7
 10
10.8803
 20
13.5194
 30
0.0
 11
10.8723
 21
13.4943
 31
0.0
  0
LINE
  8
0
 62
     7
 10
10.8723
 20
13.4943
 30
0.0
 11
10.8618
 21
13.4605
 31
0.0
  0
LINE
  8
0
 62
     7
 10
10.8618
 20
13.4605
 30
0.0
 11
10.8524
 21
13.4304
 31
0.0
  0
LINE
  8
0
 62
     7
 10
10.8524
 20
13.4304
 30
0.0
 11
10.8472
 21
13.4136
 31
0.0
  0
LINE
  8
0
 62
     7
 10
10.8472
 20
13.4136
 30
0.0
 11
10.8454
 21
13.408
 31
0.0
  0
LINE
  8
0
 62
     7
 10
10.8454
 20
13.408
 30
0.0
 11
10.8436
 21
13.4023
 31
0.0
  0
LINE
  8
0
 62
     7
 10
10.8436
 20
13.4023
 30
0.0
 11
10.8384
 21
13.3852
 31
0.0
  0
LINE
  8
0
 62
     7
 10
10.8384
 20
13.3852
 30
0.0
 11
10.8291
 21
13.3541
 31
0.0
  0
LINE
  8
0
 62
     7
 10
10.8291
 20
13.3541
 30
0.0
 11
10.8189
 21
13.3187
 31
0.0
  0
LINE
  8
0
 62
     7
 10
10.8189
 20
13.3187
 30
0.0
 11
10.8114
 21
13.2919
 31
0.0
  0
LINE
  8
0
 62
     7
 10
10.8114
 20
13.2919
 30
0.0
 11
10.809
 21
13.283
 31
0.0
  0
LINE
  8
0
 62
     7
 10
10.809
 20
13.283
 30
0.0
 11
10.8063
 21
13.274
 31
0.0
  0
LINE
  8
0
 62
     7
 10
10.8063
 20
13.274
 30
0.0
 11
10.7986
 21
13.247
 31
0.0
  0
LINE
  8
0
 62
     7
 10
10.7986
 20
13.247
 30
0.0
 11
10.7884
 21
13.2105
 31
0.0
  0
LINE
  8
0
 62
     7
 10
10.7884
 20
13.2105
 30
0.0
 11
10.7793
 21
13.1777
 31
0.0
  0
LINE
  8
0
 62
     7
 10
10.7793
 20
13.1777
 30
0.0
 11
10.7742
 21
13.159
 31
0.0
  0
LINE
  8
0
 62
     7
 10
10.7742
 20
13.159
 30
0.0
 11
10.7725
 21
13.1528
 31
0.0
  0
LINE
  8
0
 62
     7
 10
10.7725
 20
13.1528
 30
0.0
 11
10.7597
 21
13.1076
 31
0.0
  0
LINE
  8
0
 62
     7
 10
10.7597
 20
13.1076
 30
0.0
 11
10.7242
 21
12.9713
 31
0.0
  0
LINE
  8
0
 62
     7
 10
10.7242
 20
12.9713
 30
0.0
 11
10.674
 21
12.7627
 31
0.0
  0
LINE
  8
0
 62
     7
 10
10.674
 20
12.7627
 30
0.0
 11
10.6277
 21
12.5525
 31
0.0
  0
LINE
  8
0
 62
     7
 10
10.6277
 20
12.5525
 30
0.0
 11
10.5996
 21
12.413
 31
0.0
  0
LINE
  8
0
 62
     7
 10
10.5996
 20
12.413
 30
0.0
 11
10.5913
 21
12.3663
 31
0.0
  0
LINE
  8
0
 62
     7
 10
10.5913
 20
12.3663
 30
0.0
 11
10.5813
 21
12.3122
 31
0.0
  0
LINE
  8
0
 62
     7
 10
10.5813
 20
12.3122
 30
0.0
 11
10.5525
 21
12.1495
 31
0.0
  0
LINE
  8
0
 62
     7
 10
10.5525
 20
12.1495
 30
0.0
 11
10.5246
 21
11.9772
 31
0.0
  0
LINE
  8
0
 62
     7
 10
10.5246
 20
11.9772
 30
0.0
 11
10.5013
 21
11.8092
 31
0.0
  0
LINE
  8
0
 62
     7
 10
10.5013
 20
11.8092
 30
0.0
 11
10.4826
 21
11.6568
 31
0.0
  0
LINE
  8
0
 62
     7
 10
10.4826
 20
11.6568
 30
0.0
 11
10.4767
 21
11.6059
 31
0.0
  0
LINE
  8
0
 62
     7
 10
10.4767
 20
11.6059
 30
0.0
 11
10.4722
 21
11.5686
 31
0.0
  0
LINE
  8
0
 62
     7
 10
10.4722
 20
11.5686
 30
0.0
 11
10.4592
 21
11.4567
 31
0.0
  0
LINE
  8
0
 62
     7
 10
10.4592
 20
11.4567
 30
0.0
 11
10.4456
 21
11.3261
 31
0.0
  0
LINE
  8
0
 62
     7
 10
10.4456
 20
11.3261
 30
0.0
 11
10.4353
 21
11.2049
 31
0.0
  0
LINE
  8
0
 62
     7
 10
10.4353
 20
11.2049
 30
0.0
 11
10.428
 21
11.0838
 31
0.0
  0
LINE
  8
0
 62
     7
 10
10.428
 20
11.0838
 30
0.0
 11
10.4231
 21
10.9534
 31
0.0
  0
LINE
  8
0
 62
     7
 10
10.4231
 20
10.9534
 30
0.0
 11
10.4201
 21
10.8044
 31
0.0
  0
LINE
  8
0
 62
     7
 10
10.4201
 20
10.8044
 30
0.0
 11
10.4187
 21
10.6274
 31
0.0
  0
LINE
  8
0
 62
     7
 10
10.4187
 20
10.6274
 30
0.0
 11
10.4183
 21
10.4668
 31
0.0
  0
LINE
  8
0
 62
     7
 10
10.4183
 20
10.4668
 30
0.0
 11
10.4183
 21
10.4132
 31
0.0
  0
LINE
  8
0
 62
     7
 10
10.4183
 20
10.4132
 30
0.0
 11
10.4183
 21
10.3597
 31
0.0
  0
LINE
  8
0
 62
     7
 10
10.4183
 20
10.3597
 30
0.0
 11
10.4187
 21
10.199
 31
0.0
  0
LINE
  8
0
 62
     7
 10
10.4187
 20
10.199
 30
0.0
 11
10.4201
 21
10.0221
 31
0.0
  0
LINE
  8
0
 62
     7
 10
10.4201
 20
10.0221
 30
0.0
 11
10.4231
 21
9.87304
 31
0.0
  0
LINE
  8
0
 62
     7
 10
10.4231
 20
9.87304
 30
0.0
 11
10.428
 21
9.74262
 31
0.0
  0
LINE
  8
0
 62
     7
 10
10.428
 20
9.74262
 30
0.0
 11
10.4353
 21
9.62153
 31
0.0
  0
LINE
  8
0
 62
     7
 10
10.4353
 20
9.62153
 30
0.0
 11
10.4456
 21
9.50032
 31
0.0
  0
LINE
  8
0
 62
     7
 10
10.4456
 20
9.50032
 30
0.0
 11
10.4592
 21
9.36979
 31
0.0
  0
LINE
  8
0
 62
     7
 10
10.4592
 20
9.36979
 30
0.0
 11
10.4722
 21
9.25782
 31
0.0
  0
LINE
  8
0
 62
     7
 10
10.4722
 20
9.25782
 30
0.0
 11
10.4767
 21
9.22049
 31
0.0
  0
LINE
  8
0
 62
     7
 10
10.4767
 20
9.22049
 30
0.0
 11
10.4826
 21
9.16965
 31
0.0
  0
LINE
  8
0
 62
     7
 10
10.4826
 20
9.16965
 30
0.0
 11
10.5013
 21
9.01719
 31
0.0
  0
LINE
  8
0
 62
     7
 10
10.5013
 20
9.01719
 30
0.0
 11
10.5246
 21
8.84928
 31
0.0
  0
LINE
  8
0
 62
     7
 10
10.5246
 20
8.84928
 30
0.0
 11
10.5525
 21
8.67692
 31
0.0
  0
LINE
  8
0
 62
     7
 10
10.5525
 20
8.67692
 30
0.0
 11
10.5813
 21
8.51426
 31
0.0
  0
LINE
  8
0
 62
     7
 10
10.5813
 20
8.51426
 30
0.0
 11
10.5913
 21
8.46007
 31
0.0
  0
LINE
  8
0
 62
     7
 10
10.5913
 20
8.46007
 30
0.0
 11
10.5996
 21
8.41342
 31
0.0
  0
LINE
  8
0
 62
     7
 10
10.5996
 20
8.41342
 30
0.0
 11
10.6277
 21
8.27393
 31
0.0
  0
LINE
  8
0
 62
     7
 10
10.6277
 20
8.27393
 30
0.0
 11
10.674
 21
8.06375
 31
0.0
  0
LINE
  8
0
 62
     7
 10
10.674
 20
8.06375
 30
0.0
 11
10.7242
 21
7.85514
 31
0.0
  0
LINE
  8
0
 62
     7
 10
10.7242
 20
7.85514
 30
0.0
 11
10.7597
 21
7.71881
 31
0.0
  0
LINE
  8
0
 62
     7
 10
10.7597
 20
7.71881
 30
0.0
 11
10.7725
 21
7.67361
 31
0.0
  0
LINE
  8
0
 62
     7
 10
10.7725
 20
7.67361
 30
0.0
 11
10.7742
 21
7.66743
 31
0.0
  0
LINE
  8
0
 62
     7
 10
10.7742
 20
7.66743
 30
0.0
 11
10.7793
 21
7.64876
 31
0.0
  0
LINE
  8
0
 62
     7
 10
10.7793
 20
7.64876
 30
0.0
 11
10.7884
 21
7.61594
 31
0.0
  0
LINE
  8
0
 62
     7
 10
10.7884
 20
7.61594
 30
0.0
 11
10.7986
 21
7.57943
 31
0.0
  0
LINE
  8
0
 62
     7
 10
10.7986
 20
7.57943
 30
0.0
 11
10.8063
 21
7.5524
 31
0.0
  0
LINE
  8
0
 62
     7
 10
10.8063
 20
7.5524
 30
0.0
 11
10.809
 21
7.5434
 31
0.0
  0
LINE
  8
0
 62
     7
 10
10.809
 20
7.5434
 30
0.0
 11
10.8114
 21
7.5345
 31
0.0
  0
LINE
  8
0
 62
     7
 10
10.8114
 20
7.5345
 30
0.0
 11
10.8189
 21
7.50776
 31
0.0
  0
LINE
  8
0
 62
     7
 10
10.8189
 20
7.50776
 30
0.0
 11
10.8291
 21
7.47233
 31
0.0
  0
LINE
  8
0
 62
     7
 10
10.8291
 20
7.47233
 30
0.0
 11
10.8384
 21
7.44119
 31
0.0
  0
LINE
  8
0
 62
     7
 10
10.8384
 20
7.44119
 30
0.0
 11
10.8436
 21
7.4241
 31
0.0
  0
LINE
  8
0
 62
     7
 10
10.8436
 20
7.4241
 30
0.0
 11
10.8454
 21
7.4184
 31
0.0
  0
LINE
  8
0
 62
     7
 10
10.8454
 20
7.4184
 30
0.0
 11
10.8472
 21
7.41287
 31
0.0
  0
LINE
  8
0
 62
     7
 10
10.8472
 20
7.41287
 30
0.0
 11
10.8524
 21
7.39606
 31
0.0
  0
LINE
  8
0
 62
     7
 10
10.8524
 20
7.39606
 30
0.0
 11
10.8618
 21
7.36594
 31
0.0
  0
LINE
  8
0
 62
     7
 10
10.8618
 20
7.36594
 30
0.0
 11
10.8723
 21
7.33214
 31
0.0
  0
LINE
  8
0
 62
     7
 10
10.8723
 20
7.33214
 30
0.0
 11
10.8803
 21
7.30701
 31
0.0
  0
LINE
  8
0
 62
     7
 10
10.8803
 20
7.30701
 30
0.0
 11
10.8829
 21
7.29861
 31
0.0
  0
LINE
  8
0
 62
     7
 10
10.8829
 20
7.29861
 30
0.0
 11
10.8856
 21
7.28933
 31
0.0
  0
LINE
  8
0
 62
     7
 10
10.8856
 20
7.28933
 30
0.0
 11
10.8941
 21
7.26144
 31
0.0
  0
LINE
  8
0
 62
     7
 10
10.8941
 20
7.26144
 30
0.0
 11
10.9079
 21
7.21767
 31
0.0
  0
LINE
  8
0
 62
     7
 10
10.9079
 20
7.21767
 30
0.0
 11
10.9224
 21
7.17264
 31
0.0
  0
LINE
  8
0
 62
     7
 10
10.9224
 20
7.17264
 30
0.0
 11
10.9326
 21
7.14208
 31
0.0
  0
LINE
  8
0
 62
     7
 10
10.9326
 20
7.14208
 30
0.0
 11
10.936
 21
7.13194
 31
0.0
  0
LINE
  8
0
 62
     7
 10
10.936
 20
7.13194
 30
0.0
 11
10.9391
 21
7.12272
 31
0.0
  0
LINE
  8
0
 62
     7
 10
10.9391
 20
7.12272
 30
0.0
 11
10.9485
 21
7.09494
 31
0.0
  0
LINE
  8
0
 62
     7
 10
10.9485
 20
7.09494
 30
0.0
 11
10.9601
 21
7.05994
 31
0.0
  0
LINE
  8
0
 62
     7
 10
10.9601
 20
7.05994
 30
0.0
 11
10.9696
 21
7.03103
 31
0.0
  0
LINE
  8
0
 62
     7
 10
10.9696
 20
7.03103
 30
0.0
 11
10.9743
 21
7.01633
 31
0.0
  0
LINE
  8
0
 62
     7
 10
10.9743
 20
7.01633
 30
0.0
 11
10.9756
 21
7.01215
 31
0.0
  0
LINE
  8
0
 62
     7
 10
10.9756
 20
7.01215
 30
0.0
 11
10.9769
 21
7.00776
 31
0.0
  0
LINE
  8
0
 62
     7
 10
10.9769
 20
7.00776
 30
0.0
 11
10.9897
 21
6.97011
 31
0.0
  0
LINE
  8
0
 62
     7
 10
10.9897
 20
6.97011
 30
0.0
 11
11.0066
 21
6.92258
 31
0.0
  0
LINE
  8
0
 62
     7
 10
11.0066
 20
6.92258
 30
0.0
 11
11.01
 21
6.91319
 31
0.0
  0
LINE
  8
0
 62
     7
 10
11.01
 20
6.91319
 30
0.0
 11
11.0183
 21
6.89085
 31
0.0
  0
LINE
  8
0
 62
     7
 10
11.0183
 20
6.89085
 30
0.0
 11
11.0433
 21
6.82368
 31
0.0
  0
LINE
  8
0
 62
     7
 10
11.0433
 20
6.82368
 30
0.0
 11
11.0665
 21
6.76085
 31
0.0
  0
LINE
  8
0
 62
     7
 10
11.0665
 20
6.76085
 30
0.0
 11
11.0814
 21
6.71957
 31
0.0
  0
LINE
  8
0
 62
     7
 10
11.0814
 20
6.71957
 30
0.0
 11
11.0881
 21
6.70074
 31
0.0
  0
LINE
  8
0
 62
     7
 10
11.0881
 20
6.70074
 30
0.0
 11
11.0902
 21
6.69444
 31
0.0
  0
LINE
  8
0
 62
     7
 10
11.0902
 20
6.69444
 30
0.0
 11
11.0913
 21
6.69081
 31
0.0
  0
LINE
  8
0
 62
     7
 10
11.0913
 20
6.69081
 30
0.0
 11
11.0967
 21
6.67606
 31
0.0
  0
LINE
  8
0
 62
     7
 10
11.0967
 20
6.67606
 30
0.0
 11
11.1088
 21
6.6454
 31
0.0
  0
LINE
  8
0
 62
     7
 10
11.1088
 20
6.6454
 30
0.0
 11
11.1246
 21
6.60672
 31
0.0
  0
LINE
  8
0
 62
     7
 10
11.1246
 20
6.60672
 30
0.0
 11
11.1379
 21
6.57487
 31
0.0
  0
LINE
  8
0
 62
     7
 10
11.1379
 20
6.57487
 30
0.0
 11
11.1423
 21
6.56424
 31
0.0
  0
LINE
  8
0
 62
     7
 10
11.1423
 20
6.56424
 30
0.0
 11
11.1468
 21
6.55344
 31
0.0
  0
LINE
  8
0
 62
     7
 10
11.1468
 20
6.55344
 30
0.0
 11
11.1602
 21
6.52089
 31
0.0
  0
LINE
  8
0
 62
     7
 10
11.1602
 20
6.52089
 30
0.0
 11
11.1768
 21
6.47987
 31
0.0
  0
LINE
  8
0
 62
     7
 10
11.1768
 20
6.47987
 30
0.0
 11
11.1905
 21
6.4459
 31
0.0
  0
LINE
  8
0
 62
     7
 10
11.1905
 20
6.4459
 30
0.0
 11
11.1975
 21
6.4286
 31
0.0
  0
LINE
  8
0
 62
     7
 10
11.1975
 20
6.4286
 30
0.0
 11
11.1996
 21
6.42361
 31
0.0
  0
LINE
  8
0
 62
     7
 10
11.1996
 20
6.42361
 30
0.0
 11
11.2035
 21
6.41297
 31
0.0
  0
LINE
  8
0
 62
     7
 10
11.2035
 20
6.41297
 30
0.0
 11
11.2251
 21
6.36111
 31
0.0
  0
LINE
  8
0
 62
     7
 10
11.2251
 20
6.36111
 30
0.0
 11
11.2696
 21
6.25776
 31
0.0
  0
LINE
  8
0
 62
     7
 10
11.2696
 20
6.25776
 30
0.0
 11
11.32
 21
6.14382
 31
0.0
  0
LINE
  8
0
 62
     7
 10
11.32
 20
6.14382
 30
0.0
 11
11.352
 21
6.07308
 31
0.0
  0
LINE
  8
0
 62
     7
 10
11.352
 20
6.07308
 30
0.0
 11
11.3631
 21
6.04964
 31
0.0
  0
LINE
  8
0
 62
     7
 10
11.3631
 20
6.04964
 30
0.0
 11
11.3716
 21
6.03119
 31
0.0
  0
LINE
  8
0
 62
     7
 10
11.3716
 20
6.03119
 30
0.0
 11
11.3978
 21
5.97607
 31
0.0
  0
LINE
  8
0
 62
     7
 10
11.3978
 20
5.97607
 30
0.0
 11
11.4413
 21
5.88683
 31
0.0
  0
LINE
  8
0
 62
     7
 10
11.4413
 20
5.88683
 30
0.0
 11
11.4901
 21
5.78825
 31
0.0
  0
LINE
  8
0
 62
     7
 10
11.4901
 20
5.78825
 30
0.0
 11
11.5413
 21
5.68668
 31
0.0
  0
LINE
  8
0
 62
     7
 10
11.5413
 20
5.68668
 30
0.0
 11
11.5916
 21
5.58838
 31
0.0
  0
LINE
  8
0
 62
     7
 10
11.5916
 20
5.58838
 30
0.0
 11
11.6378
 21
5.49978
 31
0.0
  0
LINE
  8
0
 62
     7
 10
11.6378
 20
5.49978
 30
0.0
 11
11.6765
 21
5.42714
 31
0.0
  0
LINE
  8
0
 62
     7
 10
11.6765
 20
5.42714
 30
0.0
 11
11.6974
 21
5.38921
 31
0.0
  0
LINE
  8
0
 62
     7
 10
11.6974
 20
5.38921
 30
0.0
 11
11.7048
 21
5.37674
 31
0.0
  0
LINE
  8
0
 62
     7
 10
11.7048
 20
5.37674
 30
0.0
 11
11.7074
 21
5.37235
 31
0.0
  0
LINE
  8
0
 62
     7
 10
11.7074
 20
5.37235
 30
0.0
 11
11.7258
 21
5.34006
 31
0.0
  0
LINE
  8
0
 62
     7
 10
11.7258
 20
5.34006
 30
0.0
 11
11.7467
 21
5.30251
 31
0.0
  0
LINE
  8
0
 62
     7
 10
11.7467
 20
5.30251
 30
0.0
 11
11.7506
 21
5.29546
 31
0.0
  0
LINE
  8
0
 62
     7
 10
11.7506
 20
5.29546
 30
0.0
 11
11.7605
 21
5.27735
 31
0.0
  0
LINE
  8
0
 62
     7
 10
11.7605
 20
5.27735
 30
0.0
 11
11.7906
 21
5.22304
 31
0.0
  0
LINE
  8
0
 62
     7
 10
11.7906
 20
5.22304
 30
0.0
 11
11.818
 21
5.17453
 31
0.0
  0
LINE
  8
0
 62
     7
 10
11.818
 20
5.17453
 30
0.0
 11
11.8364
 21
5.14301
 31
0.0
  0
LINE
  8
0
 62
     7
 10
11.8364
 20
5.14301
 30
0.0
 11
11.8462
 21
5.1269
 31
0.0
  0
LINE
  8
0
 62
     7
 10
11.8462
 20
5.1269
 30
0.0
 11
11.8496
 21
5.12153
 31
0.0
  0
LINE
  8
0
 62
     7
 10
11.8496
 20
5.12153
 30
0.0
 11
11.8533
 21
5.11535
 31
0.0
  0
LINE
  8
0
 62
     7
 10
11.8533
 20
5.11535
 30
0.0
 11
11.8649
 21
5.09663
 31
0.0
  0
LINE
  8
0
 62
     7
 10
11.8649
 20
5.09663
 30
0.0
 11
11.8804
 21
5.07118
 31
0.0
  0
LINE
  8
0
 62
     7
 10
11.8804
 20
5.07118
 30
0.0
 11
11.8992
 21
5.03965
 31
0.0
  0
LINE
  8
0
 62
     7
 10
11.8992
 20
5.03965
 30
0.0
 11
11.9182
 21
5.00732
 31
0.0
  0
LINE
  8
0
 62
     7
 10
11.9182
 20
5.00732
 30
0.0
 11
11.9246
 21
4.99653
 31
0.0
  0
LINE
  8
0
 62
     7
 10
11.9246
 20
4.99653
 30
0.0
 11
11.9332
 21
4.98167
 31
0.0
  0
LINE
  8
0
 62
     7
 10
11.9332
 20
4.98167
 30
0.0
 11
11.9602
 21
4.93761
 31
0.0
  0
LINE
  8
0
 62
     7
 10
11.9602
 20
4.93761
 30
0.0
 11
12.0107
 21
4.85758
 31
0.0
  0
LINE
  8
0
 62
     7
 10
12.0107
 20
4.85758
 30
0.0
 11
12.0717
 21
4.76346
 31
0.0
  0
LINE
  8
0
 62
     7
 10
12.0717
 20
4.76346
 30
0.0
 11
12.1383
 21
4.66217
 31
0.0
  0
LINE
  8
0
 62
     7
 10
12.1383
 20
4.66217
 30
0.0
 11
12.2061
 21
4.56071
 31
0.0
  0
LINE
  8
0
 62
     7
 10
12.2061
 20
4.56071
 30
0.0
 11
12.2702
 21
4.46599
 31
0.0
  0
LINE
  8
0
 62
     7
 10
12.2702
 20
4.46599
 30
0.0
 11
12.3262
 21
4.38499
 31
0.0
  0
LINE
  8
0
 62
     7
 10
12.3262
 20
4.38499
 30
0.0
 11
12.3583
 21
4.33957
 31
0.0
  0
LINE
  8
0
 62
     7
 10
12.3583
 20
4.33957
 30
0.0
 11
12.3694
 21
4.32465
 31
0.0
  0
LINE
  8
0
 62
     7
 10
12.3694
 20
4.32465
 30
0.0
 11
12.4063
 21
4.27522
 31
0.0
  0
LINE
  8
0
 62
     7
 10
12.4063
 20
4.27522
 30
0.0
 11
12.5181
 21
4.12761
 31
0.0
  0
LINE
  8
0
 62
     7
 10
12.5181
 20
4.12761
 30
0.0
 11
12.657
 21
3.94797
 31
0.0
  0
LINE
  8
0
 62
     7
 10
12.657
 20
3.94797
 30
0.0
 11
12.7796
 21
3.79394
 31
0.0
  0
LINE
  8
0
 62
     7
 10
12.7796
 20
3.79394
 30
0.0
 11
12.8542
 21
3.70329
 31
0.0
  0
LINE
  8
0
 62
     7
 10
12.8542
 20
3.70329
 30
0.0
 11
12.8798
 21
3.67361
 31
0.0
  0
LINE
  8
0
 62
     7
 10
12.8798
 20
3.67361
 30
0.0
 11
12.8987
 21
3.65175
 31
0.0
  0
LINE
  8
0
 62
     7
 10
12.8987
 20
3.65175
 30
0.0
 11
12.9557
 21
3.5861
 31
0.0
  0
LINE
  8
0
 62
     7
 10
12.9557
 20
3.5861
 30
0.0
 11
13.0061
 21
3.52869
 31
0.0
  0
LINE
  8
0
 62
     7
 10
13.0061
 20
3.52869
 30
0.0
 11
13.0482
 21
3.48128
 31
0.0
  0
LINE
  8
0
 62
     7
 10
13.0482
 20
3.48128
 30
0.0
 11
13.0867
 21
3.43804
 31
0.0
  0
LINE
  8
0
 62
     7
 10
13.0867
 20
3.43804
 30
0.0
 11
13.0996
 21
3.42361
 31
0.0
  0
LINE
  8
0
 62
     7
 10
13.0996
 20
3.42361
 30
0.0
 11
13.138
 21
3.38086
 31
0.0
  0
LINE
  8
0
 62
     7
 10
13.138
 20
3.38086
 30
0.0
 11
13.256
 21
3.2551
 31
0.0
  0
LINE
  8
0
 62
     7
 10
13.256
 20
3.2551
 30
0.0
 11
13.4372
 21
3.06907
 31
0.0
  0
LINE
  8
0
 62
     7
 10
13.4372
 20
3.06907
 30
0.0
 11
13.6256
 21
2.88325
 31
0.0
  0
LINE
  8
0
 62
     7
 10
13.6256
 20
2.88325
 30
0.0
 11
13.7586
 21
2.75663
 31
0.0
  0
LINE
  8
0
 62
     7
 10
13.7586
 20
2.75663
 30
0.0
 11
13.8038
 21
2.71528
 31
0.0
  0
LINE
  8
0
 62
     7
 10
13.8038
 20
2.71528
 30
0.0
 11
13.899
 21
2.62804
 31
0.0
  0
LINE
  8
0
 62
     7
 10
13.899
 20
2.62804
 30
0.0
 11
14.1946
 21
2.37663
 31
0.0
  0
LINE
  8
0
 62
     7
 10
14.1946
 20
2.37663
 30
0.0
 11
14.6151
 21
2.04736
 31
0.0
  0
LINE
  8
0
 62
     7
 10
14.6151
 20
2.04736
 30
0.0
 11
15.0482
 21
1.74035
 31
0.0
  0
LINE
  8
0
 62
     7
 10
15.0482
 20
1.74035
 30
0.0
 11
15.3676
 21
1.53326
 31
0.0
  0
LINE
  8
0
 62
     7
 10
15.3676
 20
1.53326
 30
0.0
 11
15.4767
 21
1.46843
 31
0.0
  0
LINE
  8
0
 62
     7
 10
15.4767
 20
1.46843
 30
0.0
 11
15.6111
 21
1.38921
 31
0.0
  0
LINE
  8
0
 62
     7
 10
15.6111
 20
1.38921
 30
0.0
 11
15.4621
 21
1.30697
 31
0.0
  0
LINE
  8
0
 62
     7
 10
15.4621
 20
1.30697
 30
0.0
 11
15.3931
 21
1.26866
 31
0.0
  0
LINE
  8
0
 62
     7
 10
15.3931
 20
1.26866
 30
0.0
 11
15.1831
 21
1.15918
 31
0.0
  0
LINE
  8
0
 62
     7
 10
15.1831
 20
1.15918
 30
0.0
 11
14.8693
 21
1.00515
 31
0.0
  0
LINE
  8
0
 62
     7
 10
14.8693
 20
1.00515
 30
0.0
 11
14.5506
 21
0.859321
 31
0.0
  0
LINE
  8
0
 62
     7
 10
14.5506
 20
0.859321
 30
0.0
 11
14.3308
 21
0.765354
 31
0.0
  0
LINE
  8
0
 62
     7
 10
14.3308
 20
0.765354
 30
0.0
 11
14.2569
 21
0.736111
 31
0.0
  0
LINE
  8
0
 62
     7
 10
14.2569
 20
0.736111
 30
0.0
 11
14.0747
 21
0.663954
 31
0.0
  0
LINE
  8
0
 62
     7
 10
14.0747
 20
0.663954
 30
0.0
 11
13.5177
 21
0.474501
 31
0.0
  0
LINE
  8
0
 62
     7
 10
13.5177
 20
0.474501
 30
0.0
 11
12.7635
 21
0.2704
 31
0.0
  0
LINE
  8
0
 62
     7
 10
12.7635
 20
0.2704
 30
0.0
 11
11.9903
 21
0.123101
 31
0.0
  0
LINE
  8
0
 62
     7
 10
11.9903
 20
0.123101
 30
0.0
 11
11.3939
 21
0.0475803
 31
0.0
  0
LINE
  8
0
 62
     7
 10
11.3939
 20
0.0475803
 30
0.0
 11
11.1944
 21
0.0319553
 31
0.0
  0
LINE
  8
0
 62
     7
 10
11.1944
 20
0.0319553
 30
0.0
 11
11.1688
 21
0.0299479
 31
0.0
  0
LINE
  8
0
 62
     7
 10
11.1688
 20
0.0299479
 30
0.0
 11
11.092
 21
0.02653
 31
0.0
  0
LINE
  8
0
 62
     7
 10
11.092
 20
0.02653
 30
0.0
 11
10.9354
 21
0.0214301
 31
0.0
  0
LINE
  8
0
 62
     7
 10
10.9354
 20
0.0214301
 30
0.0
 11
10.7441
 21
0.0168186
 31
0.0
  0
LINE
  8
0
 62
     7
 10
10.7441
 20
0.0168186
 30
0.0
 11
10.5375
 21
0.0130751
 31
0.0
  0
LINE
  8
0
 62
     7
 10
10.5375
 20
0.0130751
 30
0.0
 11
10.3353
 21
0.0104709
 31
0.0
  0
LINE
  8
0
 62
     7
 10
10.3353
 20
0.0104709
 30
0.0
 11
10.157
 21
0.00927735
 31
0.0
  0
LINE
  8
0
 62
     7
 10
10.157
 20
0.00927735
 30
0.0
 11
10.0219
 21
0.00971137
 31
0.0
  0
LINE
  8
0
 62
     7
 10
10.0219
 20
0.00971137
 30
0.0
 11
9.9675
 21
0.0103624
 31
0.0
  0
LINE
  8
0
 62
     7
 10
9.9675
 20
0.0103624
 30
0.0
 11
9.9496
 21
0.0121528
 31
0.0
  0
LINE
  8
0
 62
     7
 10
7.0121
 20
8.45383
 30
0.0
 11
7.05072
 21
8.46371
 31
0.0
  0
LINE
  8
0
 62
     7
 10
7.05072
 20
8.46371
 30
0.0
 11
7.16357
 21
8.50532
 31
0.0
  0
LINE
  8
0
 62
     7
 10
7.16357
 20
8.50532
 30
0.0
 11
7.29275
 21
8.57574
 31
0.0
  0
LINE
  8
0
 62
     7
 10
7.29275
 20
8.57574
 30
0.0
 11
7.39697
 21
8.66331
 31
0.0
  0
LINE
  8
0
 62
     7
 10
7.39697
 20
8.66331
 30
0.0
 11
7.45796
 21
8.73861
 31
0.0
  0
LINE
  8
0
 62
     7
 10
7.45796
 20
8.73861
 30
0.0
 11
7.47353
 21
8.76633
 31
0.0
  0
LINE
  8
0
 62
     7
 10
7.47353
 20
8.76633
 30
0.0
 11
7.48112
 21
8.77989
 31
0.0
  0
LINE
  8
0
 62
     7
 10
7.48112
 20
8.77989
 30
0.0
 11
7.50293
 21
8.82107
 31
0.0
  0
LINE
  8
0
 62
     7
 10
7.50293
 20
8.82107
 30
0.0
 11
7.52453
 21
8.86985
 31
0.0
  0
LINE
  8
0
 62
     7
 10
7.52453
 20
8.86985
 30
0.0
 11
7.54383
 21
8.92703
 31
0.0
  0
LINE
  8
0
 62
     7
 10
7.54383
 20
8.92703
 30
0.0
 11
7.56087
 21
8.98693
 31
0.0
  0
LINE
  8
0
 62
     7
 10
7.56087
 20
8.98693
 30
0.0
 11
7.56625
 21
9.00694
 31
0.0
  0
LINE
  8
0
 62
     7
 10
7.56625
 20
9.00694
 30
0.0
 11
7.59332
 21
9.1059
 31
0.0
  0
LINE
  8
0
 62
     7
 10
7.59332
 20
9.1059
 30
0.0
 11
7.59332
 21
9.61111
 31
0.0
  0
LINE
  8
0
 62
     7
 10
7.59332
 20
9.61111
 30
0.0
 11
7.59435
 21
10.1163
 31
0.0
  0
LINE
  8
0
 62
     7
 10
7.59435
 20
10.1163
 30
0.0
 11
7.56625
 21
10.2236
 31
0.0
  0
LINE
  8
0
 62
     7
 10
7.56625
 20
10.2236
 30
0.0
 11
7.55556
 21
10.2655
 31
0.0
  0
LINE
  8
0
 62
     7
 10
7.55556
 20
10.2655
 30
0.0
 11
7.51064
 21
10.3876
 31
0.0
  0
LINE
  8
0
 62
     7
 10
7.51064
 20
10.3876
 30
0.0
 11
7.43485
 21
10.5201
 31
0.0
  0
LINE
  8
0
 62
     7
 10
7.43485
 20
10.5201
 30
0.0
 11
7.33697
 21
10.624
 31
0.0
  0
LINE
  8
0
 62
     7
 10
7.33697
 20
10.624
 30
0.0
 11
7.24744
 21
10.686
 31
0.0
  0
LINE
  8
0
 62
     7
 10
7.24744
 20
10.686
 30
0.0
 11
7.21522
 21
10.7017
 31
0.0
  0
LINE
  8
0
 62
     7
 10
7.21522
 20
10.7017
 30
0.0
 11
7.20546
 21
10.7064
 31
0.0
  0
LINE
  8
0
 62
     7
 10
7.20546
 20
10.7064
 30
0.0
 11
7.17611
 21
10.7205
 31
0.0
  0
LINE
  8
0
 62
     7
 10
7.17611
 20
10.7205
 30
0.0
 11
7.13986
 21
10.7369
 31
0.0
  0
LINE
  8
0
 62
     7
 10
7.13986
 20
10.7369
 30
0.0
 11
7.10449
 21
10.7511
 31
0.0
  0
LINE
  8
0
 62
     7
 10
7.10449
 20
10.7511
 30
0.0
 11
7.06787
 21
10.7633
 31
0.0
  0
LINE
  8
0
 62
     7
 10
7.06787
 20
10.7633
 30
0.0
 11
7.028
 21
10.7737
 31
0.0
  0
LINE
  8
0
 62
     7
 10
7.028
 20
10.7737
 30
0.0
 11
6.98281
 21
10.7824
 31
0.0
  0
LINE
  8
0
 62
     7
 10
6.98281
 20
10.7824
 30
0.0
 11
6.93018
 21
10.7896
 31
0.0
  0
LINE
  8
0
 62
     7
 10
6.93018
 20
10.7896
 30
0.0
 11
6.86817
 21
10.7953
 31
0.0
  0
LINE
  8
0
 62
     7
 10
6.86817
 20
10.7953
 30
0.0
 11
6.79465
 21
10.7997
 31
0.0
  0
LINE
  8
0
 62
     7
 10
6.79465
 20
10.7997
 30
0.0
 11
6.70757
 21
10.8031
 31
0.0
  0
LINE
  8
0
 62
     7
 10
6.70757
 20
10.8031
 30
0.0
 11
6.60493
 21
10.8056
 31
0.0
  0
LINE
  8
0
 62
     7
 10
6.60493
 20
10.8056
 30
0.0
 11
6.48465
 21
10.8072
 31
0.0
  0
LINE
  8
0
 62
     7
 10
6.48465
 20
10.8072
 30
0.0
 11
6.34467
 21
10.8083
 31
0.0
  0
LINE
  8
0
 62
     7
 10
6.34467
 20
10.8083
 30
0.0
 11
6.18294
 21
10.8088
 31
0.0
  0
LINE
  8
0
 62
     7
 10
6.18294
 20
10.8088
 30
0.0
 11
5.9974
 21
10.809
 31
0.0
  0
LINE
  8
0
 62
     7
 10
5.9974
 20
10.809
 30
0.0
 11
5.83886
 21
10.809
 31
0.0
  0
LINE
  8
0
 62
     7
 10
5.83886
 20
10.809
 30
0.0
 11
5.78603
 21
10.809
 31
0.0
  0
LINE
  8
0
 62
     7
 10
5.78603
 20
10.809
 30
0.0
 11
5.69922
 21
10.809
 31
0.0
  0
LINE
  8
0
 62
     7
 10
5.69922
 20
10.809
 30
0.0
 11
5.43881
 21
10.8092
 31
0.0
  0
LINE
  8
0
 62
     7
 10
5.43881
 20
10.8092
 30
0.0
 11
5.16949
 21
10.8102
 31
0.0
  0
LINE
  8
0
 62
     7
 10
5.16949
 20
10.8102
 30
0.0
 11
4.96724
 21
10.8121
 31
0.0
  0
LINE
  8
0
 62
     7
 10
4.96724
 20
10.8121
 30
0.0
 11
4.82101
 21
10.8156
 31
0.0
  0
LINE
  8
0
 62
     7
 10
4.82101
 20
10.8156
 30
0.0
 11
4.72
 21
10.8209
 31
0.0
  0
LINE
  8
0
 62
     7
 10
4.72
 20
10.8209
 30
0.0
 11
4.65321
 21
10.8284
 31
0.0
  0
LINE
  8
0
 62
     7
 10
4.65321
 20
10.8284
 30
0.0
 11
4.60975
 21
10.8385
 31
0.0
  0
LINE
  8
0
 62
     7
 10
4.60975
 20
10.8385
 30
0.0
 11
4.58615
 21
10.8479
 31
0.0
  0
LINE
  8
0
 62
     7
 10
4.58615
 20
10.8479
 30
0.0
 11
4.57872
 21
10.8517
 31
0.0
  0
LINE
  8
0
 62
     7
 10
4.57872
 20
10.8517
 30
0.0
 11
4.57004
 21
10.8561
 31
0.0
  0
LINE
  8
0
 62
     7
 10
4.57004
 20
10.8561
 30
0.0
 11
4.54531
 21
10.8717
 31
0.0
  0
LINE
  8
0
 62
     7
 10
4.54531
 20
10.8717
 30
0.0
 11
4.51882
 21
10.8956
 31
0.0
  0
LINE
  8
0
 62
     7
 10
4.51882
 20
10.8956
 30
0.0
 11
4.49858
 21
10.9261
 31
0.0
  0
LINE
  8
0
 62
     7
 10
4.49858
 20
10.9261
 30
0.0
 11
4.48394
 21
10.9656
 31
0.0
  0
LINE
  8
0
 62
     7
 10
4.48394
 20
10.9656
 30
0.0
 11
4.47412
 21
11.0167
 31
0.0
  0
LINE
  8
0
 62
     7
 10
4.47412
 20
11.0167
 30
0.0
 11
4.46853
 21
11.082
 31
0.0
  0
LINE
  8
0
 62
     7
 10
4.46853
 20
11.082
 30
0.0
 11
4.46647
 21
11.1641
 31
0.0
  0
LINE
  8
0
 62
     7
 10
4.46647
 20
11.1641
 30
0.0
 11
4.46685
 21
11.24
 31
0.0
  0
LINE
  8
0
 62
     7
 10
4.46685
 20
11.24
 30
0.0
 11
4.46729
 21
11.2653
 31
0.0
  0
LINE
  8
0
 62
     7
 10
4.46729
 20
11.2653
 30
0.0
 11
4.46772
 21
11.2966
 31
0.0
  0
LINE
  8
0
 62
     7
 10
4.46772
 20
11.2966
 30
0.0
 11
4.46972
 21
11.3905
 31
0.0
  0
LINE
  8
0
 62
     7
 10
4.46972
 20
11.3905
 30
0.0
 11
4.47364
 21
11.4639
 31
0.0
  0
LINE
  8
0
 62
     7
 10
4.47364
 20
11.4639
 30
0.0
 11
4.4809
 21
11.5054
 31
0.0
  0
LINE
  8
0
 62
     7
 10
4.4809
 20
11.5054
 30
0.0
 11
4.48964
 21
11.5279
 31
0.0
  0
LINE
  8
0
 62
     7
 10
4.48964
 20
11.5279
 30
0.0
 11
4.49333
 21
11.535
 31
0.0
  0
LINE
  8
0
 62
     7
 10
4.49333
 20
11.535
 30
0.0
 11
4.49957
 21
11.5467
 31
0.0
  0
LINE
  8
0
 62
     7
 10
4.49957
 20
11.5467
 30
0.0
 11
4.52311
 21
11.5789
 31
0.0
  0
LINE
  8
0
 62
     7
 10
4.52311
 20
11.5789
 30
0.0
 11
4.56076
 21
11.6106
 31
0.0
  0
LINE
  8
0
 62
     7
 10
4.56076
 20
11.6106
 30
0.0
 11
4.61051
 21
11.6329
 31
0.0
  0
LINE
  8
0
 62
     7
 10
4.61051
 20
11.6329
 30
0.0
 11
4.65994
 21
11.6457
 31
0.0
  0
LINE
  8
0
 62
     7
 10
4.65994
 20
11.6457
 30
0.0
 11
4.67665
 21
11.6486
 31
0.0
  0
LINE
  8
0
 62
     7
 10
4.67665
 20
11.6486
 30
0.0
 11
4.68463
 21
11.65
 31
0.0
  0
LINE
  8
0
 62
     7
 10
4.68463
 20
11.65
 30
0.0
 11
4.70882
 21
11.6528
 31
0.0
  0
LINE
  8
0
 62
     7
 10
4.70882
 20
11.6528
 30
0.0
 11
4.75424
 21
11.6561
 31
0.0
  0
LINE
  8
0
 62
     7
 10
4.75424
 20
11.6561
 30
0.0
 11
4.81814
 21
11.6586
 31
0.0
  0
LINE
  8
0
 62
     7
 10
4.81814
 20
11.6586
 30
0.0
 11
4.90593
 21
11.6604
 31
0.0
  0
LINE
  8
0
 62
     7
 10
4.90593
 20
11.6604
 30
0.0
 11
5.02285
 21
11.6614
 31
0.0
  0
LINE
  8
0
 62
     7
 10
5.02285
 20
11.6614
 30
0.0
 11
5.17421
 21
11.6618
 31
0.0
  0
LINE
  8
0
 62
     7
 10
5.17421
 20
11.6618
 30
0.0
 11
5.3654
 21
11.6617
 31
0.0
  0
LINE
  8
0
 62
     7
 10
5.3654
 20
11.6617
 30
0.0
 11
5.54258
 21
11.6613
 31
0.0
  0
LINE
  8
0
 62
     7
 10
5.54258
 20
11.6613
 30
0.0
 11
5.60167
 21
11.6611
 31
0.0
  0
LINE
  8
0
 62
     7
 10
5.60167
 20
11.6611
 30
0.0
 11
5.67008
 21
11.6609
 31
0.0
  0
LINE
  8
0
 62
     7
 10
5.67008
 20
11.6609
 30
0.0
 11
5.87554
 21
11.6601
 31
0.0
  0
LINE
  8
0
 62
     7
 10
5.87554
 20
11.6601
 30
0.0
 11
6.08274
 21
11.659
 31
0.0
  0
LINE
  8
0
 62
     7
 10
6.08274
 20
11.659
 30
0.0
 11
6.23329
 21
11.6576
 31
0.0
  0
LINE
  8
0
 62
     7
 10
6.23329
 20
11.6576
 30
0.0
 11
6.33718
 21
11.6557
 31
0.0
  0
LINE
  8
0
 62
     7
 10
6.33718
 20
11.6557
 30
0.0
 11
6.4044
 21
11.6528
 31
0.0
  0
LINE
  8
0
 62
     7
 10
6.4044
 20
11.6528
 30
0.0
 11
6.44493
 21
11.6488
 31
0.0
  0
LINE
  8
0
 62
     7
 10
6.44493
 20
11.6488
 30
0.0
 11
6.46886
 21
11.6434
 31
0.0
  0
LINE
  8
0
 62
     7
 10
6.46886
 20
11.6434
 30
0.0
 11
6.48182
 21
11.6381
 31
0.0
  0
LINE
  8
0
 62
     7
 10
6.48182
 20
11.6381
 30
0.0
 11
6.48606
 21
11.6361
 31
0.0
  0
LINE
  8
0
 62
     7
 10
6.48606
 20
11.6361
 30
0.0
 11
6.49257
 21
11.633
 31
0.0
  0
LINE
  8
0
 62
     7
 10
6.49257
 20
11.633
 30
0.0
 11
6.52599
 21
11.613
 31
0.0
  0
LINE
  8
0
 62
     7
 10
6.52599
 20
11.613
 30
0.0
 11
6.55268
 21
11.5918
 31
0.0
  0
LINE
  8
0
 62
     7
 10
6.55268
 20
11.5918
 30
0.0
 11
6.55583
 21
11.5882
 31
0.0
  0
LINE
  8
0
 62
     7
 10
6.55583
 20
11.5882
 30
0.0
 11
6.56261
 21
11.581
 31
0.0
  0
LINE
  8
0
 62
     7
 10
6.56261
 20
11.581
 30
0.0
 11
6.57807
 21
11.5544
 31
0.0
  0
LINE
  8
0
 62
     7
 10
6.57807
 20
11.5544
 30
0.0
 11
6.59554
 21
11.5074
 31
0.0
  0
LINE
  8
0
 62
     7
 10
6.59554
 20
11.5074
 30
0.0
 11
6.60693
 21
11.4516
 31
0.0
  0
LINE
  8
0
 62
     7
 10
6.60693
 20
11.4516
 30
0.0
 11
6.61106
 21
11.4064
 31
0.0
  0
LINE
  8
0
 62
     7
 10
6.61106
 20
11.4064
 30
0.0
 11
6.61106
 21
11.3913
 31
0.0
  0
LINE
  8
0
 62
     7
 10
6.61106
 20
11.3913
 30
0.0
 11
6.61106
 21
11.3772
 31
0.0
  0
LINE
  8
0
 62
     7
 10
6.61106
 20
11.3772
 30
0.0
 11
6.61372
 21
11.3348
 31
0.0
  0
LINE
  8
0
 62
     7
 10
6.61372
 20
11.3348
 30
0.0
 11
6.62244
 21
11.2932
 31
0.0
  0
LINE
  8
0
 62
     7
 10
6.62244
 20
11.2932
 30
0.0
 11
6.63824
 21
11.2636
 31
0.0
  0
LINE
  8
0
 62
     7
 10
6.63824
 20
11.2636
 30
0.0
 11
6.65539
 21
11.2473
 31
0.0
  0
LINE
  8
0
 62
     7
 10
6.65539
 20
11.2473
 30
0.0
 11
6.66206
 21
11.2434
 31
0.0
  0
LINE
  8
0
 62
     7
 10
6.66206
 20
11.2434
 30
0.0
 11
6.66471
 21
11.2419
 31
0.0
  0
LINE
  8
0
 62
     7
 10
6.66471
 20
11.2419
 30
0.0
 11
6.6735
 21
11.2382
 31
0.0
  0
LINE
  8
0
 62
     7
 10
6.6735
 20
11.2382
 30
0.0
 11
6.68978
 21
11.2341
 31
0.0
  0
LINE
  8
0
 62
     7
 10
6.68978
 20
11.2341
 30
0.0
 11
6.71414
 21
11.231
 31
0.0
  0
LINE
  8
0
 62
     7
 10
6.71414
 20
11.231
 30
0.0
 11
6.74968
 21
11.2287
 31
0.0
  0
LINE
  8
0
 62
     7
 10
6.74968
 20
11.2287
 30
0.0
 11
6.79975
 21
11.2272
 31
0.0
  0
LINE
  8
0
 62
     7
 10
6.79975
 20
11.2272
 30
0.0
 11
6.86757
 21
11.2263
 31
0.0
  0
LINE
  8
0
 62
     7
 10
6.86757
 20
11.2263
 30
0.0
 11
6.95638
 21
11.2259
 31
0.0
  0
LINE
  8
0
 62
     7
 10
6.95638
 20
11.2259
 30
0.0
 11
7.04113
 21
11.2257
 31
0.0
  0
LINE
  8
0
 62
     7
 10
7.04113
 20
11.2257
 30
0.0
 11
7.06939
 21
11.2257
 31
0.0
  0
LINE
  8
0
 62
     7
 10
7.06939
 20
11.2257
 30
0.0
 11
7.44646
 21
11.2257
 31
0.0
  0
LINE
  8
0
 62
     7
 10
7.44646
 20
11.2257
 30
0.0
 11
7.51938
 21
11.2986
 31
0.0
  0
LINE
  8
0
 62
     7
 10
7.51938
 20
11.2986
 30
0.0
 11
7.51519
 21
11.5298
 31
0.0
  0
LINE
  8
0
 62
     7
 10
7.51519
 20
11.5298
 30
0.0
 11
7.51454
 21
11.5619
 31
0.0
  0
LINE
  8
0
 62
     7
 10
7.51454
 20
11.5619
 30
0.0
 11
7.51058
 21
11.6579
 31
0.0
  0
LINE
  8
0
 62
     7
 10
7.51058
 20
11.6579
 30
0.0
 11
7.50179
 21
11.7688
 31
0.0
  0
LINE
  8
0
 62
     7
 10
7.50179
 20
11.7688
 30
0.0
 11
7.48817
 21
11.8646
 31
0.0
  0
LINE
  8
0
 62
     7
 10
7.48817
 20
11.8646
 30
0.0
 11
7.46907
 21
11.948
 31
0.0
  0
LINE
  8
0
 62
     7
 10
7.46907
 20
11.948
 30
0.0
 11
7.44385
 21
12.0211
 31
0.0
  0
LINE
  8
0
 62
     7
 10
7.44385
 20
12.0211
 30
0.0
 11
7.41178
 21
12.0864
 31
0.0
  0
LINE
  8
0
 62
     7
 10
7.41178
 20
12.0864
 30
0.0
 11
7.37224
 21
12.1462
 31
0.0
  0
LINE
  8
0
 62
     7
 10
7.37224
 20
12.1462
 30
0.0
 11
7.33713
 21
12.1893
 31
0.0
  0
LINE
  8
0
 62
     7
 10
7.33713
 20
12.1893
 30
0.0
 11
7.3246
 21
12.2028
 31
0.0
  0
LINE
  8
0
 62
     7
 10
7.3246
 20
12.2028
 30
0.0
 11
7.30729
 21
12.2215
 31
0.0
  0
LINE
  8
0
 62
     7
 10
7.30729
 20
12.2215
 30
0.0
 11
7.24843
 21
12.2708
 31
0.0
  0
LINE
  8
0
 62
     7
 10
7.24843
 20
12.2708
 30
0.0
 11
7.1575
 21
12.3247
 31
0.0
  0
LINE
  8
0
 62
     7
 10
7.1575
 20
12.3247
 30
0.0
 11
7.04725
 21
12.3669
 31
0.0
  0
LINE
  8
0
 62
     7
 10
7.04725
 20
12.3669
 30
0.0
 11
6.94694
 21
12.393
 31
0.0
  0
LINE
  8
0
 62
     7
 10
6.94694
 20
12.393
 30
0.0
 11
6.91314
 21
12.3996
 31
0.0
  0
LINE
  8
0
 62
     7
 10
6.91314
 20
12.3996
 30
0.0
 11
6.90397
 21
12.4014
 31
0.0
  0
LINE
  8
0
 62
     7
 10
6.90397
 20
12.4014
 30
0.0
 11
6.87625
 21
12.4055
 31
0.0
  0
LINE
  8
0
 62
     7
 10
6.87625
 20
12.4055
 30
0.0
 11
6.82667
 21
12.4101
 31
0.0
  0
LINE
  8
0
 62
     7
 10
6.82667
 20
12.4101
 30
0.0
 11
6.75151
 21
12.4134
 31
0.0
  0
LINE
  8
0
 62
     7
 10
6.75151
 20
12.4134
 30
0.0
 11
6.63797
 21
12.4157
 31
0.0
  0
LINE
  8
0
 62
     7
 10
6.63797
 20
12.4157
 30
0.0
 11
6.47319
 21
12.4172
 31
0.0
  0
LINE
  8
0
 62
     7
 10
6.47319
 20
12.4172
 30
0.0
 11
6.24442
 21
12.418
 31
0.0
  0
LINE
  8
0
 62
     7
 10
6.24442
 20
12.418
 30
0.0
 11
5.93869
 21
12.4183
 31
0.0
  0
LINE
  8
0
 62
     7
 10
5.93869
 20
12.4183
 30
0.0
 11
5.64214
 21
12.4184
 31
0.0
  0
LINE
  8
0
 62
     7
 10
5.64214
 20
12.4184
 30
0.0
 11
5.54335
 21
12.4184
 31
0.0
  0
LINE
  8
0
 62
     7
 10
5.54335
 20
12.4184
 30
0.0
 11
5.44422
 21
12.4184
 31
0.0
  0
LINE
  8
0
 62
     7
 10
5.44422
 20
12.4184
 30
0.0
 11
5.14703
 21
12.4183
 31
0.0
  0
LINE
  8
0
 62
     7
 10
5.14703
 20
12.4183
 30
0.0
 11
4.84093
 21
12.418
 31
0.0
  0
LINE
  8
0
 62
     7
 10
4.84093
 20
12.418
 30
0.0
 11
4.61208
 21
12.4172
 31
0.0
  0
LINE
  8
0
 62
     7
 10
4.61208
 20
12.4172
 30
0.0
 11
4.4476
 21
12.4157
 31
0.0
  0
LINE
  8
0
 62
     7
 10
4.4476
 20
12.4157
 30
0.0
 11
4.33453
 21
12.4134
 31
0.0
  0
LINE
  8
0
 62
     7
 10
4.33453
 20
12.4134
 30
0.0
 11
4.25993
 21
12.4101
 31
0.0
  0
LINE
  8
0
 62
     7
 10
4.25993
 20
12.4101
 30
0.0
 11
4.21094
 21
12.4055
 31
0.0
  0
LINE
  8
0
 62
     7
 10
4.21094
 20
12.4055
 30
0.0
 11
4.1836
 21
12.4014
 31
0.0
  0
LINE
  8
0
 62
     7
 10
4.1836
 20
12.4014
 30
0.0
 11
4.17458
 21
12.3996
 31
0.0
  0
LINE
  8
0
 62
     7
 10
4.17458
 20
12.3996
 30
0.0
 11
4.13043
 21
12.3911
 31
0.0
  0
LINE
  8
0
 62
     7
 10
4.13043
 20
12.3911
 30
0.0
 11
4.00038
 21
12.3527
 31
0.0
  0
LINE
  8
0
 62
     7
 10
4.00038
 20
12.3527
 30
0.0
 11
3.85682
 21
12.2848
 31
0.0
  0
LINE
  8
0
 62
     7
 10
3.85682
 20
12.2848
 30
0.0
 11
3.743
 21
12.1955
 31
0.0
  0
LINE
  8
0
 62
     7
 10
3.743
 20
12.1955
 30
0.0
 11
3.67535
 21
12.1142
 31
0.0
  0
LINE
  8
0
 62
     7
 10
3.67535
 20
12.1142
 30
0.0
 11
3.65793
 21
12.084
 31
0.0
  0
LINE
  8
0
 62
     7
 10
3.65793
 20
12.084
 30
0.0
 11
3.64996
 21
12.0704
 31
0.0
  0
LINE
  8
0
 62
     7
 10
3.64996
 20
12.0704
 30
0.0
 11
3.62722
 21
12.0287
 31
0.0
  0
LINE
  8
0
 62
     7
 10
3.62722
 20
12.0287
 30
0.0
 11
3.60476
 21
11.9794
 31
0.0
  0
LINE
  8
0
 62
     7
 10
3.60476
 20
11.9794
 30
0.0
 11
3.58464
 21
11.9214
 31
0.0
  0
LINE
  8
0
 62
     7
 10
3.58464
 20
11.9214
 30
0.0
 11
3.56674
 21
11.8606
 31
0.0
  0
LINE
  8
0
 62
     7
 10
3.56674
 20
11.8606
 30
0.0
 11
3.56104
 21
11.8403
 31
0.0
  0
LINE
  8
0
 62
     7
 10
3.56104
 20
11.8403
 30
0.0
 11
3.53396
 21
11.7413
 31
0.0
  0
LINE
  8
0
 62
     7
 10
3.53396
 20
11.7413
 30
0.0
 11
3.53396
 21
11.2517
 31
0.0
  0
LINE
  8
0
 62
     7
 10
3.53396
 20
11.2517
 30
0.0
 11
3.53386
 21
11.2122
 31
0.0
  0
LINE
  8
0
 62
     7
 10
3.53386
 20
11.2122
 30
0.0
 11
3.53369
 21
11.0935
 31
0.0
  0
LINE
  8
0
 62
     7
 10
3.53369
 20
11.0935
 30
0.0
 11
3.53386
 21
10.9722
 31
0.0
  0
LINE
  8
0
 62
     7
 10
3.53386
 20
10.9722
 30
0.0
 11
3.53467
 21
10.8815
 31
0.0
  0
LINE
  8
0
 62
     7
 10
3.53467
 20
10.8815
 30
0.0
 11
3.5364
 21
10.8152
 31
0.0
  0
LINE
  8
0
 62
     7
 10
3.5364
 20
10.8152
 30
0.0
 11
3.53928
 21
10.7667
 31
0.0
  0
LINE
  8
0
 62
     7
 10
3.53928
 20
10.7667
 30
0.0
 11
3.54346
 21
10.7298
 31
0.0
  0
LINE
  8
0
 62
     7
 10
3.54346
 20
10.7298
 30
0.0
 11
3.54921
 21
10.6981
 31
0.0
  0
LINE
  8
0
 62
     7
 10
3.54921
 20
10.6981
 30
0.0
 11
3.55485
 21
10.6734
 31
0.0
  0
LINE
  8
0
 62
     7
 10
3.55485
 20
10.6734
 30
0.0
 11
3.55686
 21
10.6653
 31
0.0
  0
LINE
  8
0
 62
     7
 10
3.55686
 20
10.6653
 30
0.0
 11
3.56401
 21
10.6361
 31
0.0
  0
LINE
  8
0
 62
     7
 10
3.56401
 20
10.6361
 30
0.0
 11
3.59088
 21
10.5499
 31
0.0
  0
LINE
  8
0
 62
     7
 10
3.59088
 20
10.5499
 30
0.0
 11
3.63282
 21
10.4499
 31
0.0
  0
LINE
  8
0
 62
     7
 10
3.63282
 20
10.4499
 30
0.0
 11
3.68414
 21
10.3638
 31
0.0
  0
LINE
  8
0
 62
     7
 10
3.68414
 20
10.3638
 30
0.0
 11
3.74604
 21
10.2904
 31
0.0
  0
LINE
  8
0
 62
     7
 10
3.74604
 20
10.2904
 30
0.0
 11
3.81993
 21
10.2284
 31
0.0
  0
LINE
  8
0
 62
     7
 10
3.81993
 20
10.2284
 30
0.0
 11
3.90712
 21
10.1765
 31
0.0
  0
LINE
  8
0
 62
     7
 10
3.90712
 20
10.1765
 30
0.0
 11
4.0089
 21
10.1333
 31
0.0
  0
LINE
  8
0
 62
     7
 10
4.0089
 20
10.1333
 30
0.0
 11
4.0969
 21
10.1052
 31
0.0
  0
LINE
  8
0
 62
     7
 10
4.0969
 20
10.1052
 30
0.0
 11
4.12668
 21
10.0975
 31
0.0
  0
LINE
  8
0
 62
     7
 10
4.12668
 20
10.0975
 30
0.0
 11
4.13417
 21
10.0957
 31
0.0
  0
LINE
  8
0
 62
     7
 10
4.13417
 20
10.0957
 30
0.0
 11
4.1569
 21
10.0907
 31
0.0
  0
LINE
  8
0
 62
     7
 10
4.1569
 20
10.0907
 30
0.0
 11
4.1959
 21
10.0853
 31
0.0
  0
LINE
  8
0
 62
     7
 10
4.1959
 20
10.0853
 30
0.0
 11
4.25635
 21
10.0812
 31
0.0
  0
LINE
  8
0
 62
     7
 10
4.25635
 20
10.0812
 30
0.0
 11
4.35097
 21
10.0781
 31
0.0
  0
LINE
  8
0
 62
     7
 10
4.35097
 20
10.0781
 30
0.0
 11
4.4924
 21
10.0756
 31
0.0
  0
LINE
  8
0
 62
     7
 10
4.4924
 20
10.0756
 30
0.0
 11
4.69336
 21
10.0736
 31
0.0
  0
LINE
  8
0
 62
     7
 10
4.69336
 20
10.0736
 30
0.0
 11
4.96653
 21
10.0716
 31
0.0
  0
LINE
  8
0
 62
     7
 10
4.96653
 20
10.0716
 30
0.0
 11
5.23508
 21
10.07
 31
0.0
  0
LINE
  8
0
 62
     7
 10
5.23508
 20
10.07
 30
0.0
 11
5.3246
 21
10.0694
 31
0.0
  0
LINE
  8
0
 62
     7
 10
5.3246
 20
10.0694
 30
0.0
 11
5.39686
 21
10.069
 31
0.0
  0
LINE
  8
0
 62
     7
 10
5.39686
 20
10.069
 30
0.0
 11
5.61382
 21
10.0675
 31
0.0
  0
LINE
  8
0
 62
     7
 10
5.61382
 20
10.0675
 30
0.0
 11
5.85499
 21
10.0655
 31
0.0
  0
LINE
  8
0
 62
     7
 10
5.85499
 20
10.0655
 30
0.0
 11
6.0516
 21
10.0634
 31
0.0
  0
LINE
  8
0
 62
     7
 10
6.0516
 20
10.0634
 30
0.0
 11
6.20714
 21
10.0611
 31
0.0
  0
LINE
  8
0
 62
     7
 10
6.20714
 20
10.0611
 30
0.0
 11
6.32503
 21
10.0587
 31
0.0
  0
LINE
  8
0
 62
     7
 10
6.32503
 20
10.0587
 30
0.0
 11
6.40886
 21
10.056
 31
0.0
  0
LINE
  8
0
 62
     7
 10
6.40886
 20
10.056
 30
0.0
 11
6.46203
 21
10.053
 31
0.0
  0
LINE
  8
0
 62
     7
 10
6.46203
 20
10.053
 30
0.0
 11
6.48178
 21
10.0513
 31
0.0
  0
LINE
  8
0
 62
     7
 10
6.48178
 20
10.0513
 30
0.0
 11
6.48812
 21
10.0496
 31
0.0
  0
LINE
  8
0
 62
     7
 10
6.48812
 20
10.0496
 30
0.0
 11
6.50054
 21
10.0464
 31
0.0
  0
LINE
  8
0
 62
     7
 10
6.50054
 20
10.0464
 30
0.0
 11
6.53678
 21
10.0327
 31
0.0
  0
LINE
  8
0
 62
     7
 10
6.53678
 20
10.0327
 30
0.0
 11
6.57601
 21
10.0093
 31
0.0
  0
LINE
  8
0
 62
     7
 10
6.57601
 20
10.0093
 30
0.0
 11
6.60721
 21
9.97846
 31
0.0
  0
LINE
  8
0
 62
     7
 10
6.60721
 20
9.97846
 30
0.0
 11
6.62674
 21
9.94954
 31
0.0
  0
LINE
  8
0
 62
     7
 10
6.62674
 20
9.94954
 30
0.0
 11
6.63189
 21
9.93924
 31
0.0
  0
LINE
  8
0
 62
     7
 10
6.63189
 20
9.93924
 30
0.0
 11
6.63612
 21
9.93093
 31
0.0
  0
LINE
  8
0
 62
     7
 10
6.63612
 20
9.93093
 30
0.0
 11
6.64692
 21
9.90506
 31
0.0
  0
LINE
  8
0
 62
     7
 10
6.64692
 20
9.90506
 30
0.0
 11
6.65468
 21
9.86035
 31
0.0
  0
LINE
  8
0
 62
     7
 10
6.65468
 20
9.86035
 30
0.0
 11
6.6575
 21
9.77696
 31
0.0
  0
LINE
  8
0
 62
     7
 10
6.6575
 20
9.77696
 30
0.0
 11
6.65793
 21
9.66433
 31
0.0
  0
LINE
  8
0
 62
     7
 10
6.65793
 20
9.66433
 30
0.0
 11
6.65793
 21
9.62674
 31
0.0
  0
LINE
  8
0
 62
     7
 10
6.65793
 20
9.62674
 30
0.0
 11
6.65793
 21
9.36632
 31
0.0
  0
LINE
  8
0
 62
     7
 10
6.65793
 20
9.36632
 30
0.0
 11
6.62978
 21
9.30588
 31
0.0
  0
LINE
  8
0
 62
     7
 10
6.62978
 20
9.30588
 30
0.0
 11
6.62571
 21
9.29753
 31
0.0
  0
LINE
  8
0
 62
     7
 10
6.62571
 20
9.29753
 30
0.0
 11
6.61253
 21
9.27289
 31
0.0
  0
LINE
  8
0
 62
     7
 10
6.61253
 20
9.27289
 30
0.0
 11
6.59603
 21
9.25108
 31
0.0
  0
LINE
  8
0
 62
     7
 10
6.59603
 20
9.25108
 30
0.0
 11
6.57422
 21
9.2346
 31
0.0
  0
LINE
  8
0
 62
     7
 10
6.57422
 20
9.2346
 30
0.0
 11
6.54958
 21
9.22136
 31
0.0
  0
LINE
  8
0
 62
     7
 10
6.54958
 20
9.22136
 30
0.0
 11
6.54124
 21
9.21733
 31
0.0
  0
LINE
  8
0
 62
     7
 10
6.54124
 20
9.21733
 30
0.0
 11
6.48085
 21
9.18924
 31
0.0
  0
LINE
  8
0
 62
     7
 10
6.48085
 20
9.18924
 30
0.0
 11
5.52979
 21
9.18608
 31
0.0
  0
LINE
  8
0
 62
     7
 10
5.52979
 20
9.18608
 30
0.0
 11
5.4706
 21
9.18593
 31
0.0
  0
LINE
  8
0
 62
     7
 10
5.4706
 20
9.18593
 30
0.0
 11
5.29303
 21
9.1856
 31
0.0
  0
LINE
  8
0
 62
     7
 10
5.29303
 20
9.1856
 30
0.0
 11
5.09174
 21
9.18554
 31
0.0
  0
LINE
  8
0
 62
     7
 10
5.09174
 20
9.18554
 30
0.0
 11
4.92437
 21
9.18599
 31
0.0
  0
LINE
  8
0
 62
     7
 10
4.92437
 20
9.18599
 30
0.0
 11
4.78911
 21
9.1869
 31
0.0
  0
LINE
  8
0
 62
     7
 10
4.78911
 20
9.1869
 30
0.0
 11
4.68435
 21
9.18837
 31
0.0
  0
LINE
  8
0
 62
     7
 10
4.68435
 20
9.18837
 30
0.0
 11
4.60835
 21
9.19026
 31
0.0
  0
LINE
  8
0
 62
     7
 10
4.60835
 20
9.19026
 30
0.0
 11
4.55946
 21
9.19265
 31
0.0
  0
LINE
  8
0
 62
     7
 10
4.55946
 20
9.19265
 30
0.0
 11
4.54161
 21
9.19396
 31
0.0
  0
LINE
  8
0
 62
     7
 10
4.54161
 20
9.19396
 30
0.0
 11
4.53603
 21
9.19547
 31
0.0
  0
LINE
  8
0
 62
     7
 10
4.53603
 20
9.19547
 30
0.0
 11
4.52507
 21
9.19835
 31
0.0
  0
LINE
  8
0
 62
     7
 10
4.52507
 20
9.19835
 30
0.0
 11
4.49425
 21
9.21425
 31
0.0
  0
LINE
  8
0
 62
     7
 10
4.49425
 20
9.21425
 30
0.0
 11
4.45503
 21
9.24528
 31
0.0
  0
LINE
  8
0
 62
     7
 10
4.45503
 20
9.24528
 30
0.0
 11
4.42324
 21
9.28369
 31
0.0
  0
LINE
  8
0
 62
     7
 10
4.42324
 20
9.28369
 30
0.0
 11
4.40685
 21
9.31392
 31
0.0
  0
LINE
  8
0
 62
     7
 10
4.40685
 20
9.31392
 30
0.0
 11
4.40375
 21
9.32465
 31
0.0
  0
LINE
  8
0
 62
     7
 10
4.40375
 20
9.32465
 30
0.0
 11
4.40224
 21
9.33018
 31
0.0
  0
LINE
  8
0
 62
     7
 10
4.40224
 20
9.33018
 30
0.0
 11
4.39931
 21
9.34728
 31
0.0
  0
LINE
  8
0
 62
     7
 10
4.39931
 20
9.34728
 30
0.0
 11
4.39567
 21
9.37804
 31
0.0
  0
LINE
  8
0
 62
     7
 10
4.39567
 20
9.37804
 30
0.0
 11
4.39318
 21
9.41314
 31
0.0
  0
LINE
  8
0
 62
     7
 10
4.39318
 20
9.41314
 30
0.0
 11
4.39231
 21
9.43978
 31
0.0
  0
LINE
  8
0
 62
     7
 10
4.39231
 20
9.43978
 30
0.0
 11
4.39231
 21
9.44863
 31
0.0
  0
LINE
  8
0
 62
     7
 10
4.39231
 20
9.44863
 30
0.0
 11
4.39231
 21
9.46442
 31
0.0
  0
LINE
  8
0
 62
     7
 10
4.39231
 20
9.46442
 30
0.0
 11
4.38803
 21
9.51167
 31
0.0
  0
LINE
  8
0
 62
     7
 10
4.38803
 20
9.51167
 30
0.0
 11
4.37468
 21
9.55826
 31
0.0
  0
LINE
  8
0
 62
     7
 10
4.37468
 20
9.55826
 30
0.0
 11
4.3514
 21
9.59044
 31
0.0
  0
LINE
  8
0
 62
     7
 10
4.3514
 20
9.59044
 30
0.0
 11
4.32639
 21
9.60688
 31
0.0
  0
LINE
  8
0
 62
     7
 10
4.32639
 20
9.60688
 30
0.0
 11
4.31728
 21
9.61008
 31
0.0
  0
LINE
  8
0
 62
     7
 10
4.31728
 20
9.61008
 30
0.0
 11
4.31207
 21
9.61193
 31
0.0
  0
LINE
  8
0
 62
     7
 10
4.31207
 20
9.61193
 30
0.0
 11
4.28033
 21
9.61496
 31
0.0
  0
LINE
  8
0
 62
     7
 10
4.28033
 20
9.61496
 30
0.0
 11
4.20226
 21
9.61854
 31
0.0
  0
LINE
  8
0
 62
     7
 10
4.20226
 20
9.61854
 30
0.0
 11
4.08535
 21
9.62076
 31
0.0
  0
LINE
  8
0
 62
     7
 10
4.08535
 20
9.62076
 30
0.0
 11
3.97021
 21
9.62153
 31
0.0
  0
LINE
  8
0
 62
     7
 10
3.97021
 20
9.62153
 30
0.0
 11
3.93186
 21
9.62153
 31
0.0
  0
LINE
  8
0
 62
     7
 10
3.93186
 20
9.62153
 30
0.0
 11
3.89882
 21
9.62153
 31
0.0
  0
LINE
  8
0
 62
     7
 10
3.89882
 20
9.62153
 30
0.0
 11
3.79975
 21
9.62136
 31
0.0
  0
LINE
  8
0
 62
     7
 10
3.79975
 20
9.62136
 30
0.0
 11
3.69894
 21
9.62022
 31
0.0
  0
LINE
  8
0
 62
     7
 10
3.69894
 20
9.62022
 30
0.0
 11
3.62472
 21
9.61751
 31
0.0
  0
LINE
  8
0
 62
     7
 10
3.62472
 20
9.61751
 30
0.0
 11
3.57249
 21
9.61247
 31
0.0
  0
LINE
  8
0
 62
     7
 10
3.57249
 20
9.61247
 30
0.0
 11
3.53765
 21
9.60439
 31
0.0
  0
LINE
  8
0
 62
     7
 10
3.53765
 20
9.60439
 30
0.0
 11
3.51557
 21
9.59256
 31
0.0
  0
LINE
  8
0
 62
     7
 10
3.51557
 20
9.59256
 30
0.0
 11
3.50163
 21
9.57628
 31
0.0
  0
LINE
  8
0
 62
     7
 10
3.50163
 20
9.57628
 30
0.0
 11
3.49354
 21
9.56033
 31
0.0
  0
LINE
  8
0
 62
     7
 10
3.49354
 20
9.56033
 30
0.0
 11
3.49126
 21
9.55485
 31
0.0
  0
LINE
  8
0
 62
     7
 10
3.49126
 20
9.55485
 30
0.0
 11
3.48682
 21
9.54438
 31
0.0
  0
LINE
  8
0
 62
     7
 10
3.48682
 20
9.54438
 30
0.0
 11
3.48133
 21
9.50965
 31
0.0
  0
LINE
  8
0
 62
     7
 10
3.48133
 20
9.50965
 30
0.0
 11
3.4764
 21
9.43858
 31
0.0
  0
LINE
  8
0
 62
     7
 10
3.4764
 20
9.43858
 30
0.0
 11
3.47597
 21
9.34924
 31
0.0
  0
LINE
  8
0
 62
     7
 10
3.47597
 20
9.34924
 30
0.0
 11
3.47965
 21
9.24929
 31
0.0
  0
LINE
  8
0
 62
     7
 10
3.47965
 20
9.24929
 30
0.0
 11
3.48693
 21
9.14649
 31
0.0
  0
LINE
  8
0
 62
     7
 10
3.48693
 20
9.14649
 30
0.0
 11
3.4975
 21
9.0485
 31
0.0
  0
LINE
  8
0
 62
     7
 10
3.4975
 20
9.0485
 30
0.0
 11
3.51085
 21
8.96294
 31
0.0
  0
LINE
  8
0
 62
     7
 10
3.51085
 20
8.96294
 30
0.0
 11
3.52154
 21
8.91357
 31
0.0
  0
LINE
  8
0
 62
     7
 10
3.52154
 20
8.91357
 30
0.0
 11
3.52664
 21
8.89757
 31
0.0
  0
LINE
  8
0
 62
     7
 10
3.52664
 20
8.89757
 30
0.0
 11
3.5339
 21
8.875
 31
0.0
  0
LINE
  8
0
 62
     7
 10
3.5339
 20
8.875
 30
0.0
 11
3.55968
 21
8.80832
 31
0.0
  0
LINE
  8
0
 62
     7
 10
3.55968
 20
8.80832
 30
0.0
 11
3.59733
 21
8.73481
 31
0.0
  0
LINE
  8
0
 62
     7
 10
3.59733
 20
8.73481
 30
0.0
 11
3.64339
 21
8.67111
 31
0.0
  0
LINE
  8
0
 62
     7
 10
3.64339
 20
8.67111
 30
0.0
 11
3.68625
 21
8.62522
 31
0.0
  0
LINE
  8
0
 62
     7
 10
3.68625
 20
8.62522
 30
0.0
 11
3.70167
 21
8.61111
 31
0.0
  0
LINE
  8
0
 62
     7
 10
3.70167
 20
8.61111
 30
0.0
 11
3.72092
 21
8.59326
 31
0.0
  0
LINE
  8
0
 62
     7
 10
3.72092
 20
8.59326
 30
0.0
 11
3.78618
 21
8.54775
 31
0.0
  0
LINE
  8
0
 62
     7
 10
3.78618
 20
8.54775
 30
0.0
 11
3.88911
 21
8.49696
 31
0.0
  0
LINE
  8
0
 62
     7
 10
3.88911
 20
8.49696
 30
0.0
 11
4.00922
 21
8.45925
 31
0.0
  0
LINE
  8
0
 62
     7
 10
4.00922
 20
8.45925
 30
0.0
 11
4.11111
 21
8.43918
 31
0.0
  0
LINE
  8
0
 62
     7
 10
4.11111
 20
8.43918
 30
0.0
 11
4.1454
 21
8.43506
 31
0.0
  0
LINE
  8
0
 62
     7
 10
4.1454
 20
8.43506
 30
0.0
 11
4.15582
 21
8.43375
 31
0.0
  0
LINE
  8
0
 62
     7
 10
4.15582
 20
8.43375
 30
0.0
 11
4.1881
 21
8.43321
 31
0.0
  0
LINE
  8
0
 62
     7
 10
4.1881
 20
8.43321
 30
0.0
 11
4.28114
 21
8.43158
 31
0.0
  0
LINE
  8
0
 62
     7
 10
4.28114
 20
8.43158
 30
0.0
 11
4.41868
 21
8.43024
 31
0.0
  0
LINE
  8
0
 62
     7
 10
4.41868
 20
8.43024
 30
0.0
 11
4.59483
 21
8.4291
 31
0.0
  0
LINE
  8
0
 62
     7
 10
4.59483
 20
8.4291
 30
0.0
 11
4.80388
 21
8.42828
 31
0.0
  0
LINE
  8
0
 62
     7
 10
4.80388
 20
8.42828
 30
0.0
 11
5.03982
 21
8.42779
 31
0.0
  0
LINE
  8
0
 62
     7
 10
5.03982
 20
8.42779
 30
0.0
 11
5.29693
 21
8.42763
 31
0.0
  0
LINE
  8
0
 62
     7
 10
5.29693
 20
8.42763
 30
0.0
 11
5.50125
 21
8.42774
 31
0.0
  0
LINE
  8
0
 62
     7
 10
5.50125
 20
8.42774
 30
0.0
 11
5.56939
 21
8.42779
 31
0.0
  0
LINE
  8
0
 62
     7
 10
5.56939
 20
8.42779
 30
0.0
 11
6.91835
 21
8.42985
 31
0.0
  0
LINE
  8
0
 62
     7
 10
6.91835
 20
8.42985
 30
0.0
 11
7.0121
 21
8.45383
 31
0.0
  0
LINE
  8
0
 62
     7
 10
20.3663
 20
0.0121528
 30
0.0
 11
20.3621
 21
0.0126953
 31
0.0
  0
LINE
  8
0
 62
     7
 10
20.3621
 20
0.0126953
 30
0.0
 11
20.3392
 21
0.0145942
 31
0.0
  0
LINE
  8
0
 62
     7
 10
20.3392
 20
0.0145942
 30
0.0
 11
20.2878
 21
0.0184463
 31
0.0
  0
LINE
  8
0
 62
     7
 10
20.2878
 20
0.0184463
 30
0.0
 11
20.2197
 21
0.0230035
 31
0.0
  0
LINE
  8
0
 62
     7
 10
20.2197
 20
0.0230035
 30
0.0
 11
20.1617
 21
0.0266928
 31
0.0
  0
LINE
  8
0
 62
     7
 10
20.1617
 20
0.0266928
 30
0.0
 11
20.1424
 21
0.0277778
 31
0.0
  0
LINE
  8
0
 62
     7
 10
20.1424
 20
0.0277778
 30
0.0
 11
20.0607
 21
0.0326064
 31
0.0
  0
LINE
  8
0
 62
     7
 10
20.0607
 20
0.0326064
 30
0.0
 11
19.8164
 21
0.0533311
 31
0.0
  0
LINE
  8
0
 62
     7
 10
19.8164
 20
0.0533311
 30
0.0
 11
19.479
 21
0.0914714
 31
0.0
  0
LINE
  8
0
 62
     7
 10
19.479
 20
0.0914714
 30
0.0
 11
19.1413
 21
0.140733
 31
0.0
  0
LINE
  8
0
 62
     7
 10
19.1413
 20
0.140733
 30
0.0
 11
18.8956
 21
0.183485
 31
0.0
  0
LINE
  8
0
 62
     7
 10
18.8956
 20
0.183485
 30
0.0
 11
18.8142
 21
0.199653
 31
0.0
  0
LINE
  8
0
 62
     7
 10
18.8142
 20
0.199653
 30
0.0
 11
18.7747
 21
0.207519
 31
0.0
  0
LINE
  8
0
 62
     7
 10
18.7747
 20
0.207519
 30
0.0
 11
18.6565
 21
0.231446
 31
0.0
  0
LINE
  8
0
 62
     7
 10
18.6565
 20
0.231446
 30
0.0
 11
18.5439
 21
0.255154
 31
0.0
  0
LINE
  8
0
 62
     7
 10
18.5439
 20
0.255154
 30
0.0
 11
18.4519
 21
0.27615
 31
0.0
  0
LINE
  8
0
 62
     7
 10
18.4519
 20
0.27615
 30
0.0
 11
18.3797
 21
0.293674
 31
0.0
  0
LINE
  8
0
 62
     7
 10
18.3797
 20
0.293674
 30
0.0
 11
18.3558
 21
0.299642
 31
0.0
  0
LINE
  8
0
 62
     7
 10
18.3558
 20
0.299642
 30
0.0
 11
18.2106
 21
0.335775
 31
0.0
  0
LINE
  8
0
 62
     7
 10
18.2106
 20
0.335775
 30
0.0
 11
17.7785
 21
0.458876
 31
0.0
  0
LINE
  8
0
 62
     7
 10
17.7785
 20
0.458876
 30
0.0
 11
17.2308
 21
0.643013
 31
0.0
  0
LINE
  8
0
 62
     7
 10
17.2308
 20
0.643013
 30
0.0
 11
16.6988
 21
0.857042
 31
0.0
  0
LINE
  8
0
 62
     7
 10
16.6988
 20
0.857042
 30
0.0
 11
16.2992
 21
1.04031
 31
0.0
  0
LINE
  8
0
 62
     7
 10
16.2992
 20
1.04031
 30
0.0
 11
16.1683
 21
1.1059
 31
0.0
  0
LINE
  8
0
 62
     7
 10
16.1683
 20
1.1059
 30
0.0
 11
16.11
 21
1.13515
 31
0.0
  0
LINE
  8
0
 62
     7
 10
16.11
 20
1.13515
 30
0.0
 11
15.936
 21
1.22461
 31
0.0
  0
LINE
  8
0
 62
     7
 10
15.936
 20
1.22461
 30
0.0
 11
15.7726
 21
1.31321
 31
0.0
  0
LINE
  8
0
 62
     7
 10
15.7726
 20
1.31321
 30
0.0
 11
15.6789
 21
1.37137
 31
0.0
  0
LINE
  8
0
 62
     7
 10
15.6789
 20
1.37137
 30
0.0
 11
15.6556
 21
1.39833
 31
0.0
  0
LINE
  8
0
 62
     7
 10
15.6556
 20
1.39833
 30
0.0
 11
15.6558
 21
1.3986
 31
0.0
  0
LINE
  8
0
 62
     7
 10
15.6558
 20
1.3986
 30
0.0
 11
15.6576
 21
1.40018
 31
0.0
  0
LINE
  8
0
 62
     7
 10
15.6576
 20
1.40018
 30
0.0
 11
15.6736
 21
1.41069
 31
0.0
  0
LINE
  8
0
 62
     7
 10
15.6736
 20
1.41069
 30
0.0
 11
15.7124
 21
1.43522
 31
0.0
  0
LINE
  8
0
 62
     7
 10
15.7124
 20
1.43522
 30
0.0
 11
15.7663
 21
1.46853
 31
0.0
  0
LINE
  8
0
 62
     7
 10
15.7663
 20
1.46853
 30
0.0
 11
15.8139
 21
1.49744
 31
0.0
  0
LINE
  8
0
 62
     7
 10
15.8139
 20
1.49744
 30
0.0
 11
15.8299
 21
1.50694
 31
0.0
  0
LINE
  8
0
 62
     7
 10
15.8299
 20
1.50694
 30
0.0
 11
15.9182
 21
1.56028
 31
0.0
  0
LINE
  8
0
 62
     7
 10
15.9182
 20
1.56028
 30
0.0
 11
16.1789
 21
1.72786
 31
0.0
  0
LINE
  8
0
 62
     7
 10
16.1789
 20
1.72786
 30
0.0
 11
16.5215
 21
1.96576
 31
0.0
  0
LINE
  8
0
 62
     7
 10
16.5215
 20
1.96576
 30
0.0
 11
16.8571
 21
2.21994
 31
0.0
  0
LINE
  8
0
 62
     7
 10
16.8571
 20
2.21994
 30
0.0
 11
17.1844
 21
2.48969
 31
0.0
  0
LINE
  8
0
 62
     7
 10
17.1844
 20
2.48969
 30
0.0
 11
17.5029
 21
2.77419
 31
0.0
  0
LINE
  8
0
 62
     7
 10
17.5029
 20
2.77419
 30
0.0
 11
17.8114
 21
3.07275
 31
0.0
  0
LINE
  8
0
 62
     7
 10
17.8114
 20
3.07275
 30
0.0
 11
18.1092
 21
3.38465
 31
0.0
  0
LINE
  8
0
 62
     7
 10
18.1092
 20
3.38465
 30
0.0
 11
18.3254
 21
3.62657
 31
0.0
  0
LINE
  8
0
 62
     7
 10
18.3254
 20
3.62657
 30
0.0
 11
18.3954
 21
3.70904
 31
0.0
  0
LINE
  8
0
 62
     7
 10
18.3954
 20
3.70904
 30
0.0
 11
18.4178
 21
3.73535
 31
0.0
  0
LINE
  8
0
 62
     7
 10
18.4178
 20
3.73535
 30
0.0
 11
18.4831
 21
3.81569
 31
0.0
  0
LINE
  8
0
 62
     7
 10
18.4831
 20
3.81569
 30
0.0
 11
18.5979
 21
3.96072
 31
0.0
  0
LINE
  8
0
 62
     7
 10
18.5979
 20
3.96072
 30
0.0
 11
18.7304
 21
4.13254
 31
0.0
  0
LINE
  8
0
 62
     7
 10
18.7304
 20
4.13254
 30
0.0
 11
18.8365
 21
4.27257
 31
0.0
  0
LINE
  8
0
 62
     7
 10
18.8365
 20
4.27257
 30
0.0
 11
18.8715
 21
4.31944
 31
0.0
  0
LINE
  8
0
 62
     7
 10
18.8715
 20
4.31944
 30
0.0
 11
18.8864
 21
4.33946
 31
0.0
  0
LINE
  8
0
 62
     7
 10
18.8864
 20
4.33946
 30
0.0
 11
18.9299
 21
4.40072
 31
0.0
  0
LINE
  8
0
 62
     7
 10
18.9299
 20
4.40072
 30
0.0
 11
19.0035
 21
4.50786
 31
0.0
  0
LINE
  8
0
 62
     7
 10
19.0035
 20
4.50786
 30
0.0
 11
19.0862
 21
4.63183
 31
0.0
  0
LINE
  8
0
 62
     7
 10
19.0862
 20
4.63183
 30
0.0
 11
19.1724
 21
4.76346
 31
0.0
  0
LINE
  8
0
 62
     7
 10
19.1724
 20
4.76346
 30
0.0
 11
19.256
 21
4.89367
 31
0.0
  0
LINE
  8
0
 62
     7
 10
19.256
 20
4.89367
 30
0.0
 11
19.331
 21
5.01324
 31
0.0
  0
LINE
  8
0
 62
     7
 10
19.331
 20
5.01324
 30
0.0
 11
19.3915
 21
5.11307
 31
0.0
  0
LINE
  8
0
 62
     7
 10
19.3915
 20
5.11307
 30
0.0
 11
19.4224
 21
5.16601
 31
0.0
  0
LINE
  8
0
 62
     7
 10
19.4224
 20
5.16601
 30
0.0
 11
19.4318
 21
5.18403
 31
0.0
  0
LINE
  8
0
 62
     7
 10
19.4318
 20
5.18403
 30
0.0
 11
19.4336
 21
5.18772
 31
0.0
  0
LINE
  8
0
 62
     7
 10
19.4336
 20
5.18772
 30
0.0
 11
19.4411
 21
5.20122
 31
0.0
  0
LINE
  8
0
 62
     7
 10
19.4411
 20
5.20122
 30
0.0
 11
19.4564
 21
5.22846
 31
0.0
  0
LINE
  8
0
 62
     7
 10
19.4564
 20
5.22846
 30
0.0
 11
19.4754
 21
5.26215
 31
0.0
  0
LINE
  8
0
 62
     7
 10
19.4754
 20
5.26215
 30
0.0
 11
19.4913
 21
5.2895
 31
0.0
  0
LINE
  8
0
 62
     7
 10
19.4913
 20
5.2895
 30
0.0
 11
19.4965
 21
5.29861
 31
0.0
  0
LINE
  8
0
 62
     7
 10
19.4965
 20
5.29861
 30
0.0
 11
19.5082
 21
5.31917
 31
0.0
  0
LINE
  8
0
 62
     7
 10
19.5082
 20
5.31917
 30
0.0
 11
19.5426
 21
5.38129
 31
0.0
  0
LINE
  8
0
 62
     7
 10
19.5426
 20
5.38129
 30
0.0
 11
19.595
 21
5.47808
 31
0.0
  0
LINE
  8
0
 62
     7
 10
19.595
 20
5.47808
 30
0.0
 11
19.6507
 21
5.58371
 31
0.0
  0
LINE
  8
0
 62
     7
 10
19.6507
 20
5.58371
 30
0.0
 11
19.7072
 21
5.69293
 31
0.0
  0
LINE
  8
0
 62
     7
 10
19.7072
 20
5.69293
 30
0.0
 11
19.7617
 21
5.80035
 31
0.0
  0
LINE
  8
0
 62
     7
 10
19.7617
 20
5.80035
 30
0.0
 11
19.8115
 21
5.90067
 31
0.0
  0
LINE
  8
0
 62
     7
 10
19.8115
 20
5.90067
 30
0.0
 11
19.8539
 21
5.98872
 31
0.0
  0
LINE
  8
0
 62
     7
 10
19.8539
 20
5.98872
 30
0.0
 11
19.8782
 21
6.04135
 31
0.0
  0
LINE
  8
0
 62
     7
 10
19.8782
 20
6.04135
 30
0.0
 11
19.886
 21
6.05903
 31
0.0
  0
LINE
  8
0
 62
     7
 10
19.886
 20
6.05903
 30
0.0
 11
19.8901
 21
6.06842
 31
0.0
  0
LINE
  8
0
 62
     7
 10
19.8901
 20
6.06842
 30
0.0
 11
19.9156
 21
6.12532
 31
0.0
  0
LINE
  8
0
 62
     7
 10
19.9156
 20
6.12532
 30
0.0
 11
19.9404
 21
6.18067
 31
0.0
  0
LINE
  8
0
 62
     7
 10
19.9404
 20
6.18067
 30
0.0
 11
19.9444
 21
6.18924
 31
0.0
  0
LINE
  8
0
 62
     7
 10
19.9444
 20
6.18924
 30
0.0
 11
19.9549
 21
6.21246
 31
0.0
  0
LINE
  8
0
 62
     7
 10
19.9549
 20
6.21246
 30
0.0
 11
20.0053
 21
6.32742
 31
0.0
  0
LINE
  8
0
 62
     7
 10
20.0053
 20
6.32742
 30
0.0
 11
20.0475
 21
6.42833
 31
0.0
  0
LINE
  8
0
 62
     7
 10
20.0475
 20
6.42833
 30
0.0
 11
20.0538
 21
6.44444
 31
0.0
  0
LINE
  8
0
 62
     7
 10
20.0538
 20
6.44444
 30
0.0
 11
20.0569
 21
6.45176
 31
0.0
  0
LINE
  8
0
 62
     7
 10
20.0569
 20
6.45176
 30
0.0
 11
20.0661
 21
6.4739
 31
0.0
  0
LINE
  8
0
 62
     7
 10
20.0661
 20
6.4739
 30
0.0
 11
20.0818
 21
6.51215
 31
0.0
  0
LINE
  8
0
 62
     7
 10
20.0818
 20
6.51215
 30
0.0
 11
20.0992
 21
6.55431
 31
0.0
  0
LINE
  8
0
 62
     7
 10
20.0992
 20
6.55431
 30
0.0
 11
20.1119
 21
6.58524
 31
0.0
  0
LINE
  8
0
 62
     7
 10
20.1119
 20
6.58524
 30
0.0
 11
20.1163
 21
6.59549
 31
0.0
  0
LINE
  8
0
 62
     7
 10
20.1163
 20
6.59549
 30
0.0
 11
20.1203
 21
6.60536
 31
0.0
  0
LINE
  8
0
 62
     7
 10
20.1203
 20
6.60536
 30
0.0
 11
20.1322
 21
6.63499
 31
0.0
  0
LINE
  8
0
 62
     7
 10
20.1322
 20
6.63499
 30
0.0
 11
20.1474
 21
6.67378
 31
0.0
  0
LINE
  8
0
 62
     7
 10
20.1474
 20
6.67378
 30
0.0
 11
20.16
 21
6.70731
 31
0.0
  0
LINE
  8
0
 62
     7
 10
20.16
 20
6.70731
 30
0.0
 11
20.1665
 21
6.72521
 31
0.0
  0
LINE
  8
0
 62
     7
 10
20.1665
 20
6.72521
 30
0.0
 11
20.1683
 21
6.7309
 31
0.0
  0
LINE
  8
0
 62
     7
 10
20.1683
 20
6.7309
 30
0.0
 11
20.1701
 21
6.73665
 31
0.0
  0
LINE
  8
0
 62
     7
 10
20.1701
 20
6.73665
 30
0.0
 11
20.1846
 21
6.77729
 31
0.0
  0
LINE
  8
0
 62
     7
 10
20.1846
 20
6.77729
 30
0.0
 11
20.2017
 21
6.82206
 31
0.0
  0
LINE
  8
0
 62
     7
 10
20.2017
 20
6.82206
 30
0.0
 11
20.2049
 21
6.82986
 31
0.0
  0
LINE
  8
0
 62
     7
 10
20.2049
 20
6.82986
 30
0.0
 11
20.2122
 21
6.84918
 31
0.0
  0
LINE
  8
0
 62
     7
 10
20.2122
 20
6.84918
 30
0.0
 11
20.2333
 21
6.9075
 31
0.0
  0
LINE
  8
0
 62
     7
 10
20.2333
 20
6.9075
 30
0.0
 11
20.2676
 21
7.00711
 31
0.0
  0
LINE
  8
0
 62
     7
 10
20.2676
 20
7.00711
 30
0.0
 11
20.3057
 21
7.12213
 31
0.0
  0
LINE
  8
0
 62
     7
 10
20.3057
 20
7.12213
 30
0.0
 11
20.3454
 21
7.24604
 31
0.0
  0
LINE
  8
0
 62
     7
 10
20.3454
 20
7.24604
 30
0.0
 11
20.3847
 21
7.37229
 31
0.0
  0
LINE
  8
0
 62
     7
 10
20.3847
 20
7.37229
 30
0.0
 11
20.4215
 21
7.49436
 31
0.0
  0
LINE
  8
0
 62
     7
 10
20.4215
 20
7.49436
 30
0.0
 11
20.4539
 21
7.60562
 31
0.0
  0
LINE
  8
0
 62
     7
 10
20.4539
 20
7.60562
 30
0.0
 11
20.4736
 21
7.67611
 31
0.0
  0
LINE
  8
0
 62
     7
 10
20.4736
 20
7.67611
 30
0.0
 11
20.4797
 21
7.69965
 31
0.0
  0
LINE
  8
0
 62
     7
 10
20.4797
 20
7.69965
 30
0.0
 11
20.4817
 21
7.70731
 31
0.0
  0
LINE
  8
0
 62
     7
 10
20.4817
 20
7.70731
 30
0.0
 11
20.4874
 21
7.73014
 31
0.0
  0
LINE
  8
0
 62
     7
 10
20.4874
 20
7.73014
 30
0.0
 11
20.4968
 21
7.76688
 31
0.0
  0
LINE
  8
0
 62
     7
 10
20.4968
 20
7.76688
 30
0.0
 11
20.5068
 21
7.80518
 31
0.0
  0
LINE
  8
0
 62
     7
 10
20.5068
 20
7.80518
 30
0.0
 11
20.5139
 21
7.83154
 31
0.0
  0
LINE
  8
0
 62
     7
 10
20.5139
 20
7.83154
 30
0.0
 11
20.5163
 21
7.84028
 31
0.0
  0
LINE
  8
0
 62
     7
 10
20.5163
 20
7.84028
 30
0.0
 11
20.5199
 21
7.85406
 31
0.0
  0
LINE
  8
0
 62
     7
 10
20.5199
 20
7.85406
 30
0.0
 11
20.5307
 21
7.89551
 31
0.0
  0
LINE
  8
0
 62
     7
 10
20.5307
 20
7.89551
 30
0.0
 11
20.5453
 21
7.95529
 31
0.0
  0
LINE
  8
0
 62
     7
 10
20.5453
 20
7.95529
 30
0.0
 11
20.5635
 21
8.0344
 31
0.0
  0
LINE
  8
0
 62
     7
 10
20.5635
 20
8.0344
 30
0.0
 11
20.5828
 21
8.11931
 31
0.0
  0
LINE
  8
0
 62
     7
 10
20.5828
 20
8.11931
 30
0.0
 11
20.5892
 21
8.14757
 31
0.0
  0
LINE
  8
0
 62
     7
 10
20.5892
 20
8.14757
 30
0.0
 11
20.6096
 21
8.23753
 31
0.0
  0
LINE
  8
0
 62
     7
 10
20.6096
 20
8.23753
 30
0.0
 11
20.6631
 21
8.50911
 31
0.0
  0
LINE
  8
0
 62
     7
 10
20.6631
 20
8.50911
 30
0.0
 11
20.7258
 21
8.88992
 31
0.0
  0
LINE
  8
0
 62
     7
 10
20.7258
 20
8.88992
 30
0.0
 11
20.7758
 21
9.27713
 31
0.0
  0
LINE
  8
0
 62
     7
 10
20.7758
 20
9.27713
 30
0.0
 11
20.804
 21
9.56267
 31
0.0
  0
LINE
  8
0
 62
     7
 10
20.804
 20
9.56267
 30
0.0
 11
20.811
 21
9.65799
 31
0.0
  0
LINE
  8
0
 62
     7
 10
20.811
 20
9.65799
 30
0.0
 11
20.8131
 21
9.68733
 31
0.0
  0
LINE
  8
0
 62
     7
 10
20.8131
 20
9.68733
 30
0.0
 11
20.8167
 21
9.77556
 31
0.0
  0
LINE
  8
0
 62
     7
 10
20.8167
 20
9.77556
 30
0.0
 11
20.821
 21
9.94379
 31
0.0
  0
LINE
  8
0
 62
     7
 10
20.821
 20
9.94379
 30
0.0
 11
20.8236
 21
10.158
 31
0.0
  0
LINE
  8
0
 62
     7
 10
20.8236
 20
10.158
 30
0.0
 11
20.8246
 21
10.3494
 31
0.0
  0
LINE
  8
0
 62
     7
 10
20.8246
 20
10.3494
 30
0.0
 11
20.8246
 21
10.4132
 31
0.0
  0
LINE
  8
0
 62
     7
 10
20.8246
 20
10.4132
 30
0.0
 11
20.8246
 21
10.4771
 31
0.0
  0
LINE
  8
0
 62
     7
 10
20.8246
 20
10.4771
 30
0.0
 11
20.8236
 21
10.6685
 31
0.0
  0
LINE
  8
0
 62
     7
 10
20.8236
 20
10.6685
 30
0.0
 11
20.821
 21
10.8826
 31
0.0
  0
LINE
  8
0
 62
     7
 10
20.821
 20
10.8826
 30
0.0
 11
20.8167
 21
11.0509
 31
0.0
  0
LINE
  8
0
 62
     7
 10
20.8167
 20
11.0509
 30
0.0
 11
20.8131
 21
11.1391
 31
0.0
  0
LINE
  8
0
 62
     7
 10
20.8131
 20
11.1391
 30
0.0
 11
20.811
 21
11.1684
 31
0.0
  0
LINE
  8
0
 62
     7
 10
20.811
 20
11.1684
 30
0.0
 11
20.804
 21
11.2638
 31
0.0
  0
LINE
  8
0
 62
     7
 10
20.804
 20
11.2638
 30
0.0
 11
20.7758
 21
11.5493
 31
0.0
  0
LINE
  8
0
 62
     7
 10
20.7758
 20
11.5493
 30
0.0
 11
20.7258
 21
11.9365
 31
0.0
  0
LINE
  8
0
 62
     7
 10
20.7258
 20
11.9365
 30
0.0
 11
20.6631
 21
12.3173
 31
0.0
  0
LINE
  8
0
 62
     7
 10
20.6631
 20
12.3173
 30
0.0
 11
20.6096
 21
12.5889
 31
0.0
  0
LINE
  8
0
 62
     7
 10
20.6096
 20
12.5889
 30
0.0
 11
20.5892
 21
12.6788
 31
0.0
  0
LINE
  8
0
 62
     7
 10
20.5892
 20
12.6788
 30
0.0
 11
20.5828
 21
12.7071
 31
0.0
  0
LINE
  8
0
 62
     7
 10
20.5828
 20
12.7071
 30
0.0
 11
20.5635
 21
12.792
 31
0.0
  0
LINE
  8
0
 62
     7
 10
20.5635
 20
12.792
 30
0.0
 11
20.5453
 21
12.8712
 31
0.0
  0
LINE
  8
0
 62
     7
 10
20.5453
 20
12.8712
 30
0.0
 11
20.5307
 21
12.9309
 31
0.0
  0
LINE
  8
0
 62
     7
 10
20.5307
 20
12.9309
 30
0.0
 11
20.5199
 21
12.9724
 31
0.0
  0
LINE
  8
0
 62
     7
 10
20.5199
 20
12.9724
 30
0.0
 11
20.5163
 21
12.9861
 31
0.0
  0
LINE
  8
0
 62
     7
 10
20.5163
 20
12.9861
 30
0.0
 11
20.5139
 21
12.9949
 31
0.0
  0
LINE
  8
0
 62
     7
 10
20.5139
 20
12.9949
 30
0.0
 11
20.5068
 21
13.0213
 31
0.0
  0
LINE
  8
0
 62
     7
 10
20.5068
 20
13.0213
 30
0.0
 11
20.4968
 21
13.0596
 31
0.0
  0
LINE
  8
0
 62
     7
 10
20.4968
 20
13.0596
 30
0.0
 11
20.4874
 21
13.0963
 31
0.0
  0
LINE
  8
0
 62
     7
 10
20.4874
 20
13.0963
 30
0.0
 11
20.4817
 21
13.1191
 31
0.0
  0
LINE
  8
0
 62
     7
 10
20.4817
 20
13.1191
 30
0.0
 11
20.4797
 21
13.1267
 31
0.0
  0
LINE
  8
0
 62
     7
 10
20.4797
 20
13.1267
 30
0.0
 11
20.4735
 21
13.1503
 31
0.0
  0
LINE
  8
0
 62
     7
 10
20.4735
 20
13.1503
 30
0.0
 11
20.4539
 21
13.2208
 31
0.0
  0
LINE
  8
0
 62
     7
 10
20.4539
 20
13.2208
 30
0.0
 11
20.4215
 21
13.3321
 31
0.0
  0
LINE
  8
0
 62
     7
 10
20.4215
 20
13.3321
 30
0.0
 11
20.3847
 21
13.4542
 31
0.0
  0
LINE
  8
0
 62
     7
 10
20.3847
 20
13.4542
 30
0.0
 11
20.3454
 21
13.5804
 31
0.0
  0
LINE
  8
0
 62
     7
 10
20.3454
 20
13.5804
 30
0.0
 11
20.3057
 21
13.7043
 31
0.0
  0
LINE
  8
0
 62
     7
 10
20.3057
 20
13.7043
 30
0.0
 11
20.2676
 21
13.8193
 31
0.0
  0
LINE
  8
0
 62
     7
 10
20.2676
 20
13.8193
 30
0.0
 11
20.2333
 21
13.9189
 31
0.0
  0
LINE
  8
0
 62
     7
 10
20.2333
 20
13.9189
 30
0.0
 11
20.2122
 21
13.9772
 31
0.0
  0
LINE
  8
0
 62
     7
 10
20.2122
 20
13.9772
 30
0.0
 11
20.2049
 21
13.9965
 31
0.0
  0
LINE
  8
0
 62
     7
 10
20.2049
 20
13.9965
 30
0.0
 11
20.2017
 21
14.0043
 31
0.0
  0
LINE
  8
0
 62
     7
 10
20.2017
 20
14.0043
 30
0.0
 11
20.1846
 21
14.0492
 31
0.0
  0
LINE
  8
0
 62
     7
 10
20.1846
 20
14.0492
 30
0.0
 11
20.1701
 21
14.0897
 31
0.0
  0
LINE
  8
0
 62
     7
 10
20.1701
 20
14.0897
 30
0.0
 11
20.1683
 21
14.0956
 31
0.0
  0
LINE
  8
0
 62
     7
 10
20.1683
 20
14.0956
 30
0.0
 11
20.1665
 21
14.1012
 31
0.0
  0
LINE
  8
0
 62
     7
 10
20.1665
 20
14.1012
 30
0.0
 11
20.16
 21
14.119
 31
0.0
  0
LINE
  8
0
 62
     7
 10
20.16
 20
14.119
 30
0.0
 11
20.1474
 21
14.1522
 31
0.0
  0
LINE
  8
0
 62
     7
 10
20.1474
 20
14.1522
 30
0.0
 11
20.1322
 21
14.191
 31
0.0
  0
LINE
  8
0
 62
     7
 10
20.1322
 20
14.191
 30
0.0
 11
20.1203
 21
14.221
 31
0.0
  0
LINE
  8
0
 62
     7
 10
20.1203
 20
14.221
 30
0.0
 11
20.1163
 21
14.231
 31
0.0
  0
LINE
  8
0
 62
     7
 10
20.1163
 20
14.231
 30
0.0
 11
20.1118
 21
14.2411
 31
0.0
  0
LINE
  8
0
 62
     7
 10
20.1118
 20
14.2411
 30
0.0
 11
20.0992
 21
14.2717
 31
0.0
  0
LINE
  8
0
 62
     7
 10
20.0992
 20
14.2717
 30
0.0
 11
20.0818
 21
14.3139
 31
0.0
  0
LINE
  8
0
 62
     7
 10
20.0818
 20
14.3139
 30
0.0
 11
20.0661
 21
14.3524
 31
0.0
  0
LINE
  8
0
 62
     7
 10
20.0661
 20
14.3524
 30
0.0
 11
20.0569
 21
14.3746
 31
0.0
  0
LINE
  8
0
 62
     7
 10
20.0569
 20
14.3746
 30
0.0
 11
20.0538
 21
14.3819
 31
0.0
  0
LINE
  8
0
 62
     7
 10
20.0538
 20
14.3819
 30
0.0
 11
20.0475
 21
14.3981
 31
0.0
  0
LINE
  8
0
 62
     7
 10
20.0475
 20
14.3981
 30
0.0
 11
20.0053
 21
14.499
 31
0.0
  0
LINE
  8
0
 62
     7
 10
20.0053
 20
14.499
 30
0.0
 11
19.9549
 21
14.614
 31
0.0
  0
LINE
  8
0
 62
     7
 10
19.9549
 20
14.614
 30
0.0
 11
19.9444
 21
14.6372
 31
0.0
  0
LINE
  8
0
 62
     7
 10
19.9444
 20
14.6372
 30
0.0
 11
19.9404
 21
14.6458
 31
0.0
  0
LINE
  8
0
 62
     7
 10
19.9404
 20
14.6458
 30
0.0
 11
19.9156
 21
14.7011
 31
0.0
  0
LINE
  8
0
 62
     7
 10
19.9156
 20
14.7011
 30
0.0
 11
19.8901
 21
14.7581
 31
0.0
  0
LINE
  8
0
 62
     7
 10
19.8901
 20
14.7581
 30
0.0
 11
19.886
 21
14.7674
 31
0.0
  0
LINE
  8
0
 62
     7
 10
19.886
 20
14.7674
 30
0.0
 11
19.8782
 21
14.7851
 31
0.0
  0
LINE
  8
0
 62
     7
 10
19.8782
 20
14.7851
 30
0.0
 11
19.8539
 21
14.8378
 31
0.0
  0
LINE
  8
0
 62
     7
 10
19.8539
 20
14.8378
 30
0.0
 11
19.8115
 21
14.9258
 31
0.0
  0
LINE
  8
0
 62
     7
 10
19.8115
 20
14.9258
 30
0.0
 11
19.7617
 21
15.0261
 31
0.0
  0
LINE
  8
0
 62
     7
 10
19.7617
 20
15.0261
 30
0.0
 11
19.7072
 21
15.1335
 31
0.0
  0
LINE
  8
0
 62
     7
 10
19.7072
 20
15.1335
 30
0.0
 11
19.6507
 21
15.2428
 31
0.0
  0
LINE
  8
0
 62
     7
 10
19.6507
 20
15.2428
 30
0.0
 11
19.595
 21
15.3483
 31
0.0
  0
LINE
  8
0
 62
     7
 10
19.595
 20
15.3483
 30
0.0
 11
19.5426
 21
15.4451
 31
0.0
  0
LINE
  8
0
 62
     7
 10
19.5426
 20
15.4451
 30
0.0
 11
19.5082
 21
15.5072
 31
0.0
  0
LINE
  8
0
 62
     7
 10
19.5082
 20
15.5072
 30
0.0
 11
19.4965
 21
15.5278
 31
0.0
  0
LINE
  8
0
 62
     7
 10
19.4965
 20
15.5278
 30
0.0
 11
19.4913
 21
15.5369
 31
0.0
  0
LINE
  8
0
 62
     7
 10
19.4913
 20
15.5369
 30
0.0
 11
19.4754
 21
15.5643
 31
0.0
  0
LINE
  8
0
 62
     7
 10
19.4754
 20
15.5643
 30
0.0
 11
19.4564
 21
15.5979
 31
0.0
  0
LINE
  8
0
 62
     7
 10
19.4564
 20
15.5979
 30
0.0
 11
19.4411
 21
15.6253
 31
0.0
  0
LINE
  8
0
 62
     7
 10
19.4411
 20
15.6253
 30
0.0
 11
19.4336
 21
15.6387
 31
0.0
  0
LINE
  8
0
 62
     7
 10
19.4336
 20
15.6387
 30
0.0
 11
19.4318
 21
15.6424
 31
0.0
  0
LINE
  8
0
 62
     7
 10
19.4318
 20
15.6424
 30
0.0
 11
19.4224
 21
15.6604
 31
0.0
  0
LINE
  8
0
 62
     7
 10
19.4224
 20
15.6604
 30
0.0
 11
19.3915
 21
15.7133
 31
0.0
  0
LINE
  8
0
 62
     7
 10
19.3915
 20
15.7133
 30
0.0
 11
19.331
 21
15.8132
 31
0.0
  0
LINE
  8
0
 62
     7
 10
19.331
 20
15.8132
 30
0.0
 11
19.256
 21
15.9328
 31
0.0
  0
LINE
  8
0
 62
     7
 10
19.256
 20
15.9328
 30
0.0
 11
19.1724
 21
16.0629
 31
0.0
  0
LINE
  8
0
 62
     7
 10
19.1724
 20
16.0629
 30
0.0
 11
19.0862
 21
16.1946
 31
0.0
  0
LINE
  8
0
 62
     7
 10
19.0862
 20
16.1946
 30
0.0
 11
19.0035
 21
16.3186
 31
0.0
  0
LINE
  8
0
 62
     7
 10
19.0035
 20
16.3186
 30
0.0
 11
18.9299
 21
16.4257
 31
0.0
  0
LINE
  8
0
 62
     7
 10
18.9299
 20
16.4257
 30
0.0
 11
18.8864
 21
16.4869
 31
0.0
  0
LINE
  8
0
 62
     7
 10
18.8864
 20
16.4869
 30
0.0
 11
18.8715
 21
16.5069
 31
0.0
  0
LINE
  8
0
 62
     7
 10
18.8715
 20
16.5069
 30
0.0
 11
18.8364
 21
16.5539
 31
0.0
  0
LINE
  8
0
 62
     7
 10
18.8364
 20
16.5539
 30
0.0
 11
18.7304
 21
16.6939
 31
0.0
  0
LINE
  8
0
 62
     7
 10
18.7304
 20
16.6939
 30
0.0
 11
18.5979
 21
16.8657
 31
0.0
  0
LINE
  8
0
 62
     7
 10
18.5979
 20
16.8657
 30
0.0
 11
18.4831
 21
17.0107
 31
0.0
  0
LINE
  8
0
 62
     7
 10
18.4831
 20
17.0107
 30
0.0
 11
18.4178
 21
17.0911
 31
0.0
  0
LINE
  8
0
 62
     7
 10
18.4178
 20
17.0911
 30
0.0
 11
18.3954
 21
17.1174
 31
0.0
  0
LINE
  8
0
 62
     7
 10
18.3954
 20
17.1174
 30
0.0
 11
18.3254
 21
17.1999
 31
0.0
  0
LINE
  8
0
 62
     7
 10
18.3254
 20
17.1999
 30
0.0
 11
18.1092
 21
17.4418
 31
0.0
  0
LINE
  8
0
 62
     7
 10
18.1092
 20
17.4418
 30
0.0
 11
17.8114
 21
17.7538
 31
0.0
  0
LINE
  8
0
 62
     7
 10
17.8114
 20
17.7538
 30
0.0
 11
17.5029
 21
18.0522
 31
0.0
  0
LINE
  8
0
 62
     7
 10
17.5029
 20
18.0522
 30
0.0
 11
17.1844
 21
18.3368
 31
0.0
  0
LINE
  8
0
 62
     7
 10
17.1844
 20
18.3368
 30
0.0
 11
16.8571
 21
18.6065
 31
0.0
  0
LINE
  8
0
 62
     7
 10
16.8571
 20
18.6065
 30
0.0
 11
16.5215
 21
18.8607
 31
0.0
  0
LINE
  8
0
 62
     7
 10
16.5215
 20
18.8607
 30
0.0
 11
16.1789
 21
19.0986
 31
0.0
  0
LINE
  8
0
 62
     7
 10
16.1789
 20
19.0986
 30
0.0
 11
15.9182
 21
19.2661
 31
0.0
  0
LINE
  8
0
 62
     7
 10
15.9182
 20
19.2661
 30
0.0
 11
15.8299
 21
19.3194
 31
0.0
  0
LINE
  8
0
 62
     7
 10
15.8299
 20
19.3194
 30
0.0
 11
15.8139
 21
19.329
 31
0.0
  0
LINE
  8
0
 62
     7
 10
15.8139
 20
19.329
 30
0.0
 11
15.7663
 21
19.3579
 31
0.0
  0
LINE
  8
0
 62
     7
 10
15.7663
 20
19.3579
 30
0.0
 11
15.7124
 21
19.3913
 31
0.0
  0
LINE
  8
0
 62
     7
 10
15.7124
 20
19.3913
 30
0.0
 11
15.6736
 21
19.4157
 31
0.0
  0
LINE
  8
0
 62
     7
 10
15.6736
 20
19.4157
 30
0.0
 11
15.6576
 21
19.4262
 31
0.0
  0
LINE
  8
0
 62
     7
 10
15.6576
 20
19.4262
 30
0.0
 11
15.6558
 21
19.4278
 31
0.0
  0
LINE
  8
0
 62
     7
 10
15.6558
 20
19.4278
 30
0.0
 11
15.6554
 21
19.4281
 31
0.0
  0
LINE
  8
0
 62
     7
 10
15.6554
 20
19.4281
 30
0.0
 11
15.6779
 21
19.4549
 31
0.0
  0
LINE
  8
0
 62
     7
 10
15.6779
 20
19.4549
 30
0.0
 11
15.7622
 21
19.5088
 31
0.0
  0
LINE
  8
0
 62
     7
 10
15.7622
 20
19.5088
 30
0.0
 11
15.8963
 21
19.5832
 31
0.0
  0
LINE
  8
0
 62
     7
 10
15.8963
 20
19.5832
 30
0.0
 11
16.0682
 21
19.6722
 31
0.0
  0
LINE
  8
0
 62
     7
 10
16.0682
 20
19.6722
 30
0.0
 11
16.2658
 21
19.7696
 31
0.0
  0
LINE
  8
0
 62
     7
 10
16.2658
 20
19.7696
 30
0.0
 11
16.4772
 21
19.8694
 31
0.0
  0
LINE
  8
0
 62
     7
 10
16.4772
 20
19.8694
 30
0.0
 11
16.69
 21
19.9656
 31
0.0
  0
LINE
  8
0
 62
     7
 10
16.69
 20
19.9656
 30
0.0
 11
16.8415
 21
20.0308
 31
0.0
  0
LINE
  8
0
 62
     7
 10
16.8415
 20
20.0308
 30
0.0
 11
16.8924
 21
20.0518
 31
0.0
  0
LINE
  8
0
 62
     7
 10
16.8924
 20
20.0518
 30
0.0
 11
16.9931
 21
20.0932
 31
0.0
  0
LINE
  8
0
 62
     7
 10
16.9931
 20
20.0932
 30
0.0
 11
17.2997
 21
20.2076
 31
0.0
  0
LINE
  8
0
 62
     7
 10
17.2997
 20
20.2076
 30
0.0
 11
17.7333
 21
20.3531
 31
0.0
  0
LINE
  8
0
 62
     7
 10
17.7333
 20
20.3531
 30
0.0
 11
18.1632
 21
20.4786
 31
0.0
  0
LINE
  8
0
 62
     7
 10
18.1632
 20
20.4786
 30
0.0
 11
18.4593
 21
20.5536
 31
0.0
  0
LINE
  8
0
 62
     7
 10
18.4593
 20
20.5536
 30
0.0
 11
18.559
 21
20.5747
 31
0.0
  0
LINE
  8
0
 62
     7
 10
18.559
 20
20.5747
 30
0.0
 11
18.6354
 21
20.5908
 31
0.0
  0
LINE
  8
0
 62
     7
 10
18.6354
 20
20.5908
 30
0.0
 11
18.8653
 21
20.6367
 31
0.0
  0
LINE
  8
0
 62
     7
 10
18.8653
 20
20.6367
 30
0.0
 11
19.1515
 21
20.6882
 31
0.0
  0
LINE
  8
0
 62
     7
 10
19.1515
 20
20.6882
 30
0.0
 11
19.4243
 21
20.7297
 31
0.0
  0
LINE
  8
0
 62
     7
 10
19.4243
 20
20.7297
 30
0.0
 11
19.6908
 21
20.7621
 31
0.0
  0
LINE
  8
0
 62
     7
 10
19.6908
 20
20.7621
 30
0.0
 11
19.9578
 21
20.786
 31
0.0
  0
LINE
  8
0
 62
     7
 10
19.9578
 20
20.786
 30
0.0
 11
20.2319
 21
20.8022
 31
0.0
  0
LINE
  8
0
 62
     7
 10
20.2319
 20
20.8022
 30
0.0
 11
20.5203
 21
20.8114
 31
0.0
  0
LINE
  8
0
 62
     7
 10
20.5203
 20
20.8114
 30
0.0
 11
20.7525
 21
20.8143
 31
0.0
  0
LINE
  8
0
 62
     7
 10
20.7525
 20
20.8143
 30
0.0
 11
20.8299
 21
20.8143
 31
0.0
  0
LINE
  8
0
 62
     7
 10
20.8299
 20
20.8143
 30
0.0
 11
20.8968
 21
20.8143
 31
0.0
  0
LINE
  8
0
 62
     7
 10
20.8968
 20
20.8143
 30
0.0
 11
21.0976
 21
20.8125
 31
0.0
  0
LINE
  8
0
 62
     7
 10
21.0976
 20
20.8125
 30
0.0
 11
21.3419
 21
20.8065
 31
0.0
  0
LINE
  8
0
 62
     7
 10
21.3419
 20
20.8065
 30
0.0
 11
21.5703
 21
20.7958
 31
0.0
  0
LINE
  8
0
 62
     7
 10
21.5703
 20
20.7958
 30
0.0
 11
21.7903
 21
20.7799
 31
0.0
  0
LINE
  8
0
 62
     7
 10
21.7903
 20
20.7799
 30
0.0
 11
22.0094
 21
20.7578
 31
0.0
  0
LINE
  8
0
 62
     7
 10
22.0094
 20
20.7578
 30
0.0
 11
22.235
 21
20.729
 31
0.0
  0
LINE
  8
0
 62
     7
 10
22.235
 20
20.729
 30
0.0
 11
22.4747
 21
20.6928
 31
0.0
  0
LINE
  8
0
 62
     7
 10
22.4747
 20
20.6928
 30
0.0
 11
22.6708
 21
20.6601
 31
0.0
  0
LINE
  8
0
 62
     7
 10
22.6708
 20
20.6601
 30
0.0
 11
22.7361
 21
20.6486
 31
0.0
  0
LINE
  8
0
 62
     7
 10
22.7361
 20
20.6486
 30
0.0
 11
22.78
 21
20.641
 31
0.0
  0
LINE
  8
0
 62
     7
 10
22.78
 20
20.641
 30
0.0
 11
22.9117
 21
20.6149
 31
0.0
  0
LINE
  8
0
 62
     7
 10
22.9117
 20
20.6149
 30
0.0
 11
23.1167
 21
20.5703
 31
0.0
  0
LINE
  8
0
 62
     7
 10
23.1167
 20
20.5703
 30
0.0
 11
23.3371
 21
20.5182
 31
0.0
  0
LINE
  8
0
 62
     7
 10
23.3371
 20
20.5182
 30
0.0
 11
23.5036
 21
20.4767
 31
0.0
  0
LINE
  8
0
 62
     7
 10
23.5036
 20
20.4767
 30
0.0
 11
23.559
 21
20.4621
 31
0.0
  0
LINE
  8
0
 62
     7
 10
23.559
 20
20.4621
 30
0.0
 11
23.6563
 21
20.4365
 31
0.0
  0
LINE
  8
0
 62
     7
 10
23.6563
 20
20.4365
 30
0.0
 11
23.9457
 21
20.3504
 31
0.0
  0
LINE
  8
0
 62
     7
 10
23.9457
 20
20.3504
 30
0.0
 11
24.3365
 21
20.2186
 31
0.0
  0
LINE
  8
0
 62
     7
 10
24.3365
 20
20.2186
 30
0.0
 11
24.7285
 21
20.0679
 31
0.0
  0
LINE
  8
0
 62
     7
 10
24.7285
 20
20.0679
 30
0.0
 11
25.1181
 21
19.9
 31
0.0
  0
LINE
  8
0
 62
     7
 10
25.1181
 20
19.9
 30
0.0
 11
25.5024
 21
19.7162
 31
0.0
  0
LINE
  8
0
 62
     7
 10
25.5024
 20
19.7162
 30
0.0
 11
25.8781
 21
19.5181
 31
0.0
  0
LINE
  8
0
 62
     7
 10
25.8781
 20
19.5181
 30
0.0
 11
26.2421
 21
19.3068
 31
0.0
  0
LINE
  8
0
 62
     7
 10
26.2421
 20
19.3068
 30
0.0
 11
26.5053
 21
19.1417
 31
0.0
  0
LINE
  8
0
 62
     7
 10
26.5053
 20
19.1417
 30
0.0
 11
26.5912
 21
19.084
 31
0.0
  0
LINE
  8
0
 62
     7
 10
26.5912
 20
19.084
 30
0.0
 11
26.7008
 21
19.0107
 31
0.0
  0
LINE
  8
0
 62
     7
 10
26.7008
 20
19.0107
 30
0.0
 11
27.0232
 21
18.781
 31
0.0
  0
LINE
  8
0
 62
     7
 10
27.0232
 20
18.781
 30
0.0
 11
27.4251
 21
18.4685
 31
0.0
  0
LINE
  8
0
 62
     7
 10
27.4251
 20
18.4685
 30
0.0
 11
27.8082
 21
18.1372
 31
0.0
  0
LINE
  8
0
 62
     7
 10
27.8082
 20
18.1372
 30
0.0
 11
28.0922
 21
17.8699
 31
0.0
  0
LINE
  8
0
 62
     7
 10
28.0922
 20
17.8699
 30
0.0
 11
28.184
 21
17.7778
 31
0.0
  0
LINE
  8
0
 62
     7
 10
28.184
 20
17.7778
 30
0.0
 11
28.2076
 21
17.754
 31
0.0
  0
LINE
  8
0
 62
     7
 10
28.2076
 20
17.754
 30
0.0
 11
28.2787
 21
17.6828
 31
0.0
  0
LINE
  8
0
 62
     7
 10
28.2787
 20
17.6828
 30
0.0
 11
28.3567
 21
17.604
 31
0.0
  0
LINE
  8
0
 62
     7
 10
28.3567
 20
17.604
 30
0.0
 11
28.4236
 21
17.5347
 31
0.0
  0
LINE
  8
0
 62
     7
 10
28.4236
 20
17.5347
 30
0.0
 11
28.4863
 21
17.4681
 31
0.0
  0
LINE
  8
0
 62
     7
 10
28.4863
 20
17.4681
 30
0.0
 11
28.5507
 21
17.3971
 31
0.0
  0
LINE
  8
0
 62
     7
 10
28.5507
 20
17.3971
 30
0.0
 11
28.6233
 21
17.315
 31
0.0
  0
LINE
  8
0
 62
     7
 10
28.6233
 20
17.315
 30
0.0
 11
28.7104
 21
17.215
 31
0.0
  0
LINE
  8
0
 62
     7
 10
28.7104
 20
17.215
 30
0.0
 11
28.7914
 21
17.1215
 31
0.0
  0
LINE
  8
0
 62
     7
 10
28.7914
 20
17.1215
 30
0.0
 11
28.8183
 21
17.0903
 31
0.0
  0
LINE
  8
0
 62
     7
 10
28.8183
 20
17.0903
 30
0.0
 11
28.8271
 21
17.0801
 31
0.0
  0
LINE
  8
0
 62
     7
 10
28.8271
 20
17.0801
 30
0.0
 11
28.8526
 21
17.0489
 31
0.0
  0
LINE
  8
0
 62
     7
 10
28.8526
 20
17.0489
 30
0.0
 11
28.9072
 21
16.9807
 31
0.0
  0
LINE
  8
0
 62
     7
 10
28.9072
 20
16.9807
 30
0.0
 11
28.9753
 21
16.8944
 31
0.0
  0
LINE
  8
0
 62
     7
 10
28.9753
 20
16.8944
 30
0.0
 11
29.05
 21
16.799
 31
0.0
  0
LINE
  8
0
 62
     7
 10
29.05
 20
16.799
 30
0.0
 11
29.1243
 21
16.7032
 31
0.0
  0
LINE
  8
0
 62
     7
 10
29.1243
 20
16.7032
 30
0.0
 11
29.1917
 21
16.6156
 31
0.0
  0
LINE
  8
0
 62
     7
 10
29.1917
 20
16.6156
 30
0.0
 11
29.245
 21
16.5451
 31
0.0
  0
LINE
  8
0
 62
     7
 10
29.245
 20
16.5451
 30
0.0
 11
29.2699
 21
16.5119
 31
0.0
  0
LINE
  8
0
 62
     7
 10
29.2699
 20
16.5119
 30
0.0
 11
29.2778
 21
16.5007
 31
0.0
  0
LINE
  8
0
 62
     7
 10
29.2778
 20
16.5007
 30
0.0
 11
29.2826
 21
16.4938
 31
0.0
  0
LINE
  8
0
 62
     7
 10
29.2826
 20
16.4938
 30
0.0
 11
29.315
 21
16.4476
 31
0.0
  0
LINE
  8
0
 62
     7
 10
29.315
 20
16.4476
 30
0.0
 11
29.349
 21
16.4001
 31
0.0
  0
LINE
  8
0
 62
     7
 10
29.349
 20
16.4001
 30
0.0
 11
29.3547
 21
16.3924
 31
0.0
  0
LINE
  8
0
 62
     7
 10
29.3547
 20
16.3924
 30
0.0
 11
29.3617
 21
16.3829
 31
0.0
  0
LINE
  8
0
 62
     7
 10
29.3617
 20
16.3829
 30
0.0
 11
29.3817
 21
16.3542
 31
0.0
  0
LINE
  8
0
 62
     7
 10
29.3817
 20
16.3542
 30
0.0
 11
29.4185
 21
16.3004
 31
0.0
  0
LINE
  8
0
 62
     7
 10
29.4185
 20
16.3004
 30
0.0
 11
29.4618
 21
16.2364
 31
0.0
  0
LINE
  8
0
 62
     7
 10
29.4618
 20
16.2364
 30
0.0
 11
29.5079
 21
16.1674
 31
0.0
  0
LINE
  8
0
 62
     7
 10
29.5079
 20
16.1674
 30
0.0
 11
29.5532
 21
16.099
 31
0.0
  0
LINE
  8
0
 62
     7
 10
29.5532
 20
16.099
 30
0.0
 11
29.5942
 21
16.0367
 31
0.0
  0
LINE
  8
0
 62
     7
 10
29.5942
 20
16.0367
 30
0.0
 11
29.6271
 21
15.9858
 31
0.0
  0
LINE
  8
0
 62
     7
 10
29.6271
 20
15.9858
 30
0.0
 11
29.6433
 21
15.9603
 31
0.0
  0
LINE
  8
0
 62
     7
 10
29.6433
 20
15.9603
 30
0.0
 11
29.6486
 21
15.9517
 31
0.0
  0
LINE
  8
0
 62
     7
 10
29.6486
 20
15.9517
 30
0.0
 11
29.6526
 21
15.9447
 31
0.0
  0
LINE
  8
0
 62
     7
 10
29.6526
 20
15.9447
 30
0.0
 11
29.6751
 21
15.9076
 31
0.0
  0
LINE
  8
0
 62
     7
 10
29.6751
 20
15.9076
 30
0.0
 11
29.694
 21
15.8772
 31
0.0
  0
LINE
  8
0
 62
     7
 10
29.694
 20
15.8772
 30
0.0
 11
29.6964
 21
15.8736
 31
0.0
  0
LINE
  8
0
 62
     7
 10
29.6964
 20
15.8736
 30
0.0
 11
29.6988
 21
15.8697
 31
0.0
  0
LINE
  8
0
 62
     7
 10
29.6988
 20
15.8697
 30
0.0
 11
29.7128
 21
15.8469
 31
0.0
  0
LINE
  8
0
 62
     7
 10
29.7128
 20
15.8469
 30
0.0
 11
29.7258
 21
15.8257
 31
0.0
  0
LINE
  8
0
 62
     7
 10
29.7258
 20
15.8257
 30
0.0
 11
29.7276
 21
15.8226
 31
0.0
  0
LINE
  8
0
 62
     7
 10
29.7276
 20
15.8226
 30
0.0
 11
29.7294
 21
15.8192
 31
0.0
  0
LINE
  8
0
 62
     7
 10
29.7294
 20
15.8192
 30
0.0
 11
29.7401
 21
15.8007
 31
0.0
  0
LINE
  8
0
 62
     7
 10
29.7401
 20
15.8007
 30
0.0
 11
29.7644
 21
15.7593
 31
0.0
  0
LINE
  8
0
 62
     7
 10
29.7644
 20
15.7593
 30
0.0
 11
29.7968
 21
15.7042
 31
0.0
  0
LINE
  8
0
 62
     7
 10
29.7968
 20
15.7042
 30
0.0
 11
29.8247
 21
15.6571
 31
0.0
  0
LINE
  8
0
 62
     7
 10
29.8247
 20
15.6571
 30
0.0
 11
29.8339
 21
15.6414
 31
0.0
  0
LINE
  8
0
 62
     7
 10
29.8339
 20
15.6414
 30
0.0
 11
29.8435
 21
15.6247
 31
0.0
  0
LINE
  8
0
 62
     7
 10
29.8435
 20
15.6247
 30
0.0
 11
29.8722
 21
15.5749
 31
0.0
  0
LINE
  8
0
 62
     7
 10
29.8722
 20
15.5749
 30
0.0
 11
29.9094
 21
15.51
 31
0.0
  0
LINE
  8
0
 62
     7
 10
29.9094
 20
15.51
 30
0.0
 11
29.9411
 21
15.4543
 31
0.0
  0
LINE
  8
0
 62
     7
 10
29.9411
 20
15.4543
 30
0.0
 11
29.9579
 21
15.4246
 31
0.0
  0
LINE
  8
0
 62
     7
 10
29.9579
 20
15.4246
 30
0.0
 11
29.9631
 21
15.4153
 31
0.0
  0
LINE
  8
0
 62
     7
 10
29.9631
 20
15.4153
 30
0.0
 11
29.9676
 21
15.4068
 31
0.0
  0
LINE
  8
0
 62
     7
 10
29.9676
 20
15.4068
 30
0.0
 11
29.9812
 21
15.3815
 31
0.0
  0
LINE
  8
0
 62
     7
 10
29.9812
 20
15.3815
 30
0.0
 11
30.0026
 21
15.3415
 31
0.0
  0
LINE
  8
0
 62
     7
 10
30.0026
 20
15.3415
 30
0.0
 11
30.0249
 21
15.3
 31
0.0
  0
LINE
  8
0
 62
     7
 10
30.0249
 20
15.3
 30
0.0
 11
30.0403
 21
15.2715
 31
0.0
  0
LINE
  8
0
 62
     7
 10
30.0403
 20
15.2715
 30
0.0
 11
30.0454
 21
15.2622
 31
0.0
  0
LINE
  8
0
 62
     7
 10
30.0454
 20
15.2622
 30
0.0
 11
30.0512
 21
15.251
 31
0.0
  0
LINE
  8
0
 62
     7
 10
30.0512
 20
15.251
 30
0.0
 11
30.0687
 21
15.2171
 31
0.0
  0
LINE
  8
0
 62
     7
 10
30.0687
 20
15.2171
 30
0.0
 11
30.0999
 21
15.1558
 31
0.0
  0
LINE
  8
0
 62
     7
 10
30.0999
 20
15.1558
 30
0.0
 11
30.1344
 21
15.0865
 31
0.0
  0
LINE
  8
0
 62
     7
 10
30.1344
 20
15.0865
 30
0.0
 11
30.16
 21
15.0347
 31
0.0
  0
LINE
  8
0
 62
     7
 10
30.16
 20
15.0347
 30
0.0
 11
30.1683
 21
15.0174
 31
0.0
  0
LINE
  8
0
 62
     7
 10
30.1683
 20
15.0174
 30
0.0
 11
30.1762
 21
15.0012
 31
0.0
  0
LINE
  8
0
 62
     7
 10
30.1762
 20
15.0012
 30
0.0
 11
30.2003
 21
14.9528
 31
0.0
  0
LINE
  8
0
 62
     7
 10
30.2003
 20
14.9528
 30
0.0
 11
30.2283
 21
14.8958
 31
0.0
  0
LINE
  8
0
 62
     7
 10
30.2283
 20
14.8958
 30
0.0
 11
30.2496
 21
14.8529
 31
0.0
  0
LINE
  8
0
 62
     7
 10
30.2496
 20
14.8529
 30
0.0
 11
30.2592
 21
14.8336
 31
0.0
  0
LINE
  8
0
 62
     7
 10
30.2592
 20
14.8336
 30
0.0
 11
30.261
 21
14.8299
 31
0.0
  0
LINE
  8
0
 62
     7
 10
30.261
 20
14.8299
 30
0.0
 11
30.2653
 21
14.8218
 31
0.0
  0
LINE
  8
0
 62
     7
 10
30.2653
 20
14.8218
 30
0.0
 11
30.2767
 21
14.7969
 31
0.0
  0
LINE
  8
0
 62
     7
 10
30.2767
 20
14.7969
 30
0.0
 11
30.3042
 21
14.7356
 31
0.0
  0
LINE
  8
0
 62
     7
 10
30.3042
 20
14.7356
 30
0.0
 11
30.3397
 21
14.6546
 31
0.0
  0
LINE
  8
0
 62
     7
 10
30.3397
 20
14.6546
 30
0.0
 11
30.3796
 21
14.5622
 31
0.0
  0
LINE
  8
0
 62
     7
 10
30.3796
 20
14.5622
 30
0.0
 11
30.4203
 21
14.4674
 31
0.0
  0
LINE
  8
0
 62
     7
 10
30.4203
 20
14.4674
 30
0.0
 11
30.4581
 21
14.3782
 31
0.0
  0
LINE
  8
0
 62
     7
 10
30.4581
 20
14.3782
 30
0.0
 11
30.4892
 21
14.3036
 31
0.0
  0
LINE
  8
0
 62
     7
 10
30.4892
 20
14.3036
 30
0.0
 11
30.505
 21
14.2647
 31
0.0
  0
LINE
  8
0
 62
     7
 10
30.505
 20
14.2647
 30
0.0
 11
30.51
 21
14.2518
 31
0.0
  0
LINE
  8
0
 62
     7
 10
30.51
 20
14.2518
 30
0.0
 11
30.5267
 21
14.2096
 31
0.0
  0
LINE
  8
0
 62
     7
 10
30.5267
 20
14.2096
 30
0.0
 11
30.5757
 21
14.0829
 31
0.0
  0
LINE
  8
0
 62
     7
 10
30.5757
 20
14.0829
 30
0.0
 11
30.6311
 21
13.9358
 31
0.0
  0
LINE
  8
0
 62
     7
 10
30.6311
 20
13.9358
 30
0.0
 11
30.6719
 21
13.8216
 31
0.0
  0
LINE
  8
0
 62
     7
 10
30.6719
 20
13.8216
 30
0.0
 11
30.6904
 21
13.7663
 31
0.0
  0
LINE
  8
0
 62
     7
 10
30.6904
 20
13.7663
 30
0.0
 11
30.6944
 21
13.7517
 31
0.0
  0
LINE
  8
0
 62
     7
 10
30.6944
 20
13.7517
 30
0.0
 11
30.6954
 21
13.7473
 31
0.0
  0
LINE
  8
0
 62
     7
 10
30.6954
 20
13.7473
 30
0.0
 11
30.7036
 21
13.7201
 31
0.0
  0
LINE
  8
0
 62
     7
 10
30.7036
 20
13.7201
 30
0.0
 11
30.7133
 21
13.6934
 31
0.0
  0
LINE
  8
0
 62
     7
 10
30.7133
 20
13.6934
 30
0.0
 11
30.7153
 21
13.6892
 31
0.0
  0
LINE
  8
0
 62
     7
 10
30.7153
 20
13.6892
 30
0.0
 11
30.7171
 21
13.6848
 31
0.0
  0
LINE
  8
0
 62
     7
 10
30.7171
 20
13.6848
 30
0.0
 11
30.7268
 21
13.6576
 31
0.0
  0
LINE
  8
0
 62
     7
 10
30.7268
 20
13.6576
 30
0.0
 11
30.735
 21
13.6309
 31
0.0
  0
LINE
  8
0
 62
     7
 10
30.735
 20
13.6309
 30
0.0
 11
30.7361
 21
13.6267
 31
0.0
  0
LINE
  8
0
 62
     7
 10
30.7361
 20
13.6267
 30
0.0
 11
30.7374
 21
13.6223
 31
0.0
  0
LINE
  8
0
 62
     7
 10
30.7374
 20
13.6223
 30
0.0
 11
30.7426
 21
13.6049
 31
0.0
  0
LINE
  8
0
 62
     7
 10
30.7426
 20
13.6049
 30
0.0
 11
30.7536
 21
13.5692
 31
0.0
  0
LINE
  8
0
 62
     7
 10
30.7536
 20
13.5692
 30
0.0
 11
30.7675
 21
13.5245
 31
0.0
  0
LINE
  8
0
 62
     7
 10
30.7675
 20
13.5245
 30
0.0
 11
30.779
 21
13.4879
 31
0.0
  0
LINE
  8
0
 62
     7
 10
30.779
 20
13.4879
 30
0.0
 11
30.7829
 21
13.4757
 31
0.0
  0
LINE
  8
0
 62
     7
 10
30.7829
 20
13.4757
 30
0.0
 11
30.7874
 21
13.4617
 31
0.0
  0
LINE
  8
0
 62
     7
 10
30.7874
 20
13.4617
 30
0.0
 11
30.8004
 21
13.4195
 31
0.0
  0
LINE
  8
0
 62
     7
 10
30.8004
 20
13.4195
 30
0.0
 11
30.8161
 21
13.3677
 31
0.0
  0
LINE
  8
0
 62
     7
 10
30.8161
 20
13.3677
 30
0.0
 11
30.8311
 21
13.3161
 31
0.0
  0
LINE
  8
0
 62
     7
 10
30.8311
 20
13.3161
 30
0.0
 11
30.8468
 21
13.2605
 31
0.0
  0
LINE
  8
0
 62
     7
 10
30.8468
 20
13.2605
 30
0.0
 11
30.8642
 21
13.1966
 31
0.0
  0
LINE
  8
0
 62
     7
 10
30.8642
 20
13.1966
 30
0.0
 11
30.8844
 21
13.1202
 31
0.0
  0
LINE
  8
0
 62
     7
 10
30.8844
 20
13.1202
 30
0.0
 11
30.9086
 21
13.0271
 31
0.0
  0
LINE
  8
0
 62
     7
 10
30.9086
 20
13.0271
 30
0.0
 11
30.9307
 21
12.9417
 31
0.0
  0
LINE
  8
0
 62
     7
 10
30.9307
 20
12.9417
 30
0.0
 11
30.9381
 21
12.9132
 31
0.0
  0
LINE
  8
0
 62
     7
 10
30.9381
 20
12.9132
 30
0.0
 11
30.9589
 21
12.833
 31
0.0
  0
LINE
  8
0
 62
     7
 10
30.9589
 20
12.833
 30
0.0
 11
31.0129
 21
12.59
 31
0.0
  0
LINE
  8
0
 62
     7
 10
31.0129
 20
12.59
 30
0.0
 11
31.0833
 21
12.223
 31
0.0
  0
LINE
  8
0
 62
     7
 10
31.0833
 20
12.223
 30
0.0
 11
31.1425
 21
11.8496
 31
0.0
  0
LINE
  8
0
 62
     7
 10
31.1425
 20
11.8496
 30
0.0
 11
31.1757
 21
11.5928
 31
0.0
  0
LINE
  8
0
 62
     7
 10
31.1757
 20
11.5928
 30
0.0
 11
31.184
 21
11.5069
 31
0.0
  0
LINE
  8
0
 62
     7
 10
31.184
 20
11.5069
 30
0.0
 11
31.1878
 21
11.4676
 31
0.0
  0
LINE
  8
0
 62
     7
 10
31.1878
 20
11.4676
 30
0.0
 11
31.1989
 21
11.3493
 31
0.0
  0
LINE
  8
0
 62
     7
 10
31.1989
 20
11.3493
 30
0.0
 11
31.2096
 21
11.2229
 31
0.0
  0
LINE
  8
0
 62
     7
 10
31.2096
 20
11.2229
 30
0.0
 11
31.2181
 21
11.0992
 31
0.0
  0
LINE
  8
0
 62
     7
 10
31.2181
 20
11.0992
 30
0.0
 11
31.2246
 21
10.987
 31
0.0
  0
LINE
  8
0
 62
     7
 10
31.2246
 20
10.987
 30
0.0
 11
31.2267
 21
10.9497
 31
0.0
  0
LINE
  8
0
 62
     7
 10
31.2267
 20
10.9497
 30
0.0
 11
31.2339
 21
10.8198
 31
0.0
  0
LINE
  8
0
 62
     7
 10
31.2339
 20
10.8198
 30
0.0
 11
31.2408
 21
10.4293
 31
0.0
  0
LINE
  8
0
 62
     7
 10
31.2408
 20
10.4293
 30
0.0
 11
31.2275
 21
9.89344
 31
0.0
  0
LINE
  8
0
 62
     7
 10
31.2275
 20
9.89344
 30
0.0
 11
31.1871
 21
9.35444
 31
0.0
  0
LINE
  8
0
 62
     7
 10
31.1871
 20
9.35444
 30
0.0
 11
31.1406
 21
8.9566
 31
0.0
  0
LINE
  8
0
 62
     7
 10
31.1406
 20
8.9566
 30
0.0
 11
31.1204
 21
8.82465
 31
0.0
  0
LINE
  8
0
 62
     7
 10
31.1204
 20
8.82465
 30
0.0
 11
31.1111
 21
8.76406
 31
0.0
  0
LINE
  8
0
 62
     7
 10
31.1111
 20
8.76406
 30
0.0
 11
31.0801
 21
8.58262
 31
0.0
  0
LINE
  8
0
 62
     7
 10
31.0801
 20
8.58262
 30
0.0
 11
31.0347
 21
8.34158
 31
0.0
  0
LINE
  8
0
 62
     7
 10
31.0347
 20
8.34158
 30
0.0
 11
30.9865
 21
8.11421
 31
0.0
  0
LINE
  8
0
 62
     7
 10
30.9865
 20
8.11421
 30
0.0
 11
30.9511
 21
7.96322
 31
0.0
  0
LINE
  8
0
 62
     7
 10
30.9511
 20
7.96322
 30
0.0
 11
30.9381
 21
7.91319
 31
0.0
  0
LINE
  8
0
 62
     7
 10
30.9381
 20
7.91319
 30
0.0
 11
30.9307
 21
7.88476
 31
0.0
  0
LINE
  8
0
 62
     7
 10
30.9307
 20
7.88476
 30
0.0
 11
30.9086
 21
7.79932
 31
0.0
  0
LINE
  8
0
 62
     7
 10
30.9086
 20
7.79932
 30
0.0
 11
30.8844
 21
7.70628
 31
0.0
  0
LINE
  8
0
 62
     7
 10
30.8844
 20
7.70628
 30
0.0
 11
30.8642
 21
7.62989
 31
0.0
  0
LINE
  8
0
 62
     7
 10
30.8642
 20
7.62989
 30
0.0
 11
30.8468
 21
7.56597
 31
0.0
  0
LINE
  8
0
 62
     7
 10
30.8468
 20
7.56597
 30
0.0
 11
30.8311
 21
7.51031
 31
0.0
  0
LINE
  8
0
 62
     7
 10
30.8311
 20
7.51031
 30
0.0
 11
30.8161
 21
7.45871
 31
0.0
  0
LINE
  8
0
 62
     7
 10
30.8161
 20
7.45871
 30
0.0
 11
30.8004
 21
7.4069
 31
0.0
  0
LINE
  8
0
 62
     7
 10
30.8004
 20
7.4069
 30
0.0
 11
30.7874
 21
7.36475
 31
0.0
  0
LINE
  8
0
 62
     7
 10
30.7874
 20
7.36475
 30
0.0
 11
30.7829
 21
7.35069
 31
0.0
  0
LINE
  8
0
 62
     7
 10
30.7829
 20
7.35069
 30
0.0
 11
30.779
 21
7.33849
 31
0.0
  0
LINE
  8
0
 62
     7
 10
30.779
 20
7.33849
 30
0.0
 11
30.7675
 21
7.30176
 31
0.0
  0
LINE
  8
0
 62
     7
 10
30.7675
 20
7.30176
 30
0.0
 11
30.7536
 21
7.25683
 31
0.0
  0
LINE
  8
0
 62
     7
 10
30.7536
 20
7.25683
 30
0.0
 11
30.7426
 21
7.22108
 31
0.0
  0
LINE
  8
0
 62
     7
 10
30.7426
 20
7.22108
 30
0.0
 11
30.7374
 21
7.20383
 31
0.0
  0
LINE
  8
0
 62
     7
 10
30.7374
 20
7.20383
 30
0.0
 11
30.7361
 21
7.19965
 31
0.0
  0
LINE
  8
0
 62
     7
 10
30.7361
 20
7.19965
 30
0.0
 11
30.735
 21
7.19526
 31
0.0
  0
LINE
  8
0
 62
     7
 10
30.735
 20
7.19526
 30
0.0
 11
30.7268
 21
7.16803
 31
0.0
  0
LINE
  8
0
 62
     7
 10
30.7268
 20
7.16803
 30
0.0
 11
30.7171
 21
7.14133
 31
0.0
  0
LINE
  8
0
 62
     7
 10
30.7171
 20
7.14133
 30
0.0
 11
30.7153
 21
7.13715
 31
0.0
  0
LINE
  8
0
 62
     7
 10
30.7153
 20
7.13715
 30
0.0
 11
30.7133
 21
7.13276
 31
0.0
  0
LINE
  8
0
 62
     7
 10
30.7133
 20
7.13276
 30
0.0
 11
30.7036
 21
7.10553
 31
0.0
  0
LINE
  8
0
 62
     7
 10
30.7036
 20
7.10553
 30
0.0
 11
30.6954
 21
7.07883
 31
0.0
  0
LINE
  8
0
 62
     7
 10
30.6954
 20
7.07883
 30
0.0
 11
30.6944
 21
7.07465
 31
0.0
  0
LINE
  8
0
 62
     7
 10
30.6944
 20
7.07465
 30
0.0
 11
30.6904
 21
7.06011
 31
0.0
  0
LINE
  8
0
 62
     7
 10
30.6904
 20
7.06011
 30
0.0
 11
30.6719
 21
7.00489
 31
0.0
  0
LINE
  8
0
 62
     7
 10
30.6719
 20
7.00489
 30
0.0
 11
30.6311
 21
6.89068
 31
0.0
  0
LINE
  8
0
 62
     7
 10
30.6311
 20
6.89068
 30
0.0
 11
30.5757
 21
6.74349
 31
0.0
  0
LINE
  8
0
 62
     7
 10
30.5757
 20
6.74349
 30
0.0
 11
30.5267
 21
6.61681
 31
0.0
  0
LINE
  8
0
 62
     7
 10
30.5267
 20
6.61681
 30
0.0
 11
30.51
 21
6.57465
 31
0.0
  0
LINE
  8
0
 62
     7
 10
30.51
 20
6.57465
 30
0.0
 11
30.505
 21
6.56168
 31
0.0
  0
LINE
  8
0
 62
     7
 10
30.505
 20
6.56168
 30
0.0
 11
30.4892
 21
6.52289
 31
0.0
  0
LINE
  8
0
 62
     7
 10
30.4892
 20
6.52289
 30
0.0
 11
30.4581
 21
6.44819
 31
0.0
  0
LINE
  8
0
 62
     7
 10
30.4581
 20
6.44819
 30
0.0
 11
30.4203
 21
6.35906
 31
0.0
  0
LINE
  8
0
 62
     7
 10
30.4203
 20
6.35906
 30
0.0
 11
30.3796
 21
6.26411
 31
0.0
  0
LINE
  8
0
 62
     7
 10
30.3796
 20
6.26411
 30
0.0
 11
30.3397
 21
6.17188
 31
0.0
  0
LINE
  8
0
 62
     7
 10
30.3397
 20
6.17188
 30
0.0
 11
30.3042
 21
6.09082
 31
0.0
  0
LINE
  8
0
 62
     7
 10
30.3042
 20
6.09082
 30
0.0
 11
30.2767
 21
6.02957
 31
0.0
  0
LINE
  8
0
 62
     7
 10
30.2767
 20
6.02957
 30
0.0
 11
30.2653
 21
6.00461
 31
0.0
  0
LINE
  8
0
 62
     7
 10
30.2653
 20
6.00461
 30
0.0
 11
30.261
 21
5.99653
 31
0.0
  0
LINE
  8
0
 62
     7
 10
30.261
 20
5.99653
 30
0.0
 11
30.2592
 21
5.99289
 31
0.0
  0
LINE
  8
0
 62
     7
 10
30.2592
 20
5.99289
 30
0.0
 11
30.2496
 21
5.97358
 31
0.0
  0
LINE
  8
0
 62
     7
 10
30.2496
 20
5.97358
 30
0.0
 11
30.2283
 21
5.93056
 31
0.0
  0
LINE
  8
0
 62
     7
 10
30.2283
 20
5.93056
 30
0.0
 11
30.2003
 21
5.87364
 31
0.0
  0
LINE
  8
0
 62
     7
 10
30.2003
 20
5.87364
 30
0.0
 11
30.1764
 21
5.82519
 31
0.0
  0
LINE
  8
0
 62
     7
 10
30.1764
 20
5.82519
 30
0.0
 11
30.1683
 21
5.80903
 31
0.0
  0
LINE
  8
0
 62
     7
 10
30.1683
 20
5.80903
 30
0.0
 11
30.1565
 21
5.78461
 31
0.0
  0
LINE
  8
0
 62
     7
 10
30.1565
 20
5.78461
 30
0.0
 11
30.1208
 21
5.71149
 31
0.0
  0
LINE
  8
0
 62
     7
 10
30.1208
 20
5.71149
 30
0.0
 11
30.0778
 21
5.62625
 31
0.0
  0
LINE
  8
0
 62
     7
 10
30.0778
 20
5.62625
 30
0.0
 11
30.0319
 21
5.53863
 31
0.0
  0
LINE
  8
0
 62
     7
 10
30.0319
 20
5.53863
 30
0.0
 11
29.9899
 21
5.46013
 31
0.0
  0
LINE
  8
0
 62
     7
 10
29.9899
 20
5.46013
 30
0.0
 11
29.9757
 21
5.43403
 31
0.0
  0
LINE
  8
0
 62
     7
 10
29.9757
 20
5.43403
 30
0.0
 11
29.9712
 21
5.42572
 31
0.0
  0
LINE
  8
0
 62
     7
 10
29.9712
 20
5.42572
 30
0.0
 11
29.9575
 21
5.40115
 31
0.0
  0
LINE
  8
0
 62
     7
 10
29.9575
 20
5.40115
 30
0.0
 11
29.9276
 21
5.34842
 31
0.0
  0
LINE
  8
0
 62
     7
 10
29.9276
 20
5.34842
 30
0.0
 11
29.8899
 21
5.28271
 31
0.0
  0
LINE
  8
0
 62
     7
 10
29.8899
 20
5.28271
 30
0.0
 11
29.8483
 21
5.21089
 31
0.0
  0
LINE
  8
0
 62
     7
 10
29.8483
 20
5.21089
 30
0.0
 11
29.8071
 21
5.13971
 31
0.0
  0
LINE
  8
0
 62
     7
 10
29.8071
 20
5.13971
 30
0.0
 11
29.7697
 21
5.07601
 31
0.0
  0
LINE
  8
0
 62
     7
 10
29.7697
 20
5.07601
 30
0.0
 11
29.7406
 21
5.02675
 31
0.0
  0
LINE
  8
0
 62
     7
 10
29.7406
 20
5.02675
 30
0.0
 11
29.7279
 21
5.00553
 31
0.0
  0
LINE
  8
0
 62
     7
 10
29.7279
 20
5.00553
 30
0.0
 11
29.7235
 21
4.99858
 31
0.0
  0
LINE
  8
0
 62
     7
 10
29.7235
 20
4.99858
 30
0.0
 11
29.7211
 21
4.99468
 31
0.0
  0
LINE
  8
0
 62
     7
 10
29.7211
 20
4.99468
 30
0.0
 11
29.7071
 21
4.97194
 31
0.0
  0
LINE
  8
0
 62
     7
 10
29.7071
 20
4.97194
 30
0.0
 11
29.694
 21
4.95074
 31
0.0
  0
LINE
  8
0
 62
     7
 10
29.694
 20
4.95074
 30
0.0
 11
29.6922
 21
4.9476
 31
0.0
  0
LINE
  8
0
 62
     7
 10
29.6922
 20
4.9476
 30
0.0
 11
29.6835
 21
4.93278
 31
0.0
  0
LINE
  8
0
 62
     7
 10
29.6835
 20
4.93278
 30
0.0
 11
29.6564
 21
4.88846
 31
0.0
  0
LINE
  8
0
 62
     7
 10
29.6564
 20
4.88846
 30
0.0
 11
29.6179
 21
4.82742
 31
0.0
  0
LINE
  8
0
 62
     7
 10
29.6179
 20
4.82742
 30
0.0
 11
29.5703
 21
4.75407
 31
0.0
  0
LINE
  8
0
 62
     7
 10
29.5703
 20
4.75407
 30
0.0
 11
29.5228
 21
4.68201
 31
0.0
  0
LINE
  8
0
 62
     7
 10
29.5228
 20
4.68201
 30
0.0
 11
29.5069
 21
4.65799
 31
0.0
  0
LINE
  8
0
 62
     7
 10
29.5069
 20
4.65799
 30
0.0
 11
29.4953
 21
4.64068
 31
0.0
  0
LINE
  8
0
 62
     7
 10
29.4953
 20
4.64068
 30
0.0
 11
29.4604
 21
4.58876
 31
0.0
  0
LINE
  8
0
 62
     7
 10
29.4604
 20
4.58876
 30
0.0
 11
29.4164
 21
4.52339
 31
0.0
  0
LINE
  8
0
 62
     7
 10
29.4164
 20
4.52339
 30
0.0
 11
29.3796
 21
4.46935
 31
0.0
  0
LINE
  8
0
 62
     7
 10
29.3796
 20
4.46935
 30
0.0
 11
29.3604
 21
4.44185
 31
0.0
  0
LINE
  8
0
 62
     7
 10
29.3604
 20
4.44185
 30
0.0
 11
29.3547
 21
4.43403
 31
0.0
  0
LINE
  8
0
 62
     7
 10
29.3547
 20
4.43403
 30
0.0
 11
29.349
 21
4.42622
 31
0.0
  0
LINE
  8
0
 62
     7
 10
29.349
 20
4.42622
 30
0.0
 11
29.315
 21
4.37875
 31
0.0
  0
LINE
  8
0
 62
     7
 10
29.315
 20
4.37875
 30
0.0
 11
29.2826
 21
4.33274
 31
0.0
  0
LINE
  8
0
 62
     7
 10
29.2826
 20
4.33274
 30
0.0
 11
29.2778
 21
4.32568
 31
0.0
  0
LINE
  8
0
 62
     7
 10
29.2778
 20
4.32568
 30
0.0
 11
29.2699
 21
4.3144
 31
0.0
  0
LINE
  8
0
 62
     7
 10
29.2699
 20
4.3144
 30
0.0
 11
29.245
 21
4.28131
 31
0.0
  0
LINE
  8
0
 62
     7
 10
29.245
 20
4.28131
 30
0.0
 11
29.1917
 21
4.21089
 31
0.0
  0
LINE
  8
0
 62
     7
 10
29.1917
 20
4.21089
 30
0.0
 11
29.1243
 21
4.12332
 31
0.0
  0
LINE
  8
0
 62
     7
 10
29.1243
 20
4.12332
 30
0.0
 11
29.05
 21
4.0274
 31
0.0
  0
LINE
  8
0
 62
     7
 10
29.05
 20
4.0274
 30
0.0
 11
28.9753
 21
3.93197
 31
0.0
  0
LINE
  8
0
 62
     7
 10
28.9753
 20
3.93197
 30
0.0
 11
28.9072
 21
3.84571
 31
0.0
  0
LINE
  8
0
 62
     7
 10
28.9072
 20
3.84571
 30
0.0
 11
28.8526
 21
3.7775
 31
0.0
  0
LINE
  8
0
 62
     7
 10
28.8526
 20
3.7775
 30
0.0
 11
28.8271
 21
3.74625
 31
0.0
  0
LINE
  8
0
 62
     7
 10
28.8271
 20
3.74625
 30
0.0
 11
28.8183
 21
3.73611
 31
0.0
  0
LINE
  8
0
 62
     7
 10
28.8183
 20
3.73611
 30
0.0
 11
28.7914
 21
3.70492
 31
0.0
  0
LINE
  8
0
 62
     7
 10
28.7914
 20
3.70492
 30
0.0
 11
28.7104
 21
3.61139
 31
0.0
  0
LINE
  8
0
 62
     7
 10
28.7104
 20
3.61139
 30
0.0
 11
28.6233
 21
3.51139
 31
0.0
  0
LINE
  8
0
 62
     7
 10
28.6233
 20
3.51139
 30
0.0
 11
28.5507
 21
3.42936
 31
0.0
  0
LINE
  8
0
 62
     7
 10
28.5507
 20
3.42936
 30
0.0
 11
28.4863
 21
3.3584
 31
0.0
  0
LINE
  8
0
 62
     7
 10
28.4863
 20
3.3584
 30
0.0
 11
28.4236
 21
3.29172
 31
0.0
  0
LINE
  8
0
 62
     7
 10
28.4236
 20
3.29172
 30
0.0
 11
28.3567
 21
3.22244
 31
0.0
  0
LINE
  8
0
 62
     7
 10
28.3567
 20
3.22244
 30
0.0
 11
28.2787
 21
3.14367
 31
0.0
  0
LINE
  8
0
 62
     7
 10
28.2787
 20
3.14367
 30
0.0
 11
28.2076
 21
3.07238
 31
0.0
  0
LINE
  8
0
 62
     7
 10
28.2076
 20
3.07238
 30
0.0
 11
28.184
 21
3.04861
 31
0.0
  0
LINE
  8
0
 62
     7
 10
28.184
 20
3.04861
 30
0.0
 11
28.0353
 21
2.89974
 31
0.0
  0
LINE
  8
0
 62
     7
 10
28.0353
 20
2.89974
 30
0.0
 11
27.5657
 21
2.47646
 31
0.0
  0
LINE
  8
0
 62
     7
 10
27.5657
 20
2.47646
 30
0.0
 11
26.911
 21
1.96246
 31
0.0
  0
LINE
  8
0
 62
     7
 10
26.911
 20
1.96246
 30
0.0
 11
26.2158
 21
1.50353
 31
0.0
  0
LINE
  8
0
 62
     7
 10
26.2158
 20
1.50353
 30
0.0
 11
25.6643
 21
1.19092
 31
0.0
  0
LINE
  8
0
 62
     7
 10
25.6643
 20
1.19092
 30
0.0
 11
25.4757
 21
1.09652
 31
0.0
  0
LINE
  8
0
 62
     7
 10
25.4757
 20
1.09652
 30
0.0
 11
25.3629
 21
1.04015
 31
0.0
  0
LINE
  8
0
 62
     7
 10
25.3629
 20
1.04015
 30
0.0
 11
25.0193
 21
0.881782
 31
0.0
  0
LINE
  8
0
 62
     7
 10
25.0193
 20
0.881782
 30
0.0
 11
24.5561
 21
0.690539
 31
0.0
  0
LINE
  8
0
 62
     7
 10
24.5561
 20
0.690539
 30
0.0
 11
24.0858
 21
0.522786
 31
0.0
  0
LINE
  8
0
 62
     7
 10
24.0858
 20
0.522786
 30
0.0
 11
23.6078
 21
0.37831
 31
0.0
  0
LINE
  8
0
 62
     7
 10
23.6078
 20
0.37831
 30
0.0
 11
23.1218
 21
0.257107
 31
0.0
  0
LINE
  8
0
 62
     7
 10
23.1218
 20
0.257107
 30
0.0
 11
22.6272
 21
0.159071
 31
0.0
  0
LINE
  8
0
 62
     7
 10
22.6272
 20
0.159071
 30
0.0
 11
22.1238
 21
0.0840386
 31
0.0
  0
LINE
  8
0
 62
     7
 10
22.1238
 20
0.0840386
 30
0.0
 11
21.7394
 21
0.0420464
 31
0.0
  0
LINE
  8
0
 62
     7
 10
21.7394
 20
0.0420464
 30
0.0
 11
21.6111
 21
0.0319553
 31
0.0
  0
LINE
  8
0
 62
     7
 10
21.6111
 20
0.0319553
 30
0.0
 11
21.5856
 21
0.0299479
 31
0.0
  0
LINE
  8
0
 62
     7
 10
21.5856
 20
0.0299479
 30
0.0
 11
21.5086
 21
0.02653
 31
0.0
  0
LINE
  8
0
 62
     7
 10
21.5086
 20
0.02653
 30
0.0
 11
21.3521
 21
0.0214301
 31
0.0
  0
LINE
  8
0
 62
     7
 10
21.3521
 20
0.0214301
 30
0.0
 11
21.1607
 21
0.0168186
 31
0.0
  0
LINE
  8
0
 62
     7
 10
21.1607
 20
0.0168186
 30
0.0
 11
20.9542
 21
0.0130751
 31
0.0
  0
LINE
  8
0
 62
     7
 10
20.9542
 20
0.0130751
 30
0.0
 11
20.7519
 21
0.0104709
 31
0.0
  0
LINE
  8
0
 62
     7
 10
20.7519
 20
0.0104709
 30
0.0
 11
20.5736
 21
0.00927735
 31
0.0
  0
LINE
  8
0
 62
     7
 10
20.5736
 20
0.00927735
 30
0.0
 11
20.4385
 21
0.00971137
 31
0.0
  0
LINE
  8
0
 62
     7
 10
20.4385
 20
0.00971137
 30
0.0
 11
20.3842
 21
0.0103624
 31
0.0
  0
LINE
  8
0
 62
     7
 10
20.3842
 20
0.0103624
 30
0.0
 11
20.3663
 21
0.0121528
 31
0.0
  0
LINE
  8
0
 62
     7
 10
24.3797
 20
8.44026
 30
0.0
 11
24.3822
 21
8.44194
 31
0.0
  0
LINE
  8
0
 62
     7
 10
24.3822
 20
8.44194
 30
0.0
 11
24.3899
 21
8.44661
 31
0.0
  0
LINE
  8
0
 62
     7
 10
24.3899
 20
8.44661
 30
0.0
 11
24.3986
 21
8.45258
 31
0.0
  0
LINE
  8
0
 62
     7
 10
24.3986
 20
8.45258
 30
0.0
 11
24.406
 21
8.4611
 31
0.0
  0
LINE
  8
0
 62
     7
 10
24.406
 20
8.4611
 30
0.0
 11
24.4124
 21
8.47487
 31
0.0
  0
LINE
  8
0
 62
     7
 10
24.4124
 20
8.47487
 30
0.0
 11
24.4176
 21
8.49681
 31
0.0
  0
LINE
  8
0
 62
     7
 10
24.4176
 20
8.49681
 30
0.0
 11
24.4221
 21
8.52968
 31
0.0
  0
LINE
  8
0
 62
     7
 10
24.4221
 20
8.52968
 30
0.0
 11
24.4256
 21
8.57628
 31
0.0
  0
LINE
  8
0
 62
     7
 10
24.4256
 20
8.57628
 30
0.0
 11
24.4283
 21
8.63954
 31
0.0
  0
LINE
  8
0
 62
     7
 10
24.4283
 20
8.63954
 30
0.0
 11
24.4304
 21
8.72217
 31
0.0
  0
LINE
  8
0
 62
     7
 10
24.4304
 20
8.72217
 30
0.0
 11
24.4319
 21
8.82704
 31
0.0
  0
LINE
  8
0
 62
     7
 10
24.4319
 20
8.82704
 30
0.0
 11
24.4329
 21
8.95692
 31
0.0
  0
LINE
  8
0
 62
     7
 10
24.4329
 20
8.95692
 30
0.0
 11
24.4335
 21
9.11475
 31
0.0
  0
LINE
  8
0
 62
     7
 10
24.4335
 20
9.11475
 30
0.0
 11
24.4339
 21
9.30317
 31
0.0
  0
LINE
  8
0
 62
     7
 10
24.4339
 20
9.30317
 30
0.0
 11
24.434
 21
9.52518
 31
0.0
  0
LINE
  8
0
 62
     7
 10
24.434
 20
9.52518
 30
0.0
 11
24.434
 21
9.78347
 31
0.0
  0
LINE
  8
0
 62
     7
 10
24.434
 20
9.78347
 30
0.0
 11
24.434
 21
10.0066
 31
0.0
  0
LINE
  8
0
 62
     7
 10
24.434
 20
10.0066
 30
0.0
 11
24.434
 21
10.0809
 31
0.0
  0
LINE
  8
0
 62
     7
 10
24.434
 20
10.0809
 30
0.0
 11
24.434
 21
11.6465
 31
0.0
  0
LINE
  8
0
 62
     7
 10
24.434
 20
11.6465
 30
0.0
 11
24.5694
 21
11.4226
 31
0.0
  0
LINE
  8
0
 62
     7
 10
24.5694
 20
11.4226
 30
0.0
 11
24.5828
 21
11.4007
 31
0.0
  0
LINE
  8
0
 62
     7
 10
24.5828
 20
11.4007
 30
0.0
 11
24.6229
 21
11.3346
 31
0.0
  0
LINE
  8
0
 62
     7
 10
24.6229
 20
11.3346
 30
0.0
 11
24.6681
 21
11.2604
 31
0.0
  0
LINE
  8
0
 62
     7
 10
24.6681
 20
11.2604
 30
0.0
 11
24.7003
 21
11.2076
 31
0.0
  0
LINE
  8
0
 62
     7
 10
24.7003
 20
11.2076
 30
0.0
 11
24.7136
 21
11.1861
 31
0.0
  0
LINE
  8
0
 62
     7
 10
24.7136
 20
11.1861
 30
0.0
 11
24.7153
 21
11.184
 31
0.0
  0
LINE
  8
0
 62
     7
 10
24.7153
 20
11.184
 30
0.0
 11
24.7235
 21
11.1707
 31
0.0
  0
LINE
  8
0
 62
     7
 10
24.7235
 20
11.1707
 30
0.0
 11
24.7481
 21
11.1304
 31
0.0
  0
LINE
  8
0
 62
     7
 10
24.7481
 20
11.1304
 30
0.0
 11
24.7813
 21
11.0756
 31
0.0
  0
LINE
  8
0
 62
     7
 10
24.7813
 20
11.0756
 30
0.0
 11
24.8083
 21
11.0307
 31
0.0
  0
LINE
  8
0
 62
     7
 10
24.8083
 20
11.0307
 30
0.0
 11
24.8207
 21
11.0101
 31
0.0
  0
LINE
  8
0
 62
     7
 10
24.8207
 20
11.0101
 30
0.0
 11
24.8225
 21
11.0069
 31
0.0
  0
LINE
  8
0
 62
     7
 10
24.8225
 20
11.0069
 30
0.0
 11
24.8235
 21
11.0049
 31
0.0
  0
LINE
  8
0
 62
     7
 10
24.8235
 20
11.0049
 30
0.0
 11
24.8338
 21
10.9867
 31
0.0
  0
LINE
  8
0
 62
     7
 10
24.8338
 20
10.9867
 30
0.0
 11
24.8478
 21
10.9643
 31
0.0
  0
LINE
  8
0
 62
     7
 10
24.8478
 20
10.9643
 30
0.0
 11
24.8507
 21
10.9601
 31
0.0
  0
LINE
  8
0
 62
     7
 10
24.8507
 20
10.9601
 30
0.0
 11
24.8535
 21
10.9557
 31
0.0
  0
LINE
  8
0
 62
     7
 10
24.8535
 20
10.9557
 30
0.0
 11
24.8696
 21
10.9296
 31
0.0
  0
LINE
  8
0
 62
     7
 10
24.8696
 20
10.9296
 30
0.0
 11
24.8847
 21
10.9046
 31
0.0
  0
LINE
  8
0
 62
     7
 10
24.8847
 20
10.9046
 30
0.0
 11
24.8871
 21
10.9007
 31
0.0
  0
LINE
  8
0
 62
     7
 10
24.8871
 20
10.9007
 30
0.0
 11
24.8892
 21
10.8968
 31
0.0
  0
LINE
  8
0
 62
     7
 10
24.8892
 20
10.8968
 30
0.0
 11
24.9068
 21
10.8673
 31
0.0
  0
LINE
  8
0
 62
     7
 10
24.9068
 20
10.8673
 30
0.0
 11
24.949
 21
10.7972
 31
0.0
  0
LINE
  8
0
 62
     7
 10
24.949
 20
10.7972
 30
0.0
 11
25.0078
 21
10.7008
 31
0.0
  0
LINE
  8
0
 62
     7
 10
25.0078
 20
10.7008
 30
0.0
 11
25.0594
 21
10.6164
 31
0.0
  0
LINE
  8
0
 62
     7
 10
25.0594
 20
10.6164
 30
0.0
 11
25.0767
 21
10.5882
 31
0.0
  0
LINE
  8
0
 62
     7
 10
25.0767
 20
10.5882
 30
0.0
 11
25.0938
 21
10.5602
 31
0.0
  0
LINE
  8
0
 62
     7
 10
25.0938
 20
10.5602
 30
0.0
 11
25.1449
 21
10.4759
 31
0.0
  0
LINE
  8
0
 62
     7
 10
25.1449
 20
10.4759
 30
0.0
 11
25.2032
 21
10.3799
 31
0.0
  0
LINE
  8
0
 62
     7
 10
25.2032
 20
10.3799
 30
0.0
 11
25.2451
 21
10.3105
 31
0.0
  0
LINE
  8
0
 62
     7
 10
25.2451
 20
10.3105
 30
0.0
 11
25.2624
 21
10.2815
 31
0.0
  0
LINE
  8
0
 62
     7
 10
25.2624
 20
10.2815
 30
0.0
 11
25.2642
 21
10.2778
 31
0.0
  0
LINE
  8
0
 62
     7
 10
25.2642
 20
10.2778
 30
0.0
 11
25.2663
 21
10.2741
 31
0.0
  0
LINE
  8
0
 62
     7
 10
25.2663
 20
10.2741
 30
0.0
 11
25.2799
 21
10.2513
 31
0.0
  0
LINE
  8
0
 62
     7
 10
25.2799
 20
10.2513
 30
0.0
 11
25.294
 21
10.2283
 31
0.0
  0
LINE
  8
0
 62
     7
 10
25.294
 20
10.2283
 30
0.0
 11
25.2964
 21
10.2247
 31
0.0
  0
LINE
  8
0
 62
     7
 10
25.2964
 20
10.2247
 30
0.0
 11
25.2988
 21
10.2208
 31
0.0
  0
LINE
  8
0
 62
     7
 10
25.2988
 20
10.2208
 30
0.0
 11
25.3064
 21
10.2082
 31
0.0
  0
LINE
  8
0
 62
     7
 10
25.3064
 20
10.2082
 30
0.0
 11
25.321
 21
10.1843
 31
0.0
  0
LINE
  8
0
 62
     7
 10
25.321
 20
10.1843
 30
0.0
 11
25.3382
 21
10.1561
 31
0.0
  0
LINE
  8
0
 62
     7
 10
25.3382
 20
10.1561
 30
0.0
 11
25.3514
 21
10.1341
 31
0.0
  0
LINE
  8
0
 62
     7
 10
25.3514
 20
10.1341
 30
0.0
 11
25.3558
 21
10.1267
 31
0.0
  0
LINE
  8
0
 62
     7
 10
25.3558
 20
10.1267
 30
0.0
 11
25.361
 21
10.1181
 31
0.0
  0
LINE
  8
0
 62
     7
 10
25.361
 20
10.1181
 30
0.0
 11
25.3765
 21
10.0922
 31
0.0
  0
LINE
  8
0
 62
     7
 10
25.3765
 20
10.0922
 30
0.0
 11
25.394
 21
10.0629
 31
0.0
  0
LINE
  8
0
 62
     7
 10
25.394
 20
10.0629
 30
0.0
 11
25.411
 21
10.0346
 31
0.0
  0
LINE
  8
0
 62
     7
 10
25.411
 20
10.0346
 30
0.0
 11
25.43
 21
10.0032
 31
0.0
  0
LINE
  8
0
 62
     7
 10
25.43
 20
10.0032
 30
0.0
 11
25.4536
 21
9.96431
 31
0.0
  0
LINE
  8
0
 62
     7
 10
25.4536
 20
9.96431
 30
0.0
 11
25.4844
 21
9.91363
 31
0.0
  0
LINE
  8
0
 62
     7
 10
25.4844
 20
9.91363
 30
0.0
 11
25.5249
 21
9.847
 31
0.0
  0
LINE
  8
0
 62
     7
 10
25.5249
 20
9.847
 30
0.0
 11
25.5644
 21
9.78185
 31
0.0
  0
LINE
  8
0
 62
     7
 10
25.5644
 20
9.78185
 30
0.0
 11
25.5776
 21
9.7601
 31
0.0
  0
LINE
  8
0
 62
     7
 10
25.5776
 20
9.7601
 30
0.0
 11
25.5911
 21
9.73807
 31
0.0
  0
LINE
  8
0
 62
     7
 10
25.5911
 20
9.73807
 30
0.0
 11
25.6317
 21
9.67199
 31
0.0
  0
LINE
  8
0
 62
     7
 10
25.6317
 20
9.67199
 30
0.0
 11
25.6732
 21
9.604
 31
0.0
  0
LINE
  8
0
 62
     7
 10
25.6732
 20
9.604
 30
0.0
 11
25.7049
 21
9.55203
 31
0.0
  0
LINE
  8
0
 62
     7
 10
25.7049
 20
9.55203
 30
0.0
 11
25.7294
 21
9.51193
 31
0.0
  0
LINE
  8
0
 62
     7
 10
25.7294
 20
9.51193
 30
0.0
 11
25.749
 21
9.47954
 31
0.0
  0
LINE
  8
0
 62
     7
 10
25.749
 20
9.47954
 30
0.0
 11
25.7663
 21
9.45074
 31
0.0
  0
LINE
  8
0
 62
     7
 10
25.7663
 20
9.45074
 30
0.0
 11
25.7836
 21
9.42133
 31
0.0
  0
LINE
  8
0
 62
     7
 10
25.7836
 20
9.42133
 30
0.0
 11
25.7988
 21
9.39572
 31
0.0
  0
LINE
  8
0
 62
     7
 10
25.7988
 20
9.39572
 30
0.0
 11
25.8038
 21
9.38715
 31
0.0
  0
LINE
  8
0
 62
     7
 10
25.8038
 20
9.38715
 30
0.0
 11
25.8081
 21
9.37983
 31
0.0
  0
LINE
  8
0
 62
     7
 10
25.8081
 20
9.37983
 30
0.0
 11
25.8214
 21
9.35786
 31
0.0
  0
LINE
  8
0
 62
     7
 10
25.8214
 20
9.35786
 30
0.0
 11
25.8385
 21
9.32975
 31
0.0
  0
LINE
  8
0
 62
     7
 10
25.8385
 20
9.32975
 30
0.0
 11
25.8531
 21
9.30615
 31
0.0
  0
LINE
  8
0
 62
     7
 10
25.8531
 20
9.30615
 30
0.0
 11
25.8607
 21
9.29394
 31
0.0
  0
LINE
  8
0
 62
     7
 10
25.8607
 20
9.29394
 30
0.0
 11
25.8631
 21
9.29025
 31
0.0
  0
LINE
  8
0
 62
     7
 10
25.8631
 20
9.29025
 30
0.0
 11
25.8654
 21
9.28635
 31
0.0
  0
LINE
  8
0
 62
     7
 10
25.8654
 20
9.28635
 30
0.0
 11
25.8797
 21
9.26281
 31
0.0
  0
LINE
  8
0
 62
     7
 10
25.8797
 20
9.26281
 30
0.0
 11
25.8933
 21
9.23981
 31
0.0
  0
LINE
  8
0
 62
     7
 10
25.8933
 20
9.23981
 30
0.0
 11
25.8954
 21
9.23611
 31
0.0
  0
LINE
  8
0
 62
     7
 10
25.8954
 20
9.23611
 30
0.0
 11
25.8972
 21
9.23247
 31
0.0
  0
LINE
  8
0
 62
     7
 10
25.8972
 20
9.23247
 30
0.0
 11
25.9112
 21
9.20861
 31
0.0
  0
LINE
  8
0
 62
     7
 10
25.9112
 20
9.20861
 30
0.0
 11
25.9443
 21
9.15321
 31
0.0
  0
LINE
  8
0
 62
     7
 10
25.9443
 20
9.15321
 30
0.0
 11
25.99
 21
9.07807
 31
0.0
  0
LINE
  8
0
 62
     7
 10
25.99
 20
9.07807
 30
0.0
 11
26.03
 21
9.01297
 31
0.0
  0
LINE
  8
0
 62
     7
 10
26.03
 20
9.01297
 30
0.0
 11
26.0433
 21
8.99132
 31
0.0
  0
LINE
  8
0
 62
     7
 10
26.0433
 20
8.99132
 30
0.0
 11
26.0565
 21
8.96951
 31
0.0
  0
LINE
  8
0
 62
     7
 10
26.0565
 20
8.96951
 30
0.0
 11
26.0963
 21
8.90403
 31
0.0
  0
LINE
  8
0
 62
     7
 10
26.0963
 20
8.90403
 30
0.0
 11
26.1421
 21
8.82844
 31
0.0
  0
LINE
  8
0
 62
     7
 10
26.1421
 20
8.82844
 30
0.0
 11
26.1761
 21
8.77268
 31
0.0
  0
LINE
  8
0
 62
     7
 10
26.1761
 20
8.77268
 30
0.0
 11
26.191
 21
8.74838
 31
0.0
  0
LINE
  8
0
 62
     7
 10
26.191
 20
8.74838
 30
0.0
 11
26.1933
 21
8.74447
 31
0.0
  0
LINE
  8
0
 62
     7
 10
26.1933
 20
8.74447
 30
0.0
 11
26.1957
 21
8.74083
 31
0.0
  0
LINE
  8
0
 62
     7
 10
26.1957
 20
8.74083
 30
0.0
 11
26.2035
 21
8.72808
 31
0.0
  0
LINE
  8
0
 62
     7
 10
26.2035
 20
8.72808
 30
0.0
 11
26.2188
 21
8.70296
 31
0.0
  0
LINE
  8
0
 62
     7
 10
26.2188
 20
8.70296
 30
0.0
 11
26.2372
 21
8.67258
 31
0.0
  0
LINE
  8
0
 62
     7
 10
26.2372
 20
8.67258
 30
0.0
 11
26.2519
 21
8.64839
 31
0.0
  0
LINE
  8
0
 62
     7
 10
26.2519
 20
8.64839
 30
0.0
 11
26.2569
 21
8.64031
 31
0.0
  0
LINE
  8
0
 62
     7
 10
26.2569
 20
8.64031
 30
0.0
 11
26.2617
 21
8.63226
 31
0.0
  0
LINE
  8
0
 62
     7
 10
26.2617
 20
8.63226
 30
0.0
 11
26.2761
 21
8.60796
 31
0.0
  0
LINE
  8
0
 62
     7
 10
26.2761
 20
8.60796
 30
0.0
 11
26.2951
 21
8.57585
 31
0.0
  0
LINE
  8
0
 62
     7
 10
26.2951
 20
8.57585
 30
0.0
 11
26.3113
 21
8.5479
 31
0.0
  0
LINE
  8
0
 62
     7
 10
26.3113
 20
8.5479
 30
0.0
 11
26.3199
 21
8.53276
 31
0.0
  0
LINE
  8
0
 62
     7
 10
26.3199
 20
8.53276
 30
0.0
 11
26.3225
 21
8.52778
 31
0.0
  0
LINE
  8
0
 62
     7
 10
26.3225
 20
8.52778
 30
0.0
 11
26.3253
 21
8.52285
 31
0.0
  0
LINE
  8
0
 62
     7
 10
26.3253
 20
8.52285
 30
0.0
 11
26.3421
 21
8.49653
 31
0.0
  0
LINE
  8
0
 62
     7
 10
26.3421
 20
8.49653
 30
0.0
 11
26.3576
 21
8.47439
 31
0.0
  0
LINE
  8
0
 62
     7
 10
26.3576
 20
8.47439
 30
0.0
 11
26.36
 21
8.47151
 31
0.0
  0
LINE
  8
0
 62
     7
 10
26.36
 20
8.47151
 30
0.0
 11
26.3635
 21
8.46739
 31
0.0
  0
LINE
  8
0
 62
     7
 10
26.3635
 20
8.46739
 30
0.0
 11
26.375
 21
8.45574
 31
0.0
  0
LINE
  8
0
 62
     7
 10
26.375
 20
8.45574
 30
0.0
 11
26.395
 21
8.44385
 31
0.0
  0
LINE
  8
0
 62
     7
 10
26.395
 20
8.44385
 30
0.0
 11
26.4283
 21
8.43533
 31
0.0
  0
LINE
  8
0
 62
     7
 10
26.4283
 20
8.43533
 30
0.0
 11
26.4833
 21
8.42964
 31
0.0
  0
LINE
  8
0
 62
     7
 10
26.4833
 20
8.42964
 30
0.0
 11
26.5682
 21
8.42617
 31
0.0
  0
LINE
  8
0
 62
     7
 10
26.5682
 20
8.42617
 30
0.0
 11
26.6913
 21
8.42437
 31
0.0
  0
LINE
  8
0
 62
     7
 10
26.6913
 20
8.42437
 30
0.0
 11
26.8608
 21
8.42372
 31
0.0
  0
LINE
  8
0
 62
     7
 10
26.8608
 20
8.42372
 30
0.0
 11
27.0289
 21
8.42361
 31
0.0
  0
LINE
  8
0
 62
     7
 10
27.0289
 20
8.42361
 30
0.0
 11
27.085
 21
8.42361
 31
0.0
  0
LINE
  8
0
 62
     7
 10
27.085
 20
8.42361
 30
0.0
 11
27.7257
 21
8.42361
 31
0.0
  0
LINE
  8
0
 62
     7
 10
27.7257
 20
8.42361
 30
0.0
 11
27.7589
 21
8.45383
 31
0.0
  0
LINE
  8
0
 62
     7
 10
27.7589
 20
8.45383
 30
0.0
 11
27.7933
 21
8.48406
 31
0.0
  0
LINE
  8
0
 62
     7
 10
27.7933
 20
8.48406
 30
0.0
 11
27.7933
 21
12.3611
 31
0.0
  0
LINE
  8
0
 62
     7
 10
27.7933
 20
12.3611
 30
0.0
 11
27.7642
 21
12.3892
 31
0.0
  0
LINE
  8
0
 62
     7
 10
27.7642
 20
12.3892
 30
0.0
 11
27.7361
 21
12.4184
 31
0.0
  0
LINE
  8
0
 62
     7
 10
27.7361
 20
12.4184
 30
0.0
 11
27.3788
 21
12.4216
 31
0.0
  0
LINE
  8
0
 62
     7
 10
27.3788
 20
12.4216
 30
0.0
 11
27.351
 21
12.4217
 31
0.0
  0
LINE
  8
0
 62
     7
 10
27.351
 20
12.4217
 30
0.0
 11
27.2679
 21
12.4222
 31
0.0
  0
LINE
  8
0
 62
     7
 10
27.2679
 20
12.4222
 30
0.0
 11
27.1821
 21
12.4223
 31
0.0
  0
LINE
  8
0
 62
     7
 10
27.1821
 20
12.4223
 30
0.0
 11
27.1175
 21
12.4219
 31
0.0
  0
LINE
  8
0
 62
     7
 10
27.1175
 20
12.4219
 30
0.0
 11
27.0707
 21
12.4206
 31
0.0
  0
LINE
  8
0
 62
     7
 10
27.0707
 20
12.4206
 30
0.0
 11
27.0378
 21
12.4185
 31
0.0
  0
LINE
  8
0
 62
     7
 10
27.0378
 20
12.4185
 30
0.0
 11
27.0151
 21
12.4153
 31
0.0
  0
LINE
  8
0
 62
     7
 10
27.0151
 20
12.4153
 30
0.0
 11
26.9992
 21
12.4107
 31
0.0
  0
LINE
  8
0
 62
     7
 10
26.9992
 20
12.4107
 30
0.0
 11
26.9892
 21
12.4065
 31
0.0
  0
LINE
  8
0
 62
     7
 10
26.9892
 20
12.4065
 30
0.0
 11
26.9861
 21
12.4048
 31
0.0
  0
LINE
  8
0
 62
     7
 10
26.9861
 20
12.4048
 30
0.0
 11
26.98
 21
12.4018
 31
0.0
  0
LINE
  8
0
 62
     7
 10
26.98
 20
12.4018
 30
0.0
 11
26.9557
 21
12.3812
 31
0.0
  0
LINE
  8
0
 62
     7
 10
26.9557
 20
12.3812
 30
0.0
 11
26.9392
 21
12.3554
 31
0.0
  0
LINE
  8
0
 62
     7
 10
26.9392
 20
12.3554
 30
0.0
 11
26.9371
 21
12.3497
 31
0.0
  0
LINE
  8
0
 62
     7
 10
26.9371
 20
12.3497
 30
0.0
 11
26.9347
 21
12.3432
 31
0.0
  0
LINE
  8
0
 62
     7
 10
26.9347
 20
12.3432
 30
0.0
 11
26.9337
 21
12.3218
 31
0.0
  0
LINE
  8
0
 62
     7
 10
26.9337
 20
12.3218
 30
0.0
 11
26.9311
 21
12.2549
 31
0.0
  0
LINE
  8
0
 62
     7
 10
26.9311
 20
12.2549
 30
0.0
 11
26.929
 21
12.144
 31
0.0
  0
LINE
  8
0
 62
     7
 10
26.929
 20
12.144
 30
0.0
 11
26.9274
 21
11.9841
 31
0.0
  0
LINE
  8
0
 62
     7
 10
26.9274
 20
11.9841
 30
0.0
 11
26.9261
 21
11.77
 31
0.0
  0
LINE
  8
0
 62
     7
 10
26.9261
 20
11.77
 30
0.0
 11
26.9251
 21
11.4968
 31
0.0
  0
LINE
  8
0
 62
     7
 10
26.9251
 20
11.4968
 30
0.0
 11
26.9247
 21
11.1594
 31
0.0
  0
LINE
  8
0
 62
     7
 10
26.9247
 20
11.1594
 30
0.0
 11
26.9246
 21
10.8544
 31
0.0
  0
LINE
  8
0
 62
     7
 10
26.9246
 20
10.8544
 30
0.0
 11
26.9246
 21
10.7528
 31
0.0
  0
LINE
  8
0
 62
     7
 10
26.9246
 20
10.7528
 30
0.0
 11
26.9236
 21
9.19026
 31
0.0
  0
LINE
  8
0
 62
     7
 10
26.9236
 20
9.19026
 30
0.0
 11
26.8954
 21
9.23714
 31
0.0
  0
LINE
  8
0
 62
     7
 10
26.8954
 20
9.23714
 30
0.0
 11
26.8913
 21
9.24365
 31
0.0
  0
LINE
  8
0
 62
     7
 10
26.8913
 20
9.24365
 30
0.0
 11
26.8707
 21
9.27647
 31
0.0
  0
LINE
  8
0
 62
     7
 10
26.8707
 20
9.27647
 30
0.0
 11
26.8553
 21
9.30203
 31
0.0
  0
LINE
  8
0
 62
     7
 10
26.8553
 20
9.30203
 30
0.0
 11
26.8537
 21
9.30485
 31
0.0
  0
LINE
  8
0
 62
     7
 10
26.8537
 20
9.30485
 30
0.0
 11
26.8508
 21
9.30903
 31
0.0
  0
LINE
  8
0
 62
     7
 10
26.8508
 20
9.30903
 30
0.0
 11
26.8385
 21
9.329
 31
0.0
  0
LINE
  8
0
 62
     7
 10
26.8385
 20
9.329
 30
0.0
 11
26.8128
 21
9.37115
 31
0.0
  0
LINE
  8
0
 62
     7
 10
26.8128
 20
9.37115
 30
0.0
 11
26.7814
 21
9.42372
 31
0.0
  0
LINE
  8
0
 62
     7
 10
26.7814
 20
9.42372
 30
0.0
 11
26.7567
 21
9.46506
 31
0.0
  0
LINE
  8
0
 62
     7
 10
26.7567
 20
9.46506
 30
0.0
 11
26.7485
 21
9.47885
 31
0.0
  0
LINE
  8
0
 62
     7
 10
26.7485
 20
9.47885
 30
0.0
 11
26.7467
 21
9.48199
 31
0.0
  0
LINE
  8
0
 62
     7
 10
26.7467
 20
9.48199
 30
0.0
 11
26.7322
 21
9.50592
 31
0.0
  0
LINE
  8
0
 62
     7
 10
26.7322
 20
9.50592
 30
0.0
 11
26.7151
 21
9.53401
 31
0.0
  0
LINE
  8
0
 62
     7
 10
26.7151
 20
9.53401
 30
0.0
 11
26.7121
 21
9.53922
 31
0.0
  0
LINE
  8
0
 62
     7
 10
26.7121
 20
9.53922
 30
0.0
 11
26.6992
 21
9.56049
 31
0.0
  0
LINE
  8
0
 62
     7
 10
26.6992
 20
9.56049
 30
0.0
 11
26.6606
 21
9.62418
 31
0.0
  0
LINE
  8
0
 62
     7
 10
26.6606
 20
9.62418
 30
0.0
 11
26.6096
 21
9.70839
 31
0.0
  0
LINE
  8
0
 62
     7
 10
26.6096
 20
9.70839
 30
0.0
 11
26.5608
 21
9.78885
 31
0.0
  0
LINE
  8
0
 62
     7
 10
26.5608
 20
9.78885
 30
0.0
 11
26.5161
 21
9.86268
 31
0.0
  0
LINE
  8
0
 62
     7
 10
26.5161
 20
9.86268
 30
0.0
 11
26.4772
 21
9.92697
 31
0.0
  0
LINE
  8
0
 62
     7
 10
26.4772
 20
9.92697
 30
0.0
 11
26.446
 21
9.97874
 31
0.0
  0
LINE
  8
0
 62
     7
 10
26.446
 20
9.97874
 30
0.0
 11
26.4239
 21
10.015
 31
0.0
  0
LINE
  8
0
 62
     7
 10
26.4239
 20
10.015
 30
0.0
 11
26.4158
 21
10.0285
 31
0.0
  0
LINE
  8
0
 62
     7
 10
26.4158
 20
10.0285
 30
0.0
 11
26.4132
 21
10.033
 31
0.0
  0
LINE
  8
0
 62
     7
 10
26.4132
 20
10.033
 30
0.0
 11
26.4085
 21
10.0405
 31
0.0
  0
LINE
  8
0
 62
     7
 10
26.4085
 20
10.0405
 30
0.0
 11
26.3949
 21
10.0629
 31
0.0
  0
LINE
  8
0
 62
     7
 10
26.3949
 20
10.0629
 30
0.0
 11
26.3582
 21
10.1234
 31
0.0
  0
LINE
  8
0
 62
     7
 10
26.3582
 20
10.1234
 30
0.0
 11
26.309
 21
10.2045
 31
0.0
  0
LINE
  8
0
 62
     7
 10
26.309
 20
10.2045
 30
0.0
 11
26.2533
 21
10.2964
 31
0.0
  0
LINE
  8
0
 62
     7
 10
26.2533
 20
10.2964
 30
0.0
 11
26.1971
 21
10.3893
 31
0.0
  0
LINE
  8
0
 62
     7
 10
26.1971
 20
10.3893
 30
0.0
 11
26.1464
 21
10.4732
 31
0.0
  0
LINE
  8
0
 62
     7
 10
26.1464
 20
10.4732
 30
0.0
 11
26.1069
 21
10.5383
 31
0.0
  0
LINE
  8
0
 62
     7
 10
26.1069
 20
10.5383
 30
0.0
 11
26.0906
 21
10.5656
 31
0.0
  0
LINE
  8
0
 62
     7
 10
26.0906
 20
10.5656
 30
0.0
 11
26.085
 21
10.5747
 31
0.0
  0
LINE
  8
0
 62
     7
 10
26.085
 20
10.5747
 30
0.0
 11
26.0821
 21
10.5794
 31
0.0
  0
LINE
  8
0
 62
     7
 10
26.0821
 20
10.5794
 30
0.0
 11
26.0724
 21
10.5955
 31
0.0
  0
LINE
  8
0
 62
     7
 10
26.0724
 20
10.5955
 30
0.0
 11
26.0533
 21
10.6269
 31
0.0
  0
LINE
  8
0
 62
     7
 10
26.0533
 20
10.6269
 30
0.0
 11
26.0307
 21
10.6648
 31
0.0
  0
LINE
  8
0
 62
     7
 10
26.0307
 20
10.6648
 30
0.0
 11
26.0128
 21
10.6948
 31
0.0
  0
LINE
  8
0
 62
     7
 10
26.0128
 20
10.6948
 30
0.0
 11
26.0069
 21
10.7049
 31
0.0
  0
LINE
  8
0
 62
     7
 10
26.0069
 20
10.7049
 30
0.0
 11
26.001
 21
10.715
 31
0.0
  0
LINE
  8
0
 62
     7
 10
26.001
 20
10.715
 30
0.0
 11
25.9831
 21
10.745
 31
0.0
  0
LINE
  8
0
 62
     7
 10
25.9831
 20
10.745
 30
0.0
 11
25.9604
 21
10.7829
 31
0.0
  0
LINE
  8
0
 62
     7
 10
25.9604
 20
10.7829
 30
0.0
 11
25.9414
 21
10.8143
 31
0.0
  0
LINE
  8
0
 62
     7
 10
25.9414
 20
10.8143
 30
0.0
 11
25.9315
 21
10.8304
 31
0.0
  0
LINE
  8
0
 62
     7
 10
25.9315
 20
10.8304
 30
0.0
 11
25.9288
 21
10.8351
 31
0.0
  0
LINE
  8
0
 62
     7
 10
25.9288
 20
10.8351
 30
0.0
 11
25.9225
 21
10.8454
 31
0.0
  0
LINE
  8
0
 62
     7
 10
25.9225
 20
10.8454
 30
0.0
 11
25.9037
 21
10.8764
 31
0.0
  0
LINE
  8
0
 62
     7
 10
25.9037
 20
10.8764
 30
0.0
 11
25.8656
 21
10.9393
 31
0.0
  0
LINE
  8
0
 62
     7
 10
25.8656
 20
10.9393
 30
0.0
 11
25.8189
 21
11.0159
 31
0.0
  0
LINE
  8
0
 62
     7
 10
25.8189
 20
11.0159
 30
0.0
 11
25.7689
 21
11.0982
 31
0.0
  0
LINE
  8
0
 62
     7
 10
25.7689
 20
11.0982
 30
0.0
 11
25.7204
 21
11.1783
 31
0.0
  0
LINE
  8
0
 62
     7
 10
25.7204
 20
11.1783
 30
0.0
 11
25.6781
 21
11.248
 31
0.0
  0
LINE
  8
0
 62
     7
 10
25.6781
 20
11.248
 30
0.0
 11
25.6469
 21
11.2995
 31
0.0
  0
LINE
  8
0
 62
     7
 10
25.6469
 20
11.2995
 30
0.0
 11
25.6356
 21
11.3184
 31
0.0
  0
LINE
  8
0
 62
     7
 10
25.6356
 20
11.3184
 30
0.0
 11
25.6319
 21
11.3247
 31
0.0
  0
LINE
  8
0
 62
     7
 10
25.6319
 20
11.3247
 30
0.0
 11
25.6297
 21
11.3283
 31
0.0
  0
LINE
  8
0
 62
     7
 10
25.6297
 20
11.3283
 30
0.0
 11
25.614
 21
11.3547
 31
0.0
  0
LINE
  8
0
 62
     7
 10
25.614
 20
11.3547
 30
0.0
 11
25.5767
 21
11.4166
 31
0.0
  0
LINE
  8
0
 62
     7
 10
25.5767
 20
11.4166
 30
0.0
 11
25.5253
 21
11.5016
 31
0.0
  0
LINE
  8
0
 62
     7
 10
25.5253
 20
11.5016
 30
0.0
 11
25.4801
 21
11.576
 31
0.0
  0
LINE
  8
0
 62
     7
 10
25.4801
 20
11.576
 30
0.0
 11
25.4653
 21
11.6007
 31
0.0
  0
LINE
  8
0
 62
     7
 10
25.4653
 20
11.6007
 30
0.0
 11
25.4501
 21
11.6253
 31
0.0
  0
LINE
  8
0
 62
     7
 10
25.4501
 20
11.6253
 30
0.0
 11
25.4053
 21
11.699
 31
0.0
  0
LINE
  8
0
 62
     7
 10
25.4053
 20
11.699
 30
0.0
 11
25.3544
 21
11.7833
 31
0.0
  0
LINE
  8
0
 62
     7
 10
25.3544
 20
11.7833
 30
0.0
 11
25.3176
 21
11.8445
 31
0.0
  0
LINE
  8
0
 62
     7
 10
25.3176
 20
11.8445
 30
0.0
 11
25.3024
 21
11.8702
 31
0.0
  0
LINE
  8
0
 62
     7
 10
25.3024
 20
11.8702
 30
0.0
 11
25.3006
 21
11.8736
 31
0.0
  0
LINE
  8
0
 62
     7
 10
25.3006
 20
11.8736
 30
0.0
 11
25.2907
 21
11.8913
 31
0.0
  0
LINE
  8
0
 62
     7
 10
25.2907
 20
11.8913
 30
0.0
 11
25.2601
 21
11.944
 31
0.0
  0
LINE
  8
0
 62
     7
 10
25.2601
 20
11.944
 30
0.0
 11
25.2131
 21
12.0228
 31
0.0
  0
LINE
  8
0
 62
     7
 10
25.2131
 20
12.0228
 30
0.0
 11
25.1622
 21
12.105
 31
0.0
  0
LINE
  8
0
 62
     7
 10
25.1622
 20
12.105
 30
0.0
 11
25.1113
 21
12.1855
 31
0.0
  0
LINE
  8
0
 62
     7
 10
25.1113
 20
12.1855
 30
0.0
 11
25.0633
 21
12.259
 31
0.0
  0
LINE
  8
0
 62
     7
 10
25.0633
 20
12.259
 30
0.0
 11
25.0217
 21
12.3205
 31
0.0
  0
LINE
  8
0
 62
     7
 10
25.0217
 20
12.3205
 30
0.0
 11
24.9896
 21
12.365
 31
0.0
  0
LINE
  8
0
 62
     7
 10
24.9896
 20
12.365
 30
0.0
 11
24.976
 21
12.3827
 31
0.0
  0
LINE
  8
0
 62
     7
 10
24.976
 20
12.3827
 30
0.0
 11
24.9704
 21
12.3872
 31
0.0
  0
LINE
  8
0
 62
     7
 10
24.9704
 20
12.3872
 30
0.0
 11
24.9318
 21
12.4184
 31
0.0
  0
LINE
  8
0
 62
     7
 10
24.9318
 20
12.4184
 30
0.0
 11
24.2975
 21
12.4216
 31
0.0
  0
LINE
  8
0
 62
     7
 10
24.2975
 20
12.4216
 30
0.0
 11
24.2383
 21
12.4218
 31
0.0
  0
LINE
  8
0
 62
     7
 10
24.2383
 20
12.4218
 30
0.0
 11
24.061
 21
12.4226
 31
0.0
  0
LINE
  8
0
 62
     7
 10
24.061
 20
12.4226
 30
0.0
 11
23.8851
 21
12.4226
 31
0.0
  0
LINE
  8
0
 62
     7
 10
23.8851
 20
12.4226
 30
0.0
 11
23.7604
 21
12.4207
 31
0.0
  0
LINE
  8
0
 62
     7
 10
23.7604
 20
12.4207
 30
0.0
 11
23.6774
 21
12.4158
 31
0.0
  0
LINE
  8
0
 62
     7
 10
23.6774
 20
12.4158
 30
0.0
 11
23.6268
 21
12.4071
 31
0.0
  0
LINE
  8
0
 62
     7
 10
23.6268
 20
12.4071
 30
0.0
 11
23.599
 21
12.3934
 31
0.0
  0
LINE
  8
0
 62
     7
 10
23.599
 20
12.3934
 30
0.0
 11
23.5847
 21
12.3739
 31
0.0
  0
LINE
  8
0
 62
     7
 10
23.5847
 20
12.3739
 30
0.0
 11
23.5771
 21
12.3542
 31
0.0
  0
LINE
  8
0
 62
     7
 10
23.5771
 20
12.3542
 30
0.0
 11
23.5746
 21
12.3475
 31
0.0
  0
LINE
  8
0
 62
     7
 10
23.5746
 20
12.3475
 30
0.0
 11
23.5738
 21
12.3453
 31
0.0
  0
LINE
  8
0
 62
     7
 10
23.5738
 20
12.3453
 30
0.0
 11
23.5719
 21
12.338
 31
0.0
  0
LINE
  8
0
 62
     7
 10
23.5719
 20
12.338
 30
0.0
 11
23.5697
 21
12.3227
 31
0.0
  0
LINE
  8
0
 62
     7
 10
23.5697
 20
12.3227
 30
0.0
 11
23.5678
 21
12.2998
 31
0.0
  0
LINE
  8
0
 62
     7
 10
23.5678
 20
12.2998
 30
0.0
 11
23.566
 21
12.2673
 31
0.0
  0
LINE
  8
0
 62
     7
 10
23.566
 20
12.2673
 30
0.0
 11
23.5646
 21
12.2231
 31
0.0
  0
LINE
  8
0
 62
     7
 10
23.5646
 20
12.2231
 30
0.0
 11
23.5633
 21
12.1653
 31
0.0
  0
LINE
  8
0
 62
     7
 10
23.5633
 20
12.1653
 30
0.0
 11
23.5624
 21
12.0919
 31
0.0
  0
LINE
  8
0
 62
     7
 10
23.5624
 20
12.0919
 30
0.0
 11
23.5615
 21
12.001
 31
0.0
  0
LINE
  8
0
 62
     7
 10
23.5615
 20
12.001
 30
0.0
 11
23.561
 21
11.8905
 31
0.0
  0
LINE
  8
0
 62
     7
 10
23.561
 20
11.8905
 30
0.0
 11
23.5606
 21
11.7585
 31
0.0
  0
LINE
  8
0
 62
     7
 10
23.5606
 20
11.7585
 30
0.0
 11
23.5603
 21
11.6029
 31
0.0
  0
LINE
  8
0
 62
     7
 10
23.5603
 20
11.6029
 30
0.0
 11
23.5603
 21
11.4218
 31
0.0
  0
LINE
  8
0
 62
     7
 10
23.5603
 20
11.4218
 30
0.0
 11
23.5603
 21
11.2133
 31
0.0
  0
LINE
  8
0
 62
     7
 10
23.5603
 20
11.2133
 30
0.0
 11
23.5604
 21
10.9752
 31
0.0
  0
LINE
  8
0
 62
     7
 10
23.5604
 20
10.9752
 30
0.0
 11
23.5607
 21
10.7057
 31
0.0
  0
LINE
  8
0
 62
     7
 10
23.5607
 20
10.7057
 30
0.0
 11
23.561
 21
10.4785
 31
0.0
  0
LINE
  8
0
 62
     7
 10
23.561
 20
10.4785
 30
0.0
 11
23.561
 21
10.4028
 31
0.0
  0
LINE
  8
0
 62
     7
 10
23.561
 20
10.4028
 30
0.0
 11
23.5611
 21
10.3238
 31
0.0
  0
LINE
  8
0
 62
     7
 10
23.5611
 20
10.3238
 30
0.0
 11
23.5615
 21
10.0869
 31
0.0
  0
LINE
  8
0
 62
     7
 10
23.5615
 20
10.0869
 30
0.0
 11
23.5621
 21
9.80783
 31
0.0
  0
LINE
  8
0
 62
     7
 10
23.5621
 20
9.80783
 30
0.0
 11
23.5626
 21
9.56337
 31
0.0
  0
LINE
  8
0
 62
     7
 10
23.5626
 20
9.56337
 30
0.0
 11
23.5632
 21
9.35113
 31
0.0
  0
LINE
  8
0
 62
     7
 10
23.5632
 20
9.35113
 30
0.0
 11
23.5639
 21
9.16883
 31
0.0
  0
LINE
  8
0
 62
     7
 10
23.5639
 20
9.16883
 30
0.0
 11
23.5646
 21
9.01417
 31
0.0
  0
LINE
  8
0
 62
     7
 10
23.5646
 20
9.01417
 30
0.0
 11
23.5654
 21
8.88476
 31
0.0
  0
LINE
  8
0
 62
     7
 10
23.5654
 20
8.88476
 30
0.0
 11
23.5664
 21
8.77832
 31
0.0
  0
LINE
  8
0
 62
     7
 10
23.5664
 20
8.77832
 30
0.0
 11
23.5675
 21
8.69254
 31
0.0
  0
LINE
  8
0
 62
     7
 10
23.5675
 20
8.69254
 30
0.0
 11
23.5687
 21
8.62517
 31
0.0
  0
LINE
  8
0
 62
     7
 10
23.5687
 20
8.62517
 30
0.0
 11
23.5703
 21
8.57374
 31
0.0
  0
LINE
  8
0
 62
     7
 10
23.5703
 20
8.57374
 30
0.0
 11
23.5719
 21
8.53603
 31
0.0
  0
LINE
  8
0
 62
     7
 10
23.5719
 20
8.53603
 30
0.0
 11
23.574
 21
8.50965
 31
0.0
  0
LINE
  8
0
 62
     7
 10
23.574
 20
8.50965
 30
0.0
 11
23.5763
 21
8.4924
 31
0.0
  0
LINE
  8
0
 62
     7
 10
23.5763
 20
8.4924
 30
0.0
 11
23.5789
 21
8.48182
 31
0.0
  0
LINE
  8
0
 62
     7
 10
23.5789
 20
8.48182
 30
0.0
 11
23.5808
 21
8.47711
 31
0.0
  0
LINE
  8
0
 62
     7
 10
23.5808
 20
8.47711
 30
0.0
 11
23.5818
 21
8.47569
 31
0.0
  0
LINE
  8
0
 62
     7
 10
23.5818
 20
8.47569
 30
0.0
 11
23.5849
 21
8.4714
 31
0.0
  0
LINE
  8
0
 62
     7
 10
23.5849
 20
8.4714
 30
0.0
 11
23.5949
 21
8.45888
 31
0.0
  0
LINE
  8
0
 62
     7
 10
23.5949
 20
8.45888
 30
0.0
 11
23.6099
 21
8.44618
 31
0.0
  0
LINE
  8
0
 62
     7
 10
23.6099
 20
8.44618
 30
0.0
 11
23.6312
 21
8.43707
 31
0.0
  0
LINE
  8
0
 62
     7
 10
23.6312
 20
8.43707
 30
0.0
 11
23.664
 21
8.43093
 31
0.0
  0
LINE
  8
0
 62
     7
 10
23.664
 20
8.43093
 30
0.0
 11
23.7128
 21
8.42708
 31
0.0
  0
LINE
  8
0
 62
     7
 10
23.7128
 20
8.42708
 30
0.0
 11
23.7821
 21
8.42503
 31
0.0
  0
LINE
  8
0
 62
     7
 10
23.7821
 20
8.42503
 30
0.0
 11
23.8768
 21
8.4241
 31
0.0
  0
LINE
  8
0
 62
     7
 10
23.8768
 20
8.4241
 30
0.0
 11
23.9704
 21
8.42372
 31
0.0
  0
LINE
  8
0
 62
     7
 10
23.9704
 20
8.42372
 30
0.0
 11
24.0017
 21
8.42361
 31
0.0
  0
LINE
  8
0
 62
     7
 10
24.0017
 20
8.42361
 30
0.0
 11
24.0479
 21
8.42361
 31
0.0
  0
LINE
  8
0
 62
     7
 10
24.0479
 20
8.42361
 30
0.0
 11
24.1867
 21
8.42421
 31
0.0
  0
LINE
  8
0
 62
     7
 10
24.1867
 20
8.42421
 30
0.0
 11
24.2978
 21
8.42649
 31
0.0
  0
LINE
  8
0
 62
     7
 10
24.2978
 20
8.42649
 30
0.0
 11
24.3553
 21
8.43153
 31
0.0
  0
LINE
  8
0
 62
     7
 10
24.3553
 20
8.43153
 30
0.0
 11
24.3747
 21
8.43664
 31
0.0
  0
LINE
  8
0
 62
     7
 10
24.3747
 20
8.43664
 30
0.0
 11
24.3797
 21
8.44026
 31
0.0
  0
LINE
  8
0
 62
     7
 10
13.7183
 20
8.44129
 30
0.0
 11
13.7149
 21
8.44185
 31
0.0
  0
LINE
  8
0
 62
     7
 10
13.7149
 20
8.44185
 30
0.0
 11
13.6952
 21
8.45231
 31
0.0
  0
LINE
  8
0
 62
     7
 10
13.6952
 20
8.45231
 30
0.0
 11
13.6764
 21
8.46892
 31
0.0
  0
LINE
  8
0
 62
     7
 10
13.6764
 20
8.46892
 30
0.0
 11
13.6736
 21
8.47254
 31
0.0
  0
LINE
  8
0
 62
     7
 10
13.6736
 20
8.47254
 30
0.0
 11
13.6725
 21
8.47385
 31
0.0
  0
LINE
  8
0
 62
     7
 10
13.6725
 20
8.47385
 30
0.0
 11
13.6699
 21
8.47792
 31
0.0
  0
LINE
  8
0
 62
     7
 10
13.6699
 20
8.47792
 30
0.0
 11
13.6667
 21
8.48568
 31
0.0
  0
LINE
  8
0
 62
     7
 10
13.6667
 20
8.48568
 30
0.0
 11
13.6638
 21
8.49864
 31
0.0
  0
LINE
  8
0
 62
     7
 10
13.6638
 20
8.49864
 30
0.0
 11
13.6615
 21
8.51964
 31
0.0
  0
LINE
  8
0
 62
     7
 10
13.6615
 20
8.51964
 30
0.0
 11
13.6594
 21
8.55154
 31
0.0
  0
LINE
  8
0
 62
     7
 10
13.6594
 20
8.55154
 30
0.0
 11
13.6578
 21
8.59711
 31
0.0
  0
LINE
  8
0
 62
     7
 10
13.6578
 20
8.59711
 30
0.0
 11
13.6564
 21
8.65918
 31
0.0
  0
LINE
  8
0
 62
     7
 10
13.6564
 20
8.65918
 30
0.0
 11
13.6553
 21
8.74056
 31
0.0
  0
LINE
  8
0
 62
     7
 10
13.6553
 20
8.74056
 30
0.0
 11
13.6545
 21
8.84407
 31
0.0
  0
LINE
  8
0
 62
     7
 10
13.6545
 20
8.84407
 30
0.0
 11
13.6538
 21
8.9726
 31
0.0
  0
LINE
  8
0
 62
     7
 10
13.6538
 20
8.9726
 30
0.0
 11
13.6533
 21
9.12885
 31
0.0
  0
LINE
  8
0
 62
     7
 10
13.6533
 20
9.12885
 30
0.0
 11
13.6531
 21
9.31575
 31
0.0
  0
LINE
  8
0
 62
     7
 10
13.6531
 20
9.31575
 30
0.0
 11
13.6528
 21
9.53603
 31
0.0
  0
LINE
  8
0
 62
     7
 10
13.6528
 20
9.53603
 30
0.0
 11
13.6527
 21
9.79258
 31
0.0
  0
LINE
  8
0
 62
     7
 10
13.6527
 20
9.79258
 30
0.0
 11
13.6527
 21
10.0882
 31
0.0
  0
LINE
  8
0
 62
     7
 10
13.6527
 20
10.0882
 30
0.0
 11
13.6527
 21
10.3413
 31
0.0
  0
LINE
  8
0
 62
     7
 10
13.6527
 20
10.3413
 30
0.0
 11
13.6527
 21
10.4257
 31
0.0
  0
LINE
  8
0
 62
     7
 10
13.6527
 20
10.4257
 30
0.0
 11
13.6527
 21
12.3517
 31
0.0
  0
LINE
  8
0
 62
     7
 10
13.6527
 20
12.3517
 30
0.0
 11
13.6788
 21
12.3757
 31
0.0
  0
LINE
  8
0
 62
     7
 10
13.6788
 20
12.3757
 30
0.0
 11
13.6824
 21
12.3791
 31
0.0
  0
LINE
  8
0
 62
     7
 10
13.6824
 20
12.3791
 30
0.0
 11
13.7067
 21
12.3949
 31
0.0
  0
LINE
  8
0
 62
     7
 10
13.7067
 20
12.3949
 30
0.0
 11
13.7326
 21
12.4059
 31
0.0
  0
LINE
  8
0
 62
     7
 10
13.7326
 20
12.4059
 30
0.0
 11
13.7371
 21
12.407
 31
0.0
  0
LINE
  8
0
 62
     7
 10
13.7371
 20
12.407
 30
0.0
 11
13.7494
 21
12.4093
 31
0.0
  0
LINE
  8
0
 62
     7
 10
13.7494
 20
12.4093
 30
0.0
 11
13.7879
 21
12.409
 31
0.0
  0
LINE
  8
0
 62
     7
 10
13.7879
 20
12.409
 30
0.0
 11
13.9114
 21
12.4105
 31
0.0
  0
LINE
  8
0
 62
     7
 10
13.9114
 20
12.4105
 30
0.0
 11
14.0969
 21
12.4118
 31
0.0
  0
LINE
  8
0
 62
     7
 10
14.0969
 20
12.4118
 30
0.0
 11
14.3342
 21
12.4128
 31
0.0
  0
LINE
  8
0
 62
     7
 10
14.3342
 20
12.4128
 30
0.0
 11
14.6129
 21
12.4134
 31
0.0
  0
LINE
  8
0
 62
     7
 10
14.6129
 20
12.4134
 30
0.0
 11
14.9226
 21
12.4136
 31
0.0
  0
LINE
  8
0
 62
     7
 10
14.9226
 20
12.4136
 30
0.0
 11
15.2528
 21
12.4136
 31
0.0
  0
LINE
  8
0
 62
     7
 10
15.2528
 20
12.4136
 30
0.0
 11
15.5933
 21
12.4134
 31
0.0
  0
LINE
  8
0
 62
     7
 10
15.5933
 20
12.4134
 30
0.0
 11
15.9335
 21
12.4128
 31
0.0
  0
LINE
  8
0
 62
     7
 10
15.9335
 20
12.4128
 30
0.0
 11
16.2632
 21
12.4119
 31
0.0
  0
LINE
  8
0
 62
     7
 10
16.2632
 20
12.4119
 30
0.0
 11
16.5719
 21
12.4108
 31
0.0
  0
LINE
  8
0
 62
     7
 10
16.5719
 20
12.4108
 30
0.0
 11
16.8492
 21
12.4094
 31
0.0
  0
LINE
  8
0
 62
     7
 10
16.8492
 20
12.4094
 30
0.0
 11
17.0849
 21
12.4079
 31
0.0
  0
LINE
  8
0
 62
     7
 10
17.0849
 20
12.4079
 30
0.0
 11
17.2682
 21
12.406
 31
0.0
  0
LINE
  8
0
 62
     7
 10
17.2682
 20
12.406
 30
0.0
 11
17.3892
 21
12.404
 31
0.0
  0
LINE
  8
0
 62
     7
 10
17.3892
 20
12.404
 30
0.0
 11
17.4264
 21
12.4049
 31
0.0
  0
LINE
  8
0
 62
     7
 10
17.4264
 20
12.4049
 30
0.0
 11
17.4371
 21
12.4018
 31
0.0
  0
LINE
  8
0
 62
     7
 10
17.4371
 20
12.4018
 30
0.0
 11
17.4437
 21
12.4
 31
0.0
  0
LINE
  8
0
 62
     7
 10
17.4437
 20
12.4
 30
0.0
 11
17.4718
 21
12.3854
 31
0.0
  0
LINE
  8
0
 62
     7
 10
17.4718
 20
12.3854
 30
0.0
 11
17.4931
 21
12.3634
 31
0.0
  0
LINE
  8
0
 62
     7
 10
17.4931
 20
12.3634
 30
0.0
 11
17.4965
 21
12.358
 31
0.0
  0
LINE
  8
0
 62
     7
 10
17.4965
 20
12.358
 30
0.0
 11
17.5
 21
12.3521
 31
0.0
  0
LINE
  8
0
 62
     7
 10
17.5
 20
12.3521
 30
0.0
 11
17.5076
 21
12.3323
 31
0.0
  0
LINE
  8
0
 62
     7
 10
17.5076
 20
12.3323
 30
0.0
 11
17.5139
 21
12.2869
 31
0.0
  0
LINE
  8
0
 62
     7
 10
17.5139
 20
12.2869
 30
0.0
 11
17.5167
 21
12.1989
 31
0.0
  0
LINE
  8
0
 62
     7
 10
17.5167
 20
12.1989
 30
0.0
 11
17.5174
 21
12.0838
 31
0.0
  0
LINE
  8
0
 62
     7
 10
17.5174
 20
12.0838
 30
0.0
 11
17.5174
 21
12.0455
 31
0.0
  0
LINE
  8
0
 62
     7
 10
17.5174
 20
12.0455
 30
0.0
 11
17.5174
 21
12.0188
 31
0.0
  0
LINE
  8
0
 62
     7
 10
17.5174
 20
12.0188
 30
0.0
 11
17.5169
 21
11.9386
 31
0.0
  0
LINE
  8
0
 62
     7
 10
17.5169
 20
11.9386
 30
0.0
 11
17.5156
 21
11.8563
 31
0.0
  0
LINE
  8
0
 62
     7
 10
17.5156
 20
11.8563
 30
0.0
 11
17.5124
 21
11.7951
 31
0.0
  0
LINE
  8
0
 62
     7
 10
17.5124
 20
11.7951
 30
0.0
 11
17.5067
 21
11.7515
 31
0.0
  0
LINE
  8
0
 62
     7
 10
17.5067
 20
11.7515
 30
0.0
 11
17.4979
 21
11.7221
 31
0.0
  0
LINE
  8
0
 62
     7
 10
17.4979
 20
11.7221
 30
0.0
 11
17.4851
 21
11.7033
 31
0.0
  0
LINE
  8
0
 62
     7
 10
17.4851
 20
11.7033
 30
0.0
 11
17.4679
 21
11.6918
 31
0.0
  0
LINE
  8
0
 62
     7
 10
17.4679
 20
11.6918
 30
0.0
 11
17.4511
 21
11.6857
 31
0.0
  0
LINE
  8
0
 62
     7
 10
17.4511
 20
11.6857
 30
0.0
 11
17.4454
 21
11.684
 31
0.0
  0
LINE
  8
0
 62
     7
 10
17.4454
 20
11.684
 30
0.0
 11
17.4394
 21
11.6825
 31
0.0
  0
LINE
  8
0
 62
     7
 10
17.4394
 20
11.6825
 30
0.0
 11
17.4138
 21
11.6818
 31
0.0
  0
LINE
  8
0
 62
     7
 10
17.4138
 20
11.6818
 30
0.0
 11
17.3375
 21
11.6798
 31
0.0
  0
LINE
  8
0
 62
     7
 10
17.3375
 20
11.6798
 30
0.0
 11
17.2172
 21
11.678
 31
0.0
  0
LINE
  8
0
 62
     7
 10
17.2172
 20
11.678
 30
0.0
 11
17.0538
 21
11.6765
 31
0.0
  0
LINE
  8
0
 62
     7
 10
17.0538
 20
11.6765
 30
0.0
 11
16.8479
 21
11.6753
 31
0.0
  0
LINE
  8
0
 62
     7
 10
16.8479
 20
11.6753
 30
0.0
 11
16.6004
 21
11.6744
 31
0.0
  0
LINE
  8
0
 62
     7
 10
16.6004
 20
11.6744
 30
0.0
 11
16.3122
 21
11.6738
 31
0.0
  0
LINE
  8
0
 62
     7
 10
16.3122
 20
11.6738
 30
0.0
 11
16.066
 21
11.6736
 31
0.0
  0
LINE
  8
0
 62
     7
 10
16.066
 20
11.6736
 30
0.0
 11
15.9839
 21
11.6736
 31
0.0
  0
LINE
  8
0
 62
     7
 10
15.9839
 20
11.6736
 30
0.0
 11
14.559
 21
11.6736
 31
0.0
  0
LINE
  8
0
 62
     7
 10
14.559
 20
11.6736
 30
0.0
 11
14.559
 21
10.7986
 31
0.0
  0
LINE
  8
0
 62
     7
 10
14.559
 20
10.7986
 30
0.0
 11
15.76
 21
10.7986
 31
0.0
  0
LINE
  8
0
 62
     7
 10
15.76
 20
10.7986
 30
0.0
 11
15.8304
 21
10.7986
 31
0.0
  0
LINE
  8
0
 62
     7
 10
15.8304
 20
10.7986
 30
0.0
 11
16.0415
 21
10.7984
 31
0.0
  0
LINE
  8
0
 62
     7
 10
16.0415
 20
10.7984
 30
0.0
 11
16.2871
 21
10.7978
 31
0.0
  0
LINE
  8
0
 62
     7
 10
16.2871
 20
10.7978
 30
0.0
 11
16.4964
 21
10.7969
 31
0.0
  0
LINE
  8
0
 62
     7
 10
16.4964
 20
10.7969
 30
0.0
 11
16.6694
 21
10.7956
 31
0.0
  0
LINE
  8
0
 62
     7
 10
16.6694
 20
10.7956
 30
0.0
 11
16.8063
 21
10.794
 31
0.0
  0
LINE
  8
0
 62
     7
 10
16.8063
 20
10.794
 30
0.0
 11
16.9068
 21
10.792
 31
0.0
  0
LINE
  8
0
 62
     7
 10
16.9068
 20
10.792
 30
0.0
 11
16.9708
 21
10.7898
 31
0.0
  0
LINE
  8
0
 62
     7
 10
16.9708
 20
10.7898
 30
0.0
 11
16.9922
 21
10.789
 31
0.0
  0
LINE
  8
0
 62
     7
 10
16.9922
 20
10.789
 30
0.0
 11
16.9985
 21
10.7872
 31
0.0
  0
LINE
  8
0
 62
     7
 10
16.9985
 20
10.7872
 30
0.0
 11
17.0042
 21
10.7857
 31
0.0
  0
LINE
  8
0
 62
     7
 10
17.0042
 20
10.7857
 30
0.0
 11
17.021
 21
10.7801
 31
0.0
  0
LINE
  8
0
 62
     7
 10
17.021
 20
10.7801
 30
0.0
 11
17.0382
 21
10.7696
 31
0.0
  0
LINE
  8
0
 62
     7
 10
17.0382
 20
10.7696
 30
0.0
 11
17.0507
 21
10.7523
 31
0.0
  0
LINE
  8
0
 62
     7
 10
17.0507
 20
10.7523
 30
0.0
 11
17.0593
 21
10.7247
 31
0.0
  0
LINE
  8
0
 62
     7
 10
17.0593
 20
10.7247
 30
0.0
 11
17.0647
 21
10.6832
 31
0.0
  0
LINE
  8
0
 62
     7
 10
17.0647
 20
10.6832
 30
0.0
 11
17.0678
 21
10.6243
 31
0.0
  0
LINE
  8
0
 62
     7
 10
17.0678
 20
10.6243
 30
0.0
 11
17.0692
 21
10.5445
 31
0.0
  0
LINE
  8
0
 62
     7
 10
17.0692
 20
10.5445
 30
0.0
 11
17.0694
 21
10.4664
 31
0.0
  0
LINE
  8
0
 62
     7
 10
17.0694
 20
10.4664
 30
0.0
 11
17.0694
 21
10.4403
 31
0.0
  0
LINE
  8
0
 62
     7
 10
17.0694
 20
10.4403
 30
0.0
 11
17.0694
 21
10.4089
 31
0.0
  0
LINE
  8
0
 62
     7
 10
17.0694
 20
10.4089
 30
0.0
 11
17.0686
 21
10.3147
 31
0.0
  0
LINE
  8
0
 62
     7
 10
17.0686
 20
10.3147
 30
0.0
 11
17.0663
 21
10.2239
 31
0.0
  0
LINE
  8
0
 62
     7
 10
17.0663
 20
10.2239
 30
0.0
 11
17.0624
 21
10.1655
 31
0.0
  0
LINE
  8
0
 62
     7
 10
17.0624
 20
10.1655
 30
0.0
 11
17.0589
 21
10.1419
 31
0.0
  0
LINE
  8
0
 62
     7
 10
17.0589
 20
10.1419
 30
0.0
 11
17.0568
 21
10.1372
 31
0.0
  0
LINE
  8
0
 62
     7
 10
17.0568
 20
10.1372
 30
0.0
 11
17.0557
 21
10.1346
 31
0.0
  0
LINE
  8
0
 62
     7
 10
17.0557
 20
10.1346
 30
0.0
 11
17.0525
 21
10.1266
 31
0.0
  0
LINE
  8
0
 62
     7
 10
17.0525
 20
10.1266
 30
0.0
 11
17.0481
 21
10.1173
 31
0.0
  0
LINE
  8
0
 62
     7
 10
17.0481
 20
10.1173
 30
0.0
 11
17.0414
 21
10.1094
 31
0.0
  0
LINE
  8
0
 62
     7
 10
17.0414
 20
10.1094
 30
0.0
 11
17.0303
 21
10.1028
 31
0.0
  0
LINE
  8
0
 62
     7
 10
17.0303
 20
10.1028
 30
0.0
 11
17.0128
 21
10.0971
 31
0.0
  0
LINE
  8
0
 62
     7
 10
17.0128
 20
10.0971
 30
0.0
 11
16.9865
 21
10.0925
 31
0.0
  0
LINE
  8
0
 62
     7
 10
16.9865
 20
10.0925
 30
0.0
 11
16.9494
 21
10.0888
 31
0.0
  0
LINE
  8
0
 62
     7
 10
16.9494
 20
10.0888
 30
0.0
 11
16.8994
 21
10.0859
 31
0.0
  0
LINE
  8
0
 62
     7
 10
16.8994
 20
10.0859
 30
0.0
 11
16.8342
 21
10.0837
 31
0.0
  0
LINE
  8
0
 62
     7
 10
16.8342
 20
10.0837
 30
0.0
 11
16.7517
 21
10.0821
 31
0.0
  0
LINE
  8
0
 62
     7
 10
16.7517
 20
10.0821
 30
0.0
 11
16.6497
 21
10.081
 31
0.0
  0
LINE
  8
0
 62
     7
 10
16.6497
 20
10.081
 30
0.0
 11
16.5261
 21
10.0803
 31
0.0
  0
LINE
  8
0
 62
     7
 10
16.5261
 20
10.0803
 30
0.0
 11
16.3788
 21
10.08
 31
0.0
  0
LINE
  8
0
 62
     7
 10
16.3788
 20
10.08
 30
0.0
 11
16.2054
 21
10.0799
 31
0.0
  0
LINE
  8
0
 62
     7
 10
16.2054
 20
10.0799
 30
0.0
 11
16.0042
 21
10.0799
 31
0.0
  0
LINE
  8
0
 62
     7
 10
16.0042
 20
10.0799
 30
0.0
 11
15.8304
 21
10.0799
 31
0.0
  0
LINE
  8
0
 62
     7
 10
15.8304
 20
10.0799
 30
0.0
 11
15.7725
 21
10.0799
 31
0.0
  0
LINE
  8
0
 62
     7
 10
15.7725
 20
10.0799
 30
0.0
 11
14.559
 21
10.0799
 31
0.0
  0
LINE
  8
0
 62
     7
 10
14.559
 20
10.0799
 30
0.0
 11
14.561
 21
9.62358
 31
0.0
  0
LINE
  8
0
 62
     7
 10
14.561
 20
9.62358
 30
0.0
 11
14.5642
 21
9.1684
 31
0.0
  0
LINE
  8
0
 62
     7
 10
14.5642
 20
9.1684
 30
0.0
 11
16.0121
 21
9.16319
 31
0.0
  0
LINE
  8
0
 62
     7
 10
16.0121
 20
9.16319
 30
0.0
 11
16.0849
 21
9.16292
 31
0.0
  0
LINE
  8
0
 62
     7
 10
16.0849
 20
9.16292
 30
0.0
 11
16.3033
 21
9.16189
 31
0.0
  0
LINE
  8
0
 62
     7
 10
16.3033
 20
9.16189
 30
0.0
 11
16.5756
 21
9.16032
 31
0.0
  0
LINE
  8
0
 62
     7
 10
16.5756
 20
9.16032
 30
0.0
 11
16.8228
 21
9.15858
 31
0.0
  0
LINE
  8
0
 62
     7
 10
16.8228
 20
9.15858
 30
0.0
 11
17.039
 21
9.15668
 31
0.0
  0
LINE
  8
0
 62
     7
 10
17.039
 20
9.15668
 30
0.0
 11
17.2182
 21
9.15474
 31
0.0
  0
LINE
  8
0
 62
     7
 10
17.2182
 20
9.15474
 30
0.0
 11
17.3546
 21
9.15267
 31
0.0
  0
LINE
  8
0
 62
     7
 10
17.3546
 20
9.15267
 30
0.0
 11
17.4419
 21
9.15061
 31
0.0
  0
LINE
  8
0
 62
     7
 10
17.4419
 20
9.15061
 30
0.0
 11
17.4725
 21
9.1499
 31
0.0
  0
LINE
  8
0
 62
     7
 10
17.4725
 20
9.1499
 30
0.0
 11
17.4746
 21
9.1486
 31
0.0
  0
LINE
  8
0
 62
     7
 10
17.4746
 20
9.1486
 30
0.0
 11
17.4814
 21
9.14415
 31
0.0
  0
LINE
  8
0
 62
     7
 10
17.4814
 20
9.14415
 30
0.0
 11
17.4965
 21
9.12278
 31
0.0
  0
LINE
  8
0
 62
     7
 10
17.4965
 20
9.12278
 30
0.0
 11
17.5096
 21
9.06842
 31
0.0
  0
LINE
  8
0
 62
     7
 10
17.5096
 20
9.06842
 30
0.0
 11
17.5157
 21
8.96642
 31
0.0
  0
LINE
  8
0
 62
     7
 10
17.5157
 20
8.96642
 30
0.0
 11
17.5174
 21
8.83979
 31
0.0
  0
LINE
  8
0
 62
     7
 10
17.5174
 20
8.83979
 30
0.0
 11
17.5174
 21
8.79758
 31
0.0
  0
LINE
  8
0
 62
     7
 10
17.5174
 20
8.79758
 30
0.0
 11
17.5174
 21
8.77219
 31
0.0
  0
LINE
  8
0
 62
     7
 10
17.5174
 20
8.77219
 30
0.0
 11
17.5169
 21
8.69601
 31
0.0
  0
LINE
  8
0
 62
     7
 10
17.5169
 20
8.69601
 30
0.0
 11
17.5156
 21
8.61719
 31
0.0
  0
LINE
  8
0
 62
     7
 10
17.5156
 20
8.61719
 30
0.0
 11
17.5125
 21
8.558
 31
0.0
  0
LINE
  8
0
 62
     7
 10
17.5125
 20
8.558
 30
0.0
 11
17.5072
 21
8.51531
 31
0.0
  0
LINE
  8
0
 62
     7
 10
17.5072
 20
8.51531
 30
0.0
 11
17.4993
 21
8.48583
 31
0.0
  0
LINE
  8
0
 62
     7
 10
17.4993
 20
8.48583
 30
0.0
 11
17.4879
 21
8.46653
 31
0.0
  0
LINE
  8
0
 62
     7
 10
17.4879
 20
8.46653
 30
0.0
 11
17.4725
 21
8.45415
 31
0.0
  0
LINE
  8
0
 62
     7
 10
17.4725
 20
8.45415
 30
0.0
 11
17.4578
 21
8.44726
 31
0.0
  0
LINE
  8
0
 62
     7
 10
17.4578
 20
8.44726
 30
0.0
 11
17.4526
 21
8.44547
 31
0.0
  0
LINE
  8
0
 62
     7
 10
17.4526
 20
8.44547
 30
0.0
 11
17.4469
 21
8.44342
 31
0.0
  0
LINE
  8
0
 62
     7
 10
17.4469
 20
8.44342
 30
0.0
 11
17.4183
 21
8.44265
 31
0.0
  0
LINE
  8
0
 62
     7
 10
17.4183
 20
8.44265
 30
0.0
 11
17.331
 21
8.44021
 31
0.0
  0
LINE
  8
0
 62
     7
 10
17.331
 20
8.44021
 30
0.0
 11
17.1887
 21
8.43832
 31
0.0
  0
LINE
  8
0
 62
     7
 10
17.1887
 20
8.43832
 30
0.0
 11
16.9894
 21
8.43679
 31
0.0
  0
LINE
  8
0
 62
     7
 10
16.9894
 20
8.43679
 30
0.0
 11
16.731
 21
8.43576
 31
0.0
  0
LINE
  8
0
 62
     7
 10
16.731
 20
8.43576
 30
0.0
 11
16.4115
 21
8.43511
 31
0.0
  0
LINE
  8
0
 62
     7
 10
16.4115
 20
8.43511
 30
0.0
 11
16.0287
 21
8.4349
 31
0.0
  0
LINE
  8
0
 62
     7
 10
16.0287
 20
8.4349
 30
0.0
 11
15.6928
 21
8.435
 31
0.0
  0
LINE
  8
0
 62
     7
 10
15.6928
 20
8.435
 30
0.0
 11
15.5808
 21
8.43506
 31
0.0
  0
LINE
  8
0
 62
     7
 10
15.5808
 20
8.43506
 30
0.0
 11
15.4883
 21
8.43517
 31
0.0
  0
LINE
  8
0
 62
     7
 10
15.4883
 20
8.43517
 30
0.0
 11
15.2108
 21
8.43554
 31
0.0
  0
LINE
  8
0
 62
     7
 10
15.2108
 20
8.43554
 30
0.0
 11
14.8649
 21
8.43619
 31
0.0
  0
LINE
  8
0
 62
     7
 10
14.8649
 20
8.43619
 30
0.0
 11
14.5503
 21
8.43696
 31
0.0
  0
LINE
  8
0
 62
     7
 10
14.5503
 20
8.43696
 30
0.0
 11
14.275
 21
8.43782
 31
0.0
  0
LINE
  8
0
 62
     7
 10
14.275
 20
8.43782
 30
0.0
 11
14.0464
 21
8.43869
 31
0.0
  0
LINE
  8
0
 62
     7
 10
14.0464
 20
8.43869
 30
0.0
 11
13.8723
 21
8.43961
 31
0.0
  0
LINE
  8
0
 62
     7
 10
13.8723
 20
8.43961
 30
0.0
 11
13.7604
 21
8.44049
 31
0.0
  0
LINE
  8
0
 62
     7
 10
13.7604
 20
8.44049
 30
0.0
 11
13.7214
 21
8.44081
 31
0.0
  0
LINE
  8
0
 62
     7
 10
13.7214
 20
8.44081
 30
0.0
 11
13.7183
 21
8.44129
 31
0.0
  0
ENDSEC
  0
EOF
