solid card
facet normal -1.0 0.0 -0.0
  outer loop
    vertex 32.290028571481706 -112.55663745924663 -3.5361829122146817
    vertex 32.290028571481706 -124.05663745924663 -13.53618291221468
    vertex 32.290028571481706 -124.05663745924663 -3.5361829122146817
  endloop
endfacet
facet normal -1.0 0.0 -0.0
  outer loop
    vertex 32.290028571481706 -124.05663745924663 -13.53618291221468
    vertex 32.290028571481706 -112.55663745924663 -3.5361829122146817
    vertex 32.290028571481706 -112.55663745924663 -13.53618291221468
  endloop
endfacet
facet normal 0.0 -1.0 8.812395257962196e-16
  outer loop
    vertex 26.09002857148173 -126.1066374592466 -4.0361829122146835
    vertex 22.49002857148173 -126.1066374592466 -12.536182912214683
    vertex 26.09002857148173 -126.1066374592466 -12.536182912214683
  endloop
endfacet
facet normal 0.0 -1.0 8.812395257962196e-16
  outer loop
    vertex 22.49002857148173 -126.1066374592466 -12.536182912214683
    vertex 26.09002857148173 -126.1066374592466 -4.0361829122146835
    vertex 22.49002857148173 -126.1066374592466 -4.0361829122146835
  endloop
endfacet
facet normal -1.0 -3.5249581031848787e-15 0.0
  outer loop
    vertex 22.49002857148173 -110.50663745924662 -4.036182912214681
    vertex 22.490028571481734 -111.30663745924662 -12.536182912214683
    vertex 22.490028571481734 -111.30663745924662 -4.036182912214681
  endloop
endfacet
facet normal -1.0 -3.5249581031848787e-15 0.0
  outer loop
    vertex 22.490028571481734 -111.30663745924662 -12.536182912214683
    vertex 22.49002857148173 -110.50663745924662 -4.036182912214681
    vertex 22.49002857148173 -110.50663745924662 -12.536182912214683
  endloop
endfacet
facet normal -1.0 9.038354110730445e-17 7.009160303656347e-34
  outer loop
    vertex 5.990028571481712 -110.50663745924662 -12.536182912214683
    vertex 5.9900285714817105 -126.10663745924661 -22.536182912214674
    vertex 5.9900285714817105 -126.10663745924661 -12.536182912214683
  endloop
endfacet
facet normal -1.0 9.038354110730445e-17 7.009160303656347e-34
  outer loop
    vertex 5.9900285714817105 -126.10663745924661 -22.536182912214674
    vertex 5.990028571481712 -110.50663745924662 -12.536182912214683
    vertex 5.990028571481712 -110.50663745924662 -22.53618291221468
  endloop
endfacet
facet normal -0.0 -1.0 -0.0
  outer loop
    vertex 32.290028571481706 -112.55663745924663 -3.5361829122146817
    vertex 31.29002857148171 -112.55663745924663 -13.53618291221468
    vertex 32.290028571481706 -112.55663745924663 -13.53618291221468
  endloop
endfacet
facet normal -0.0 -1.0 -0.0
  outer loop
    vertex 31.29002857148171 -112.55663745924663 -13.53618291221468
    vertex 32.290028571481706 -112.55663745924663 -3.5361829122146817
    vertex 31.29002857148171 -112.55663745924663 -3.5361829122146817
  endloop
endfacet
facet normal -0.0 -1.0 -0.0
  outer loop
    vertex 29.29002857148171 -112.55663745924663 -3.5361829122146817
    vertex 28.29002857148171 -112.55663745924663 -13.53618291221468
    vertex 29.29002857148171 -112.55663745924663 -13.53618291221468
  endloop
endfacet
facet normal -0.0 -1.0 -0.0
  outer loop
    vertex 28.29002857148171 -112.55663745924663 -13.53618291221468
    vertex 29.29002857148171 -112.55663745924663 -3.5361829122146817
    vertex 28.29002857148171 -112.55663745924663 -3.5361829122146817
  endloop
endfacet
facet normal -0.0 -1.0 -0.0
  outer loop
    vertex 20.290028571481706 -112.55663745924663 -3.5361829122146817
    vertex 19.29002857148171 -112.55663745924663 -13.53618291221468
    vertex 20.290028571481706 -112.55663745924663 -13.53618291221468
  endloop
endfacet
facet normal -0.0 -1.0 -0.0
  outer loop
    vertex 19.29002857148171 -112.55663745924663 -13.53618291221468
    vertex 20.290028571481706 -112.55663745924663 -3.5361829122146817
    vertex 19.29002857148171 -112.55663745924663 -3.5361829122146817
  endloop
endfacet
facet normal 1.0 0.0 0.0
  outer loop
    vertex 42.59002857148171 -110.50663745924662 -22.53618291221468
    vertex 42.59002857148171 -126.10663745924661 -12.536182912214683
    vertex 42.59002857148171 -126.10663745924661 -22.53618291221468
  endloop
endfacet
facet normal 1.0 0.0 0.0
  outer loop
    vertex 42.59002857148171 -126.10663745924661 -12.536182912214683
    vertex 42.59002857148171 -110.50663745924662 -22.53618291221468
    vertex 42.59002857148171 -110.50663745924662 -12.536182912214683
  endloop
endfacet
facet normal -0.7071067811865481 -1.4792254206540308e-18 0.707106781186547
  outer loop
    vertex 8.29002857148171 -124.80663745924659 -3.5361829122146817
    vertex 7.79002857148171 -111.30663745924662 -4.036182912214681
    vertex 7.79002857148171 -125.30663745924659 -4.036182912214681
  endloop
endfacet
facet normal -0.7071067811865481 -1.4792254206540308e-18 0.707106781186547
  outer loop
    vertex 7.79002857148171 -111.30663745924662 -4.036182912214681
    vertex 8.29002857148171 -124.80663745924659 -3.5361829122146817
    vertex 8.29002857148171 -111.80663745924662 -3.5361829122146817
  endloop
endfacet
facet normal 0.0 1.0 0.0
  outer loop
    vertex 7.79002857148171 -111.30663745924662 -4.036182912214681
    vertex 22.490028571481734 -111.30663745924662 -12.536182912214683
    vertex 7.790028571481709 -111.30663745924662 -12.536182912214683
  endloop
endfacet
facet normal 0.0 1.0 0.0
  outer loop
    vertex 22.490028571481734 -111.30663745924662 -12.536182912214683
    vertex 7.79002857148171 -111.30663745924662 -4.036182912214681
    vertex 22.490028571481734 -111.30663745924662 -4.036182912214681
  endloop
endfacet
facet normal -0.0 1.0 -0.0
  outer loop
    vertex 22.29002857148171 -124.05663745924663 -3.5361829122146817
    vertex 23.290028571481706 -124.05663745924663 -13.53618291221468
    vertex 22.29002857148171 -124.05663745924663 -13.53618291221468
  endloop
endfacet
facet normal -0.0 1.0 -0.0
  outer loop
    vertex 23.290028571481706 -124.05663745924663 -13.53618291221468
    vertex 22.29002857148171 -124.05663745924663 -3.5361829122146817
    vertex 23.290028571481706 -124.05663745924663 -3.5361829122146817
  endloop
endfacet
facet normal 0.0 0.0 1.0
  outer loop
    vertex 11.290028571481708 -124.05663745924663 -13.53618291221468
    vertex 10.29002857148171 -112.55663745924663 -13.53618291221468
    vertex 10.29002857148171 -124.05663745924663 -13.53618291221468
  endloop
endfacet
facet normal 0.0 0.0 1.0
  outer loop
    vertex 10.29002857148171 -112.55663745924663 -13.53618291221468
    vertex 11.290028571481708 -124.05663745924663 -13.53618291221468
    vertex 11.290028571481708 -112.55663745924663 -13.53618291221468
  endloop
endfacet
facet normal -0.707106781186547 -0.707106781186548 -0.0
  outer loop
    vertex 6.9900285714817105 -127.10663745924661 -12.536182912214683
    vertex 5.9900285714817105 -126.10663745924661 -22.536182912214674
    vertex 6.9900285714817105 -127.10663745924661 -22.536182912214674
  endloop
endfacet
facet normal -0.707106781186547 -0.707106781186548 -0.0
  outer loop
    vertex 5.9900285714817105 -126.10663745924661 -22.536182912214674
    vertex 6.9900285714817105 -127.10663745924661 -12.536182912214683
    vertex 5.9900285714817105 -126.10663745924661 -12.536182912214683
  endloop
endfacet
facet normal -0.0 -1.0 -0.0
  outer loop
    vertex 23.290028571481706 -112.55663745924663 -3.5361829122146817
    vertex 22.29002857148171 -112.55663745924663 -13.53618291221468
    vertex 23.290028571481706 -112.55663745924663 -13.53618291221468
  endloop
endfacet
facet normal -0.0 -1.0 -0.0
  outer loop
    vertex 22.29002857148171 -112.55663745924663 -13.53618291221468
    vertex 23.290028571481706 -112.55663745924663 -3.5361829122146817
    vertex 22.29002857148171 -112.55663745924663 -3.5361829122146817
  endloop
endfacet
facet normal 1.0 0.0 0.0
  outer loop
    vertex 26.09002857148173 -110.50663745924662 -12.536182912214683
    vertex 26.09002857148173 -111.30663745924662 -4.036182912214681
    vertex 26.09002857148173 -111.30663745924662 -12.536182912214683
  endloop
endfacet
facet normal 1.0 0.0 0.0
  outer loop
    vertex 26.09002857148173 -111.30663745924662 -4.036182912214681
    vertex 26.09002857148173 -110.50663745924662 -12.536182912214683
    vertex 26.09002857148173 -110.50663745924662 -4.036182912214681
  endloop
endfacet
facet normal 1.0 0.0 0.0
  outer loop
    vertex 13.29002857148171 -112.55663745924663 -13.53618291221468
    vertex 13.29002857148171 -124.05663745924663 -3.5361829122146817
    vertex 13.29002857148171 -124.05663745924663 -13.53618291221468
  endloop
endfacet
facet normal 1.0 0.0 0.0
  outer loop
    vertex 13.29002857148171 -124.05663745924663 -3.5361829122146817
    vertex 13.29002857148171 -112.55663745924663 -13.53618291221468
    vertex 13.29002857148171 -112.55663745924663 -3.5361829122146817
  endloop
endfacet
facet normal 0.7071067811865481 0.0 0.7071067811865469
  outer loop
    vertex 40.79002857148175 -111.30663745924662 -4.036182912214681
    vertex 40.29002857148175 -124.80663745924659 -3.5361829122146817
    vertex 40.79002857148175 -125.30663745924659 -4.036182912214681
  endloop
endfacet
facet normal 0.7071067811865481 0.0 0.7071067811865469
  outer loop
    vertex 40.29002857148175 -124.80663745924659 -3.5361829122146817
    vertex 40.79002857148175 -111.30663745924662 -4.036182912214681
    vertex 40.29002857148175 -111.80663745924662 -3.5361829122146817
  endloop
endfacet
facet normal -0.7071067811865476 0.7071067811865476 0.0
  outer loop
    vertex 6.9900285714817105 -109.50663745924662 -12.536182912214683
    vertex 5.990028571481712 -110.50663745924662 -22.53618291221468
    vertex 5.990028571481712 -110.50663745924662 -12.536182912214683
  endloop
endfacet
facet normal -0.7071067811865476 0.7071067811865476 0.0
  outer loop
    vertex 5.990028571481712 -110.50663745924662 -22.53618291221468
    vertex 6.9900285714817105 -109.50663745924662 -12.536182912214683
    vertex 6.9900285714817105 -109.50663745924662 -22.53618291221468
  endloop
endfacet
facet normal -3.846338590627158e-17 2.9319639396769424e-32 1.0
  outer loop
    vertex 22.490028571481734 -111.30663745924662 -12.536182912214683
    vertex 22.49002857148173 -110.50663745924662 -12.536182912214683
    vertex 7.790028571481709 -111.30663745924662 -12.536182912214683
  endloop
endfacet
facet normal -3.846338590627158e-17 2.9319639396769424e-32 1.0
  outer loop
    vertex 40.79002857148175 -111.30663745924662 -12.536182912214683
    vertex 26.09002857148173 -110.50663745924662 -12.536182912214683
    vertex 26.09002857148173 -111.30663745924662 -12.536182912214683
  endloop
endfacet
facet normal -3.846338590627158e-17 2.9319639396769424e-32 1.0
  outer loop
    vertex 6.9900285714817105 -127.10663745924661 -12.536182912214683
    vertex 5.990028571481712 -110.50663745924662 -12.536182912214683
    vertex 5.9900285714817105 -126.10663745924661 -12.536182912214683
  endloop
endfacet
facet normal -3.846338590627158e-17 2.9319639396769424e-32 1.0
  outer loop
    vertex 5.990028571481712 -110.50663745924662 -12.536182912214683
    vertex 6.9900285714817105 -127.10663745924661 -12.536182912214683
    vertex 6.9900285714817105 -109.50663745924662 -12.536182912214683
  endloop
endfacet
facet normal -3.846338590627158e-17 2.9319639396769424e-32 1.0
  outer loop
    vertex 6.9900285714817105 -109.50663745924662 -12.536182912214683
    vertex 6.9900285714817105 -127.10663745924661 -12.536182912214683
    vertex 7.790028571481709 -125.30663745924659 -12.536182912214683
  endloop
endfacet
facet normal -3.846338590627158e-17 2.9319639396769424e-32 1.0
  outer loop
    vertex 7.790028571481709 -125.30663745924659 -12.536182912214683
    vertex 6.9900285714817105 -127.10663745924661 -12.536182912214683
    vertex 22.49002857148173 -126.1066374592466 -12.536182912214683
  endloop
endfacet
facet normal -3.846338590627158e-17 2.9319639396769424e-32 1.0
  outer loop
    vertex 22.49002857148173 -126.1066374592466 -12.536182912214683
    vertex 6.9900285714817105 -127.10663745924661 -12.536182912214683
    vertex 41.59002857148171 -127.10663745924661 -12.536182912214679
  endloop
endfacet
facet normal -3.846338590627158e-17 2.9319639396769424e-32 1.0
  outer loop
    vertex 22.49002857148173 -126.1066374592466 -12.536182912214683
    vertex 41.59002857148171 -127.10663745924661 -12.536182912214679
    vertex 26.09002857148173 -126.1066374592466 -12.536182912214683
  endloop
endfacet
facet normal -3.846338590627158e-17 2.9319639396769424e-32 1.0
  outer loop
    vertex 26.09002857148173 -126.1066374592466 -12.536182912214683
    vertex 41.59002857148171 -127.10663745924661 -12.536182912214679
    vertex 26.09002857148173 -125.30663745924662 -12.536182912214683
  endloop
endfacet
facet normal -3.846338590627158e-17 2.9319639396769424e-32 1.0
  outer loop
    vertex 26.09002857148173 -125.30663745924662 -12.536182912214683
    vertex 41.59002857148171 -127.10663745924661 -12.536182912214679
    vertex 40.79002857148175 -125.30663745924659 -12.536182912214683
  endloop
endfacet
facet normal -3.846338590627158e-17 2.9319639396769424e-32 1.0
  outer loop
    vertex 40.79002857148175 -125.30663745924659 -12.536182912214683
    vertex 41.59002857148171 -127.10663745924661 -12.536182912214679
    vertex 40.79002857148175 -111.30663745924662 -12.536182912214683
  endloop
endfacet
facet normal -3.846338590627158e-17 2.9319639396769424e-32 1.0
  outer loop
    vertex 6.9900285714817105 -109.50663745924662 -12.536182912214683
    vertex 22.49002857148173 -110.50663745924662 -12.536182912214683
    vertex 41.59002857148171 -109.50663745924662 -12.536182912214679
  endloop
endfacet
facet normal -3.846338590627158e-17 2.9319639396769424e-32 1.0
  outer loop
    vertex 22.49002857148173 -110.50663745924662 -12.536182912214683
    vertex 6.9900285714817105 -109.50663745924662 -12.536182912214683
    vertex 7.790028571481709 -111.30663745924662 -12.536182912214683
  endloop
endfacet
facet normal -3.846338590627158e-17 2.9319639396769424e-32 1.0
  outer loop
    vertex 7.790028571481709 -111.30663745924662 -12.536182912214683
    vertex 6.9900285714817105 -109.50663745924662 -12.536182912214683
    vertex 7.790028571481709 -125.30663745924659 -12.536182912214683
  endloop
endfacet
facet normal -3.846338590627158e-17 2.9319639396769424e-32 1.0
  outer loop
    vertex 41.59002857148171 -109.50663745924662 -12.536182912214679
    vertex 22.49002857148173 -110.50663745924662 -12.536182912214683
    vertex 26.09002857148173 -110.50663745924662 -12.536182912214683
  endloop
endfacet
facet normal -3.846338590627158e-17 2.9319639396769424e-32 1.0
  outer loop
    vertex 41.59002857148171 -109.50663745924662 -12.536182912214679
    vertex 26.09002857148173 -110.50663745924662 -12.536182912214683
    vertex 40.79002857148175 -111.30663745924662 -12.536182912214683
  endloop
endfacet
facet normal -3.846338590627158e-17 2.9319639396769424e-32 1.0
  outer loop
    vertex 41.59002857148171 -109.50663745924662 -12.536182912214679
    vertex 40.79002857148175 -111.30663745924662 -12.536182912214683
    vertex 41.59002857148171 -127.10663745924661 -12.536182912214679
  endloop
endfacet
facet normal -3.846338590627158e-17 2.9319639396769424e-32 1.0
  outer loop
    vertex 41.59002857148171 -109.50663745924662 -12.536182912214679
    vertex 41.59002857148171 -127.10663745924661 -12.536182912214679
    vertex 42.59002857148171 -126.10663745924661 -12.536182912214683
  endloop
endfacet
facet normal -3.846338590627158e-17 2.9319639396769424e-32 1.0
  outer loop
    vertex 41.59002857148171 -109.50663745924662 -12.536182912214679
    vertex 42.59002857148171 -126.10663745924661 -12.536182912214683
    vertex 42.59002857148171 -110.50663745924662 -12.536182912214683
  endloop
endfacet
facet normal -3.846338590627158e-17 2.9319639396769424e-32 1.0
  outer loop
    vertex 22.49002857148173 -125.30663745924659 -12.536182912214683
    vertex 7.790028571481709 -125.30663745924659 -12.536182912214683
    vertex 22.49002857148173 -126.1066374592466 -12.536182912214683
  endloop
endfacet
facet normal -0.0 -1.0 -0.0
  outer loop
    vertex 17.290028571481706 -112.55663745924663 -3.5361829122146817
    vertex 16.29002857148171 -112.55663745924663 -13.53618291221468
    vertex 17.290028571481706 -112.55663745924663 -13.53618291221468
  endloop
endfacet
facet normal -0.0 -1.0 -0.0
  outer loop
    vertex 16.29002857148171 -112.55663745924663 -13.53618291221468
    vertex 17.290028571481706 -112.55663745924663 -3.5361829122146817
    vertex 16.29002857148171 -112.55663745924663 -3.5361829122146817
  endloop
endfacet
facet normal -2.6801561576298917e-17 -0.7071067811865449 0.7071067811865501
  outer loop
    vertex 22.49002857148173 -125.30663745924659 -4.0361829122146835
    vertex 8.29002857148171 -124.80663745924659 -3.5361829122146817
    vertex 7.79002857148171 -125.30663745924659 -4.036182912214681
  endloop
endfacet
facet normal -2.6801561576298917e-17 -0.7071067811865449 0.7071067811865501
  outer loop
    vertex 8.29002857148171 -124.80663745924659 -3.5361829122146817
    vertex 22.49002857148173 -125.30663745924659 -4.0361829122146835
    vertex 40.29002857148175 -124.80663745924659 -3.5361829122146817
  endloop
endfacet
facet normal -2.6801561576298917e-17 -0.7071067811865449 0.7071067811865501
  outer loop
    vertex 40.29002857148175 -124.80663745924659 -3.5361829122146817
    vertex 22.49002857148173 -125.30663745924659 -4.0361829122146835
    vertex 26.09002857148173 -125.30663745924662 -4.0361829122146835
  endloop
endfacet
facet normal -2.6801561576298917e-17 -0.7071067811865449 0.7071067811865501
  outer loop
    vertex 40.29002857148175 -124.80663745924659 -3.5361829122146817
    vertex 26.09002857148173 -125.30663745924662 -4.0361829122146835
    vertex 40.79002857148175 -125.30663745924659 -4.036182912214681
  endloop
endfacet
facet normal -0.0 1.0 -0.0
  outer loop
    vertex 13.29002857148171 -124.05663745924663 -3.5361829122146817
    vertex 14.290028571481708 -124.05663745924663 -13.53618291221468
    vertex 13.29002857148171 -124.05663745924663 -13.53618291221468
  endloop
endfacet
facet normal -0.0 1.0 -0.0
  outer loop
    vertex 14.290028571481708 -124.05663745924663 -13.53618291221468
    vertex 13.29002857148171 -124.05663745924663 -3.5361829122146817
    vertex 14.290028571481708 -124.05663745924663 -3.5361829122146817
  endloop
endfacet
facet normal -7.915008891695191e-17 -1.6926324707222713e-16 -1.0
  outer loop
    vertex 5.990028571481712 -110.50663745924662 -22.53618291221468
    vertex 6.9900285714817105 -127.10663745924661 -22.536182912214674
    vertex 5.9900285714817105 -126.10663745924661 -22.536182912214674
  endloop
endfacet
facet normal -7.915008891695191e-17 -1.6926324707222713e-16 -1.0
  outer loop
    vertex 6.9900285714817105 -127.10663745924661 -22.536182912214674
    vertex 5.990028571481712 -110.50663745924662 -22.53618291221468
    vertex 6.9900285714817105 -109.50663745924662 -22.53618291221468
  endloop
endfacet
facet normal -7.915008891695191e-17 -1.6926324707222713e-16 -1.0
  outer loop
    vertex 6.9900285714817105 -127.10663745924661 -22.536182912214674
    vertex 6.9900285714817105 -109.50663745924662 -22.53618291221468
    vertex 41.59002857148171 -109.50663745924662 -22.53618291221468
  endloop
endfacet
facet normal -7.915008891695191e-17 -1.6926324707222713e-16 -1.0
  outer loop
    vertex 6.9900285714817105 -127.10663745924661 -22.536182912214674
    vertex 41.59002857148171 -109.50663745924662 -22.53618291221468
    vertex 41.59002857148171 -127.10663745924661 -22.53618291221468
  endloop
endfacet
facet normal -7.915008891695191e-17 -1.6926324707222713e-16 -1.0
  outer loop
    vertex 41.59002857148171 -127.10663745924661 -22.53618291221468
    vertex 41.59002857148171 -109.50663745924662 -22.53618291221468
    vertex 42.59002857148171 -110.50663745924662 -22.53618291221468
  endloop
endfacet
facet normal -7.915008891695191e-17 -1.6926324707222713e-16 -1.0
  outer loop
    vertex 41.59002857148171 -127.10663745924661 -22.53618291221468
    vertex 42.59002857148171 -110.50663745924662 -22.53618291221468
    vertex 42.59002857148171 -126.10663745924661 -22.53618291221468
  endloop
endfacet
facet normal 0.0 0.0 1.0
  outer loop
    vertex 29.29002857148171 -124.05663745924663 -13.53618291221468
    vertex 28.29002857148171 -112.55663745924663 -13.53618291221468
    vertex 28.29002857148171 -124.05663745924663 -13.53618291221468
  endloop
endfacet
facet normal 0.0 0.0 1.0
  outer loop
    vertex 28.29002857148171 -112.55663745924663 -13.53618291221468
    vertex 29.29002857148171 -124.05663745924663 -13.53618291221468
    vertex 29.29002857148171 -112.55663745924663 -13.53618291221468
  endloop
endfacet
facet normal 0.0 1.0 0.0
  outer loop
    vertex 22.49002857148173 -110.50663745924662 -4.036182912214681
    vertex 26.09002857148173 -110.50663745924662 -12.536182912214683
    vertex 22.49002857148173 -110.50663745924662 -12.536182912214683
  endloop
endfacet
facet normal 0.0 1.0 0.0
  outer loop
    vertex 26.09002857148173 -110.50663745924662 -12.536182912214683
    vertex 22.49002857148173 -110.50663745924662 -4.036182912214681
    vertex 26.09002857148173 -110.50663745924662 -4.036182912214681
  endloop
endfacet
facet normal -1.0 0.0 -0.0
  outer loop
    vertex 14.290028571481708 -112.55663745924663 -3.5361829122146817
    vertex 14.290028571481708 -124.05663745924663 -13.53618291221468
    vertex 14.290028571481708 -124.05663745924663 -3.5361829122146817
  endloop
endfacet
facet normal -1.0 0.0 -0.0
  outer loop
    vertex 14.290028571481708 -124.05663745924663 -13.53618291221468
    vertex 14.290028571481708 -112.55663745924663 -3.5361829122146817
    vertex 14.290028571481708 -112.55663745924663 -13.53618291221468
  endloop
endfacet
facet normal -0.0 -1.0 -0.0
  outer loop
    vertex 11.290028571481708 -112.55663745924663 -3.5361829122146817
    vertex 10.29002857148171 -112.55663745924663 -13.53618291221468
    vertex 11.290028571481708 -112.55663745924663 -13.53618291221468
  endloop
endfacet
facet normal -0.0 -1.0 -0.0
  outer loop
    vertex 10.29002857148171 -112.55663745924663 -13.53618291221468
    vertex 11.290028571481708 -112.55663745924663 -3.5361829122146817
    vertex 10.29002857148171 -112.55663745924663 -3.5361829122146817
  endloop
endfacet
facet normal 0.0 -1.0 0.0
  outer loop
    vertex 22.49002857148173 -125.30663745924659 -4.0361829122146835
    vertex 7.790028571481709 -125.30663745924659 -12.536182912214683
    vertex 22.49002857148173 -125.30663745924659 -12.536182912214683
  endloop
endfacet
facet normal 0.0 -1.0 0.0
  outer loop
    vertex 7.790028571481709 -125.30663745924659 -12.536182912214683
    vertex 22.49002857148173 -125.30663745924659 -4.0361829122146835
    vertex 7.79002857148171 -125.30663745924659 -4.036182912214681
  endloop
endfacet
facet normal -0.0 1.0 -0.0
  outer loop
    vertex 10.29002857148171 -124.05663745924663 -3.5361829122146817
    vertex 11.290028571481708 -124.05663745924663 -13.53618291221468
    vertex 10.29002857148171 -124.05663745924663 -13.53618291221468
  endloop
endfacet
facet normal -0.0 1.0 -0.0
  outer loop
    vertex 11.290028571481708 -124.05663745924663 -13.53618291221468
    vertex 10.29002857148171 -124.05663745924663 -3.5361829122146817
    vertex 11.290028571481708 -124.05663745924663 -3.5361829122146817
  endloop
endfacet
facet normal -0.0 -1.0 -0.0
  outer loop
    vertex 14.290028571481708 -112.55663745924663 -3.5361829122146817
    vertex 13.29002857148171 -112.55663745924663 -13.53618291221468
    vertex 14.290028571481708 -112.55663745924663 -13.53618291221468
  endloop
endfacet
facet normal -0.0 -1.0 -0.0
  outer loop
    vertex 13.29002857148171 -112.55663745924663 -13.53618291221468
    vertex 14.290028571481708 -112.55663745924663 -3.5361829122146817
    vertex 13.29002857148171 -112.55663745924663 -3.5361829122146817
  endloop
endfacet
facet normal 0.0 0.0 1.0
  outer loop
    vertex 22.490028571481734 -111.30663745924662 -4.036182912214681
    vertex 26.09002857148173 -110.50663745924662 -4.036182912214681
    vertex 22.49002857148173 -110.50663745924662 -4.036182912214681
  endloop
endfacet
facet normal 0.0 0.0 1.0
  outer loop
    vertex 26.09002857148173 -110.50663745924662 -4.036182912214681
    vertex 22.490028571481734 -111.30663745924662 -4.036182912214681
    vertex 26.09002857148173 -111.30663745924662 -4.036182912214681
  endloop
endfacet
facet normal -1.0 0.0 -0.0
  outer loop
    vertex 11.290028571481708 -112.55663745924663 -3.5361829122146817
    vertex 11.290028571481708 -124.05663745924663 -13.53618291221468
    vertex 11.290028571481708 -124.05663745924663 -3.5361829122146817
  endloop
endfacet
facet normal -1.0 0.0 -0.0
  outer loop
    vertex 11.290028571481708 -124.05663745924663 -13.53618291221468
    vertex 11.290028571481708 -112.55663745924663 -3.5361829122146817
    vertex 11.290028571481708 -112.55663745924663 -13.53618291221468
  endloop
endfacet
facet normal -1.0 0.0 -0.0
  outer loop
    vertex 23.290028571481706 -112.55663745924663 -3.5361829122146817
    vertex 23.290028571481706 -124.05663745924663 -13.53618291221468
    vertex 23.290028571481706 -124.05663745924663 -3.5361829122146817
  endloop
endfacet
facet normal -1.0 0.0 -0.0
  outer loop
    vertex 23.290028571481706 -124.05663745924663 -13.53618291221468
    vertex 23.290028571481706 -112.55663745924663 -3.5361829122146817
    vertex 23.290028571481706 -112.55663745924663 -13.53618291221468
  endloop
endfacet
facet normal -0.0 -1.0 -0.0
  outer loop
    vertex 35.290028571481706 -112.55663745924663 -3.5361829122146817
    vertex 34.29002857148171 -112.55663745924663 -13.53618291221468
    vertex 35.290028571481706 -112.55663745924663 -13.53618291221468
  endloop
endfacet
facet normal -0.0 -1.0 -0.0
  outer loop
    vertex 34.29002857148171 -112.55663745924663 -13.53618291221468
    vertex 35.290028571481706 -112.55663745924663 -3.5361829122146817
    vertex 34.29002857148171 -112.55663745924663 -3.5361829122146817
  endloop
endfacet
facet normal 1.0 0.0 0.0
  outer loop
    vertex 34.29002857148171 -112.55663745924663 -13.53618291221468
    vertex 34.29002857148171 -124.05663745924663 -3.5361829122146817
    vertex 34.29002857148171 -124.05663745924663 -13.53618291221468
  endloop
endfacet
facet normal 1.0 0.0 0.0
  outer loop
    vertex 34.29002857148171 -124.05663745924663 -3.5361829122146817
    vertex 34.29002857148171 -112.55663745924663 -13.53618291221468
    vertex 34.29002857148171 -112.55663745924663 -3.5361829122146817
  endloop
endfacet
facet normal -1.0 0.0 -0.0
  outer loop
    vertex 26.290028571481706 -112.55663745924663 -3.5361829122146817
    vertex 26.290028571481706 -124.05663745924663 -13.53618291221468
    vertex 26.290028571481706 -124.05663745924663 -3.5361829122146817
  endloop
endfacet
facet normal -1.0 0.0 -0.0
  outer loop
    vertex 26.290028571481706 -124.05663745924663 -13.53618291221468
    vertex 26.290028571481706 -112.55663745924663 -3.5361829122146817
    vertex 26.290028571481706 -112.55663745924663 -13.53618291221468
  endloop
endfacet
facet normal -0.0 -1.0 -0.0
  outer loop
    vertex 26.290028571481706 -112.55663745924663 -3.5361829122146817
    vertex 25.29002857148171 -112.55663745924663 -13.53618291221468
    vertex 26.290028571481706 -112.55663745924663 -13.53618291221468
  endloop
endfacet
facet normal -0.0 -1.0 -0.0
  outer loop
    vertex 25.29002857148171 -112.55663745924663 -13.53618291221468
    vertex 26.290028571481706 -112.55663745924663 -3.5361829122146817
    vertex 25.29002857148171 -112.55663745924663 -3.5361829122146817
  endloop
endfacet
facet normal 0.0 0.0 1.0
  outer loop
    vertex 38.290028571481706 -124.05663745924663 -13.53618291221468
    vertex 37.29002857148171 -112.55663745924663 -13.53618291221468
    vertex 37.29002857148171 -124.05663745924663 -13.53618291221468
  endloop
endfacet
facet normal 0.0 0.0 1.0
  outer loop
    vertex 37.29002857148171 -112.55663745924663 -13.53618291221468
    vertex 38.290028571481706 -124.05663745924663 -13.53618291221468
    vertex 38.290028571481706 -112.55663745924663 -13.53618291221468
  endloop
endfacet
facet normal -1.0 0.0 -0.0
  outer loop
    vertex 38.290028571481706 -112.55663745924663 -3.5361829122146817
    vertex 38.290028571481706 -124.05663745924663 -13.53618291221468
    vertex 38.290028571481706 -124.05663745924663 -3.5361829122146817
  endloop
endfacet
facet normal -1.0 0.0 -0.0
  outer loop
    vertex 38.290028571481706 -124.05663745924663 -13.53618291221468
    vertex 38.290028571481706 -112.55663745924663 -3.5361829122146817
    vertex 38.290028571481706 -112.55663745924663 -13.53618291221468
  endloop
endfacet
facet normal 0.0 0.0 1.0
  outer loop
    vertex 17.290028571481706 -124.05663745924663 -13.53618291221468
    vertex 16.29002857148171 -112.55663745924663 -13.53618291221468
    vertex 16.29002857148171 -124.05663745924663 -13.53618291221468
  endloop
endfacet
facet normal 0.0 0.0 1.0
  outer loop
    vertex 16.29002857148171 -112.55663745924663 -13.53618291221468
    vertex 17.290028571481706 -124.05663745924663 -13.53618291221468
    vertex 17.290028571481706 -112.55663745924663 -13.53618291221468
  endloop
endfacet
facet normal -0.0 1.0 -0.0
  outer loop
    vertex 31.29002857148171 -124.05663745924663 -3.5361829122146817
    vertex 32.290028571481706 -124.05663745924663 -13.53618291221468
    vertex 31.29002857148171 -124.05663745924663 -13.53618291221468
  endloop
endfacet
facet normal -0.0 1.0 -0.0
  outer loop
    vertex 32.290028571481706 -124.05663745924663 -13.53618291221468
    vertex 31.29002857148171 -124.05663745924663 -3.5361829122146817
    vertex 32.290028571481706 -124.05663745924663 -3.5361829122146817
  endloop
endfacet
facet normal 1.0 0.0 0.0
  outer loop
    vertex 16.29002857148171 -112.55663745924663 -13.53618291221468
    vertex 16.29002857148171 -124.05663745924663 -3.5361829122146817
    vertex 16.29002857148171 -124.05663745924663 -13.53618291221468
  endloop
endfacet
facet normal 1.0 0.0 0.0
  outer loop
    vertex 16.29002857148171 -124.05663745924663 -3.5361829122146817
    vertex 16.29002857148171 -112.55663745924663 -13.53618291221468
    vertex 16.29002857148171 -112.55663745924663 -3.5361829122146817
  endloop
endfacet
facet normal -0.0 1.0 -0.0
  outer loop
    vertex 25.29002857148171 -124.05663745924663 -3.5361829122146817
    vertex 26.290028571481706 -124.05663745924663 -13.53618291221468
    vertex 25.29002857148171 -124.05663745924663 -13.53618291221468
  endloop
endfacet
facet normal -0.0 1.0 -0.0
  outer loop
    vertex 26.290028571481706 -124.05663745924663 -13.53618291221468
    vertex 25.29002857148171 -124.05663745924663 -3.5361829122146817
    vertex 26.290028571481706 -124.05663745924663 -3.5361829122146817
  endloop
endfacet
facet normal 1.0 0.0 0.0
  outer loop
    vertex 25.29002857148171 -112.55663745924663 -13.53618291221468
    vertex 25.29002857148171 -124.05663745924663 -3.5361829122146817
    vertex 25.29002857148171 -124.05663745924663 -13.53618291221468
  endloop
endfacet
facet normal 1.0 0.0 0.0
  outer loop
    vertex 25.29002857148171 -124.05663745924663 -3.5361829122146817
    vertex 25.29002857148171 -112.55663745924663 -13.53618291221468
    vertex 25.29002857148171 -112.55663745924663 -3.5361829122146817
  endloop
endfacet
facet normal 1.0 0.0 0.0
  outer loop
    vertex 37.29002857148171 -112.55663745924663 -13.53618291221468
    vertex 37.29002857148171 -124.05663745924663 -3.5361829122146817
    vertex 37.29002857148171 -124.05663745924663 -13.53618291221468
  endloop
endfacet
facet normal 1.0 0.0 0.0
  outer loop
    vertex 37.29002857148171 -124.05663745924663 -3.5361829122146817
    vertex 37.29002857148171 -112.55663745924663 -13.53618291221468
    vertex 37.29002857148171 -112.55663745924663 -3.5361829122146817
  endloop
endfacet
facet normal -0.0 1.0 -0.0
  outer loop
    vertex 37.29002857148171 -124.05663745924663 -3.5361829122146817
    vertex 38.290028571481706 -124.05663745924663 -13.53618291221468
    vertex 37.29002857148171 -124.05663745924663 -13.53618291221468
  endloop
endfacet
facet normal -0.0 1.0 -0.0
  outer loop
    vertex 38.290028571481706 -124.05663745924663 -13.53618291221468
    vertex 37.29002857148171 -124.05663745924663 -3.5361829122146817
    vertex 38.290028571481706 -124.05663745924663 -3.5361829122146817
  endloop
endfacet
facet normal -0.0 1.0 -0.0
  outer loop
    vertex 16.29002857148171 -124.05663745924663 -3.5361829122146817
    vertex 17.290028571481706 -124.05663745924663 -13.53618291221468
    vertex 16.29002857148171 -124.05663745924663 -13.53618291221468
  endloop
endfacet
facet normal -0.0 1.0 -0.0
  outer loop
    vertex 17.290028571481706 -124.05663745924663 -13.53618291221468
    vertex 16.29002857148171 -124.05663745924663 -3.5361829122146817
    vertex 17.290028571481706 -124.05663745924663 -3.5361829122146817
  endloop
endfacet
facet normal -1.0 0.0 -0.0
  outer loop
    vertex 35.290028571481706 -112.55663745924663 -3.5361829122146817
    vertex 35.290028571481706 -124.05663745924663 -13.53618291221468
    vertex 35.290028571481706 -124.05663745924663 -3.5361829122146817
  endloop
endfacet
facet normal -1.0 0.0 -0.0
  outer loop
    vertex 35.290028571481706 -124.05663745924663 -13.53618291221468
    vertex 35.290028571481706 -112.55663745924663 -3.5361829122146817
    vertex 35.290028571481706 -112.55663745924663 -13.53618291221468
  endloop
endfacet
facet normal -0.0 -1.0 -0.0
  outer loop
    vertex 38.290028571481706 -112.55663745924663 -3.5361829122146817
    vertex 37.29002857148171 -112.55663745924663 -13.53618291221468
    vertex 38.290028571481706 -112.55663745924663 -13.53618291221468
  endloop
endfacet
facet normal -0.0 -1.0 -0.0
  outer loop
    vertex 37.29002857148171 -112.55663745924663 -13.53618291221468
    vertex 38.290028571481706 -112.55663745924663 -3.5361829122146817
    vertex 37.29002857148171 -112.55663745924663 -3.5361829122146817
  endloop
endfacet
facet normal 0.0 0.0 1.0
  outer loop
    vertex 35.290028571481706 -124.05663745924663 -13.53618291221468
    vertex 34.29002857148171 -112.55663745924663 -13.53618291221468
    vertex 34.29002857148171 -124.05663745924663 -13.53618291221468
  endloop
endfacet
facet normal 0.0 0.0 1.0
  outer loop
    vertex 34.29002857148171 -112.55663745924663 -13.53618291221468
    vertex 35.290028571481706 -124.05663745924663 -13.53618291221468
    vertex 35.290028571481706 -112.55663745924663 -13.53618291221468
  endloop
endfacet
facet normal -1.0 0.0 -0.0
  outer loop
    vertex 20.290028571481706 -112.55663745924663 -3.5361829122146817
    vertex 20.290028571481706 -124.05663745924663 -13.53618291221468
    vertex 20.290028571481706 -124.05663745924663 -3.5361829122146817
  endloop
endfacet
facet normal -1.0 0.0 -0.0
  outer loop
    vertex 20.290028571481706 -124.05663745924663 -13.53618291221468
    vertex 20.290028571481706 -112.55663745924663 -3.5361829122146817
    vertex 20.290028571481706 -112.55663745924663 -13.53618291221468
  endloop
endfacet
facet normal 1.0 0.0 0.0
  outer loop
    vertex 19.29002857148171 -112.55663745924663 -13.53618291221468
    vertex 19.29002857148171 -124.05663745924663 -3.5361829122146817
    vertex 19.29002857148171 -124.05663745924663 -13.53618291221468
  endloop
endfacet
facet normal 1.0 0.0 0.0
  outer loop
    vertex 19.29002857148171 -124.05663745924663 -3.5361829122146817
    vertex 19.29002857148171 -112.55663745924663 -13.53618291221468
    vertex 19.29002857148171 -112.55663745924663 -3.5361829122146817
  endloop
endfacet
facet normal -1.0 0.0 -0.0
  outer loop
    vertex 29.29002857148171 -112.55663745924663 -3.5361829122146817
    vertex 29.29002857148171 -124.05663745924663 -13.53618291221468
    vertex 29.29002857148171 -124.05663745924663 -3.5361829122146817
  endloop
endfacet
facet normal -1.0 0.0 -0.0
  outer loop
    vertex 29.29002857148171 -124.05663745924663 -13.53618291221468
    vertex 29.29002857148171 -112.55663745924663 -3.5361829122146817
    vertex 29.29002857148171 -112.55663745924663 -13.53618291221468
  endloop
endfacet
facet normal -0.0 1.0 -0.0
  outer loop
    vertex 28.29002857148171 -124.05663745924663 -3.5361829122146817
    vertex 29.29002857148171 -124.05663745924663 -13.53618291221468
    vertex 28.29002857148171 -124.05663745924663 -13.53618291221468
  endloop
endfacet
facet normal -0.0 1.0 -0.0
  outer loop
    vertex 29.29002857148171 -124.05663745924663 -13.53618291221468
    vertex 28.29002857148171 -124.05663745924663 -3.5361829122146817
    vertex 29.29002857148171 -124.05663745924663 -3.5361829122146817
  endloop
endfacet
facet normal 1.0 0.0 0.0
  outer loop
    vertex 28.29002857148171 -112.55663745924663 -13.53618291221468
    vertex 28.29002857148171 -124.05663745924663 -3.5361829122146817
    vertex 28.29002857148171 -124.05663745924663 -13.53618291221468
  endloop
endfacet
facet normal 1.0 0.0 0.0
  outer loop
    vertex 28.29002857148171 -124.05663745924663 -3.5361829122146817
    vertex 28.29002857148171 -112.55663745924663 -13.53618291221468
    vertex 28.29002857148171 -112.55663745924663 -3.5361829122146817
  endloop
endfacet
facet normal 7.444878215638476e-19 0.7071067811865481 0.707106781186547
  outer loop
    vertex 8.29002857148171 -111.80663745924662 -3.5361829122146817
    vertex 22.490028571481734 -111.30663745924662 -4.036182912214681
    vertex 7.79002857148171 -111.30663745924662 -4.036182912214681
  endloop
endfacet
facet normal 7.444878215638476e-19 0.7071067811865481 0.707106781186547
  outer loop
    vertex 22.490028571481734 -111.30663745924662 -4.036182912214681
    vertex 8.29002857148171 -111.80663745924662 -3.5361829122146817
    vertex 26.09002857148173 -111.30663745924662 -4.036182912214681
  endloop
endfacet
facet normal 7.444878215638476e-19 0.7071067811865481 0.707106781186547
  outer loop
    vertex 26.09002857148173 -111.30663745924662 -4.036182912214681
    vertex 8.29002857148171 -111.80663745924662 -3.5361829122146817
    vertex 40.79002857148175 -111.30663745924662 -4.036182912214681
  endloop
endfacet
facet normal 7.444878215638476e-19 0.7071067811865481 0.707106781186547
  outer loop
    vertex 40.79002857148175 -111.30663745924662 -4.036182912214681
    vertex 8.29002857148171 -111.80663745924662 -3.5361829122146817
    vertex 40.29002857148175 -111.80663745924662 -3.5361829122146817
  endloop
endfacet
facet normal 0.0 1.0 0.0
  outer loop
    vertex 6.9900285714817105 -109.50663745924662 -12.536182912214683
    vertex 41.59002857148171 -109.50663745924662 -22.53618291221468
    vertex 6.9900285714817105 -109.50663745924662 -22.53618291221468
  endloop
endfacet
facet normal 0.0 1.0 0.0
  outer loop
    vertex 41.59002857148171 -109.50663745924662 -22.53618291221468
    vertex 6.9900285714817105 -109.50663745924662 -12.536182912214683
    vertex 41.59002857148171 -109.50663745924662 -12.536182912214679
  endloop
endfacet
facet normal 1.0 0.0 0.0
  outer loop
    vertex 31.29002857148171 -112.55663745924663 -13.53618291221468
    vertex 31.29002857148171 -124.05663745924663 -3.5361829122146817
    vertex 31.29002857148171 -124.05663745924663 -13.53618291221468
  endloop
endfacet
facet normal 1.0 0.0 0.0
  outer loop
    vertex 31.29002857148171 -124.05663745924663 -3.5361829122146817
    vertex 31.29002857148171 -112.55663745924663 -13.53618291221468
    vertex 31.29002857148171 -112.55663745924663 -3.5361829122146817
  endloop
endfacet
facet normal 1.5346756367607586e-15 -1.0 7.487428818768572e-32
  outer loop
    vertex 40.79002857148175 -125.30663745924659 -12.536182912214683
    vertex 26.09002857148173 -125.30663745924662 -4.0361829122146835
    vertex 26.09002857148173 -125.30663745924662 -12.536182912214683
  endloop
endfacet
facet normal 1.5346756367607586e-15 -1.0 7.487428818768572e-32
  outer loop
    vertex 26.09002857148173 -125.30663745924662 -4.0361829122146835
    vertex 40.79002857148175 -125.30663745924659 -12.536182912214683
    vertex 40.79002857148175 -125.30663745924659 -4.036182912214681
  endloop
endfacet
facet normal -0.0 -0.0 1.0
  outer loop
    vertex 8.29002857148171 -124.80663745924659 -3.5361829122146817
    vertex 10.29002857148171 -124.05663745924663 -3.5361829122146817
    vertex 8.29002857148171 -111.80663745924662 -3.5361829122146817
  endloop
endfacet
facet normal -0.0 -0.0 1.0
  outer loop
    vertex 10.29002857148171 -124.05663745924663 -3.5361829122146817
    vertex 8.29002857148171 -124.80663745924659 -3.5361829122146817
    vertex 40.29002857148175 -124.80663745924659 -3.5361829122146817
  endloop
endfacet
facet normal -0.0 -0.0 1.0
  outer loop
    vertex 10.29002857148171 -124.05663745924663 -3.5361829122146817
    vertex 40.29002857148175 -124.80663745924659 -3.5361829122146817
    vertex 11.290028571481708 -124.05663745924663 -3.5361829122146817
  endloop
endfacet
facet normal -0.0 -0.0 1.0
  outer loop
    vertex 11.290028571481708 -124.05663745924663 -3.5361829122146817
    vertex 40.29002857148175 -124.80663745924659 -3.5361829122146817
    vertex 13.29002857148171 -124.05663745924663 -3.5361829122146817
  endloop
endfacet
facet normal -0.0 -0.0 1.0
  outer loop
    vertex 11.290028571481708 -124.05663745924663 -3.5361829122146817
    vertex 13.29002857148171 -124.05663745924663 -3.5361829122146817
    vertex 11.290028571481708 -112.55663745924663 -3.5361829122146817
  endloop
endfacet
facet normal -0.0 -0.0 1.0
  outer loop
    vertex 13.29002857148171 -124.05663745924663 -3.5361829122146817
    vertex 40.29002857148175 -124.80663745924659 -3.5361829122146817
    vertex 14.290028571481708 -124.05663745924663 -3.5361829122146817
  endloop
endfacet
facet normal -0.0 -0.0 1.0
  outer loop
    vertex 14.290028571481708 -124.05663745924663 -3.5361829122146817
    vertex 40.29002857148175 -124.80663745924659 -3.5361829122146817
    vertex 16.29002857148171 -124.05663745924663 -3.5361829122146817
  endloop
endfacet
facet normal -0.0 -0.0 1.0
  outer loop
    vertex 14.290028571481708 -124.05663745924663 -3.5361829122146817
    vertex 16.29002857148171 -124.05663745924663 -3.5361829122146817
    vertex 14.290028571481708 -112.55663745924663 -3.5361829122146817
  endloop
endfacet
facet normal -0.0 -0.0 1.0
  outer loop
    vertex 16.29002857148171 -124.05663745924663 -3.5361829122146817
    vertex 40.29002857148175 -124.80663745924659 -3.5361829122146817
    vertex 17.290028571481706 -124.05663745924663 -3.5361829122146817
  endloop
endfacet
facet normal -0.0 -0.0 1.0
  outer loop
    vertex 17.290028571481706 -124.05663745924663 -3.5361829122146817
    vertex 40.29002857148175 -124.80663745924659 -3.5361829122146817
    vertex 19.29002857148171 -124.05663745924663 -3.5361829122146817
  endloop
endfacet
facet normal -0.0 -0.0 1.0
  outer loop
    vertex 17.290028571481706 -124.05663745924663 -3.5361829122146817
    vertex 19.29002857148171 -124.05663745924663 -3.5361829122146817
    vertex 17.290028571481706 -112.55663745924663 -3.5361829122146817
  endloop
endfacet
facet normal -0.0 -0.0 1.0
  outer loop
    vertex 19.29002857148171 -124.05663745924663 -3.5361829122146817
    vertex 40.29002857148175 -124.80663745924659 -3.5361829122146817
    vertex 20.290028571481706 -124.05663745924663 -3.5361829122146817
  endloop
endfacet
facet normal -0.0 -0.0 1.0
  outer loop
    vertex 20.290028571481706 -124.05663745924663 -3.5361829122146817
    vertex 40.29002857148175 -124.80663745924659 -3.5361829122146817
    vertex 22.29002857148171 -124.05663745924663 -3.5361829122146817
  endloop
endfacet
facet normal -0.0 -0.0 1.0
  outer loop
    vertex 20.290028571481706 -124.05663745924663 -3.5361829122146817
    vertex 22.29002857148171 -124.05663745924663 -3.5361829122146817
    vertex 20.290028571481706 -112.55663745924663 -3.5361829122146817
  endloop
endfacet
facet normal -0.0 -0.0 1.0
  outer loop
    vertex 22.29002857148171 -124.05663745924663 -3.5361829122146817
    vertex 40.29002857148175 -124.80663745924659 -3.5361829122146817
    vertex 23.290028571481706 -124.05663745924663 -3.5361829122146817
  endloop
endfacet
facet normal -0.0 -0.0 1.0
  outer loop
    vertex 23.290028571481706 -124.05663745924663 -3.5361829122146817
    vertex 40.29002857148175 -124.80663745924659 -3.5361829122146817
    vertex 25.29002857148171 -124.05663745924663 -3.5361829122146817
  endloop
endfacet
facet normal -0.0 -0.0 1.0
  outer loop
    vertex 23.290028571481706 -124.05663745924663 -3.5361829122146817
    vertex 25.29002857148171 -124.05663745924663 -3.5361829122146817
    vertex 23.290028571481706 -112.55663745924663 -3.5361829122146817
  endloop
endfacet
facet normal -0.0 -0.0 1.0
  outer loop
    vertex 25.29002857148171 -124.05663745924663 -3.5361829122146817
    vertex 40.29002857148175 -124.80663745924659 -3.5361829122146817
    vertex 26.290028571481706 -124.05663745924663 -3.5361829122146817
  endloop
endfacet
facet normal -0.0 -0.0 1.0
  outer loop
    vertex 26.290028571481706 -124.05663745924663 -3.5361829122146817
    vertex 40.29002857148175 -124.80663745924659 -3.5361829122146817
    vertex 28.29002857148171 -124.05663745924663 -3.5361829122146817
  endloop
endfacet
facet normal -0.0 -0.0 1.0
  outer loop
    vertex 26.290028571481706 -124.05663745924663 -3.5361829122146817
    vertex 28.29002857148171 -124.05663745924663 -3.5361829122146817
    vertex 26.290028571481706 -112.55663745924663 -3.5361829122146817
  endloop
endfacet
facet normal -0.0 -0.0 1.0
  outer loop
    vertex 28.29002857148171 -124.05663745924663 -3.5361829122146817
    vertex 40.29002857148175 -124.80663745924659 -3.5361829122146817
    vertex 29.29002857148171 -124.05663745924663 -3.5361829122146817
  endloop
endfacet
facet normal -0.0 -0.0 1.0
  outer loop
    vertex 29.29002857148171 -124.05663745924663 -3.5361829122146817
    vertex 40.29002857148175 -124.80663745924659 -3.5361829122146817
    vertex 31.29002857148171 -124.05663745924663 -3.5361829122146817
  endloop
endfacet
facet normal -0.0 -0.0 1.0
  outer loop
    vertex 29.29002857148171 -124.05663745924663 -3.5361829122146817
    vertex 31.29002857148171 -124.05663745924663 -3.5361829122146817
    vertex 29.29002857148171 -112.55663745924663 -3.5361829122146817
  endloop
endfacet
facet normal -0.0 -0.0 1.0
  outer loop
    vertex 31.29002857148171 -124.05663745924663 -3.5361829122146817
    vertex 40.29002857148175 -124.80663745924659 -3.5361829122146817
    vertex 32.290028571481706 -124.05663745924663 -3.5361829122146817
  endloop
endfacet
facet normal -0.0 -0.0 1.0
  outer loop
    vertex 32.290028571481706 -124.05663745924663 -3.5361829122146817
    vertex 40.29002857148175 -124.80663745924659 -3.5361829122146817
    vertex 34.29002857148171 -124.05663745924663 -3.5361829122146817
  endloop
endfacet
facet normal -0.0 -0.0 1.0
  outer loop
    vertex 32.290028571481706 -124.05663745924663 -3.5361829122146817
    vertex 34.29002857148171 -124.05663745924663 -3.5361829122146817
    vertex 32.290028571481706 -112.55663745924663 -3.5361829122146817
  endloop
endfacet
facet normal -0.0 -0.0 1.0
  outer loop
    vertex 34.29002857148171 -124.05663745924663 -3.5361829122146817
    vertex 40.29002857148175 -124.80663745924659 -3.5361829122146817
    vertex 35.290028571481706 -124.05663745924663 -3.5361829122146817
  endloop
endfacet
facet normal -0.0 -0.0 1.0
  outer loop
    vertex 35.290028571481706 -124.05663745924663 -3.5361829122146817
    vertex 40.29002857148175 -124.80663745924659 -3.5361829122146817
    vertex 37.29002857148171 -124.05663745924663 -3.5361829122146817
  endloop
endfacet
facet normal -0.0 -0.0 1.0
  outer loop
    vertex 35.290028571481706 -124.05663745924663 -3.5361829122146817
    vertex 37.29002857148171 -124.05663745924663 -3.5361829122146817
    vertex 35.290028571481706 -112.55663745924663 -3.5361829122146817
  endloop
endfacet
facet normal -0.0 -0.0 1.0
  outer loop
    vertex 37.29002857148171 -124.05663745924663 -3.5361829122146817
    vertex 40.29002857148175 -124.80663745924659 -3.5361829122146817
    vertex 38.290028571481706 -124.05663745924663 -3.5361829122146817
  endloop
endfacet
facet normal -0.0 -0.0 1.0
  outer loop
    vertex 38.290028571481706 -124.05663745924663 -3.5361829122146817
    vertex 40.29002857148175 -124.80663745924659 -3.5361829122146817
    vertex 38.290028571481706 -112.55663745924663 -3.5361829122146817
  endloop
endfacet
facet normal -0.0 -0.0 1.0
  outer loop
    vertex 8.29002857148171 -111.80663745924662 -3.5361829122146817
    vertex 10.29002857148171 -112.55663745924663 -3.5361829122146817
    vertex 40.29002857148175 -111.80663745924662 -3.5361829122146817
  endloop
endfacet
facet normal -0.0 -0.0 1.0
  outer loop
    vertex 10.29002857148171 -112.55663745924663 -3.5361829122146817
    vertex 8.29002857148171 -111.80663745924662 -3.5361829122146817
    vertex 10.29002857148171 -124.05663745924663 -3.5361829122146817
  endloop
endfacet
facet normal -0.0 -0.0 1.0
  outer loop
    vertex 40.29002857148175 -111.80663745924662 -3.5361829122146817
    vertex 10.29002857148171 -112.55663745924663 -3.5361829122146817
    vertex 11.290028571481708 -112.55663745924663 -3.5361829122146817
  endloop
endfacet
facet normal -0.0 -0.0 1.0
  outer loop
    vertex 40.29002857148175 -111.80663745924662 -3.5361829122146817
    vertex 11.290028571481708 -112.55663745924663 -3.5361829122146817
    vertex 13.29002857148171 -112.55663745924663 -3.5361829122146817
  endloop
endfacet
facet normal -0.0 -0.0 1.0
  outer loop
    vertex 13.29002857148171 -112.55663745924663 -3.5361829122146817
    vertex 11.290028571481708 -112.55663745924663 -3.5361829122146817
    vertex 13.29002857148171 -124.05663745924663 -3.5361829122146817
  endloop
endfacet
facet normal -0.0 -0.0 1.0
  outer loop
    vertex 40.29002857148175 -111.80663745924662 -3.5361829122146817
    vertex 13.29002857148171 -112.55663745924663 -3.5361829122146817
    vertex 14.290028571481708 -112.55663745924663 -3.5361829122146817
  endloop
endfacet
facet normal -0.0 -0.0 1.0
  outer loop
    vertex 40.29002857148175 -111.80663745924662 -3.5361829122146817
    vertex 14.290028571481708 -112.55663745924663 -3.5361829122146817
    vertex 16.29002857148171 -112.55663745924663 -3.5361829122146817
  endloop
endfacet
facet normal -0.0 -0.0 1.0
  outer loop
    vertex 16.29002857148171 -112.55663745924663 -3.5361829122146817
    vertex 14.290028571481708 -112.55663745924663 -3.5361829122146817
    vertex 16.29002857148171 -124.05663745924663 -3.5361829122146817
  endloop
endfacet
facet normal -0.0 -0.0 1.0
  outer loop
    vertex 40.29002857148175 -111.80663745924662 -3.5361829122146817
    vertex 16.29002857148171 -112.55663745924663 -3.5361829122146817
    vertex 17.290028571481706 -112.55663745924663 -3.5361829122146817
  endloop
endfacet
facet normal -0.0 -0.0 1.0
  outer loop
    vertex 40.29002857148175 -111.80663745924662 -3.5361829122146817
    vertex 17.290028571481706 -112.55663745924663 -3.5361829122146817
    vertex 19.29002857148171 -112.55663745924663 -3.5361829122146817
  endloop
endfacet
facet normal -0.0 -0.0 1.0
  outer loop
    vertex 19.29002857148171 -112.55663745924663 -3.5361829122146817
    vertex 17.290028571481706 -112.55663745924663 -3.5361829122146817
    vertex 19.29002857148171 -124.05663745924663 -3.5361829122146817
  endloop
endfacet
facet normal -0.0 -0.0 1.0
  outer loop
    vertex 40.29002857148175 -111.80663745924662 -3.5361829122146817
    vertex 19.29002857148171 -112.55663745924663 -3.5361829122146817
    vertex 20.290028571481706 -112.55663745924663 -3.5361829122146817
  endloop
endfacet
facet normal -0.0 -0.0 1.0
  outer loop
    vertex 40.29002857148175 -111.80663745924662 -3.5361829122146817
    vertex 20.290028571481706 -112.55663745924663 -3.5361829122146817
    vertex 22.29002857148171 -112.55663745924663 -3.5361829122146817
  endloop
endfacet
facet normal -0.0 -0.0 1.0
  outer loop
    vertex 22.29002857148171 -112.55663745924663 -3.5361829122146817
    vertex 20.290028571481706 -112.55663745924663 -3.5361829122146817
    vertex 22.29002857148171 -124.05663745924663 -3.5361829122146817
  endloop
endfacet
facet normal -0.0 -0.0 1.0
  outer loop
    vertex 40.29002857148175 -111.80663745924662 -3.5361829122146817
    vertex 22.29002857148171 -112.55663745924663 -3.5361829122146817
    vertex 23.290028571481706 -112.55663745924663 -3.5361829122146817
  endloop
endfacet
facet normal -0.0 -0.0 1.0
  outer loop
    vertex 40.29002857148175 -111.80663745924662 -3.5361829122146817
    vertex 23.290028571481706 -112.55663745924663 -3.5361829122146817
    vertex 25.29002857148171 -112.55663745924663 -3.5361829122146817
  endloop
endfacet
facet normal -0.0 -0.0 1.0
  outer loop
    vertex 25.29002857148171 -112.55663745924663 -3.5361829122146817
    vertex 23.290028571481706 -112.55663745924663 -3.5361829122146817
    vertex 25.29002857148171 -124.05663745924663 -3.5361829122146817
  endloop
endfacet
facet normal -0.0 -0.0 1.0
  outer loop
    vertex 40.29002857148175 -111.80663745924662 -3.5361829122146817
    vertex 25.29002857148171 -112.55663745924663 -3.5361829122146817
    vertex 26.290028571481706 -112.55663745924663 -3.5361829122146817
  endloop
endfacet
facet normal -0.0 -0.0 1.0
  outer loop
    vertex 40.29002857148175 -111.80663745924662 -3.5361829122146817
    vertex 26.290028571481706 -112.55663745924663 -3.5361829122146817
    vertex 28.29002857148171 -112.55663745924663 -3.5361829122146817
  endloop
endfacet
facet normal -0.0 -0.0 1.0
  outer loop
    vertex 28.29002857148171 -112.55663745924663 -3.5361829122146817
    vertex 26.290028571481706 -112.55663745924663 -3.5361829122146817
    vertex 28.29002857148171 -124.05663745924663 -3.5361829122146817
  endloop
endfacet
facet normal -0.0 -0.0 1.0
  outer loop
    vertex 40.29002857148175 -111.80663745924662 -3.5361829122146817
    vertex 28.29002857148171 -112.55663745924663 -3.5361829122146817
    vertex 29.29002857148171 -112.55663745924663 -3.5361829122146817
  endloop
endfacet
facet normal -0.0 -0.0 1.0
  outer loop
    vertex 40.29002857148175 -111.80663745924662 -3.5361829122146817
    vertex 29.29002857148171 -112.55663745924663 -3.5361829122146817
    vertex 31.29002857148171 -112.55663745924663 -3.5361829122146817
  endloop
endfacet
facet normal -0.0 -0.0 1.0
  outer loop
    vertex 31.29002857148171 -112.55663745924663 -3.5361829122146817
    vertex 29.29002857148171 -112.55663745924663 -3.5361829122146817
    vertex 31.29002857148171 -124.05663745924663 -3.5361829122146817
  endloop
endfacet
facet normal -0.0 -0.0 1.0
  outer loop
    vertex 40.29002857148175 -111.80663745924662 -3.5361829122146817
    vertex 31.29002857148171 -112.55663745924663 -3.5361829122146817
    vertex 32.290028571481706 -112.55663745924663 -3.5361829122146817
  endloop
endfacet
facet normal -0.0 -0.0 1.0
  outer loop
    vertex 40.29002857148175 -111.80663745924662 -3.5361829122146817
    vertex 32.290028571481706 -112.55663745924663 -3.5361829122146817
    vertex 34.29002857148171 -112.55663745924663 -3.5361829122146817
  endloop
endfacet
facet normal -0.0 -0.0 1.0
  outer loop
    vertex 34.29002857148171 -112.55663745924663 -3.5361829122146817
    vertex 32.290028571481706 -112.55663745924663 -3.5361829122146817
    vertex 34.29002857148171 -124.05663745924663 -3.5361829122146817
  endloop
endfacet
facet normal -0.0 -0.0 1.0
  outer loop
    vertex 40.29002857148175 -111.80663745924662 -3.5361829122146817
    vertex 34.29002857148171 -112.55663745924663 -3.5361829122146817
    vertex 35.290028571481706 -112.55663745924663 -3.5361829122146817
  endloop
endfacet
facet normal -0.0 -0.0 1.0
  outer loop
    vertex 40.29002857148175 -111.80663745924662 -3.5361829122146817
    vertex 35.290028571481706 -112.55663745924663 -3.5361829122146817
    vertex 37.29002857148171 -112.55663745924663 -3.5361829122146817
  endloop
endfacet
facet normal -0.0 -0.0 1.0
  outer loop
    vertex 37.29002857148171 -112.55663745924663 -3.5361829122146817
    vertex 35.290028571481706 -112.55663745924663 -3.5361829122146817
    vertex 37.29002857148171 -124.05663745924663 -3.5361829122146817
  endloop
endfacet
facet normal -0.0 -0.0 1.0
  outer loop
    vertex 40.29002857148175 -111.80663745924662 -3.5361829122146817
    vertex 37.29002857148171 -112.55663745924663 -3.5361829122146817
    vertex 38.290028571481706 -112.55663745924663 -3.5361829122146817
  endloop
endfacet
facet normal -0.0 -0.0 1.0
  outer loop
    vertex 40.29002857148175 -111.80663745924662 -3.5361829122146817
    vertex 38.290028571481706 -112.55663745924663 -3.5361829122146817
    vertex 40.29002857148175 -124.80663745924659 -3.5361829122146817
  endloop
endfacet
facet normal -0.0 1.0 -0.0
  outer loop
    vertex 34.29002857148171 -124.05663745924663 -3.5361829122146817
    vertex 35.290028571481706 -124.05663745924663 -13.53618291221468
    vertex 34.29002857148171 -124.05663745924663 -13.53618291221468
  endloop
endfacet
facet normal -0.0 1.0 -0.0
  outer loop
    vertex 35.290028571481706 -124.05663745924663 -13.53618291221468
    vertex 34.29002857148171 -124.05663745924663 -3.5361829122146817
    vertex 35.290028571481706 -124.05663745924663 -3.5361829122146817
  endloop
endfacet
facet normal 1.0 0.0 0.0
  outer loop
    vertex 22.29002857148171 -112.55663745924663 -13.53618291221468
    vertex 22.29002857148171 -124.05663745924663 -3.5361829122146817
    vertex 22.29002857148171 -124.05663745924663 -13.53618291221468
  endloop
endfacet
facet normal 1.0 0.0 0.0
  outer loop
    vertex 22.29002857148171 -124.05663745924663 -3.5361829122146817
    vertex 22.29002857148171 -112.55663745924663 -13.53618291221468
    vertex 22.29002857148171 -112.55663745924663 -3.5361829122146817
  endloop
endfacet
facet normal 0.0 0.0 1.0
  outer loop
    vertex 26.09002857148173 -126.1066374592466 -4.0361829122146835
    vertex 22.49002857148173 -125.30663745924659 -4.0361829122146835
    vertex 22.49002857148173 -126.1066374592466 -4.0361829122146835
  endloop
endfacet
facet normal 0.0 0.0 1.0
  outer loop
    vertex 22.49002857148173 -125.30663745924659 -4.0361829122146835
    vertex 26.09002857148173 -126.1066374592466 -4.0361829122146835
    vertex 26.09002857148173 -125.30663745924662 -4.0361829122146835
  endloop
endfacet
facet normal 0.0 0.0 1.0
  outer loop
    vertex 23.290028571481706 -124.05663745924663 -13.53618291221468
    vertex 22.29002857148171 -112.55663745924663 -13.53618291221468
    vertex 22.29002857148171 -124.05663745924663 -13.53618291221468
  endloop
endfacet
facet normal 0.0 0.0 1.0
  outer loop
    vertex 22.29002857148171 -112.55663745924663 -13.53618291221468
    vertex 23.290028571481706 -124.05663745924663 -13.53618291221468
    vertex 23.290028571481706 -112.55663745924663 -13.53618291221468
  endloop
endfacet
facet normal 0.7071067811865476 0.7071067811865476 0.0
  outer loop
    vertex 41.59002857148171 -109.50663745924662 -22.53618291221468
    vertex 42.59002857148171 -110.50663745924662 -12.536182912214683
    vertex 42.59002857148171 -110.50663745924662 -22.53618291221468
  endloop
endfacet
facet normal 0.7071067811865476 0.7071067811865476 0.0
  outer loop
    vertex 42.59002857148171 -110.50663745924662 -12.536182912214683
    vertex 41.59002857148171 -109.50663745924662 -22.53618291221468
    vertex 41.59002857148171 -109.50663745924662 -12.536182912214679
  endloop
endfacet
facet normal 0.7071067811865516 -0.7071067811865436 0.0
  outer loop
    vertex 42.59002857148171 -126.10663745924661 -22.53618291221468
    vertex 41.59002857148171 -127.10663745924661 -12.536182912214679
    vertex 41.59002857148171 -127.10663745924661 -22.53618291221468
  endloop
endfacet
facet normal 0.7071067811865516 -0.7071067811865436 0.0
  outer loop
    vertex 41.59002857148171 -127.10663745924661 -12.536182912214679
    vertex 42.59002857148171 -126.10663745924661 -22.53618291221468
    vertex 42.59002857148171 -126.10663745924661 -12.536182912214683
  endloop
endfacet
facet normal 0.0 1.0 0.0
  outer loop
    vertex 26.09002857148173 -111.30663745924662 -4.036182912214681
    vertex 40.79002857148175 -111.30663745924662 -12.536182912214683
    vertex 26.09002857148173 -111.30663745924662 -12.536182912214683
  endloop
endfacet
facet normal 0.0 1.0 0.0
  outer loop
    vertex 40.79002857148175 -111.30663745924662 -12.536182912214683
    vertex 26.09002857148173 -111.30663745924662 -4.036182912214681
    vertex 40.79002857148175 -111.30663745924662 -4.036182912214681
  endloop
endfacet
facet normal -1.0 0.0 -0.0
  outer loop
    vertex 17.290028571481706 -112.55663745924663 -3.5361829122146817
    vertex 17.290028571481706 -124.05663745924663 -13.53618291221468
    vertex 17.290028571481706 -124.05663745924663 -3.5361829122146817
  endloop
endfacet
facet normal -1.0 0.0 -0.0
  outer loop
    vertex 17.290028571481706 -124.05663745924663 -13.53618291221468
    vertex 17.290028571481706 -112.55663745924663 -3.5361829122146817
    vertex 17.290028571481706 -112.55663745924663 -13.53618291221468
  endloop
endfacet
facet normal 1.0 0.0 0.0
  outer loop
    vertex 10.29002857148171 -112.55663745924663 -13.53618291221468
    vertex 10.29002857148171 -124.05663745924663 -3.5361829122146817
    vertex 10.29002857148171 -124.05663745924663 -13.53618291221468
  endloop
endfacet
facet normal 1.0 0.0 0.0
  outer loop
    vertex 10.29002857148171 -124.05663745924663 -3.5361829122146817
    vertex 10.29002857148171 -112.55663745924663 -13.53618291221468
    vertex 10.29002857148171 -112.55663745924663 -3.5361829122146817
  endloop
endfacet
facet normal -1.0 0.0 0.0
  outer loop
    vertex 22.49002857148173 -125.30663745924659 -4.0361829122146835
    vertex 22.49002857148173 -126.1066374592466 -12.536182912214683
    vertex 22.49002857148173 -126.1066374592466 -4.0361829122146835
  endloop
endfacet
facet normal -1.0 0.0 0.0
  outer loop
    vertex 22.49002857148173 -126.1066374592466 -12.536182912214683
    vertex 22.49002857148173 -125.30663745924659 -4.0361829122146835
    vertex 22.49002857148173 -125.30663745924659 -12.536182912214683
  endloop
endfacet
facet normal 1.0 0.0 0.0
  outer loop
    vertex 26.09002857148173 -125.30663745924662 -12.536182912214683
    vertex 26.09002857148173 -126.1066374592466 -4.0361829122146835
    vertex 26.09002857148173 -126.1066374592466 -12.536182912214683
  endloop
endfacet
facet normal 1.0 0.0 0.0
  outer loop
    vertex 26.09002857148173 -126.1066374592466 -4.0361829122146835
    vertex 26.09002857148173 -125.30663745924662 -12.536182912214683
    vertex 26.09002857148173 -125.30663745924662 -4.0361829122146835
  endloop
endfacet
facet normal 0.0 0.0 1.0
  outer loop
    vertex 32.290028571481706 -124.05663745924663 -13.53618291221468
    vertex 31.29002857148171 -112.55663745924663 -13.53618291221468
    vertex 31.29002857148171 -124.05663745924663 -13.53618291221468
  endloop
endfacet
facet normal 0.0 0.0 1.0
  outer loop
    vertex 31.29002857148171 -112.55663745924663 -13.53618291221468
    vertex 32.290028571481706 -124.05663745924663 -13.53618291221468
    vertex 32.290028571481706 -112.55663745924663 -13.53618291221468
  endloop
endfacet
facet normal -1.0 1.9260001289763428e-17 1.2461385449872552e-16
  outer loop
    vertex 7.79002857148171 -111.30663745924662 -4.036182912214681
    vertex 7.790028571481709 -125.30663745924659 -12.536182912214683
    vertex 7.79002857148171 -125.30663745924659 -4.036182912214681
  endloop
endfacet
facet normal -1.0 1.9260001289763428e-17 1.2461385449872552e-16
  outer loop
    vertex 7.790028571481709 -125.30663745924659 -12.536182912214683
    vertex 7.79002857148171 -111.30663745924662 -4.036182912214681
    vertex 7.790028571481709 -111.30663745924662 -12.536182912214683
  endloop
endfacet
facet normal 0.0 -1.0 0.0
  outer loop
    vertex 41.59002857148171 -127.10663745924661 -12.536182912214679
    vertex 6.9900285714817105 -127.10663745924661 -22.536182912214674
    vertex 41.59002857148171 -127.10663745924661 -22.53618291221468
  endloop
endfacet
facet normal 0.0 -1.0 0.0
  outer loop
    vertex 6.9900285714817105 -127.10663745924661 -22.536182912214674
    vertex 41.59002857148171 -127.10663745924661 -12.536182912214679
    vertex 6.9900285714817105 -127.10663745924661 -12.536182912214683
  endloop
endfacet
facet normal 1.0 0.0 0.0
  outer loop
    vertex 40.79002857148175 -111.30663745924662 -12.536182912214683
    vertex 40.79002857148175 -125.30663745924659 -4.036182912214681
    vertex 40.79002857148175 -125.30663745924659 -12.536182912214683
  endloop
endfacet
facet normal 1.0 0.0 0.0
  outer loop
    vertex 40.79002857148175 -125.30663745924659 -4.036182912214681
    vertex 40.79002857148175 -111.30663745924662 -12.536182912214683
    vertex 40.79002857148175 -111.30663745924662 -4.036182912214681
  endloop
endfacet
facet normal 0.0 0.0 1.0
  outer loop
    vertex 26.290028571481706 -124.05663745924663 -13.53618291221468
    vertex 25.29002857148171 -112.55663745924663 -13.53618291221468
    vertex 25.29002857148171 -124.05663745924663 -13.53618291221468
  endloop
endfacet
facet normal 0.0 0.0 1.0
  outer loop
    vertex 25.29002857148171 -112.55663745924663 -13.53618291221468
    vertex 26.290028571481706 -124.05663745924663 -13.53618291221468
    vertex 26.290028571481706 -112.55663745924663 -13.53618291221468
  endloop
endfacet
facet normal 0.0 0.0 1.0
  outer loop
    vertex 14.290028571481708 -124.05663745924663 -13.53618291221468
    vertex 13.29002857148171 -112.55663745924663 -13.53618291221468
    vertex 13.29002857148171 -124.05663745924663 -13.53618291221468
  endloop
endfacet
facet normal 0.0 0.0 1.0
  outer loop
    vertex 13.29002857148171 -112.55663745924663 -13.53618291221468
    vertex 14.290028571481708 -124.05663745924663 -13.53618291221468
    vertex 14.290028571481708 -112.55663745924663 -13.53618291221468
  endloop
endfacet
facet normal 0.0 0.0 1.0
  outer loop
    vertex 20.290028571481706 -124.05663745924663 -13.53618291221468
    vertex 19.29002857148171 -112.55663745924663 -13.53618291221468
    vertex 19.29002857148171 -124.05663745924663 -13.53618291221468
  endloop
endfacet
facet normal 0.0 0.0 1.0
  outer loop
    vertex 19.29002857148171 -112.55663745924663 -13.53618291221468
    vertex 20.290028571481706 -124.05663745924663 -13.53618291221468
    vertex 20.290028571481706 -112.55663745924663 -13.53618291221468
  endloop
endfacet
facet normal -0.0 1.0 -0.0
  outer loop
    vertex 19.29002857148171 -124.05663745924663 -3.5361829122146817
    vertex 20.290028571481706 -124.05663745924663 -13.53618291221468
    vertex 19.29002857148171 -124.05663745924663 -13.53618291221468
  endloop
endfacet
facet normal -0.0 1.0 -0.0
  outer loop
    vertex 20.290028571481706 -124.05663745924663 -13.53618291221468
    vertex 19.29002857148171 -124.05663745924663 -3.5361829122146817
    vertex 20.290028571481706 -124.05663745924663 -3.5361829122146817
  endloop
endfacet
endsolid card
