solid card
facet normal 1.0 -0.0 -0.0
  outer loop
    vertex 85.45717706548326 -110.22550840546434 -22.712183310495757
    vertex 85.45717706548326 -125.82550840546432 -6.612183310495743
    vertex 85.45717706548326 -125.8255084054644 -22.712183310495757
  endloop
endfacet
facet normal 1.0 -0.0 -0.0
  outer loop
    vertex 85.45717706548326 -125.82550840546432 -6.612183310495743
    vertex 85.45717706548326 -110.22550840546434 -22.712183310495757
    vertex 85.45717706548326 -110.22550840546434 -6.612183310495777
  endloop
endfacet
facet normal -0.7071067811865556 -0.7071067811865395 9.89459804562136e-16
  outer loop
    vertex 48.85717706548326 -125.82550840546432 -6.612183310495743
    vertex 49.85717706548326 -126.82550840546436 -22.734741310495778
    vertex 49.85717706548326 -126.8255084054644 -6.612183310495754
  endloop
endfacet
facet normal -0.7071067811865556 -0.7071067811865395 9.89459804562136e-16
  outer loop
    vertex 49.85717706548326 -126.82550840546436 -22.734741310495778
    vertex 48.85717706548326 -125.82550840546432 -6.612183310495743
    vertex 48.85717706548326 -125.8255084054644 -22.73474131049573
  endloop
endfacet
facet normal -8.359672312576985e-17 2.5389487060834005e-15 1.0
  outer loop
    vertex 83.78217706548328 -110.9005084054644 -6.612183310495782
    vertex 68.95717706548328 -110.10050840546437 -6.612183310495743
    vertex 68.95717706548328 -110.9005084054644 -6.612183310495782
  endloop
endfacet
facet normal -8.359672312576985e-17 2.5389487060834005e-15 1.0
  outer loop
    vertex 49.85717706548326 -126.8255084054644 -6.612183310495754
    vertex 48.85717706548326 -110.22550840546437 -6.612183310495793
    vertex 48.85717706548326 -125.82550840546432 -6.612183310495743
  endloop
endfacet
facet normal -8.359672312576985e-17 2.5389487060834005e-15 1.0
  outer loop
    vertex 48.85717706548326 -110.22550840546437 -6.612183310495793
    vertex 49.85717706548326 -126.8255084054644 -6.612183310495754
    vertex 49.85717706548326 -109.22550840546435 -6.6121833104958
  endloop
endfacet
facet normal -8.359672312576985e-17 2.5389487060834005e-15 1.0
  outer loop
    vertex 49.85717706548326 -109.22550840546435 -6.6121833104958
    vertex 49.85717706548326 -126.8255084054644 -6.612183310495754
    vertex 50.53217706548327 -125.15050840546438 -6.612183310495765
  endloop
endfacet
facet normal -8.359672312576985e-17 2.5389487060834005e-15 1.0
  outer loop
    vertex 50.53217706548327 -125.15050840546438 -6.612183310495765
    vertex 49.85717706548326 -126.8255084054644 -6.612183310495754
    vertex 65.35717706548328 -125.9505084054644 -6.6121833104958
  endloop
endfacet
facet normal -8.359672312576985e-17 2.5389487060834005e-15 1.0
  outer loop
    vertex 65.35717706548328 -125.9505084054644 -6.6121833104958
    vertex 49.85717706548326 -126.8255084054644 -6.612183310495754
    vertex 84.45717706548326 -126.8255084054644 -6.61218331049576
  endloop
endfacet
facet normal -8.359672312576985e-17 2.5389487060834005e-15 1.0
  outer loop
    vertex 65.35717706548328 -125.9505084054644 -6.6121833104958
    vertex 84.45717706548326 -126.8255084054644 -6.61218331049576
    vertex 68.95717706548328 -125.9505084054644 -6.6121833104958
  endloop
endfacet
facet normal -8.359672312576985e-17 2.5389487060834005e-15 1.0
  outer loop
    vertex 68.95717706548328 -125.9505084054644 -6.6121833104958
    vertex 84.45717706548326 -126.8255084054644 -6.61218331049576
    vertex 68.95717706548328 -125.15050840546438 -6.612183310495765
  endloop
endfacet
facet normal -8.359672312576985e-17 2.5389487060834005e-15 1.0
  outer loop
    vertex 68.95717706548328 -125.15050840546438 -6.612183310495765
    vertex 84.45717706548326 -126.8255084054644 -6.61218331049576
    vertex 83.78217706548328 -125.15050840546438 -6.612183310495765
  endloop
endfacet
facet normal -8.359672312576985e-17 2.5389487060834005e-15 1.0
  outer loop
    vertex 83.78217706548328 -125.15050840546438 -6.612183310495765
    vertex 84.45717706548326 -126.8255084054644 -6.61218331049576
    vertex 83.78217706548328 -110.9005084054644 -6.612183310495782
  endloop
endfacet
facet normal -8.359672312576985e-17 2.5389487060834005e-15 1.0
  outer loop
    vertex 49.85717706548326 -109.22550840546435 -6.6121833104958
    vertex 65.35717706548328 -110.10050840546437 -6.612183310495743
    vertex 84.45717706548326 -109.22550840546435 -6.6121833104958
  endloop
endfacet
facet normal -8.359672312576985e-17 2.5389487060834005e-15 1.0
  outer loop
    vertex 65.35717706548328 -110.10050840546437 -6.612183310495743
    vertex 49.85717706548326 -109.22550840546435 -6.6121833104958
    vertex 50.53217706548327 -110.9005084054644 -6.612183310495782
  endloop
endfacet
facet normal -8.359672312576985e-17 2.5389487060834005e-15 1.0
  outer loop
    vertex 50.53217706548327 -110.9005084054644 -6.612183310495782
    vertex 49.85717706548326 -109.22550840546435 -6.6121833104958
    vertex 50.53217706548327 -125.15050840546438 -6.612183310495765
  endloop
endfacet
facet normal -8.359672312576985e-17 2.5389487060834005e-15 1.0
  outer loop
    vertex 65.35717706548328 -110.10050840546437 -6.612183310495743
    vertex 50.53217706548327 -110.9005084054644 -6.612183310495782
    vertex 65.35717706548328 -110.9005084054644 -6.612183310495782
  endloop
endfacet
facet normal -8.359672312576985e-17 2.5389487060834005e-15 1.0
  outer loop
    vertex 84.45717706548326 -109.22550840546435 -6.6121833104958
    vertex 65.35717706548328 -110.10050840546437 -6.612183310495743
    vertex 68.95717706548328 -110.10050840546437 -6.612183310495743
  endloop
endfacet
facet normal -8.359672312576985e-17 2.5389487060834005e-15 1.0
  outer loop
    vertex 84.45717706548326 -109.22550840546435 -6.6121833104958
    vertex 68.95717706548328 -110.10050840546437 -6.612183310495743
    vertex 83.78217706548328 -110.9005084054644 -6.612183310495782
  endloop
endfacet
facet normal -8.359672312576985e-17 2.5389487060834005e-15 1.0
  outer loop
    vertex 84.45717706548326 -109.22550840546435 -6.6121833104958
    vertex 83.78217706548328 -110.9005084054644 -6.612183310495782
    vertex 84.45717706548326 -126.8255084054644 -6.61218331049576
  endloop
endfacet
facet normal -8.359672312576985e-17 2.5389487060834005e-15 1.0
  outer loop
    vertex 84.45717706548326 -109.22550840546435 -6.6121833104958
    vertex 84.45717706548326 -126.8255084054644 -6.61218331049576
    vertex 85.45717706548326 -125.82550840546432 -6.612183310495743
  endloop
endfacet
facet normal -8.359672312576985e-17 2.5389487060834005e-15 1.0
  outer loop
    vertex 84.45717706548326 -109.22550840546435 -6.6121833104958
    vertex 85.45717706548326 -125.82550840546432 -6.612183310495743
    vertex 85.45717706548326 -110.22550840546434 -6.612183310495777
  endloop
endfacet
facet normal -8.359672312576985e-17 2.5389487060834005e-15 1.0
  outer loop
    vertex 65.35717706548328 -125.15050840546438 -6.612183310495765
    vertex 50.53217706548327 -125.15050840546438 -6.612183310495765
    vertex 65.35717706548328 -125.9505084054644 -6.6121833104958
  endloop
endfacet
facet normal 0.0003254686194259328 -4.985744550203935e-17 -0.9999999470350877
  outer loop
    vertex 49.85717706548326 -109.22550840546435 -22.734741310495775
    vertex 48.85717706548326 -125.8255084054644 -22.73474131049573
    vertex 48.85717706548326 -110.22550840546434 -22.73474131049575
  endloop
endfacet
facet normal 0.0003254686194259328 -4.985744550203935e-17 -0.9999999470350877
  outer loop
    vertex 48.85717706548326 -125.8255084054644 -22.73474131049573
    vertex 49.85717706548326 -109.22550840546435 -22.734741310495775
    vertex 49.85717706548326 -126.82550840546436 -22.734741310495778
  endloop
endfacet
facet normal 0.0003254686194259328 -4.985744550203935e-17 -0.9999999470350877
  outer loop
    vertex 49.85717706548326 -126.82550840546436 -22.734741310495778
    vertex 49.85717706548326 -109.22550840546435 -22.734741310495775
    vertex 84.45717706548326 -109.22550840546435 -22.734741310495775
  endloop
endfacet
facet normal 0.0003254686194259328 -4.985744550203935e-17 -0.9999999470350877
  outer loop
    vertex 49.85717706548326 -126.82550840546436 -22.734741310495778
    vertex 84.45717706548326 -109.22550840546435 -22.734741310495775
    vertex 84.45717706548326 -126.82550840546436 -22.734741310495785
  endloop
endfacet
facet normal 0.0003254686194259328 -4.985744550203935e-17 -0.9999999470350877
  outer loop
    vertex 84.45717706548326 -126.82550840546436 -22.734741310495785
    vertex 84.45717706548326 -109.22550840546435 -22.734741310495775
    vertex 85.45717706548326 -110.22550840546434 -22.712183310495757
  endloop
endfacet
facet normal 0.0003254686194259328 -4.985744550203935e-17 -0.9999999470350877
  outer loop
    vertex 84.45717706548326 -126.82550840546436 -22.734741310495785
    vertex 85.45717706548326 -110.22550840546434 -22.712183310495757
    vertex 85.45717706548326 -125.8255084054644 -22.712183310495757
  endloop
endfacet
facet normal -0.7071067811865515 0.7071067811865436 4.947299022810736e-16
  outer loop
    vertex 49.85717706548326 -109.22550840546435 -6.6121833104958
    vertex 48.85717706548326 -110.22550840546434 -22.73474131049575
    vertex 48.85717706548326 -110.22550840546437 -6.612183310495793
  endloop
endfacet
facet normal -0.7071067811865515 0.7071067811865436 4.947299022810736e-16
  outer loop
    vertex 48.85717706548326 -110.22550840546434 -22.73474131049575
    vertex 49.85717706548326 -109.22550840546435 -6.6121833104958
    vertex 49.85717706548326 -109.22550840546435 -22.734741310495775
  endloop
endfacet
facet normal 0.7071067811865476 0.7071067811865476 -0.0
  outer loop
    vertex 84.45717706548326 -109.22550840546435 -22.734741310495775
    vertex 85.45717706548326 -110.22550840546434 -6.612183310495777
    vertex 85.45717706548326 -110.22550840546434 -22.712183310495757
  endloop
endfacet
facet normal 0.7071067811865476 0.7071067811865476 -0.0
  outer loop
    vertex 85.45717706548326 -110.22550840546434 -6.612183310495777
    vertex 84.45717706548326 -109.22550840546435 -22.734741310495775
    vertex 84.45717706548326 -109.22550840546435 -6.6121833104958
  endloop
endfacet
facet normal -1.0 0.0 0.0
  outer loop
    vertex 83.78217706548328 -110.9005084054644 -6.612183310495782
    vertex 83.78217706548328 -125.1505084054643 -20.712183310495764
    vertex 83.78217706548328 -125.15050840546438 -6.612183310495765
  endloop
endfacet
facet normal -1.0 0.0 0.0
  outer loop
    vertex 83.78217706548328 -125.1505084054643 -20.712183310495764
    vertex 83.78217706548328 -110.9005084054644 -6.612183310495782
    vertex 83.78217706548328 -110.90050840546438 -20.712183310495764
  endloop
endfacet
facet normal 1.0 -0.0 -0.0
  outer loop
    vertex 65.35717706548328 -110.90050840546428 -16.61218331049582
    vertex 65.35717706548328 -110.10050840546437 -6.612183310495743
    vertex 65.35717706548328 -110.9005084054644 -6.612183310495782
  endloop
endfacet
facet normal 1.0 -0.0 -0.0
  outer loop
    vertex 65.35717706548328 -110.10050840546437 -6.612183310495743
    vertex 65.35717706548328 -110.90050840546428 -16.61218331049582
    vertex 65.35717706548328 -110.11903440546439 -16.612183310495787
  endloop
endfacet
facet normal -1.0 0.0 0.0
  outer loop
    vertex 68.95717706548328 -125.15050840546438 -6.612183310495765
    vertex 68.95717706548328 -125.95050840546436 -16.612183310495777
    vertex 68.95717706548328 -125.9505084054644 -6.6121833104958
  endloop
endfacet
facet normal -1.0 0.0 0.0
  outer loop
    vertex 68.95717706548328 -125.95050840546436 -16.612183310495777
    vertex 68.95717706548328 -125.15050840546438 -6.612183310495765
    vertex 68.95717706548328 -125.15050840546438 -16.612183310495762
  endloop
endfacet
facet normal -2.741634080255027e-15 -1.938726956751738e-14 1.0
  outer loop
    vertex 68.95717706548328 -125.95050840546436 -16.612183310495777
    vertex 65.35717706548328 -125.15050840546435 -16.61218331049577
    vertex 65.35717706548328 -125.95050840546433 -16.612183310495787
  endloop
endfacet
facet normal -2.741634080255027e-15 -1.938726956751738e-14 1.0
  outer loop
    vertex 65.35717706548328 -125.15050840546435 -16.61218331049577
    vertex 68.95717706548328 -125.95050840546436 -16.612183310495777
    vertex 68.95717706548328 -125.15050840546438 -16.612183310495762
  endloop
endfacet
facet normal 1.0 -0.0 -0.0
  outer loop
    vertex 65.35717706548328 -125.95050840546433 -16.612183310495787
    vertex 65.35717706548328 -125.15050840546438 -6.612183310495765
    vertex 65.35717706548328 -125.9505084054644 -6.6121833104958
  endloop
endfacet
facet normal 1.0 -0.0 -0.0
  outer loop
    vertex 65.35717706548328 -125.15050840546438 -6.612183310495765
    vertex 65.35717706548328 -125.95050840546433 -16.612183310495787
    vertex 65.35717706548328 -125.15050840546435 -16.61218331049577
  endloop
endfacet
facet normal 0.0 -0.9999982839410374 0.0018525968208306454
  outer loop
    vertex 68.95717706548328 -110.10050840546437 -6.612183310495743
    vertex 65.35717706548328 -110.11903440546439 -16.612183310495787
    vertex 68.95717706548328 -110.11903440546439 -16.612183310495787
  endloop
endfacet
facet normal 0.0 -0.9999982839410374 0.0018525968208306454
  outer loop
    vertex 65.35717706548328 -110.11903440546439 -16.612183310495787
    vertex 68.95717706548328 -110.10050840546437 -6.612183310495743
    vertex 65.35717706548328 -110.10050840546437 -6.612183310495743
  endloop
endfacet
facet normal -5.023156409585694e-31 -1.0 -2.7985300918605037e-15
  outer loop
    vertex 84.45717706548326 -126.8255084054644 -6.61218331049576
    vertex 49.85717706548326 -126.82550840546436 -22.734741310495778
    vertex 84.45717706548326 -126.82550840546436 -22.734741310495785
  endloop
endfacet
facet normal -5.023156409585694e-31 -1.0 -2.7985300918605037e-15
  outer loop
    vertex 49.85717706548326 -126.82550840546436 -22.734741310495778
    vertex 84.45717706548326 -126.8255084054644 -6.61218331049576
    vertex 49.85717706548326 -126.8255084054644 -6.612183310495754
  endloop
endfacet
facet normal -1.0 0.0 0.0
  outer loop
    vertex 48.85717706548326 -125.82550840546432 -6.612183310495743
    vertex 48.85717706548326 -110.22550840546434 -22.73474131049575
    vertex 48.85717706548326 -125.8255084054644 -22.73474131049573
  endloop
endfacet
facet normal -1.0 0.0 0.0
  outer loop
    vertex 48.85717706548326 -110.22550840546434 -22.73474131049575
    vertex 48.85717706548326 -125.82550840546432 -6.612183310495743
    vertex 48.85717706548326 -110.22550840546437 -6.612183310495793
  endloop
endfacet
facet normal -0.0 1.0 -0.0
  outer loop
    vertex 49.85717706548326 -109.22550840546435 -6.6121833104958
    vertex 84.45717706548326 -109.22550840546435 -22.734741310495775
    vertex 49.85717706548326 -109.22550840546435 -22.734741310495775
  endloop
endfacet
facet normal -0.0 1.0 -0.0
  outer loop
    vertex 84.45717706548326 -109.22550840546435 -22.734741310495775
    vertex 49.85717706548326 -109.22550840546435 -6.6121833104958
    vertex 84.45717706548326 -109.22550840546435 -6.6121833104958
  endloop
endfacet
facet normal 0.7071067811865556 -0.7071067811865395 9.886219367363948e-16
  outer loop
    vertex 84.45717706548326 -126.82550840546436 -22.734741310495785
    vertex 85.45717706548326 -125.82550840546432 -6.612183310495743
    vertex 84.45717706548326 -126.8255084054644 -6.61218331049576
  endloop
endfacet
facet normal 0.7071067811865556 -0.7071067811865395 9.886219367363948e-16
  outer loop
    vertex 85.45717706548326 -125.82550840546432 -6.612183310495743
    vertex 84.45717706548326 -126.82550840546436 -22.734741310495785
    vertex 85.45717706548326 -125.8255084054644 -22.712183310495757
  endloop
endfacet
facet normal -1.958310057325124e-15 -3.067244092786132e-14 1.0
  outer loop
    vertex 68.95717706548328 -110.90050840546432 -16.612183310495805
    vertex 65.35717706548328 -110.11903440546439 -16.612183310495787
    vertex 65.35717706548328 -110.90050840546428 -16.61218331049582
  endloop
endfacet
facet normal -1.958310057325124e-15 -3.067244092786132e-14 1.0
  outer loop
    vertex 65.35717706548328 -110.11903440546439 -16.612183310495787
    vertex 68.95717706548328 -110.90050840546432 -16.612183310495805
    vertex 68.95717706548328 -110.11903440546439 -16.612183310495787
  endloop
endfacet
facet normal -1.0 0.0 0.0
  outer loop
    vertex 68.95717706548328 -110.10050840546437 -6.612183310495743
    vertex 68.95717706548328 -110.90050840546432 -16.612183310495805
    vertex 68.95717706548328 -110.9005084054644 -6.612183310495782
  endloop
endfacet
facet normal -1.0 0.0 0.0
  outer loop
    vertex 68.95717706548328 -110.90050840546432 -16.612183310495805
    vertex 68.95717706548328 -110.10050840546437 -6.612183310495743
    vertex 68.95717706548328 -110.11903440546439 -16.612183310495787
  endloop
endfacet
facet normal 3.630460482349706e-17 1.0 5.035670824425163e-15
  outer loop
    vertex 50.53217706548327 -125.1505084054643 -20.712183310495764
    vertex 65.35717706548328 -125.15050840546435 -16.61218331049577
    vertex 83.78217706548328 -125.1505084054643 -20.712183310495764
  endloop
endfacet
facet normal 3.630460482349706e-17 1.0 5.035670824425163e-15
  outer loop
    vertex 65.35717706548328 -125.15050840546435 -16.61218331049577
    vertex 50.53217706548327 -125.1505084054643 -20.712183310495764
    vertex 50.53217706548327 -125.15050840546438 -6.612183310495765
  endloop
endfacet
facet normal 3.630460482349706e-17 1.0 5.035670824425163e-15
  outer loop
    vertex 65.35717706548328 -125.15050840546435 -16.61218331049577
    vertex 50.53217706548327 -125.15050840546438 -6.612183310495765
    vertex 65.35717706548328 -125.15050840546438 -6.612183310495765
  endloop
endfacet
facet normal 3.630460482349706e-17 1.0 5.035670824425163e-15
  outer loop
    vertex 83.78217706548328 -125.1505084054643 -20.712183310495764
    vertex 68.95717706548328 -125.15050840546438 -16.612183310495762
    vertex 83.78217706548328 -125.15050840546438 -6.612183310495765
  endloop
endfacet
facet normal 3.630460482349706e-17 1.0 5.035670824425163e-15
  outer loop
    vertex 68.95717706548328 -125.15050840546438 -16.612183310495762
    vertex 83.78217706548328 -125.1505084054643 -20.712183310495764
    vertex 65.35717706548328 -125.15050840546435 -16.61218331049577
  endloop
endfacet
facet normal 3.630460482349706e-17 1.0 5.035670824425163e-15
  outer loop
    vertex 83.78217706548328 -125.15050840546438 -6.612183310495765
    vertex 68.95717706548328 -125.15050840546438 -16.612183310495762
    vertex 68.95717706548328 -125.15050840546438 -6.612183310495765
  endloop
endfacet
facet normal 3.133296091719883e-15 1.0 5.639932965095805e-15
  outer loop
    vertex 65.35717706548328 -125.9505084054644 -6.6121833104958
    vertex 68.95717706548328 -125.95050840546436 -16.612183310495777
    vertex 65.35717706548328 -125.95050840546433 -16.612183310495787
  endloop
endfacet
facet normal 3.133296091719883e-15 1.0 5.639932965095805e-15
  outer loop
    vertex 68.95717706548328 -125.95050840546436 -16.612183310495777
    vertex 65.35717706548328 -125.9505084054644 -6.6121833104958
    vertex 68.95717706548328 -125.9505084054644 -6.6121833104958
  endloop
endfacet
facet normal -0.0 1.9789238474020445e-16 1.0
  outer loop
    vertex 83.78217706548328 -125.1505084054643 -20.712183310495764
    vertex 50.53217706548327 -110.90050840546438 -20.712183310495764
    vertex 50.53217706548327 -125.1505084054643 -20.712183310495764
  endloop
endfacet
facet normal -0.0 1.9789238474020445e-16 1.0
  outer loop
    vertex 50.53217706548327 -110.90050840546438 -20.712183310495764
    vertex 83.78217706548328 -125.1505084054643 -20.712183310495764
    vertex 83.78217706548328 -110.90050840546438 -20.712183310495764
  endloop
endfacet
facet normal 1.0 -0.0 -0.0
  outer loop
    vertex 50.53217706548327 -125.1505084054643 -20.712183310495764
    vertex 50.53217706548327 -110.9005084054644 -6.612183310495782
    vertex 50.53217706548327 -125.15050840546438 -6.612183310495765
  endloop
endfacet
facet normal 1.0 -0.0 -0.0
  outer loop
    vertex 50.53217706548327 -110.9005084054644 -6.612183310495782
    vertex 50.53217706548327 -125.1505084054643 -20.712183310495764
    vertex 50.53217706548327 -110.90050840546438 -20.712183310495764
  endloop
endfacet
facet normal -7.2609209646993e-17 -1.0 -3.5211143424161517e-15
  outer loop
    vertex 83.78217706548328 -110.90050840546438 -20.712183310495764
    vertex 68.95717706548328 -110.90050840546432 -16.612183310495805
    vertex 50.53217706548327 -110.90050840546438 -20.712183310495764
  endloop
endfacet
facet normal -7.2609209646993e-17 -1.0 -3.5211143424161517e-15
  outer loop
    vertex 68.95717706548328 -110.90050840546432 -16.612183310495805
    vertex 83.78217706548328 -110.90050840546438 -20.712183310495764
    vertex 83.78217706548328 -110.9005084054644 -6.612183310495782
  endloop
endfacet
facet normal -7.2609209646993e-17 -1.0 -3.5211143424161517e-15
  outer loop
    vertex 50.53217706548327 -110.90050840546438 -20.712183310495764
    vertex 68.95717706548328 -110.90050840546432 -16.612183310495805
    vertex 65.35717706548328 -110.90050840546428 -16.61218331049582
  endloop
endfacet
facet normal -7.2609209646993e-17 -1.0 -3.5211143424161517e-15
  outer loop
    vertex 68.95717706548328 -110.90050840546432 -16.612183310495805
    vertex 83.78217706548328 -110.9005084054644 -6.612183310495782
    vertex 68.95717706548328 -110.9005084054644 -6.612183310495782
  endloop
endfacet
facet normal -7.2609209646993e-17 -1.0 -3.5211143424161517e-15
  outer loop
    vertex 65.35717706548328 -110.90050840546428 -16.61218331049582
    vertex 50.53217706548327 -110.9005084054644 -6.612183310495782
    vertex 50.53217706548327 -110.90050840546438 -20.712183310495764
  endloop
endfacet
facet normal -7.2609209646993e-17 -1.0 -3.5211143424161517e-15
  outer loop
    vertex 50.53217706548327 -110.9005084054644 -6.612183310495782
    vertex 65.35717706548328 -110.90050840546428 -16.61218331049582
    vertex 65.35717706548328 -110.9005084054644 -6.612183310495782
  endloop
endfacet
endsolid card
