                                                                        S      1
,,,6HHandle,22HAutoCAD 2022 - English,62HAutodesk Translation Framework G      1
DWG producer (atf_dwg_producer),32,38,7,99,15,,1.,2,2HMM,1,0.08,15H20220G      2
120.230552,0.01,10000.,,7Hunknown,11,0,15H20210411.131402;              G      3
     186       1                       1                        00000000D      1
     186            -105       1       0                               0D      2
     514       2                                                00010000D      3
     514                       1       1                               0D      4
     510       3                                                00010000D      5
     510            -105       1       1                               0D      6
     510       4                                                00010000D      7
     510            -105       1       1                               0D      8
     510       5                                                00010000D      9
     510            -105       1       1                               0D     10
     510       6                                                00010000D     11
     510            -105       1       1                               0D     12
     510       7                                                00010000D     13
     510            -105       1       1                               0D     14
     510       8                                                00010000D     15
     510            -105       1       1                               0D     16
     510       9                                                00010000D     17
     510            -105       1       1                               0D     18
     510      10                                                00010000D     19
     510            -105       1       1                               0D     20
     508      11                                                00010000D     21
     508                       1       1                               0D     22
     508      12                                                00010000D     23
     508                       1       1                               0D     24
     508      13                                                00010000D     25
     508                       1       1                               0D     26
     508      14                                                00010000D     27
     508                       1       1                               0D     28
     508      15                                                00010000D     29
     508                       1       1                               0D     30
     508      16                                                00010000D     31
     508                       1       1                               0D     32
     508      17                                                00010000D     33
     508                       1       1                               0D     34
     508      18                                                00010000D     35
     508                       1       1                               0D     36
     508      19                                                00010000D     37
     508                       1       1                               0D     38
     508      20                                                00010000D     39
     508                       1       1                               0D     40
     508      21                                                00010000D     41
     508                       1       1                               0D     42
     508      22                                                00010000D     43
     508                       1       1                               0D     44
     126      23                                                00010000D     45
     126       0               3       0                               0D     46
     126      26                                                00010000D     47
     126       0               3       0                               0D     48
     126      29                                                00010000D     49
     126       0               3       0                               0D     50
     126      32                                                00010000D     51
     126       0               3       0                               0D     52
     126      35                                                00010000D     53
     126       0               3       0                               0D     54
     126      38                                                00010000D     55
     126       0               9       0                               0D     56
     126      47                                                00010000D     57
     126       0               7       0                               0D     58
     126      54                                                00010000D     59
     126       0              12       0                               0D     60
     126      66                                                00010000D     61
     126       0              13       0                               0D     62
     126      79                                                00010000D     63
     126       0               3       0                               0D     64
     126      82                                                00010000D     65
     126       0               3       0                               0D     66
     126      85                                                00010000D     67
     126       0               3       0                               0D     68
     126      88                                                00010000D     69
     126       0               7       0                               0D     70
     126      95                                                00010000D     71
     126       0               8       0                               0D     72
     126     103                                                00010000D     73
     126       0              13       0                               0D     74
     126     116                                                00010000D     75
     126       0              12       0                               0D     76
     126     128                                                00010000D     77
     126       0               5       0                               0D     78
     126     133                                                00010000D     79
     126       0               5       0                               0D     80
     128     138                                                00010000D     81
     128       0    -105       6       0                               0D     82
     128     144                                                00010000D     83
     128       0    -105       7       0                               0D     84
     128     151                                                00010000D     85
     128       0    -105       6       0                               0D     86
     128     157                                                00010000D     87
     128       0    -105       7       0                               0D     88
     128     164                                                00010000D     89
     128       0    -105      22       0                               0D     90
     128     186                                                00010000D     91
     128       0    -105      14       0                               0D     92
     128     200                                                00010000D     93
     128       0    -105      23       0                               0D     94
     128     223                                                00010000D     95
     128       0    -105      15       0                               0D     96
     502     238                                                00010000D     97
     502                       9       1                               0D     98
     504     247                                                00010001D     99
     504                       4       1                               0D    100
     406     251                                                00000000D    101
     406                       1      15                               0D    102
     406     252                       1                        00000000D    103
     406            -105       1       3                               0D    104
     314     253                                                00000200D    105
     314                       1       0                               0D    106
186,3,1,0,0,1,101;                                                     1P      1
514,8,5,1,7,1,9,1,11,1,13,1,15,1,17,1,19,1;                            3P      2
510,81,1,1,21;                                                         5P      3
510,83,3,1,23,25,27;                                                   7P      4
510,85,1,1,29;                                                         9P      5
510,87,3,1,31,33,35;                                                  11P      6
510,89,1,1,37;                                                        13P      7
510,91,1,1,39;                                                        15P      8
510,93,1,1,41;                                                        17P      9
510,95,1,1,43;                                                        19P     10
508,4,0,99,1,0,0,0,99,2,1,0,0,99,3,0,0,0,99,4,0,0;                    21P     11
508,4,0,99,5,1,0,0,99,6,1,0,0,99,3,1,0,0,99,7,1,0;                    23P     12
508,1,0,99,8,1,0;                                                     25P     13
508,1,0,99,9,1,0;                                                     27P     14
508,4,0,99,10,0,0,0,99,11,1,0,0,99,5,0,0,0,99,12,0,0;                 29P     15
508,4,0,99,10,1,0,0,99,13,1,0,0,99,1,1,0,0,99,14,1,0;                 31P     16
508,1,0,99,15,1,0;                                                    33P     17
508,1,0,99,16,1,0;                                                    35P     18
508,4,0,99,16,0,0,0,99,17,1,0,0,99,8,0,0,0,99,17,0,0;                 37P     19
508,4,0,99,2,0,0,0,99,13,0,0,0,99,12,1,0,0,99,7,0,0;                  39P     20
508,4,0,99,15,0,0,0,99,18,1,0,0,99,9,0,0,0,99,18,0,0;                 41P     21
508,4,0,99,4,1,0,0,99,6,0,0,0,99,11,0,0,0,99,14,0,0;                  43P     22
126,1,1,0,0,1,0,0.,0.,187.999999986816,187.999999986816,1.,1.,        45P     23
93.999999993381,4.49999999999264,235.6,-93.9999999934352,             45P     24
4.49999999999263,235.6,0.,187.999999986816,0.,0.,0.;                  45P     25
126,1,1,0,0,1,0,0.,0.,4.,4.,1.,1.,93.999999993381,                    47P     26
4.49999999999264,235.6,93.999999993381,4.49999999999264,231.6,        47P     27
0.,4.,0.,0.,0.;                                                       47P     28
126,1,1,0,0,1,0,-187.999999986816,-187.999999986816,0.,0.,1.,1.,      49P     29
-93.9999999934352,4.49999999999263,231.6,93.999999993381,             49P     30
4.49999999999264,231.6,-187.999999986816,0.,0.,0.,0.;                 49P     31
126,1,1,0,0,1,0,0.,0.,4.,4.,1.,1.,-93.9999999934352,                  51P     32
4.49999999999263,235.6,-93.9999999934352,4.49999999999263,231.6,      51P     33
0.,4.,0.,0.,0.;                                                       51P     34
126,1,1,0,0,1,0,-187.999999986816,-187.999999986816,0.,0.,1.,1.,      53P     35
93.999999993381,-4.50000000000735,231.6,-93.9999999934352,            53P     36
-4.50000000000734,231.6,-187.999999986816,0.,0.,0.,0.;                53P     37
126,4,2,0,0,0,0,3.14159265358979,3.14159265358979,                    55P     38
3.14159265358979,4.71238898038469,4.71238898038469,                   55P     39
6.28318530717959,6.28318530717959,6.28318530717959,1.,                55P     40
0.707106781186546,1.,0.707106781186546,1.,-93.9999999934352,          55P     41
-4.50000000000734,231.6,-98.4999999934352,-4.50000000000734,          55P     42
231.6,-98.4999999934352,-7.34483690172967D-12,231.6,                  55P     43
-98.4999999934352,4.49999999999265,231.6,-93.9999999934352,           55P     44
4.49999999999266,231.6,3.14159265358979,6.28318530717959,0.,0.,       55P     45
0.;                                                                   55P     46
126,4,2,0,0,0,0,0.,0.,0.,1.5707963267949,1.5707963267949,             57P     47
3.14159265358979,3.14159265358979,3.14159265358979,1.,                57P     48
0.707106781186546,1.,0.707106781186546,1.,93.999999993381,            57P     49
4.49999999999265,231.6,98.499999993381,4.49999999999265,231.6,        57P     50
98.499999993381,-7.34618525117001D-12,231.6,98.499999993381,          57P     51
-4.50000000000735,231.6,93.999999993381,-4.50000000000735,231.6,      57P     52
0.,3.14159265358979,0.,0.,0.;                                         57P     53
126,8,2,0,1,0,0,-3.14159265358979,-3.14159265358979,                  59P     54
-3.14159265358979,-1.5707963267949,-1.5707963267949,0.,0.,            59P     55
1.5707963267949,1.5707963267949,3.14159265358979,                     59P     56
3.14159265358979,3.14159265358979,1.,0.707106781186551,1.,            59P     57
0.707106781186551,1.,0.707106781186551,1.,0.707106781186551,1.,       59P     58
95.599999993381,-7.34726003348142D-12,231.6,95.599999993381,          59P     59
1.59999999999265,231.6,93.999999993381,1.59999999999265,231.6,        59P     60
92.399999993381,1.59999999999265,231.6,92.399999993381,               59P     61
-7.34701188775943D-12,231.6,92.399999993381,-1.60000000000734,        59P     62
231.6,93.999999993381,-1.60000000000734,231.6,95.599999993381,        59P     63
-1.60000000000734,231.6,95.599999993381,-7.34765192045715D-12,        59P     64
231.6,-3.14159265358979,3.14159265358979,0.,0.,0.;                    59P     65
126,8,2,0,1,0,0,-3.14159265358979,-3.14159265358979,                  61P     66
-3.14159265358979,-1.5707963267949,-1.5707963267949,0.,0.,            61P     67
1.5707963267949,1.5707963267949,3.14159265358979,                     61P     68
3.14159265358979,3.14159265358979,1.,0.707106781186551,1.,            61P     69
0.707106781186551,1.,0.707106781186551,1.,0.707106781186551,1.,       61P     70
-92.3999999934352,-7.34370731980262D-12,231.6,-92.3999999934352,      61P     71
1.59999999999265,231.6,-93.9999999934352,1.59999999999265,231.6,      61P     72
-95.5999999934352,1.59999999999265,231.6,-95.5999999934352,           61P     73
-7.34345917408063D-12,231.6,-95.5999999934352,-1.60000000000734,      61P     74
231.6,-93.9999999934352,-1.60000000000734,231.6,                      61P     75
-92.3999999934352,-1.60000000000734,231.6,-92.3999999934352,          61P     76
-7.34409920677835D-12,231.6,-3.14159265358979,3.14159265358979,       61P     77
0.,0.,0.;                                                             61P     78
126,1,1,0,0,1,0,0.,0.,187.999999986816,187.999999986816,1.,1.,        63P     79
-93.9999999934352,-4.50000000000734,235.6,93.999999993381,            63P     80
-4.50000000000735,235.6,0.,187.999999986816,0.,0.,0.;                 63P     81
126,1,1,0,0,1,0,0.,0.,4.,4.,1.,1.,-93.9999999934352,                  65P     82
-4.50000000000734,235.6,-93.9999999934352,-4.50000000000734,          65P     83
231.6,0.,4.,0.,0.,0.;                                                 65P     84
126,1,1,0,0,1,0,0.,0.,4.,4.,1.,1.,93.999999993381,                    67P     85
-4.50000000000735,235.6,93.999999993381,-4.50000000000735,231.6,      67P     86
0.,4.,0.,0.,0.;                                                       67P     87
126,4,2,0,0,0,0,-3.14159265358979,-3.14159265358979,                  69P     88
-3.14159265358979,-1.5707963267949,-1.5707963267949,0.,0.,0.,1.,      69P     89
0.707106781186546,1.,0.707106781186546,1.,93.999999993381,            69P     90
-4.50000000000735,235.6,98.499999993381,-4.50000000000735,235.6,      69P     91
98.499999993381,-7.34618525117001D-12,235.6,98.499999993381,          69P     92
4.49999999999265,235.6,93.999999993381,4.49999999999265,235.6,        69P     93
-3.14159265358979,0.,0.,0.,0.;                                        69P     94
126,4,2,0,0,0,0,-6.3159354289787D-15,-6.3159354289787D-15,            71P     95
-6.3159354289787D-15,1.57079632679489,1.57079632679489,               71P     96
3.14159265358979,3.14159265358979,3.14159265358979,1.,                71P     97
0.707106781186545,1.,0.70710678118655,1.,-93.9999999934352,           71P     98
4.49999999999266,235.6,-98.4999999934352,4.49999999999268,235.6,      71P     99
-98.4999999934352,-7.32974590950016D-12,235.6,-98.4999999934352,      71P    100
-4.50000000000734,235.6,-93.9999999934352,-4.50000000000734,          71P    101
235.6,-6.3159354289787D-15,3.14159265358979,0.,0.,0.;                 71P    102
126,8,2,0,1,0,0,-3.14159265358979,-3.14159265358979,                  73P    103
-3.14159265358979,-1.5707963267949,-1.5707963267949,0.,0.,            73P    104
1.5707963267949,1.5707963267949,3.14159265358979,                     73P    105
3.14159265358979,3.14159265358979,1.,0.707106781186551,1.,            73P    106
0.707106781186551,1.,0.707106781186551,1.,0.707106781186551,1.,       73P    107
-92.3999999934352,-7.34409920677835D-12,235.6,-92.3999999934352,      73P    108
-1.60000000000734,235.6,-93.9999999934352,-1.60000000000734,          73P    109
235.6,-95.5999999934352,-1.60000000000734,235.6,                      73P    110
-95.5999999934352,-7.34345917408063D-12,235.6,-95.5999999934352,      73P    111
1.59999999999265,235.6,-93.9999999934352,1.59999999999265,235.6,      73P    112
-92.3999999934352,1.59999999999265,235.6,-92.3999999934352,           73P    113
-7.34370731980262D-12,235.6,-3.14159265358979,3.14159265358979,       73P    114
0.,0.,0.;                                                             73P    115
126,8,2,0,1,0,0,-3.14159265358979,-3.14159265358979,                  75P    116
-3.14159265358979,-1.5707963267949,-1.5707963267949,0.,0.,            75P    117
1.5707963267949,1.5707963267949,3.14159265358979,                     75P    118
3.14159265358979,3.14159265358979,1.,0.707106781186551,1.,            75P    119
0.707106781186551,1.,0.707106781186551,1.,0.707106781186551,1.,       75P    120
95.599999993381,-7.34765192045715D-12,235.6,95.599999993381,          75P    121
-1.60000000000734,235.6,93.999999993381,-1.60000000000734,235.6,      75P    122
92.399999993381,-1.60000000000734,235.6,92.399999993381,              75P    123
-7.34701188775943D-12,235.6,92.399999993381,1.59999999999265,         75P    124
235.6,93.999999993381,1.59999999999265,235.6,95.599999993381,         75P    125
1.59999999999265,235.6,95.599999993381,-7.34726003348142D-12,         75P    126
235.6,-3.14159265358979,3.14159265358979,0.,0.,0.;                    75P    127
126,1,1,0,0,1,0,0.625000000000002,0.625000000000002,                  77P    128
3.12500000000005,3.12500000000005,1.,1.,95.599999993381,              77P    129
-7.34745597696928D-12,235.6,95.599999993381,                          77P    130
-7.34745597696928D-12,231.6,0.625000000000002,3.12500000000005,       77P    131
0.,0.,0.;                                                             77P    132
126,1,1,0,0,1,0,0.625000000000002,0.625000000000002,                  79P    133
3.12500000000005,3.12500000000005,1.,1.,-92.3999999934352,            79P    134
-7.34390326329048D-12,235.6,-92.3999999934352,                        79P    135
-7.34390326329048D-12,231.6,0.625000000000002,3.12500000000005,       79P    136
0.,0.,0.;                                                             79P    137
128,1,1,1,1,0,0,1,0,0,-0.001,-0.001,188.000999986816,                 81P    138
188.000999986816,-0.001,-0.001,4.001,4.001,1.,1.,1.,1.,               81P    139
-94.0009999934352,4.49999999999263,235.601,94.000999993381,           81P    140
4.49999999999264,235.601,-94.0009999934352,4.49999999999263,          81P    141
231.599,94.000999993381,4.49999999999264,231.599,-0.001,              81P    142
188.000999986816,-0.001,4.001;                                        81P    143
128,1,1,1,1,0,0,1,0,0,-98.5009999934081,-98.5009999934081,            83P    144
98.5009999934081,98.5009999934081,-4.50099999999999,                  83P    145
-4.50099999999999,4.50100000000001,4.50100000000001,1.,1.,1.,1.,      83P    146
98.500999993381,-4.50100000000735,231.6,-98.5009999934352,            83P    147
-4.50100000000735,231.6,98.500999993381,4.50099999999266,231.6,       83P    148
-98.5009999934352,4.50099999999266,231.6,-98.5009999934081,           83P    149
98.5009999934081,-4.50099999999999,4.50100000000001;                  83P    150
128,1,1,1,1,0,0,1,0,0,-0.001,-0.001,188.000999986816,                 85P    151
188.000999986816,-0.001,-0.001,4.001,4.001,1.,1.,1.,1.,               85P    152
94.000999993381,-4.50000000000735,235.601,-94.0009999934352,          85P    153
-4.50000000000734,235.601,94.000999993381,-4.50000000000735,          85P    154
231.599,-94.0009999934352,-4.50000000000734,231.599,-0.001,           85P    155
188.000999986816,-0.001,4.001;                                        85P    156
128,1,1,1,1,0,0,1,0,0,-98.5009999934081,-98.5009999934081,            87P    157
98.5009999934081,98.5009999934081,-4.501,-4.501,                      87P    158
4.50100000000003,4.50100000000003,1.,1.,1.,1.,-98.5009999934352,      87P    159
-4.50100000000735,235.6,98.500999993381,-4.50100000000735,235.6,      87P    160
-98.5009999934352,4.50099999999268,235.6,98.500999993381,             87P    161
4.50099999999268,235.6,-98.5009999934081,98.5009999934081,            87P    162
-4.501,4.50100000000003;                                              87P    163
128,1,8,1,2,0,1,0,0,1,0.625000000000002,0.625000000000002,            89P    164
3.12500000000005,3.12500000000005,-3.14159265358979,                  89P    165
-3.14159265358979,-3.14159265358979,-1.5707963267949,                 89P    166
-1.5707963267949,0.,0.,1.5707963267949,1.5707963267949,               89P    167
3.14159265358979,3.14159265358979,3.14159265358979,1.,1.,             89P    168
0.707106781186548,0.707106781186548,1.,1.,0.707106781186548,          89P    169
0.707106781186548,1.,1.,0.707106781186548,0.707106781186548,1.,       89P    170
1.,0.707106781186548,0.707106781186548,1.,1.,95.599999993381,         89P    171
-7.34745597696928D-12,235.6,95.599999993381,                          89P    172
-7.34745597696928D-12,231.6,95.599999993381,-1.60000000000734,        89P    173
235.6,95.599999993381,-1.60000000000734,231.6,93.999999993381,        89P    174
-1.60000000000734,235.6,93.999999993381,-1.60000000000734,231.6,      89P    175
92.399999993381,-1.60000000000734,235.6,92.399999993381,              89P    176
-1.60000000000734,231.6,92.399999993381,-7.34701188775943D-12,        89P    177
235.6,92.399999993381,-7.34701188775943D-12,231.6,                    89P    178
92.399999993381,1.59999999999265,235.6,92.399999993381,               89P    179
1.59999999999265,231.6,93.999999993381,1.59999999999265,235.6,        89P    180
93.999999993381,1.59999999999265,231.6,95.599999993381,               89P    181
1.59999999999265,235.6,95.599999993381,1.59999999999265,231.6,        89P    182
95.599999993381,-7.34745597696928D-12,235.6,95.599999993381,          89P    183
-7.34745597696928D-12,231.6,0.625000000000002,3.12500000000005,       89P    184
-3.14159265358979,3.14159265358979;                                   89P    185
128,1,4,1,2,0,0,0,0,0,-0.17777777777778,-0.17777777777778,            91P    186
0.711111111111115,0.711111111111115,-3.14159265358979,                91P    187
-3.14159265358979,-3.14159265358979,-1.5707963267949,                 91P    188
-1.5707963267949,-1.22464679914735D-16,-1.22464679914735D-16,         91P    189
-1.22464679914735D-16,1.,1.,0.707106781186548,0.707106781186548,      91P    190
1.,1.,0.707106781186548,0.707106781186548,1.,1.,93.999999993381,      91P    191
-4.50000000000735,235.6,93.999999993381,-4.50000000000735,231.6,      91P    192
98.499999993381,-4.50000000000735,235.6,98.499999993381,              91P    193
-4.50000000000735,231.6,98.499999993381,-7.34701188775943D-12,        91P    194
235.6,98.499999993381,-7.34701188775943D-12,231.6,                    91P    195
98.499999993381,4.49999999999265,235.6,98.499999993381,               91P    196
4.49999999999265,231.6,93.999999993381,4.49999999999265,235.6,        91P    197
93.999999993381,4.49999999999265,231.6,-0.17777777777778,             91P    198
0.711111111111115,-3.14159265358979,-1.22464679914735D-16;            91P    199
128,1,8,1,2,0,1,0,0,1,0.625000000000002,0.625000000000002,            93P    200
3.12500000000005,3.12500000000005,-3.14159265358979,                  93P    201
-3.14159265358979,-3.14159265358979,-1.5707963267949,                 93P    202
-1.5707963267949,0.,0.,1.5707963267949,1.5707963267949,               93P    203
3.14159265358979,3.14159265358979,3.14159265358979,1.,1.,             93P    204
0.707106781186548,0.707106781186548,1.,1.,0.707106781186548,          93P    205
0.707106781186548,1.,1.,0.707106781186548,0.707106781186548,1.,       93P    206
1.,0.707106781186548,0.707106781186548,1.,1.,-92.3999999934352,       93P    207
-7.34390326329048D-12,235.6,-92.3999999934352,                        93P    208
-7.34390326329048D-12,231.6,-92.3999999934352,-1.60000000000734,      93P    209
235.6,-92.3999999934352,-1.60000000000734,231.6,                      93P    210
-93.9999999934352,-1.60000000000734,235.6,-93.9999999934352,          93P    211
-1.60000000000734,231.6,-95.5999999934352,-1.60000000000734,          93P    212
235.6,-95.5999999934352,-1.60000000000734,231.6,                      93P    213
-95.5999999934352,-7.34345917408063D-12,235.6,-95.5999999934352,      93P    214
-7.34345917408063D-12,231.6,-95.5999999934352,1.59999999999265,       93P    215
235.6,-95.5999999934352,1.59999999999265,231.6,                       93P    216
-93.9999999934352,1.59999999999265,235.6,-93.9999999934352,           93P    217
1.59999999999265,231.6,-92.3999999934352,1.59999999999265,235.6,      93P    218
-92.3999999934352,1.59999999999265,231.6,-92.3999999934352,           93P    219
-7.34390326329048D-12,235.6,-92.3999999934352,                        93P    220
-7.34390326329048D-12,231.6,0.625000000000002,3.12500000000005,       93P    221
-3.14159265358979,3.14159265358979;                                   93P    222
128,1,4,1,2,0,0,0,0,0,-0.17777777777778,-0.17777777777778,            95P    223
0.711111111111115,0.711111111111115,-6.43840010889344D-15,            95P    224
-6.43840010889344D-15,-6.43840010889344D-15,1.57079632679489,         95P    225
1.57079632679489,3.14159265358979,3.14159265358979,                   95P    226
3.14159265358979,1.,1.,0.707106781186546,0.707106781186546,1.,        95P    227
1.,0.707106781186546,0.707106781186546,1.,1.,-93.9999999934352,       95P    228
4.49999999999266,235.6,-93.9999999934352,4.49999999999266,231.6,      95P    229
-98.4999999934352,4.49999999999266,235.6,-98.4999999934352,           95P    230
4.49999999999266,231.6,-98.4999999934352,-7.34345917408063D-12,       95P    231
235.6,-98.4999999934352,-7.34345917408063D-12,231.6,                  95P    232
-98.4999999934352,-4.50000000000735,235.6,-98.4999999934352,          95P    233
-4.50000000000735,231.6,-93.9999999934352,-4.50000000000734,          95P    234
235.6,-93.9999999934352,-4.50000000000734,231.6,                      95P    235
-0.17777777777778,0.711111111111115,-6.43840010889344D-15,            95P    236
3.14159265358979;                                                     95P    237
502,12,93.999999993381,4.49999999999264,235.6,-93.9999999934352,      97P    238
4.49999999999263,235.6,93.999999993381,4.49999999999264,231.6,        97P    239
-93.9999999934352,4.49999999999263,231.6,93.999999993381,             97P    240
-4.50000000000735,231.6,-93.9999999934352,-4.50000000000734,          97P    241
231.6,95.599999993381,-7.34726003348142D-12,231.6,                    97P    242
-92.3999999934352,-7.34370731980262D-12,231.6,-93.9999999934352,      97P    243
-4.50000000000734,235.6,93.999999993381,-4.50000000000735,235.6,      97P    244
-92.3999999934352,-7.34370731980262D-12,235.6,95.599999993381,        97P    245
-7.34726003348142D-12,235.6;                                          97P    246
504,18,45,97,1,97,2,47,97,1,97,3,49,97,4,97,3,51,97,2,97,4,53,        99P    247
97,5,97,6,55,97,6,97,4,57,97,3,97,5,59,97,7,97,7,61,97,8,97,8,        99P    248
63,97,9,97,10,65,97,9,97,6,67,97,10,97,5,69,97,10,97,1,71,97,2,       99P    249
97,9,73,97,11,97,11,75,97,12,97,12,77,97,12,97,7,79,97,11,97,8;       99P    250
406,1,2H73;                                                          101P    251
406,2,0,6HHandle;                                                    103P    252
314,100.,100.,100.,;                                                 105P    253
S      1G      3D    106P    253                                        T      1
