                                                                        S      1
,,,20HKicker Copper Back 2,22HAutoCAD 2022 - English,62HAutodesk TranslaG      1
tion Framework DWG producer (atf_dwg_producer),32,38,7,99,15,,1.,2,2HMM,G      2
1,0.08,15H20220115.123135,0.01,10000.,,7Hunknown,11,0,15H20210411.131402G      3
;                                                                       G      4
     186       1                       1                        00000000D      1
     186             -83       1       0                               0D      2
     514       2                                                00010000D      3
     514                       1       1                               0D      4
     510       3                                                00010000D      5
     510             -83       1       1                               0D      6
     510       4                                                00010000D      7
     510             -83       1       1                               0D      8
     510       5                                                00010000D      9
     510             -83       1       1                               0D     10
     510       6                                                00010000D     11
     510             -83       1       1                               0D     12
     510       7                                                00010000D     13
     510             -83       1       1                               0D     14
     510       8                                                00010000D     15
     510             -83       1       1                               0D     16
     508       9                                                00010000D     17
     508                       1       1                               0D     18
     508      10                                                00010000D     19
     508                       1       1                               0D     20
     508      11                                                00010000D     21
     508                       2       1                               0D     22
     508      13                                                00010000D     23
     508                       1       1                               0D     24
     508      14                                                00010000D     25
     508                       1       1                               0D     26
     508      15                                                00010000D     27
     508                       1       1                               0D     28
     508      16                                                00010000D     29
     508                       1       1                               0D     30
     508      17                                                00010000D     31
     508                       2       1                               0D     32
     508      19                                                00010000D     33
     508                       2       1                               0D     34
     126      21                                                00010000D     35
     126       0              15       0                               0D     36
     126      36                                                00010000D     37
     126       0               8       0                               0D     38
     126      44                                                00010000D     39
     126       0              10       0                               0D     40
     126      54                                                00010000D     41
     126       0               8       0                               0D     42
     126      62                                                00010000D     43
     126       0              10       0                               0D     44
     126      72                                                00010000D     45
     126       0               4       0                               0D     46
     126      76                                                00010000D     47
     126       0              15       0                               0D     48
     126      91                                                00010000D     49
     126       0              10       0                               0D     50
     126     101                                                00010000D     51
     126       0              10       0                               0D     52
     126     111                                                00010000D     53
     126       0              15       0                               0D     54
     126     126                                                00010000D     55
     126       0               5       0                               0D     56
     126     131                                                00010000D     57
     126       0               4       0                               0D     58
     126     135                                                00010000D     59
     126       0               5       0                               0D     60
     126     140                                                00010000D     61
     126       0               5       0                               0D     62
     128     145                                                00010000D     63
     128       0     -83       9       0                               0D     64
     128     154                                                00010000D     65
     128       0     -83      26       0                               0D     66
     128     180                                                00010000D     67
     128       0     -83       9       0                               0D     68
     128     189                                                00010000D     69
     128       0     -83       9       0                               0D     70
     128     198                                                00010000D     71
     128       0     -83      26       0                               0D     72
     128     224                                                00010000D     73
     128       0     -83      27       0                               0D     74
     502     251                                                00010000D     75
     502                      11       1                               0D     76
     504     262                                                00010001D     77
     504                       4       1                               0D     78
     406     266                                                00000000D     79
     406                       1      15                               0D     80
     406     267                       1                        00000000D     81
     406             -83       1       3                               0D     82
     314     268                                                00000200D     83
     314                       1       0                               0D     84
186,3,1,0,0,1,79;                                                      1P      1
514,6,5,1,7,1,9,1,11,1,13,1,15,1;                                      3P      2
510,63,2,1,17,19;                                                      5P      3
510,65,1,1,21;                                                         7P      4
510,67,2,1,23,25;                                                      9P      5
510,69,2,1,27,29;                                                     11P      6
510,71,1,1,31;                                                        13P      7
510,73,1,1,33;                                                        15P      8
508,1,0,77,1,1,0;                                                     17P      9
508,2,0,77,2,1,0,0,77,3,1,0;                                          19P     10
508,6,0,77,4,0,0,0,77,5,0,0,0,77,6,1,0,0,77,2,0,0,0,77,3,0,0,0,       21P     11
77,6,0,0;                                                             21P     12
508,1,0,77,7,1,0;                                                     23P     13
508,2,0,77,4,1,0,0,77,5,1,0;                                          25P     14
508,2,0,77,8,1,0,0,77,9,1,0;                                          27P     15
508,1,0,77,10,1,0;                                                    29P     16
508,6,0,77,10,0,0,0,77,11,1,0,0,77,12,1,0,0,77,1,0,0,0,77,12,0,       31P     17
0,0,77,11,0,0;                                                        31P     18
508,7,0,77,7,0,0,0,77,13,1,0,0,77,8,0,0,0,77,14,1,0,0,77,14,0,0,      33P     19
0,77,9,0,0,0,77,13,0,0;                                               33P     20
126,8,2,0,1,0,0,-3.14159265358979,-3.14159265358979,                  35P     21
-3.14159265358979,-1.5707963267949,-1.5707963267949,0.,0.,            35P     22
1.5707963267949,1.5707963267949,3.14159265358979,                     35P     23
3.14159265358979,3.14159265358979,1.,0.707106781186545,1.,            35P     24
0.707106781186545,1.,0.707106781186545,1.,0.707106781186545,1.,       35P     25
4.00000000000237,-5.35710896008723,47.3000000000004,                  35P     26
4.00000000000237,-6.95710896008723,47.3000000000004,                  35P     27
4.00000000000237,-6.95710896008723,45.7000000000004,                  35P     28
4.00000000000237,-6.95710896008723,44.1000000000004,                  35P     29
4.00000000000237,-5.35710896008723,44.1000000000004,                  35P     30
4.00000000000237,-3.75710896008724,44.1000000000004,                  35P     31
4.00000000000237,-3.75710896008724,45.7000000000004,                  35P     32
4.00000000000237,-3.75710896008724,47.3000000000004,                  35P     33
4.00000000000237,-5.35710896008723,47.3000000000004,                  35P     34
-3.14159265358979,3.14159265358979,0.,0.,0.;                          35P     35
126,4,2,0,0,0,0,0.,0.,0.,1.5707963267949,1.5707963267949,             37P     36
3.14159265358979,3.14159265358979,3.14159265358979,1.,                37P     37
0.707106781186539,1.,0.707106781186539,1.,4.00000000000237,           37P     38
-6.85710896008723,45.7000000000004,4.00000000000237,                  37P     39
-6.85710896008723,47.2000000000004,4.00000000000237,                  37P     40
-5.35710896008723,47.2000000000004,4.00000000000237,                  37P     41
-3.85710896008723,47.2000000000004,4.00000000000237,                  37P     42
-3.85710896008723,45.7000000000004,0.,3.14159265358979,0.,0.,0.;      37P     43
126,4,2,0,0,0,0,3.14159265358979,3.14159265358979,                    39P     44
3.14159265358979,4.71238898038469,4.71238898038469,                   39P     45
6.28318530717959,6.28318530717959,6.28318530717959,1.,                39P     46
0.707106781186539,1.,0.707106781186539,1.,4.00000000000237,           39P     47
-3.85710896008723,45.7000000000004,4.00000000000237,                  39P     48
-3.85710896008723,44.2000000000004,4.00000000000237,                  39P     49
-5.35710896008723,44.2000000000004,4.00000000000237,                  39P     50
-6.85710896008723,44.2000000000004,4.00000000000237,                  39P     51
-6.85710896008723,45.7000000000004,3.14159265358979,                  39P     52
6.28318530717959,0.,0.,0.;                                            39P     53
126,4,2,0,0,0,0,0.,0.,0.,1.5707963267949,1.5707963267949,             41P     54
3.14159265358979,3.14159265358979,3.14159265358979,1.,                41P     55
0.707106781186539,1.,0.707106781186539,1.,2.00000000000237,           41P     56
-6.85710896008723,45.7000000000004,2.00000000000237,                  41P     57
-6.85710896008723,44.2000000000004,2.00000000000237,                  41P     58
-5.35710896008723,44.2000000000004,2.00000000000237,                  41P     59
-3.85710896008723,44.2000000000004,2.00000000000237,                  41P     60
-3.85710896008723,45.7000000000004,0.,3.14159265358979,0.,0.,0.;      41P     61
126,4,2,0,0,0,0,3.14159265358979,3.14159265358979,                    43P     62
3.14159265358979,4.71238898038469,4.71238898038469,                   43P     63
6.28318530717959,6.28318530717959,6.28318530717959,1.,                43P     64
0.707106781186539,1.,0.707106781186539,1.,2.00000000000237,           43P     65
-3.85710896008723,45.7000000000004,2.00000000000237,                  43P     66
-3.85710896008723,47.2000000000004,2.00000000000237,                  43P     67
-5.35710896008723,47.2000000000004,2.00000000000237,                  43P     68
-6.85710896008723,47.2000000000004,2.00000000000237,                  43P     69
-6.85710896008723,45.7000000000004,3.14159265358979,                  43P     70
6.28318530717959,0.,0.,0.;                                            43P     71
126,1,1,0,0,1,0,0.,0.,1.33333333333333,1.33333333333333,1.,1.,        45P     72
2.00000000000237,-3.85710896008723,45.7000000000004,                  45P     73
4.00000000000237,-3.85710896008723,45.7000000000004,0.,               45P     74
1.33333333333333,0.,0.,0.;                                            45P     75
126,8,2,0,1,0,0,-3.14159265358979,-3.14159265358979,                  47P     76
-3.14159265358979,-1.5707963267949,-1.5707963267949,0.,0.,            47P     77
1.5707963267949,1.5707963267949,3.14159265358979,                     47P     78
3.14159265358979,3.14159265358979,1.,0.707106781186544,1.,            47P     79
0.707106781186544,1.,0.707106781186544,1.,0.707106781186544,1.,       47P     80
2.00000000000237,-5.35710896008723,48.2000000000005,                  47P     81
2.00000000000237,-2.85710896008719,48.2000000000005,                  47P     82
2.00000000000237,-2.85710896008719,45.7000000000004,                  47P     83
2.00000000000237,-2.85710896008719,43.2000000000004,                  47P     84
2.00000000000237,-5.35710896008723,43.2000000000004,                  47P     85
2.00000000000237,-7.85710896008727,43.2000000000004,                  47P     86
2.00000000000237,-7.85710896008727,45.7000000000004,                  47P     87
2.00000000000237,-7.85710896008727,48.2000000000005,                  47P     88
2.00000000000237,-5.35710896008723,48.2000000000005,                  47P     89
-3.14159265358979,3.14159265358979,0.,0.,0.;                          47P     90
126,4,2,0,0,0,0,-6.2831853071796,-6.2831853071796,                    49P     91
-6.2831853071796,-4.7123889803847,-4.7123889803847,                   49P     92
-3.14159265358979,-3.14159265358979,-3.14159265358979,1.,             49P     93
0.707106781186555,1.,0.707106781186548,1.,17.0000000000024,           49P     94
-5.35710896008727,43.2000000000004,17.0000000000024,                  49P     95
-2.85710896008722,43.2000000000003,17.0000000000024,                  49P     96
-2.85710896008719,45.7000000000004,17.0000000000024,                  49P     97
-2.85710896008716,48.2000000000005,17.0000000000024,                  49P     98
-5.35710896008723,48.2000000000005,-6.2831853071796,                  49P     99
-3.14159265358979,0.,0.,0.;                                           49P    100
126,4,2,0,0,0,0,-3.14159265358979,-3.14159265358979,                  51P    101
-3.14159265358979,-1.5707963267949,-1.5707963267949,                  51P    102
-1.70530256582421D-14,-1.70530256582421D-14,                          51P    103
-1.70530256582421D-14,1.,0.707106781186554,1.,0.707106781186561,      51P    104
1.,17.0000000000024,-5.35710896008723,48.2000000000005,               51P    105
17.0000000000024,-7.85710896008726,48.2000000000005,                  51P    106
17.0000000000024,-7.85710896008727,45.7000000000004,                  51P    107
17.0000000000024,-7.85710896008729,43.2000000000004,                  51P    108
17.0000000000024,-5.35710896008727,43.2000000000004,                  51P    109
-3.14159265358979,-1.70530256582421D-14,0.,0.,0.;                     51P    110
126,8,2,0,1,0,0,-3.14159265358979,-3.14159265358979,                  53P    111
-3.14159265358979,-1.5707963267949,-1.5707963267949,0.,0.,            53P    112
1.5707963267949,1.5707963267949,3.14159265358979,                     53P    113
3.14159265358979,3.14159265358979,1.,0.707106781186545,1.,            53P    114
0.707106781186545,1.,0.707106781186545,1.,0.707106781186545,1.,       53P    115
17.0000000000024,-5.35710896008723,47.3000000000004,                  53P    116
17.0000000000024,-3.75710896008724,47.3000000000004,                  53P    117
17.0000000000024,-3.75710896008724,45.7000000000004,                  53P    118
17.0000000000024,-3.75710896008724,44.1000000000004,                  53P    119
17.0000000000024,-5.35710896008723,44.1000000000004,                  53P    120
17.0000000000024,-6.95710896008723,44.1000000000004,                  53P    121
17.0000000000024,-6.95710896008723,45.7000000000004,                  53P    122
17.0000000000024,-6.95710896008723,47.3000000000004,                  53P    123
17.0000000000024,-5.35710896008723,47.3000000000004,                  53P    124
-3.14159265358979,3.14159265358979,0.,0.,0.;                          53P    125
126,1,1,0,0,1,0,7.00000000000004,7.00000000000004,                    55P    126
17.0000000000001,17.0000000000001,1.,1.,17.0000000000024,             55P    127
-5.35710896008727,47.3000000000004,7.00000000000237,                  55P    128
-5.35710896008727,47.3000000000004,7.00000000000004,                  55P    129
17.0000000000001,0.,0.,0.;                                            55P    130
126,1,1,0,0,1,0,8.88178419700125D-16,8.88178419700125D-16,1.875,      57P    131
1.875,1.,1.,7.00000000000237,-5.35710896008723,47.3000000000004,      57P    132
4.00000000000237,-5.35710896008723,47.3000000000004,                  57P    133
8.88178419700125D-16,1.875,0.,0.,0.;                                  57P    134
126,1,1,0,0,1,0,-1.99999999999996,-1.99999999999996,                  59P    135
3.99999999999993,3.99999999999993,1.,1.,2.00000000000237,             59P    136
-5.35710896008723,48.2000000000005,17.0000000000024,                  59P    137
-5.35710896008723,48.2000000000005,-1.99999999999996,                 59P    138
3.99999999999993,0.,0.,0.;                                            59P    139
126,1,1,0,0,1,0,7.00000000000004,7.00000000000004,                    61P    140
17.0000000000001,17.0000000000001,1.,1.,17.0000000000024,             61P    141
-5.35710896008727,43.2000000000004,7.00000000000237,                  61P    142
-5.35710896008727,43.2000000000004,7.00000000000004,                  61P    143
17.0000000000001,0.,0.,0.;                                            61P    144
128,1,1,1,1,0,0,1,0,0,-1.60100000000004,-1.60100000000004,            63P    145
1.60099999999997,1.60099999999997,-1.60100000000001,                  63P    146
-1.60100000000001,1.60099999999998,1.60099999999998,1.,1.,1.,1.,      63P    147
4.00000000000237,-6.95810896008723,47.3010000000004,                  63P    148
4.00000000000237,-6.95810896008723,44.0990000000004,                  63P    149
4.00000000000237,-3.75610896008723,47.3010000000004,                  63P    150
4.00000000000237,-3.75610896008723,44.0990000000004,                  63P    151
-1.60100000000004,1.60099999999997,-1.60100000000001,                 63P    152
1.60099999999998;                                                     63P    153
128,1,8,1,2,0,1,0,0,1,0.,0.,1.33333333333333,1.33333333333333,        65P    154
-3.14159265358979,-3.14159265358979,-3.14159265358979,                65P    155
-1.5707963267949,-1.5707963267949,0.,0.,1.5707963267949,              65P    156
1.5707963267949,3.14159265358979,3.14159265358979,                    65P    157
3.14159265358979,1.,1.,0.707106781186548,0.707106781186548,1.,        65P    158
1.,0.707106781186548,0.707106781186548,1.,1.,0.707106781186548,       65P    159
0.707106781186548,1.,1.,0.707106781186548,0.707106781186548,1.,       65P    160
1.,2.00000000000237,-3.85710896008723,45.7000000000004,               65P    161
4.00000000000237,-3.85710896008723,45.7000000000004,                  65P    162
2.00000000000237,-3.85710896008723,47.2000000000004,                  65P    163
4.00000000000237,-3.85710896008723,47.2000000000004,                  65P    164
2.00000000000237,-5.35710896008723,47.2000000000004,                  65P    165
4.00000000000237,-5.35710896008723,47.2000000000004,                  65P    166
2.00000000000237,-6.85710896008723,47.2000000000004,                  65P    167
4.00000000000237,-6.85710896008723,47.2000000000004,                  65P    168
2.00000000000237,-6.85710896008723,45.7000000000004,                  65P    169
4.00000000000237,-6.85710896008723,45.7000000000004,                  65P    170
2.00000000000237,-6.85710896008723,44.2000000000004,                  65P    171
4.00000000000237,-6.85710896008723,44.2000000000004,                  65P    172
2.00000000000237,-5.35710896008723,44.2000000000004,                  65P    173
4.00000000000237,-5.35710896008723,44.2000000000004,                  65P    174
2.00000000000237,-3.85710896008723,44.2000000000004,                  65P    175
4.00000000000237,-3.85710896008723,44.2000000000004,                  65P    176
2.00000000000237,-3.85710896008723,45.7000000000004,                  65P    177
4.00000000000237,-3.85710896008723,45.7000000000004,0.,               65P    178
1.33333333333333,-3.14159265358979,3.14159265358979;                  65P    179
128,1,1,1,1,0,0,1,0,0,-2.50100000000005,-2.50100000000005,            67P    180
2.50100000000004,2.50100000000004,-2.50100000000006,                  67P    181
-2.50100000000006,2.50100000000003,2.50100000000003,1.,1.,1.,1.,      67P    182
2.00000000000237,-7.85810896008728,43.1990000000004,                  67P    183
2.00000000000237,-7.85810896008728,48.2010000000005,                  67P    184
2.00000000000237,-2.85610896008718,43.1990000000004,                  67P    185
2.00000000000237,-2.85610896008718,48.2010000000005,                  67P    186
-2.50100000000005,2.50100000000004,-2.50100000000006,                 67P    187
2.50100000000003;                                                     67P    188
128,1,1,1,1,0,0,1,0,0,-2.50100000000008,-2.50100000000008,            69P    189
2.50100000000011,2.50100000000011,-2.50100000000013,                  69P    190
-2.50100000000013,2.50100000000004,2.50100000000004,1.,1.,1.,1.,      69P    191
17.0000000000024,-2.85610896008714,43.1990000000003,                  69P    192
17.0000000000024,-2.85610896008714,48.2010000000005,                  69P    193
17.0000000000024,-7.85810896008732,43.1990000000003,                  69P    194
17.0000000000024,-7.85810896008732,48.2010000000005,                  69P    195
-2.50100000000008,2.50100000000011,-2.50100000000013,                 69P    196
2.50100000000004;                                                     69P    197
128,1,8,1,2,0,1,0,0,1,-6.25000000000001,-6.25000000000001,1.875,      71P    198
1.875,-3.14159265358979,-3.14159265358979,-3.14159265358979,          71P    199
-1.5707963267949,-1.5707963267949,0.,0.,1.5707963267949,              71P    200
1.5707963267949,3.14159265358979,3.14159265358979,                    71P    201
3.14159265358979,1.,1.,0.707106781186548,0.707106781186548,1.,        71P    202
1.,0.707106781186548,0.707106781186548,1.,1.,0.707106781186548,       71P    203
0.707106781186548,1.,1.,0.707106781186548,0.707106781186548,1.,       71P    204
1.,17.0000000000024,-5.35710896008723,47.3000000000004,               71P    205
4.00000000000237,-5.35710896008723,47.3000000000004,                  71P    206
17.0000000000024,-3.75710896008724,47.3000000000004,                  71P    207
4.00000000000237,-3.75710896008724,47.3000000000004,                  71P    208
17.0000000000024,-3.75710896008722,45.7000000000004,                  71P    209
4.00000000000237,-3.75710896008722,45.7000000000004,                  71P    210
17.0000000000024,-3.75710896008724,44.1000000000004,                  71P    211
4.00000000000237,-3.75710896008724,44.1000000000004,                  71P    212
17.0000000000024,-5.35710896008723,44.1000000000004,                  71P    213
4.00000000000237,-5.35710896008723,44.1000000000004,                  71P    214
17.0000000000024,-6.95710896008723,44.1000000000004,                  71P    215
4.00000000000237,-6.95710896008723,44.1000000000004,                  71P    216
17.0000000000024,-6.95710896008724,45.7000000000004,                  71P    217
4.00000000000237,-6.95710896008724,45.7000000000004,                  71P    218
17.0000000000024,-6.95710896008723,47.3000000000004,                  71P    219
4.00000000000237,-6.95710896008723,47.3000000000004,                  71P    220
17.0000000000024,-5.35710896008723,47.3000000000004,                  71P    221
4.00000000000237,-5.35710896008723,47.3000000000004,                  71P    222
-6.25000000000001,1.875,-3.14159265358979,3.14159265358979;           71P    223
128,1,8,1,2,0,1,0,0,1,-3.99999999999993,-3.99999999999993,            73P    224
1.99999999999996,1.99999999999996,-3.14159265358979,                  73P    225
-3.14159265358979,-3.14159265358979,-1.5707963267949,                 73P    226
-1.5707963267949,0.,0.,1.5707963267949,1.5707963267949,               73P    227
3.14159265358979,3.14159265358979,3.14159265358979,1.,1.,             73P    228
0.707106781186548,0.707106781186548,1.,1.,0.707106781186548,          73P    229
0.707106781186548,1.,1.,0.707106781186548,0.707106781186548,1.,       73P    230
1.,0.707106781186548,0.707106781186548,1.,1.,2.00000000000237,        73P    231
-5.35710896008723,48.2000000000005,17.0000000000024,                  73P    232
-5.35710896008723,48.2000000000005,2.00000000000237,                  73P    233
-2.85710896008719,48.2000000000005,17.0000000000024,                  73P    234
-2.85710896008719,48.2000000000005,2.00000000000237,                  73P    235
-2.85710896008719,45.7000000000004,17.0000000000024,                  73P    236
-2.85710896008719,45.7000000000004,2.00000000000237,                  73P    237
-2.85710896008719,43.2000000000004,17.0000000000024,                  73P    238
-2.85710896008719,43.2000000000004,2.00000000000237,                  73P    239
-5.35710896008723,43.2000000000004,17.0000000000024,                  73P    240
-5.35710896008723,43.2000000000004,2.00000000000237,                  73P    241
-7.85710896008727,43.2000000000004,17.0000000000024,                  73P    242
-7.85710896008727,43.2000000000004,2.00000000000237,                  73P    243
-7.85710896008727,45.7000000000004,17.0000000000024,                  73P    244
-7.85710896008727,45.7000000000004,2.00000000000237,                  73P    245
-7.85710896008727,48.2000000000005,17.0000000000024,                  73P    246
-7.85710896008727,48.2000000000005,2.00000000000237,                  73P    247
-5.35710896008723,48.2000000000005,17.0000000000024,                  73P    248
-5.35710896008723,48.2000000000005,-3.99999999999993,                 73P    249
1.99999999999996,-3.14159265358979,3.14159265358979;                  73P    250
502,11,4.00000000000237,-5.35710896008723,47.3000000000004,           75P    251
4.00000000000237,-6.85710896008723,45.7000000000004,                  75P    252
4.00000000000237,-3.85710896008723,45.7000000000004,                  75P    253
2.00000000000237,-6.85710896008723,45.7000000000004,                  75P    254
2.00000000000237,-3.85710896008723,45.7000000000004,                  75P    255
2.00000000000237,-5.35710896008723,48.2000000000005,                  75P    256
17.0000000000024,-5.35710896008727,43.2000000000004,                  75P    257
17.0000000000024,-5.35710896008723,48.2000000000005,                  75P    258
17.0000000000024,-5.35710896008723,47.3000000000004,                  75P    259
7.00000000000237,-5.35710896008723,47.3000000000004,                  75P    260
7.00000000000237,-5.35710896008727,43.2000000000004;                  75P    261
504,14,35,75,1,75,1,37,75,2,75,3,39,75,3,75,2,41,75,4,75,5,43,        77P    262
75,5,75,4,45,75,5,75,3,47,75,6,75,6,49,75,7,75,8,51,75,8,75,7,        77P    263
53,75,9,75,9,55,75,9,75,10,57,75,10,75,1,59,75,6,75,8,61,75,7,        77P    264
75,11;                                                                77P    265
406,1,2H73;                                                           79P    266
406,2,0,10HNew Kicker;                                                81P    267
314,100.,100.,100.,;                                                  83P    268
S      1G      4D     84P    268                                        T      1
