                                                                        S      1
,,,19HKicker Copper Front,22HAutoCAD 2022 - English,62HAutodesk TranslatG      1
ion Framework DWG producer (atf_dwg_producer),32,38,7,99,15,,1.,2,2HMM, G      2
1,0.08,15H20220115.123049,0.01,10000.,,7Hunknown,11,0,15H20210411.131402G      3
;                                                                       G      4
     186       1                       1                        00000000D      1
     186             -55       1       0                               0D      2
     514       2                                                00010000D      3
     514                       1       1                               0D      4
     510       3                                                00010000D      5
     510             -55       1       1                               0D      6
     510       4                                                00010000D      7
     510             -55       1       1                               0D      8
     510       5                                                00010000D      9
     510             -55       1       1                               0D     10
     510       6                                                00010000D     11
     510             -55       1       1                               0D     12
     508       7                                                00010000D     13
     508                       1       1                               0D     14
     508       8                                                00010000D     15
     508                       1       1                               0D     16
     508       9                                                00010000D     17
     508                       1       1                               0D     18
     508      10                                                00010000D     19
     508                       1       1                               0D     20
     508      11                                                00010000D     21
     508                       1       1                               0D     22
     508      12                                                00010000D     23
     508                       1       1                               0D     24
     126      13                                                00010000D     25
     126       0              15       0                               0D     26
     126      28                                                00010000D     27
     126       0               4       0                               0D     28
     126      32                                                00010000D     29
     126       0              15       0                               0D     30
     126      47                                                00010000D     31
     126       0              15       0                               0D     32
     126      62                                                00010000D     33
     126       0               5       0                               0D     34
     126      67                                                00010000D     35
     126       0              15       0                               0D     36
     128      82                                                00010000D     37
     128       0     -55      26       0                               0D     38
     128     108                                                00010000D     39
     128       0     -55      27       0                               0D     40
     128     135                                                00010000D     41
     128       0     -55       9       0                               0D     42
     128     144                                                00010000D     43
     128       0     -55       9       0                               0D     44
     502     153                                                00010000D     45
     502                       4       1                               0D     46
     504     157                                                00010001D     47
     504                       2       1                               0D     48
     406     159                                                00000000D     49
     406                       1      15                               0D     50
     406     160                       1                        00000000D     51
     406             -53       1       3                               0D     52
     314     161                                                00000200D     53
     314                       1       0                               0D     54
     314     162                                                00000200D     55
     314                       1       0                               0D     56
186,3,1,0,0,1,49;                                                      1P      1
514,4,5,1,7,1,9,1,11,1;                                                3P      2
510,37,1,1,13;                                                         5P      3
510,39,1,1,15;                                                         7P      4
510,41,2,1,17,19;                                                      9P      5
510,43,2,1,21,23;                                                     11P      6
508,4,0,47,1,0,0,0,47,2,1,0,0,47,3,0,0,0,47,2,0,0;                    13P      7
508,4,0,47,4,0,0,0,47,5,1,0,0,47,6,0,0,0,47,5,0,0;                    15P      8
508,1,0,47,6,1,0;                                                     17P      9
508,1,0,47,3,1,0;                                                     19P     10
508,1,0,47,4,1,0;                                                     21P     11
508,1,0,47,1,1,0;                                                     23P     12
126,8,2,0,1,0,0,-3.14159265358979,-3.14159265358979,                  25P     13
-3.14159265358979,-1.5707963267949,-1.5707963267949,0.,0.,            25P     14
1.5707963267949,1.5707963267949,3.14159265358979,                     25P     15
3.14159265358979,3.14159265358979,1.,0.707106781186547,1.,            25P     16
0.707106781186548,1.,0.707106781186548,1.,0.707106781186547,1.,       25P     17
-9.99999999999769,53.8726666778806,45.7000000000003,                  25P     18
-9.99999999999769,53.8726666778806,47.3000000000003,                  25P     19
-9.99999999999769,52.2726666778806,47.3000000000003,                  25P     20
-9.99999999999769,50.6726666778806,47.3000000000003,                  25P     21
-9.99999999999769,50.6726666778806,45.7000000000003,                  25P     22
-9.99999999999769,50.6726666778806,44.1000000000003,                  25P     23
-9.99999999999769,52.2726666778806,44.1000000000003,                  25P     24
-9.99999999999769,53.8726666778806,44.1000000000003,                  25P     25
-9.99999999999769,53.8726666778806,45.7000000000003,                  25P     26
-3.14159265358979,3.14159265358979,0.,0.,0.;                          25P     27
126,1,1,0,0,1,0,10.3125,10.3125,22.8125,22.8125,1.,1.,                27P     28
-9.99999999999769,53.8726666778806,45.7000000000003,                  27P     29
10.0000000000023,53.8726666778806,45.7000000000003,10.3125,           27P     30
22.8125,0.,0.,0.;                                                     27P     31
126,8,2,0,1,0,0,-3.14159265358979,-3.14159265358979,                  29P     32
-3.14159265358979,-1.5707963267949,-1.5707963267949,0.,0.,            29P     33
1.5707963267949,1.5707963267949,3.14159265358979,                     29P     34
3.14159265358979,3.14159265358979,1.,0.707106781186547,1.,            29P     35
0.707106781186548,1.,0.707106781186548,1.,0.707106781186547,1.,       29P     36
10.0000000000023,53.8726666778806,45.7000000000003,                   29P     37
10.0000000000023,53.8726666778806,44.1000000000003,                   29P     38
10.0000000000023,52.2726666778806,44.1000000000003,                   29P     39
10.0000000000023,50.6726666778806,44.1000000000003,                   29P     40
10.0000000000023,50.6726666778806,45.7000000000003,                   29P     41
10.0000000000023,50.6726666778806,47.3000000000003,                   29P     42
10.0000000000023,52.2726666778806,47.3000000000003,                   29P     43
10.0000000000023,53.8726666778806,47.3000000000003,                   29P     44
10.0000000000023,53.8726666778806,45.7000000000003,                   29P     45
-3.14159265358979,3.14159265358979,0.,0.,0.;                          29P     46
126,8,2,0,1,0,0,-3.14159265358979,-3.14159265358979,                  31P     47
-3.14159265358979,-1.5707963267949,-1.5707963267949,0.,0.,            31P     48
1.5707963267949,1.5707963267949,3.14159265358979,                     31P     49
3.14159265358979,3.14159265358979,1.,0.707106781186548,1.,            31P     50
0.707106781186548,1.,0.707106781186548,1.,0.707106781186548,1.,       31P     51
-9.99999999999769,49.7726666778806,45.7000000000003,                  31P     52
-9.99999999999769,49.7726666778806,48.2000000000003,                  31P     53
-9.99999999999769,52.2726666778806,48.2000000000003,                  31P     54
-9.99999999999769,54.7726666778806,48.2000000000003,                  31P     55
-9.99999999999769,54.7726666778806,45.7000000000003,                  31P     56
-9.99999999999769,54.7726666778806,43.2000000000003,                  31P     57
-9.99999999999769,52.2726666778806,43.2000000000003,                  31P     58
-9.99999999999769,49.7726666778806,43.2000000000003,                  31P     59
-9.99999999999769,49.7726666778806,45.7000000000003,                  31P     60
-3.14159265358979,3.14159265358979,0.,0.,0.;                          31P     61
126,1,1,0,0,1,0,-4.99999999999995,-4.99999999999995,                  33P     62
2.99999999999997,2.99999999999997,1.,1.,-9.99999999999769,            33P     63
49.7726666778806,45.7000000000003,10.0000000000023,                   33P     64
49.7726666778806,45.7000000000003,-4.99999999999995,                  33P     65
2.99999999999997,0.,0.,0.;                                            33P     66
126,8,2,0,1,0,0,-3.14159265358979,-3.14159265358979,                  35P     67
-3.14159265358979,-1.5707963267949,-1.5707963267949,0.,0.,            35P     68
1.5707963267949,1.5707963267949,3.14159265358979,                     35P     69
3.14159265358979,3.14159265358979,1.,0.707106781186548,1.,            35P     70
0.707106781186548,1.,0.707106781186548,1.,0.707106781186548,1.,       35P     71
10.0000000000023,49.7726666778806,45.7000000000003,                   35P     72
10.0000000000023,49.7726666778806,43.2000000000003,                   35P     73
10.0000000000023,52.2726666778806,43.2000000000003,                   35P     74
10.0000000000023,54.7726666778806,43.2000000000003,                   35P     75
10.0000000000023,54.7726666778806,45.7000000000003,                   35P     76
10.0000000000023,54.7726666778806,48.2000000000003,                   35P     77
10.0000000000023,52.2726666778806,48.2000000000003,                   35P     78
10.0000000000023,49.7726666778806,48.2000000000003,                   35P     79
10.0000000000023,49.7726666778806,45.7000000000003,                   35P     80
-3.14159265358979,3.14159265358979,0.,0.,0.;                          35P     81
128,1,8,1,2,0,1,0,0,1,10.3125,10.3125,22.8125,22.8125,                37P     82
-3.14159265358979,-3.14159265358979,-3.14159265358979,                37P     83
-1.5707963267949,-1.5707963267949,0.,0.,1.5707963267949,              37P     84
1.5707963267949,3.14159265358979,3.14159265358979,                    37P     85
3.14159265358979,1.,1.,0.707106781186548,0.707106781186548,1.,        37P     86
1.,0.707106781186548,0.707106781186548,1.,1.,0.707106781186548,       37P     87
0.707106781186548,1.,1.,0.707106781186548,0.707106781186548,1.,       37P     88
1.,-9.99999999999769,53.8726666778806,45.7000000000003,               37P     89
10.0000000000023,53.8726666778806,45.7000000000003,                   37P     90
-9.99999999999769,53.8726666778806,47.3000000000003,                  37P     91
10.0000000000023,53.8726666778806,47.3000000000003,                   37P     92
-9.99999999999769,52.2726666778806,47.3000000000003,                  37P     93
10.0000000000023,52.2726666778806,47.3000000000003,                   37P     94
-9.99999999999769,50.6726666778806,47.3000000000003,                  37P     95
10.0000000000023,50.6726666778806,47.3000000000003,                   37P     96
-9.99999999999769,50.6726666778806,45.7000000000003,                  37P     97
10.0000000000023,50.6726666778806,45.7000000000003,                   37P     98
-9.99999999999769,50.6726666778806,44.1000000000003,                  37P     99
10.0000000000023,50.6726666778806,44.1000000000003,                   37P    100
-9.99999999999769,52.2726666778806,44.1000000000003,                  37P    101
10.0000000000023,52.2726666778806,44.1000000000003,                   37P    102
-9.99999999999769,53.8726666778806,44.1000000000003,                  37P    103
10.0000000000023,53.8726666778806,44.1000000000003,                   37P    104
-9.99999999999769,53.8726666778806,45.7000000000003,                  37P    105
10.0000000000023,53.8726666778806,45.7000000000003,10.3125,           37P    106
22.8125,-3.14159265358979,3.14159265358979;                           37P    107
128,1,8,1,2,0,1,0,0,1,-2.99999999999997,-2.99999999999997,            39P    108
4.99999999999995,4.99999999999995,-3.14159265358979,                  39P    109
-3.14159265358979,-3.14159265358979,-1.5707963267949,                 39P    110
-1.5707963267949,0.,0.,1.5707963267949,1.5707963267949,               39P    111
3.14159265358979,3.14159265358979,3.14159265358979,1.,1.,             39P    112
0.707106781186548,0.707106781186548,1.,1.,0.707106781186548,          39P    113
0.707106781186548,1.,1.,0.707106781186548,0.707106781186548,1.,       39P    114
1.,0.707106781186548,0.707106781186548,1.,1.,-9.99999999999769,       39P    115
49.7726666778806,45.7000000000003,10.0000000000023,                   39P    116
49.7726666778806,45.7000000000003,-9.99999999999769,                  39P    117
49.7726666778806,48.2000000000003,10.0000000000023,                   39P    118
49.7726666778806,48.2000000000003,-9.99999999999769,                  39P    119
52.2726666778806,48.2000000000003,10.0000000000023,                   39P    120
52.2726666778806,48.2000000000003,-9.99999999999769,                  39P    121
54.7726666778806,48.2000000000003,10.0000000000023,                   39P    122
54.7726666778806,48.2000000000003,-9.99999999999769,                  39P    123
54.7726666778806,45.7000000000003,10.0000000000023,                   39P    124
54.7726666778806,45.7000000000003,-9.99999999999769,                  39P    125
54.7726666778806,43.2000000000003,10.0000000000023,                   39P    126
54.7726666778806,43.2000000000003,-9.99999999999769,                  39P    127
52.2726666778806,43.2000000000003,10.0000000000023,                   39P    128
52.2726666778806,43.2000000000003,-9.99999999999769,                  39P    129
49.7726666778806,43.2000000000003,10.0000000000023,                   39P    130
49.7726666778806,43.2000000000003,-9.99999999999769,                  39P    131
49.7726666778806,45.7000000000003,10.0000000000023,                   39P    132
49.7726666778806,45.7000000000003,-2.99999999999997,                  39P    133
4.99999999999995,-3.14159265358979,3.14159265358979;                  39P    134
128,1,1,1,1,0,0,1,0,0,-2.50100000000003,-2.50100000000003,            41P    135
2.50100000000003,2.50100000000003,-2.50100000000003,                  41P    136
-2.50100000000003,2.50100000000003,2.50100000000003,1.,1.,1.,1.,      41P    137
10.0000000000023,54.7736666778806,48.2010000000003,                   41P    138
10.0000000000023,49.7716666778806,48.2010000000003,                   41P    139
10.0000000000023,54.7736666778806,43.1990000000003,                   41P    140
10.0000000000023,49.7716666778806,43.1990000000003,                   41P    141
-2.50100000000003,2.50100000000003,-2.50100000000003,                 41P    142
2.50100000000003;                                                     41P    143
128,1,1,1,1,0,0,1,0,0,-2.50100000000003,-2.50100000000003,            43P    144
2.50100000000003,2.50100000000003,-2.50100000000003,                  43P    145
-2.50100000000003,2.50100000000003,2.50100000000003,1.,1.,1.,1.,      43P    146
-9.99999999999769,49.7716666778806,48.2010000000003,                  43P    147
-9.99999999999769,54.7736666778806,48.2010000000003,                  43P    148
-9.99999999999769,49.7716666778806,43.1990000000003,                  43P    149
-9.99999999999769,54.7736666778806,43.1990000000003,                  43P    150
-2.50100000000003,2.50100000000003,-2.50100000000003,                 43P    151
2.50100000000003;                                                     43P    152
502,4,-9.99999999999769,53.8726666778806,45.7000000000003,            45P    153
10.0000000000023,53.8726666778806,45.7000000000003,                   45P    154
-9.99999999999769,49.7726666778806,45.7000000000003,                  45P    155
10.0000000000023,49.7726666778806,45.7000000000003;                   45P    156
504,6,25,45,1,45,1,27,45,1,45,2,29,45,2,45,2,31,45,3,45,3,33,45,      47P    157
3,45,4,35,45,4,45,4;                                                  47P    158
406,1,2H73;                                                           49P    159
406,2,0,10HNew Kicker;                                                51P    160
314,100.,100.,100.,;                                                  53P    161
314,32.9411764705882,32.9411764705882,32.9411764705882,;              55P    162
S      1G      4D     56P    162                                        T      1
