                                                                        S      1
,,,24HLayer 4 to Handle Stands,22HAutoCAD 2022 - English,62HAutodesk TraG      1
nslation Framework DWG producer (atf_dwg_producer),32,38,7,99,15,,1.,2, G      2
2HMM,1,0.08,15H20220120.230340,0.01,10000.,,7Hunknown,11,0,15H20210411.1G      3
31402;                                                                  G      4
     186       1                       1                        00000000D      1
     186            -109       1       0                               0D      2
     186       2                       1                        00000000D      3
     186            -109       1       0                               0D      4
     514       3                                                00010000D      5
     514                       1       1                               0D      6
     514       4                                                00010000D      7
     514                       1       1                               0D      8
     510       5                                                00010000D      9
     510            -109       1       1                               0D     10
     510       6                                                00010000D     11
     510            -109       1       1                               0D     12
     510       7                                                00010000D     13
     510            -109       1       1                               0D     14
     510       8                                                00010000D     15
     510            -109       1       1                               0D     16
     510       9                                                00010000D     17
     510            -109       1       1                               0D     18
     510      10                                                00010000D     19
     510            -109       1       1                               0D     20
     510      11                                                00010000D     21
     510            -109       1       1                               0D     22
     510      12                                                00010000D     23
     510            -109       1       1                               0D     24
     508      13                                                00010000D     25
     508                       1       1                               0D     26
     508      14                                                00010000D     27
     508                       1       1                               0D     28
     508      15                                                00010000D     29
     508                       1       1                               0D     30
     508      16                                                00010000D     31
     508                       1       1                               0D     32
     508      17                                                00010000D     33
     508                       1       1                               0D     34
     508      18                                                00010000D     35
     508                       1       1                               0D     36
     508      19                                                00010000D     37
     508                       1       1                               0D     38
     508      20                                                00010000D     39
     508                       1       1                               0D     40
     508      21                                                00010000D     41
     508                       1       1                               0D     42
     508      22                                                00010000D     43
     508                       1       1                               0D     44
     508      23                                                00010000D     45
     508                       1       1                               0D     46
     508      24                                                00010000D     47
     508                       1       1                               0D     48
     126      25                                                00010000D     49
     126       0              12       0                               0D     50
     126      37                                                00010000D     51
     126       0              13       0                               0D     52
     126      50                                                00010000D     53
     126       0               7       0                               0D     54
     126      57                                                00010000D     55
     126       0               8       0                               0D     56
     126      65                                                00010000D     57
     126       0              12       0                               0D     58
     126      77                                                00010000D     59
     126       0               3       0                               0D     60
     126      80                                                00010000D     61
     126       0               5       0                               0D     62
     126      85                                                00010000D     63
     126       0              13       0                               0D     64
     126      98                                                00010000D     65
     126       0              14       0                               0D     66
     126     112                                                00010000D     67
     126       0               7       0                               0D     68
     126     119                                                00010000D     69
     126       0               9       0                               0D     70
     126     128                                                00010000D     71
     126       0              13       0                               0D     72
     126     141                                                00010000D     73
     126       0               3       0                               0D     74
     126     144                                                00010000D     75
     126       0               5       0                               0D     76
     128     149                                                00010000D     77
     128       0    -109       5       0                               0D     78
     128     154                                                00010000D     79
     128       0    -109       5       0                               0D     80
     128     159                                                00010000D     81
     128       0    -109      21       0                               0D     82
     128     180                                                00010000D     83
     128       0    -109      22       0                               0D     84
     128     202                                                00010000D     85
     128       0    -109       5       0                               0D     86
     128     207                                                00010000D     87
     128       0    -109       5       0                               0D     88
     128     212                                                00010000D     89
     128       0    -109      22       0                               0D     90
     128     234                                                00010000D     91
     128       0    -109      23       0                               0D     92
     502     257                                                00010000D     93
     502                       4       1                               0D     94
     502     261                                                00010000D     95
     502                       5       1                               0D     96
     504     266                                                00010001D     97
     504                       2       1                               0D     98
     504     268                                                00010001D     99
     504                       2       1                               0D    100
     406     270                                                00000000D    101
     406                       1      15                               0D    102
     406     271                                                00000000D    103
     406                       1      15                               0D    104
     406     272                       1                        00000000D    105
     406            -107       1       3                               0D    106
     314     273                                                00000200D    107
     314                       1       0                               0D    108
     314     274                                                00000200D    109
     314                       1       0                               0D    110
186,5,1,0,0,1,101;                                                     1P      1
186,7,1,0,0,1,103;                                                     3P      2
514,4,9,1,11,1,13,1,15,1;                                              5P      3
514,4,17,1,19,1,21,1,23,1;                                             7P      4
510,77,2,1,25,27;                                                      9P      5
510,79,2,1,29,31;                                                     11P      6
510,81,1,1,33;                                                        13P      7
510,83,1,1,35;                                                        15P      8
510,85,2,1,37,39;                                                     17P      9
510,87,2,1,41,43;                                                     19P     10
510,89,1,1,45;                                                        21P     11
510,91,1,1,47;                                                        23P     12
508,1,0,97,1,0,0;                                                     25P     13
508,1,0,97,2,0,0;                                                     27P     14
508,2,0,97,3,1,0,0,97,4,1,0;                                          29P     15
508,1,0,97,5,1,0;                                                     31P     16
508,5,0,97,1,1,0,0,97,6,1,0,0,97,3,0,0,0,97,4,0,0,0,97,6,0,0;         33P     17
508,4,0,97,2,1,0,0,97,7,1,0,0,97,5,0,0,0,97,7,0,0;                    35P     18
508,1,0,99,1,0,0;                                                     37P     19
508,1,0,99,2,0,0;                                                     39P     20
508,2,0,99,3,1,0,0,99,4,1,0;                                          41P     21
508,1,0,99,5,1,0;                                                     43P     22
508,5,0,99,1,1,0,0,99,6,1,0,0,99,3,0,0,0,99,4,0,0,0,99,6,0,0;         45P     23
508,4,0,99,2,1,0,0,99,7,1,0,0,99,5,0,0,0,99,7,0,0;                    47P     24
126,8,2,0,1,0,0,-3.14159265358979,-3.14159265358979,                  49P     25
-3.14159265358979,-1.5707963267949,-1.5707963267949,0.,0.,            49P     26
1.5707963267949,1.5707963267949,3.14159265358979,                     49P     27
3.14159265358979,3.14159265358979,1.,0.707106781186548,1.,            49P     28
0.707106781186548,1.,0.707106781186548,1.,0.707106781186548,1.,       49P     29
96.499999993381,-7.35634529409339D-12,231.6,96.499999993381,          49P     30
-2.50000000000736,231.6,93.999999993381,-2.50000000000736,231.6,      49P     31
91.499999993381,-2.50000000000736,231.6,91.499999993381,              49P     32
-7.3560391323936D-12,231.6,91.499999993381,2.49999999999264,          49P     33
231.6,93.999999993381,2.49999999999264,231.6,96.499999993381,         49P     34
2.49999999999264,231.6,96.499999993381,-7.35573297069382D-12,         49P     35
231.6,-3.14159265358979,3.14159265358979,0.,0.,0.;                    49P     36
126,8,2,0,1,0,0,-3.14159265358979,-3.14159265358979,                  51P     37
-3.14159265358979,-1.5707963267949,-1.5707963267949,                  51P     38
-4.44089209850063D-16,-4.44089209850063D-16,1.5707963267949,          51P     39
1.5707963267949,3.14159265358979,3.14159265358979,                    51P     40
3.14159265358979,1.,0.707106781186542,1.,0.707106781186541,1.,        51P     41
0.707106781186542,1.,0.707106781186542,1.,95.599999993381,            51P     42
-7.34774853161226D-12,231.6,95.599999993381,1.59999999999265,         51P     43
231.6,93.999999993381,1.59999999999265,231.6,92.399999993381,         51P     44
1.59999999999265,231.6,92.399999993381,-7.3465233896286D-12,          51P     45
231.6,92.399999993381,-1.60000000000735,231.6,93.999999993381,        51P     46
-1.60000000000735,231.6,95.599999993381,-1.60000000000735,231.6,      51P     47
95.599999993381,-7.34814041858798D-12,231.6,-3.14159265358979,        51P     48
3.14159265358979,0.,0.,0.;                                            51P     49
126,4,2,0,0,0,0,0.,0.,0.,1.5707963267949,1.5707963267949,             53P     50
3.14159265358979,3.14159265358979,3.14159265358979,1.,                53P     51
0.707106781186548,1.,0.707106781186548,1.,91.499999993381,            53P     52
-7.3560391323936D-12,201.6,91.499999993381,2.49999999999264,          53P     53
201.6,93.999999993381,2.49999999999264,201.6,96.499999993381,         53P     54
2.49999999999264,201.6,96.499999993381,-7.35573297069382D-12,         53P     55
201.6,0.,3.14159265358979,0.,0.,0.;                                   53P     56
126,4,2,0,0,0,0,3.14159265358979,3.14159265358979,                    55P     57
3.14159265358979,4.71238898038469,4.71238898038469,                   55P     58
6.28318530717959,6.28318530717959,6.28318530717959,1.,                55P     59
0.707106781186548,1.,0.707106781186548,1.,96.499999993381,            55P     60
-7.35573297069382D-12,201.6,96.499999993381,-2.50000000000736,        55P     61
201.6,93.999999993381,-2.50000000000736,201.6,91.499999993381,        55P     62
-2.50000000000736,201.6,91.499999993381,-7.35665145579318D-12,        55P     63
201.6,3.14159265358979,6.28318530717959,0.,0.,0.;                     55P     64
126,8,2,0,1,0,0,-3.14159265358979,-3.14159265358979,                  57P     65
-3.14159265358979,-1.5707963267949,-1.5707963267949,0.,0.,            57P     66
1.5707963267949,1.5707963267949,3.14159265358979,                     57P     67
3.14159265358979,3.14159265358979,1.,0.707106781186542,1.,            57P     68
0.707106781186542,1.,0.707106781186542,1.,0.707106781186542,1.,       57P     69
95.599999993381,-7.34336404847905D-12,201.6,95.599999993381,          57P     70
1.59999999999266,201.6,93.999999993381,1.59999999999266,201.6,        57P     71
92.399999993381,1.59999999999266,201.6,92.399999993381,               57P     72
-7.34355999196692D-12,201.6,92.399999993381,-1.60000000000734,        57P     73
201.6,93.999999993381,-1.60000000000734,201.6,95.599999993381,        57P     74
-1.60000000000734,201.6,95.599999993381,-7.34375593545478D-12,        57P     75
201.6,-3.14159265358979,3.14159265358979,0.,0.,0.;                    57P     76
126,1,1,0,0,1,0,-9.,-9.,2.99999999999999,2.99999999999999,1.,1.,      59P     77
96.499999993381,-7.3560391323936D-12,231.6,96.499999993381,           59P     78
-7.3560391323936D-12,201.6,-9.,2.99999999999999,0.,0.,0.;             59P     79
126,1,1,0,0,1,0,-21.8300852400154,-21.8300852400154,                  61P     80
-3.08008524001539,-3.08008524001539,1.,1.,95.599999993381,            61P     81
-7.34723393236436D-12,231.6,95.599999993381,                          61P     82
-7.34355999196692D-12,201.6,-21.8300852400154,-3.08008524001539,      61P     83
0.,0.,0.;                                                             61P     84
126,8,2,0,1,0,0,-3.14159265358979,-3.14159265358979,                  63P     85
-3.14159265358979,-1.5707963267949,-1.5707963267949,0.,0.,            63P     86
1.5707963267949,1.5707963267949,3.14159265358979,                     63P     87
3.14159265358979,3.14159265358979,1.,0.707106781186548,1.,            63P     88
0.707106781186548,1.,0.707106781186548,1.,0.707106781186548,1.,       63P     89
-91.4999999934352,-7.35257053580967D-12,231.6,-91.4999999934352,      63P     90
-2.50000000000735,231.6,-93.9999999934352,-2.50000000000735,          63P     91
231.6,-96.4999999934352,-2.50000000000735,231.6,                      63P     92
-96.4999999934352,-7.35226437410988D-12,231.6,-96.4999999934352,      63P     93
2.49999999999265,231.6,-93.9999999934352,2.49999999999265,231.6,      63P     94
-91.4999999934352,2.49999999999265,231.6,-91.4999999934352,           63P     95
-7.35195821241009D-12,231.6,-3.14159265358979,3.14159265358979,       63P     96
0.,0.,0.;                                                             63P     97
126,8,2,0,1,0,0,-3.14159265358979,-3.14159265358979,                  65P     98
-3.14159265358979,-1.5707963267949,-1.5707963267949,                  65P     99
-4.44089209850063D-16,-4.44089209850063D-16,1.5707963267949,          65P    100
1.5707963267949,3.14159265358979,3.14159265358979,                    65P    101
3.14159265358979,1.,0.707106781186542,1.,0.707106781186541,1.,        65P    102
0.707106781186542,1.,0.707106781186542,1.,-92.3999999934352,          65P    103
-7.34397377332853D-12,231.6,-92.3999999934352,1.59999999999266,       65P    104
231.6,-93.9999999934352,1.59999999999266,231.6,                       65P    105
-95.5999999934352,1.59999999999266,231.6,-95.5999999934352,           65P    106
-7.34274863134488D-12,231.6,-95.5999999934352,-1.60000000000734,      65P    107
231.6,-93.9999999934352,-1.60000000000734,231.6,                      65P    108
-92.3999999934352,-1.60000000000734,231.6,-92.3999999934352,          65P    109
-7.34436566030426D-12,231.6,-3.14159265358979,3.14159265358979,       65P    110
0.,0.,0.;                                                             65P    111
126,4,2,0,0,0,0,0.,0.,0.,1.5707963267949,1.5707963267949,             67P    112
3.14159265358979,3.14159265358979,3.14159265358979,1.,                67P    113
0.707106781186548,1.,0.707106781186548,1.,-96.4999999934352,          67P    114
-7.35226437410988D-12,201.6,-96.4999999934352,2.49999999999265,       67P    115
201.6,-93.9999999934352,2.49999999999265,201.6,                       67P    116
-91.4999999934352,2.49999999999265,201.6,-91.4999999934352,           67P    117
-7.35195821241009D-12,201.6,0.,3.14159265358979,0.,0.,0.;             67P    118
126,4,2,0,0,0,0,3.14159265358979,3.14159265358979,                    69P    119
3.14159265358979,4.71238898038469,4.71238898038469,                   69P    120
6.28318530717959,6.28318530717959,6.28318530717959,1.,                69P    121
0.707106781186548,1.,0.707106781186548,1.,-91.4999999934352,          69P    122
-7.35195821241009D-12,201.6,-91.4999999934352,-2.50000000000735,      69P    123
201.6,-93.9999999934352,-2.50000000000735,201.6,                      69P    124
-96.4999999934352,-2.50000000000735,201.6,-96.4999999934352,          69P    125
-7.35287669750945D-12,201.6,3.14159265358979,6.28318530717959,        69P    126
0.,0.,0.;                                                             69P    127
126,8,2,0,1,0,0,-3.14159265358979,-3.14159265358979,                  71P    128
-3.14159265358979,-1.5707963267949,-1.5707963267949,0.,0.,            71P    129
1.5707963267949,1.5707963267949,3.14159265358979,                     71P    130
3.14159265358979,3.14159265358979,1.,0.707106781186542,1.,            71P    131
0.707106781186542,1.,0.707106781186542,1.,0.707106781186542,1.,       71P    132
-92.3999999934352,-7.33958929019533D-12,201.6,-92.3999999934352,      71P    133
1.59999999999266,201.6,-93.9999999934352,1.59999999999266,201.6,      71P    134
-95.5999999934352,1.59999999999266,201.6,-95.5999999934352,           71P    135
-7.33978523368319D-12,201.6,-95.5999999934352,-1.60000000000734,      71P    136
201.6,-93.9999999934352,-1.60000000000734,201.6,                      71P    137
-92.3999999934352,-1.60000000000734,201.6,-92.3999999934352,          71P    138
-7.33998117717106D-12,201.6,-3.14159265358979,3.14159265358979,       71P    139
0.,0.,0.;                                                             71P    140
126,1,1,0,0,1,0,-9.,-9.,2.99999999999999,2.99999999999999,1.,1.,      73P    141
-91.4999999934352,-7.35226437410988D-12,231.6,-91.4999999934352,      73P    142
-7.35226437410988D-12,201.6,-9.,2.99999999999999,0.,0.,0.;            73P    143
126,1,1,0,0,1,0,-21.8300852400154,-21.8300852400154,                  75P    144
-3.08008524001539,-3.08008524001539,1.,1.,-92.3999999934352,          75P    145
-7.34345917408064D-12,231.6,-92.3999999934352,                        75P    146
-7.33978523368319D-12,201.6,-21.8300852400154,-3.08008524001539,      75P    147
0.,0.,0.;                                                             75P    148
128,1,1,1,1,0,0,1,0,0,-2.501,-2.501,2.501,2.501,-2.501,-2.501,        77P    149
2.501,2.501,1.,1.,1.,1.,96.500999993381,2.50099999999264,231.6,       77P    150
91.498999993381,2.50099999999264,231.6,96.500999993381,               77P    151
-2.50100000000736,231.6,91.498999993381,-2.50100000000736,231.6,      77P    152
-2.501,2.501,-2.501,2.501;                                            77P    153
128,1,1,1,1,0,0,1,0,0,-2.501,-2.501,2.501,2.501,-2.501,-2.501,        79P    154
2.501,2.501,1.,1.,1.,1.,91.498999993381,2.50099999999264,201.6,       79P    155
96.500999993381,2.50099999999264,201.6,91.498999993381,               79P    156
-2.50100000000736,201.6,96.500999993381,-2.50100000000736,201.6,      79P    157
-2.501,2.501,-2.501,2.501;                                            79P    158
128,1,8,1,2,0,1,0,0,1,-2.99999999999999,-2.99999999999999,9.,9.,      81P    159
-3.14159265358979,-3.14159265358979,-3.14159265358979,                81P    160
-1.5707963267949,-1.5707963267949,0.,0.,1.5707963267949,              81P    161
1.5707963267949,3.14159265358979,3.14159265358979,                    81P    162
3.14159265358979,1.,1.,0.707106781186548,0.707106781186548,1.,        81P    163
1.,0.707106781186548,0.707106781186548,1.,1.,0.707106781186548,       81P    164
0.707106781186548,1.,1.,0.707106781186548,0.707106781186548,1.,       81P    165
1.,96.499999993381,-7.3560391323936D-12,231.6,96.499999993381,        81P    166
-7.3560391323936D-12,201.6,96.499999993381,2.49999999999264,          81P    167
231.6,96.499999993381,2.49999999999264,201.6,93.999999993381,         81P    168
2.49999999999264,231.6,93.999999993381,2.49999999999264,201.6,        81P    169
91.499999993381,2.49999999999264,231.6,91.499999993381,               81P    170
2.49999999999264,201.6,91.499999993381,-7.3560391323936D-12,          81P    171
231.6,91.499999993381,-7.3560391323936D-12,201.6,                     81P    172
91.499999993381,-2.50000000000736,231.6,91.499999993381,              81P    173
-2.50000000000736,201.6,93.999999993381,-2.50000000000736,231.6,      81P    174
93.999999993381,-2.50000000000736,201.6,96.499999993381,              81P    175
-2.50000000000736,231.6,96.499999993381,-2.50000000000736,201.6,      81P    176
96.499999993381,-7.3560391323936D-12,231.6,96.499999993381,           81P    177
-7.3560391323936D-12,201.6,-2.99999999999999,9.,                      81P    178
-3.14159265358979,3.14159265358979;                                   81P    179
128,1,8,1,2,0,1,0,0,1,-21.8300852400154,-21.8300852400154,            83P    180
-3.08008524001539,-3.08008524001539,-3.14159265358979,                83P    181
-3.14159265358979,-3.14159265358979,-1.5707963267949,                 83P    182
-1.5707963267949,0.,0.,1.5707963267949,1.5707963267949,               83P    183
3.14159265358979,3.14159265358979,3.14159265358979,1.,1.,             83P    184
0.707106781186548,0.707106781186548,1.,1.,0.707106781186548,          83P    185
0.707106781186548,1.,1.,0.707106781186548,0.707106781186548,1.,       83P    186
1.,0.707106781186548,0.707106781186548,1.,1.,95.599999993381,         83P    187
-7.34723393236436D-12,231.6,95.599999993381,                          83P    188
-7.34355999196692D-12,201.6,95.599999993381,-1.60000000000735,        83P    189
231.6,95.599999993381,-1.60000000000734,201.6,93.999999993381,        83P    190
-1.60000000000735,231.6,93.999999993381,-1.60000000000735,201.6,      83P    191
92.399999993381,-1.60000000000735,231.6,92.399999993381,              83P    192
-1.60000000000734,201.6,92.399999993381,-7.34723393236436D-12,        83P    193
231.6,92.399999993381,-7.34355999196692D-12,201.6,                    83P    194
92.399999993381,1.59999999999265,231.6,92.399999993381,               83P    195
1.59999999999266,201.6,93.999999993381,1.59999999999265,231.6,        83P    196
93.999999993381,1.59999999999266,201.6,95.599999993381,               83P    197
1.59999999999265,231.6,95.599999993381,1.59999999999266,201.6,        83P    198
95.599999993381,-7.34723393236436D-12,231.6,95.599999993381,          83P    199
-7.34355999196692D-12,201.6,-21.8300852400154,-3.08008524001539,      83P    200
-3.14159265358979,3.14159265358979;                                   83P    201
128,1,1,1,1,0,0,1,0,0,-2.501,-2.501,2.501,2.501,-2.501,-2.501,        85P    202
2.501,2.501,1.,1.,1.,1.,-91.4989999934352,2.50099999999265,           85P    203
231.6,-96.5009999934352,2.50099999999265,231.6,                       85P    204
-91.4989999934352,-2.50100000000735,231.6,-96.5009999934352,          85P    205
-2.50100000000735,231.6,-2.501,2.501,-2.501,2.501;                    85P    206
128,1,1,1,1,0,0,1,0,0,-2.501,-2.501,2.501,2.501,-2.501,-2.501,        87P    207
2.501,2.501,1.,1.,1.,1.,-96.5009999934352,2.50099999999265,           87P    208
201.6,-91.4989999934352,2.50099999999265,201.6,                       87P    209
-96.5009999934352,-2.50100000000735,201.6,-91.4989999934352,          87P    210
-2.50100000000735,201.6,-2.501,2.501,-2.501,2.501;                    87P    211
128,1,8,1,2,0,1,0,0,1,-2.99999999999999,-2.99999999999999,9.,9.,      89P    212
-3.14159265358979,-3.14159265358979,-3.14159265358979,                89P    213
-1.5707963267949,-1.5707963267949,0.,0.,1.5707963267949,              89P    214
1.5707963267949,3.14159265358979,3.14159265358979,                    89P    215
3.14159265358979,1.,1.,0.707106781186548,0.707106781186548,1.,        89P    216
1.,0.707106781186548,0.707106781186548,1.,1.,0.707106781186548,       89P    217
0.707106781186548,1.,1.,0.707106781186548,0.707106781186548,1.,       89P    218
1.,-91.4999999934352,-7.35226437410988D-12,231.6,                     89P    219
-91.4999999934352,-7.35226437410988D-12,201.6,-91.4999999934352,      89P    220
2.49999999999265,231.6,-91.4999999934352,2.49999999999265,201.6,      89P    221
-93.9999999934352,2.49999999999265,231.6,-93.9999999934352,           89P    222
2.49999999999265,201.6,-96.4999999934352,2.49999999999265,231.6,      89P    223
-96.4999999934352,2.49999999999265,201.6,-96.4999999934352,           89P    224
-7.35226437410988D-12,231.6,-96.4999999934352,                        89P    225
-7.35226437410988D-12,201.6,-96.4999999934352,-2.50000000000735,      89P    226
231.6,-96.4999999934352,-2.50000000000735,201.6,                      89P    227
-93.9999999934352,-2.50000000000735,231.6,-93.9999999934352,          89P    228
-2.50000000000735,201.6,-91.4999999934352,-2.50000000000735,          89P    229
231.6,-91.4999999934352,-2.50000000000735,201.6,                      89P    230
-91.4999999934352,-7.35226437410988D-12,231.6,-91.4999999934352,      89P    231
-7.35226437410988D-12,201.6,-2.99999999999999,9.,                     89P    232
-3.14159265358979,3.14159265358979;                                   89P    233
128,1,8,1,2,0,1,0,0,1,-21.8300852400154,-21.8300852400154,            91P    234
-3.08008524001539,-3.08008524001539,-3.14159265358979,                91P    235
-3.14159265358979,-3.14159265358979,-1.5707963267949,                 91P    236
-1.5707963267949,0.,0.,1.5707963267949,1.5707963267949,               91P    237
3.14159265358979,3.14159265358979,3.14159265358979,1.,1.,             91P    238
0.707106781186548,0.707106781186548,1.,1.,0.707106781186548,          91P    239
0.707106781186548,1.,1.,0.707106781186548,0.707106781186548,1.,       91P    240
1.,0.707106781186548,0.707106781186548,1.,1.,-92.3999999934352,       91P    241
-7.34345917408064D-12,231.6,-92.3999999934352,                        91P    242
-7.33978523368319D-12,201.6,-92.3999999934352,-1.60000000000734,      91P    243
231.6,-92.3999999934352,-1.60000000000734,201.6,                      91P    244
-93.9999999934352,-1.60000000000735,231.6,-93.9999999934352,          91P    245
-1.60000000000734,201.6,-95.5999999934352,-1.60000000000734,          91P    246
231.6,-95.5999999934352,-1.60000000000734,201.6,                      91P    247
-95.5999999934352,-7.34345917408064D-12,231.6,-95.5999999934352,      91P    248
-7.33978523368319D-12,201.6,-95.5999999934352,1.59999999999266,       91P    249
231.6,-95.5999999934352,1.59999999999266,201.6,                       91P    250
-93.9999999934352,1.59999999999266,231.6,-93.9999999934352,           91P    251
1.59999999999266,201.6,-92.3999999934352,1.59999999999266,231.6,      91P    252
-92.3999999934352,1.59999999999266,201.6,-92.3999999934352,           91P    253
-7.34345917408064D-12,231.6,-92.3999999934352,                        91P    254
-7.33978523368319D-12,201.6,-21.8300852400154,-3.08008524001539,      91P    255
-3.14159265358979,3.14159265358979;                                   91P    256
502,5,96.499999993381,-7.35573297069382D-12,231.6,                    93P    257
95.599999993381,-7.3470379888765D-12,231.6,91.499999993381,           93P    258
-7.3560391323936D-12,201.6,96.499999993381,-7.3560391323936D-12,      93P    259
201.6,95.599999993381,-7.34336404847905D-12,201.6;                    93P    260
502,5,-91.4999999934352,-7.35195821241009D-12,231.6,                  95P    261
-92.3999999934352,-7.34326323059277D-12,231.6,-96.4999999934352,      95P    262
-7.35226437410988D-12,201.6,-91.4999999934352,                        95P    263
-7.35226437410988D-12,201.6,-92.3999999934352,                        95P    264
-7.33958929019533D-12,201.6;                                          95P    265
504,7,49,93,1,93,1,51,93,2,93,2,53,93,3,93,4,55,93,4,93,3,57,93,      97P    266
5,93,5,59,93,1,93,4,61,93,2,93,5;                                     97P    267
504,7,63,95,1,95,1,65,95,2,95,2,67,95,3,95,4,69,95,4,95,3,71,95,      99P    268
5,95,5,73,95,1,95,4,75,95,2,95,5;                                     99P    269
406,1,2H74;                                                          101P    270
406,1,2H78;                                                          103P    271
406,2,0,17HLayer 4 to Handle;                                        105P    272
314,100.,100.,100.,;                                                 107P    273
314,100.,100.,100.,;                                                 109P    274
S      1G      4D    110P    274                                        T      1
