                                                                        S      1
,,,19HLayer 3 to 4 Stands,22HAutoCAD 2022 - English,62HAutodesk TranslatG      1
ion Framework DWG producer (atf_dwg_producer),32,38,7,99,15,,1.,2,2HMM, G      2
1,0.08,15H20220120.230044,0.01,10000.,,7Hunknown,11,0,15H20210411.131402G      3
;                                                                       G      4
     186       1                       1                        00000000D      1
     186            -179       1       0                               0D      2
     186       2                       1                        00000000D      3
     186            -179       1       0                               0D      4
     186       3                       1                        00000000D      5
     186            -179       1       0                               0D      6
     514       4                                                00010000D      7
     514                       1       1                               0D      8
     514       5                                                00010000D      9
     514                       1       1                               0D     10
     514       6                                                00010000D     11
     514                       1       1                               0D     12
     510       7                                                00010000D     13
     510            -179       1       1                               0D     14
     510       8                                                00010000D     15
     510            -179       1       1                               0D     16
     510       9                                                00010000D     17
     510            -179       1       1                               0D     18
     510      10                                                00010000D     19
     510            -179       1       1                               0D     20
     510      11                                                00010000D     21
     510            -179       1       1                               0D     22
     510      12                                                00010000D     23
     510            -179       1       1                               0D     24
     510      13                                                00010000D     25
     510            -179       1       1                               0D     26
     510      14                                                00010000D     27
     510            -179       1       1                               0D     28
     510      15                                                00010000D     29
     510            -179       1       1                               0D     30
     510      16                                                00010000D     31
     510            -179       1       1                               0D     32
     510      17                                                00010000D     33
     510            -179       1       1                               0D     34
     510      18                                                00010000D     35
     510            -179       1       1                               0D     36
     508      19                                                00010000D     37
     508                       1       1                               0D     38
     508      20                                                00010000D     39
     508                       1       1                               0D     40
     508      21                                                00010000D     41
     508                       1       1                               0D     42
     508      22                                                00010000D     43
     508                       1       1                               0D     44
     508      23                                                00010000D     45
     508                       2       1                               0D     46
     508      25                                                00010000D     47
     508                       2       1                               0D     48
     508      27                                                00010000D     49
     508                       1       1                               0D     50
     508      28                                                00010000D     51
     508                       1       1                               0D     52
     508      29                                                00010000D     53
     508                       1       1                               0D     54
     508      30                                                00010000D     55
     508                       1       1                               0D     56
     508      31                                                00010000D     57
     508                       2       1                               0D     58
     508      33                                                00010000D     59
     508                       2       1                               0D     60
     508      35                                                00010000D     61
     508                       1       1                               0D     62
     508      36                                                00010000D     63
     508                       1       1                               0D     64
     508      37                                                00010000D     65
     508                       1       1                               0D     66
     508      38                                                00010000D     67
     508                       1       1                               0D     68
     508      39                                                00010000D     69
     508                       2       1                               0D     70
     508      41                                                00010000D     71
     508                       2       1                               0D     72
     126      43                                                00010000D     73
     126       0               8       0                               0D     74
     126      51                                                00010000D     75
     126       0               7       0                               0D     76
     126      58                                                00010000D     77
     126       0              13       0                               0D     78
     126      71                                                00010000D     79
     126       0               8       0                               0D     80
     126      79                                                00010000D     81
     126       0              10       0                               0D     82
     126      89                                                00010000D     83
     126       0              15       0                               0D     84
     126     104                                                00010000D     85
     126       0               4       0                               0D     86
     126     108                                                00010000D     87
     126       0               3       0                               0D     88
     126     111                                                00010000D     89
     126       0               3       0                               0D     90
     126     114                                                00010000D     91
     126       0               5       0                               0D     92
     126     119                                                00010000D     93
     126       0               8       0                               0D     94
     126     127                                                00010000D     95
     126       0               7       0                               0D     96
     126     134                                                00010000D     97
     126       0              13       0                               0D     98
     126     147                                                00010000D     99
     126       0               7       0                               0D    100
     126     154                                                00010000D    101
     126       0               8       0                               0D    102
     126     162                                                00010000D    103
     126       0              12       0                               0D    104
     126     174                                                00010000D    105
     126       0               3       0                               0D    106
     126     177                                                00010000D    107
     126       0               4       0                               0D    108
     126     181                                                00010000D    109
     126       0               3       0                               0D    110
     126     184                                                00010000D    111
     126       0               5       0                               0D    112
     126     189                                                00010000D    113
     126       0               8       0                               0D    114
     126     197                                                00010000D    115
     126       0               7       0                               0D    116
     126     204                                                00010000D    117
     126       0              13       0                               0D    118
     126     217                                                00010000D    119
     126       0               7       0                               0D    120
     126     224                                                00010000D    121
     126       0               8       0                               0D    122
     126     232                                                00010000D    123
     126       0              12       0                               0D    124
     126     244                                                00010000D    125
     126       0               4       0                               0D    126
     126     248                                                00010000D    127
     126       0               3       0                               0D    128
     126     251                                                00010000D    129
     126       0               3       0                               0D    130
     126     254                                                00010000D    131
     126       0               5       0                               0D    132
     128     259                                                00010000D    133
     128       0    -179       5       0                               0D    134
     128     264                                                00010000D    135
     128       0    -179       6       0                               0D    136
     128     270                                                00010000D    137
     128       0    -179      24       0                               0D    138
     128     294                                                00010000D    139
     128       0    -179      25       0                               0D    140
     128     319                                                00010000D    141
     128       0    -179       5       0                               0D    142
     128     324                                                00010000D    143
     128       0    -179       5       0                               0D    144
     128     329                                                00010000D    145
     128       0    -179      21       0                               0D    146
     128     350                                                00010000D    147
     128       0    -179      22       0                               0D    148
     128     372                                                00010000D    149
     128       0    -179       5       0                               0D    150
     128     377                                                00010000D    151
     128       0    -179       5       0                               0D    152
     128     382                                                00010000D    153
     128       0    -179      21       0                               0D    154
     128     403                                                00010000D    155
     128       0    -179      22       0                               0D    156
     502     425                                                00010000D    157
     502                       7       1                               0D    158
     502     432                                                00010000D    159
     502                       8       1                               0D    160
     502     440                                                00010000D    161
     502                       8       1                               0D    162
     504     448                                                00010001D    163
     504                       3       1                               0D    164
     504     451                                                00010001D    165
     504                       3       1                               0D    166
     504     454                                                00010001D    167
     504                       3       1                               0D    168
     406     457                                                00000000D    169
     406                       1      15                               0D    170
     406     458                                                00000000D    171
     406                       1      15                               0D    172
     406     459                                                00000000D    173
     406                       1      15                               0D    174
     406     460                       1                        00000000D    175
     406            -177       1       3                               0D    176
     314     461                                                00000200D    177
     314                       1       0                               0D    178
     314     462                                                00000200D    179
     314                       1       0                               0D    180
186,7,1,0,0,1,169;                                                     1P      1
186,9,1,0,0,1,171;                                                     3P      2
186,11,1,0,0,1,173;                                                    5P      3
514,4,13,1,15,1,17,1,19,1;                                             7P      4
514,4,21,1,23,1,25,1,27,1;                                             9P      5
514,4,29,1,31,1,33,1,35,1;                                            11P      6
510,133,2,1,37,39;                                                    13P      7
510,135,2,1,41,43;                                                    15P      8
510,137,1,1,45;                                                       17P      9
510,139,1,1,47;                                                       19P     10
510,141,2,1,49,51;                                                    21P     11
510,143,2,1,53,55;                                                    23P     12
510,145,1,1,57;                                                       25P     13
510,147,1,1,59;                                                       27P     14
510,149,2,1,61,63;                                                    29P     15
510,151,2,1,65,67;                                                    31P     16
510,153,1,1,69;                                                       33P     17
510,155,1,1,71;                                                       35P     18
508,2,0,163,1,0,0,0,163,2,0,0;                                        37P     19
508,1,0,163,3,0,0;                                                    39P     20
508,2,0,163,4,1,0,0,163,5,1,0;                                        41P     21
508,1,0,163,6,1,0;                                                    43P     22
508,8,0,163,1,1,0,0,163,7,1,0,0,163,4,0,0,0,163,5,0,0,0,163,7,0,      45P     23
0,0,163,2,1,0,0,163,8,0,0,0,163,8,1,0;                                45P     24
508,6,0,163,3,1,0,0,163,9,0,0,0,163,10,1,0,0,163,6,0,0,0,163,10,      47P     25
0,0,0,163,9,1,0;                                                      47P     26
508,2,0,165,1,1,0,0,165,2,1,0;                                        49P     27
508,1,0,165,3,1,0;                                                    51P     28
508,2,0,165,4,0,0,0,165,5,0,0;                                        53P     29
508,1,0,165,6,0,0;                                                    55P     30
508,8,0,165,1,0,0,0,165,7,0,0,0,165,7,1,0,0,165,2,0,0,0,165,8,1,      57P     31
0,0,165,5,1,0,0,165,4,1,0,0,165,8,0,0;                                57P     32
508,6,0,165,3,0,0,0,165,9,0,0,0,165,10,1,0,0,165,6,1,0,0,165,10,      59P     33
0,0,0,165,9,1,0;                                                      59P     34
508,2,0,167,1,0,0,0,167,2,0,0;                                        61P     35
508,1,0,167,3,0,0;                                                    63P     36
508,2,0,167,4,1,0,0,167,5,1,0;                                        65P     37
508,1,0,167,6,1,0;                                                    67P     38
508,8,0,167,1,1,0,0,167,7,1,0,0,167,4,0,0,0,167,5,0,0,0,167,7,0,      69P     39
0,0,167,2,1,0,0,167,8,0,0,0,167,8,1,0;                                69P     40
508,6,0,167,3,1,0,0,167,9,0,0,0,167,10,1,0,0,167,6,0,0,0,167,10,      71P     41
0,0,0,167,9,1,0;                                                      71P     42
126,4,2,0,0,0,0,-6.28318530717959,-6.28318530717959,                  73P     43
-6.28318530717959,-4.71238898038469,-4.71238898038469,                73P     44
-3.14159265358979,-3.14159265358979,-3.14159265358979,1.,             73P     45
0.707106781186548,1.,0.707106781186548,1.,-2.50000000006236,          73P     46
-93.4999999933802,200.,-2.50000000006236,-90.9999999933802,200.,      73P     47
-6.23572304903064D-11,-90.9999999933802,200.,2.49999999993764,        73P     48
-90.9999999933802,200.,2.49999999993764,-93.4999999933802,200.,       73P     49
-6.28318530717959,-3.14159265358979,0.,0.,0.;                         73P     50
126,4,2,0,0,0,0,-3.14159265358979,-3.14159265358979,                  75P     51
-3.14159265358979,-1.5707963267949,-1.5707963267949,0.,0.,0.,1.,      75P     52
0.707106781186548,1.,0.707106781186548,1.,2.49999999993764,           75P     53
-93.4999999933802,200.,2.49999999993764,-95.9999999933802,200.,       75P     54
-6.23572304903064D-11,-95.9999999933802,200.,-2.50000000006236,       75P     55
-95.9999999933802,200.,-2.50000000006236,-93.4999999933802,200.,      75P     56
-3.14159265358979,0.,0.,0.,0.;                                        75P     57
126,8,2,0,1,0,0,-3.14159265358979,-3.14159265358979,                  77P     58
-3.14159265358979,-1.5707963267949,-1.5707963267949,                  77P     59
-4.44089209850063D-16,-4.44089209850063D-16,1.5707963267949,          77P     60
1.5707963267949,3.14159265358979,3.14159265358979,                    77P     61
3.14159265358979,1.,0.707106781186541,1.,0.707106781186541,1.,        77P     62
0.707106781186542,1.,0.707106781186542,1.,1.59999999993763,           77P     63
-93.4999999933802,200.,1.59999999993763,-91.8999999933802,200.,       77P     64
-6.23714413450216D-11,-91.8999999933802,200.,-1.60000000006237,       77P     65
-91.8999999933802,200.,-1.60000000006237,-93.4999999933802,200.,      77P     66
-1.60000000006237,-95.0999999933802,200.,-6.23714413450216D-11,       77P     67
-95.0999999933802,200.,1.59999999993763,-95.0999999933802,200.,       77P     68
1.59999999993763,-93.4999999933802,200.,-3.14159265358979,            77P     69
3.14159265358979,0.,0.,0.;                                            77P     70
126,4,2,0,0,0,0,0.,0.,0.,1.5707963267949,1.5707963267949,             79P     71
3.14159265358979,3.14159265358979,3.14159265358979,1.,                79P     72
0.707106781186548,1.,0.707106781186548,1.,-2.50000000006236,          79P     73
-93.4999999933802,71.7999999999999,-2.50000000006236,                 79P     74
-90.9999999933802,71.7999999999999,-6.23572304903064D-11,             79P     75
-90.9999999933802,71.7999999999999,2.49999999993764,                  79P     76
-90.9999999933802,71.7999999999999,2.49999999993764,                  79P     77
-93.4999999933802,71.7999999999999,0.,3.14159265358979,0.,0.,0.;      79P     78
126,4,2,0,0,0,0,3.14159265358979,3.14159265358979,                    81P     79
3.14159265358979,4.71238898038469,4.71238898038469,                   81P     80
6.28318530717959,6.28318530717959,6.28318530717959,1.,                81P     81
0.707106781186548,1.,0.707106781186548,1.,2.49999999993764,           81P     82
-93.4999999933802,71.7999999999999,2.49999999993764,                  81P     83
-95.9999999933802,71.7999999999999,-6.23572304903064D-11,             81P     84
-95.9999999933802,71.7999999999999,-2.50000000006236,                 81P     85
-95.9999999933802,71.7999999999999,-2.50000000006236,                 81P     86
-93.4999999933802,71.7999999999999,3.14159265358979,                  81P     87
6.28318530717959,0.,0.,0.;                                            81P     88
126,8,2,0,1,0,0,-3.14159265358979,-3.14159265358979,                  83P     89
-3.14159265358979,-1.5707963267949,-1.5707963267949,0.,0.,            83P     90
1.5707963267949,1.5707963267949,3.14159265358979,                     83P     91
3.14159265358979,3.14159265358979,1.,0.707106781186542,1.,            83P     92
0.707106781186542,1.,0.707106781186542,1.,0.707106781186542,1.,       83P     93
1.59999999993763,-93.4999999933802,71.7999999999999,                  83P     94
1.59999999993763,-91.8999999933802,71.7999999999999,                  83P     95
-6.23714413450216D-11,-91.8999999933802,71.7999999999999,             83P     96
-1.60000000006237,-91.8999999933802,71.7999999999999,                 83P     97
-1.60000000006237,-93.4999999933802,71.7999999999999,                 83P     98
-1.60000000006237,-95.0999999933802,71.7999999999999,                 83P     99
-6.23714413450216D-11,-95.0999999933802,71.7999999999999,             83P    100
1.59999999993763,-95.0999999933802,71.7999999999999,                  83P    101
1.59999999993763,-93.4999999933802,71.7999999999999,                  83P    102
-3.14159265358979,3.14159265358979,0.,0.,0.;                          83P    103
126,1,1,0,0,1,0,-48.28,-48.28,2.99999999999999,2.99999999999999,      85P    104
1.,1.,2.49999999993764,-93.4999999933802,200.,2.49999999993764,       85P    105
-93.4999999933802,71.7999999999999,-48.28,2.99999999999999,0.,        85P    106
0.,0.;                                                                85P    107
126,1,1,0,0,1,0,0.,0.,113.2,113.2,1.,1.,-2.50000000006236,            87P    108
-93.4999999933802,86.7999999999999,-2.50000000006236,                 87P    109
-93.4999999933802,200.,0.,113.2,0.,0.,0.;                             87P    110
126,1,1,0,0,1,0,0.,0.,113.2,113.2,1.,1.,1.59999999993763,             89P    111
-93.4999999933802,86.7999999999999,1.59999999993763,                  89P    112
-93.4999999933802,200.,0.,113.2,0.,0.,0.;                             89P    113
126,1,1,0,0,1,0,-12.4550852400154,-12.4550852400154,                  91P    114
-3.08008524001539,-3.08008524001539,1.,1.,1.59999999993763,           91P    115
-93.4999999933802,86.7999999999999,1.59999999993763,                  91P    116
-93.4999999933802,71.7999999999999,-12.4550852400154,                 91P    117
-3.08008524001539,0.,0.,0.;                                           91P    118
126,4,2,0,0,0,0,-6.28318530717959,-6.28318530717959,                  93P    119
-6.28318530717959,-4.71238898038469,-4.71238898038469,                93P    120
-3.14159265358979,-3.14159265358979,-3.14159265358979,1.,             93P    121
0.707106781186548,1.,0.707106781186548,1.,96.499999993381,            93P    122
-7.34639956435986D-12,200.,96.499999993381,2.49999999999265,          93P    123
200.,93.999999993381,2.49999999999265,200.,91.499999993381,           93P    124
2.49999999999265,200.,91.499999993381,-7.34731804945922D-12,          93P    125
200.,-6.28318530717959,-3.14159265358979,0.,0.,0.;                    93P    126
126,4,2,0,0,0,0,-3.14159265358979,-3.14159265358979,                  95P    127
-3.14159265358979,-1.5707963267949,-1.5707963267949,0.,0.,0.,1.,      95P    128
0.707106781186548,1.,0.707106781186548,1.,91.499999993381,            95P    129
-7.34731804945922D-12,200.,91.499999993381,-2.50000000000735,         95P    130
200.,93.999999993381,-2.50000000000735,200.,96.499999993381,          95P    131
-2.50000000000735,200.,96.499999993381,-7.34701188775944D-12,         95P    132
200.,-3.14159265358979,0.,0.,0.,0.;                                   95P    133
126,8,2,0,1,0,0,-3.14159265358979,-3.14159265358979,                  97P    134
-3.14159265358979,-1.5707963267949,-1.5707963267949,                  97P    135
-4.44089209850063D-16,-4.44089209850063D-16,1.5707963267949,          97P    136
1.5707963267949,3.14159265358979,3.14159265358979,                    97P    137
3.14159265358979,1.,0.707106781186541,1.,0.707106781186541,1.,        97P    138
0.707106781186542,1.,0.707106781186542,1.,92.399999993381,            97P    139
-7.35074731854571D-12,200.,92.399999993381,1.59999999999265,          97P    140
200.,93.999999993381,1.59999999999265,200.,95.599999993381,           97P    141
1.59999999999265,200.,95.599999993381,-7.34952217656206D-12,          97P    142
200.,95.599999993381,-1.60000000000735,200.,93.999999993381,          97P    143
-1.60000000000735,200.,92.399999993381,-1.60000000000735,200.,        97P    144
92.399999993381,-7.35113920552144D-12,200.,-3.14159265358979,         97P    145
3.14159265358979,0.,0.,0.;                                            97P    146
126,4,2,0,0,0,0,0.,0.,0.,1.5707963267949,1.5707963267949,             99P    147
3.14159265358979,3.14159265358979,3.14159265358979,1.,                99P    148
0.707106781186548,1.,0.707106781186548,1.,96.499999993381,            99P    149
-7.34701188775944D-12,71.8,96.499999993381,2.49999999999265,          99P    150
71.8,93.999999993381,2.49999999999265,71.8,91.499999993381,           99P    151
2.49999999999265,71.8,91.499999993381,-7.34670572605965D-12,          99P    152
71.8,0.,3.14159265358979,0.,0.,0.;                                    99P    153
126,4,2,0,0,0,0,3.14159265358979,3.14159265358979,                   101P    154
3.14159265358979,4.71238898038469,4.71238898038469,                  101P    155
6.28318530717959,6.28318530717959,6.28318530717959,1.,               101P    156
0.707106781186548,1.,0.707106781186548,1.,91.499999993381,           101P    157
-7.34670572605965D-12,71.8,91.499999993381,-2.50000000000735,        101P    158
71.8,93.999999993381,-2.50000000000735,71.8,96.499999993381,         101P    159
-2.50000000000735,71.8,96.499999993381,-7.34762421115901D-12,        101P    160
71.8,3.14159265358979,6.28318530717959,0.,0.,0.;                     101P    161
126,8,2,0,1,0,0,-3.14159265358979,-3.14159265358979,                 103P    162
-3.14159265358979,-1.5707963267949,-1.5707963267949,0.,0.,           103P    163
1.5707963267949,1.5707963267949,3.14159265358979,                    103P    164
3.14159265358979,3.14159265358979,1.,0.707106781186542,1.,           103P    165
0.707106781186542,1.,0.707106781186542,1.,0.707106781186542,1.,      103P    166
92.399999993381,-7.33433680384489D-12,71.8,92.399999993381,          103P    167
1.59999999999267,71.8,93.999999993381,1.59999999999267,71.8,         103P    168
95.599999993381,1.59999999999267,71.8,95.599999993381,               103P    169
-7.33453274733275D-12,71.8,95.599999993381,-1.60000000000733,        103P    170
71.8,93.999999993381,-1.60000000000733,71.8,92.399999993381,         103P    171
-1.60000000000733,71.8,92.399999993381,-7.33472869082061D-12,        103P    172
71.8,-3.14159265358979,3.14159265358979,0.,0.,0.;                    103P    173
126,1,1,0,0,1,0,0.,0.,113.2,113.2,1.,1.,96.499999993381,             105P    174
-7.34701188775944D-12,86.8,96.499999993381,                          105P    175
-7.34701188775944D-12,200.,0.,113.2,0.,0.,0.;                        105P    176
126,1,1,0,0,1,0,-48.28,-48.28,2.99999999999999,2.99999999999999,     107P    177
1.,1.,91.499999993381,-7.34701188775944D-12,200.,                    107P    178
91.499999993381,-7.34701188775944D-12,71.8,-48.28,                   107P    179
2.99999999999999,0.,0.,0.;                                           107P    180
126,1,1,0,0,1,0,0.,0.,113.2,113.2,1.,1.,92.399999993381,             109P    181
-7.33990646040183D-12,86.8,92.399999993381,                          109P    182
-7.33990646040183D-12,200.,0.,113.2,0.,0.,0.;                        109P    183
126,1,1,0,0,1,0,-12.4550852400154,-12.4550852400154,                 111P    184
-3.08008524001539,-3.08008524001539,1.,1.,92.399999993381,           111P    185
-7.33656566101933D-12,86.8,92.399999993381,                          111P    186
-7.33453274733275D-12,71.8,-12.4550852400154,-3.08008524001539,      111P    187
0.,0.,0.;                                                            111P    188
126,4,2,0,0,0,0,-6.28318530717959,-6.28318530717959,                 113P    189
-6.28318530717959,-4.71238898038469,-4.71238898038469,               113P    190
-3.14159265358979,-3.14159265358979,-3.14159265358979,1.,            113P    191
0.707106781186548,1.,0.707106781186548,1.,-96.4999999934352,         113P    192
-7.34639956435986D-12,200.,-96.4999999934352,2.49999999999265,       113P    193
200.,-93.9999999934352,2.49999999999265,200.,-91.4999999934352,      113P    194
2.49999999999265,200.,-91.4999999934352,-7.34731804945922D-12,       113P    195
200.,-6.28318530717959,-3.14159265358979,0.,0.,0.;                   113P    196
126,4,2,0,0,0,0,-3.14159265358979,-3.14159265358979,                 115P    197
-3.14159265358979,-1.5707963267949,-1.5707963267949,0.,0.,0.,1.,     115P    198
0.707106781186548,1.,0.707106781186548,1.,-91.4999999934352,         115P    199
-7.34731804945922D-12,200.,-91.4999999934352,-2.50000000000735,      115P    200
200.,-93.9999999934352,-2.50000000000735,200.,-96.4999999934352,     115P    201
-2.50000000000735,200.,-96.4999999934352,-7.34701188775944D-12,      115P    202
200.,-3.14159265358979,0.,0.,0.,0.;                                  115P    203
126,8,2,0,1,0,0,-3.14159265358979,-3.14159265358979,                 117P    204
-3.14159265358979,-1.5707963267949,-1.5707963267949,                 117P    205
-4.44089209850063D-16,-4.44089209850063D-16,1.5707963267949,         117P    206
1.5707963267949,3.14159265358979,3.14159265358979,                   117P    207
3.14159265358979,1.,0.707106781186541,1.,0.707106781186541,1.,       117P    208
0.707106781186542,1.,0.707106781186542,1.,-92.3999999934352,         117P    209
-7.35074731854571D-12,200.,-92.3999999934352,1.59999999999265,       117P    210
200.,-93.9999999934352,1.59999999999265,200.,-95.5999999934352,      117P    211
1.59999999999265,200.,-95.5999999934352,-7.34952217656206D-12,       117P    212
200.,-95.5999999934352,-1.60000000000735,200.,-93.9999999934352,     117P    213
-1.60000000000735,200.,-92.3999999934352,-1.60000000000735,200.,     117P    214
-92.3999999934352,-7.35113920552144D-12,200.,-3.14159265358979,      117P    215
3.14159265358979,0.,0.,0.;                                           117P    216
126,4,2,0,0,0,0,0.,0.,0.,1.5707963267949,1.5707963267949,            119P    217
3.14159265358979,3.14159265358979,3.14159265358979,1.,               119P    218
0.707106781186548,1.,0.707106781186548,1.,-96.4999999934352,         119P    219
-7.34701188775944D-12,71.8,-96.4999999934352,2.49999999999265,       119P    220
71.8,-93.9999999934352,2.49999999999265,71.8,-91.4999999934352,      119P    221
2.49999999999265,71.8,-91.4999999934352,-7.34670572605965D-12,       119P    222
71.8,0.,3.14159265358979,0.,0.,0.;                                   119P    223
126,4,2,0,0,0,0,3.14159265358979,3.14159265358979,                   121P    224
3.14159265358979,4.71238898038469,4.71238898038469,                  121P    225
6.28318530717959,6.28318530717959,6.28318530717959,1.,               121P    226
0.707106781186548,1.,0.707106781186548,1.,-91.4999999934352,         121P    227
-7.34670572605965D-12,71.8,-91.4999999934352,-2.50000000000735,      121P    228
71.8,-93.9999999934352,-2.50000000000735,71.8,-96.4999999934352,     121P    229
-2.50000000000735,71.8,-96.4999999934352,-7.34762421115901D-12,      121P    230
71.8,3.14159265358979,6.28318530717959,0.,0.,0.;                     121P    231
126,8,2,0,1,0,0,-3.14159265358979,-3.14159265358979,                 123P    232
-3.14159265358979,-1.5707963267949,-1.5707963267949,0.,0.,           123P    233
1.5707963267949,1.5707963267949,3.14159265358979,                    123P    234
3.14159265358979,3.14159265358979,1.,0.707106781186542,1.,           123P    235
0.707106781186542,1.,0.707106781186542,1.,0.707106781186542,1.,      123P    236
-92.3999999934352,-7.33433680384489D-12,71.8,-92.3999999934352,      123P    237
1.59999999999267,71.8,-93.9999999934352,1.59999999999267,71.8,       123P    238
-95.5999999934352,1.59999999999267,71.8,-95.5999999934352,           123P    239
-7.33453274733275D-12,71.8,-95.5999999934352,-1.60000000000733,      123P    240
71.8,-93.9999999934352,-1.60000000000733,71.8,-92.3999999934352,     123P    241
-1.60000000000733,71.8,-92.3999999934352,-7.33472869082061D-12,      123P    242
71.8,-3.14159265358979,3.14159265358979,0.,0.,0.;                    123P    243
126,1,1,0,0,1,0,-48.28,-48.28,2.99999999999999,2.99999999999999,     125P    244
1.,1.,-91.4999999934352,-7.34701188775944D-12,200.,                  125P    245
-91.4999999934352,-7.34701188775944D-12,71.8,-48.28,                 125P    246
2.99999999999999,0.,0.,0.;                                           125P    247
126,1,1,0,0,1,0,0.,0.,113.2,113.2,1.,1.,-96.4999999934352,           127P    248
-7.34701188775944D-12,86.8,-96.4999999934352,                        127P    249
-7.34701188775944D-12,200.,0.,113.2,0.,0.,0.;                        127P    250
126,1,1,0,0,1,0,0.,0.,113.2,113.2,1.,1.,-92.3999999934352,           129P    251
-7.33990646040183D-12,86.8,-92.3999999934352,                        129P    252
-7.33990646040183D-12,200.,0.,113.2,0.,0.,0.;                        129P    253
126,1,1,0,0,1,0,-12.4550852400154,-12.4550852400154,                 131P    254
-3.08008524001539,-3.08008524001539,1.,1.,-92.3999999934352,         131P    255
-7.33656566101933D-12,86.8,-92.3999999934352,                        131P    256
-7.33453274733275D-12,71.8,-12.4550852400154,-3.08008524001539,      131P    257
0.,0.,0.;                                                            131P    258
128,1,1,1,1,0,0,1,0,0,-2.501,-2.501,2.501,2.501,-2.501,-2.501,       133P    259
2.501,2.501,1.,1.,1.,1.,2.50099999993764,-90.9989999933802,200.,     133P    260
-2.50100000006235,-90.9989999933802,200.,2.50099999993764,           133P    261
-96.0009999933802,200.,-2.50100000006235,-96.0009999933802,200.,     133P    262
-2.501,2.501,-2.501,2.501;                                           133P    263
128,1,1,1,1,0,0,1,0,0,-2.501,-2.501,2.501,2.501,-2.501,-2.501,       135P    264
2.501,2.501,1.,1.,1.,1.,-2.50100000006235,-90.9989999933802,         135P    265
71.7999999999999,2.50099999993764,-90.9989999933802,                 135P    266
71.7999999999999,-2.50100000006235,-96.0009999933802,                135P    267
71.7999999999999,2.50099999993764,-96.0009999933802,                 135P    268
71.7999999999999,-2.501,2.501,-2.501,2.501;                          135P    269
128,1,8,1,2,0,1,0,0,1,-2.99999999999999,-2.99999999999999,48.28,     137P    270
48.28,-3.14159265358979,-3.14159265358979,-3.14159265358979,         137P    271
-1.5707963267949,-1.5707963267949,0.,0.,1.5707963267949,             137P    272
1.5707963267949,3.14159265358979,3.14159265358979,                   137P    273
3.14159265358979,1.,1.,0.707106781186548,0.707106781186548,1.,       137P    274
1.,0.707106781186548,0.707106781186548,1.,1.,0.707106781186548,      137P    275
0.707106781186548,1.,1.,0.707106781186548,0.707106781186548,1.,      137P    276
1.,2.49999999993764,-93.4999999933802,200.,2.49999999993764,         137P    277
-93.4999999933802,71.7999999999999,2.49999999993764,                 137P    278
-90.9999999933802,200.,2.49999999993764,-90.9999999933802,           137P    279
71.7999999999999,-6.23572304903064D-11,-90.9999999933802,200.,       137P    280
-6.23572304903064D-11,-90.9999999933802,71.7999999999999,            137P    281
-2.50000000006236,-90.9999999933802,200.,-2.50000000006236,          137P    282
-90.9999999933802,71.7999999999999,-2.50000000006236,                137P    283
-93.4999999933802,200.,-2.50000000006236,-93.4999999933802,          137P    284
71.7999999999999,-2.50000000006236,-95.9999999933802,200.,           137P    285
-2.50000000006236,-95.9999999933802,71.7999999999999,                137P    286
-6.23572304903064D-11,-95.9999999933802,200.,                        137P    287
-6.23572304903064D-11,-95.9999999933802,71.7999999999999,            137P    288
2.49999999993764,-95.9999999933802,200.,2.49999999993764,            137P    289
-95.9999999933802,71.7999999999999,2.49999999993764,                 137P    290
-93.4999999933802,200.,2.49999999993764,-93.4999999933802,           137P    291
71.7999999999999,-2.99999999999999,48.28,-3.14159265358979,          137P    292
3.14159265358979;                                                    137P    293
128,1,8,1,2,0,1,0,0,1,-83.2050852400154,-83.2050852400154,           139P    294
-3.08008524001539,-3.08008524001539,-3.14159265358979,               139P    295
-3.14159265358979,-3.14159265358979,-1.5707963267949,                139P    296
-1.5707963267949,0.,0.,1.5707963267949,1.5707963267949,              139P    297
3.14159265358979,3.14159265358979,3.14159265358979,1.,1.,            139P    298
0.707106781186548,0.707106781186548,1.,1.,0.707106781186548,         139P    299
0.707106781186548,1.,1.,0.707106781186548,0.707106781186548,1.,      139P    300
1.,0.707106781186548,0.707106781186548,1.,1.,1.59999999993763,       139P    301
-93.4999999933802,200.,1.59999999993763,-93.4999999933802,           139P    302
71.7999999999999,1.59999999993763,-95.0999999933802,200.,            139P    303
1.59999999993763,-95.0999999933802,71.7999999999999,                 139P    304
-6.23714413450216D-11,-95.0999999933802,200.,                        139P    305
-6.23714413450216D-11,-95.0999999933802,71.7999999999999,            139P    306
-1.60000000006237,-95.0999999933802,200.,-1.60000000006237,          139P    307
-95.0999999933802,71.7999999999999,-1.60000000006237,                139P    308
-93.4999999933802,200.,-1.60000000006237,-93.4999999933802,          139P    309
71.7999999999999,-1.60000000006237,-91.8999999933802,200.,           139P    310
-1.60000000006237,-91.8999999933802,71.7999999999999,                139P    311
-6.23714413450216D-11,-91.8999999933802,200.,                        139P    312
-6.23714413450216D-11,-91.8999999933802,71.7999999999999,            139P    313
1.59999999993763,-91.8999999933802,200.,1.59999999993763,            139P    314
-91.8999999933802,71.7999999999999,1.59999999993763,                 139P    315
-93.4999999933802,200.,1.59999999993763,-93.4999999933802,           139P    316
71.7999999999999,-83.2050852400154,-3.08008524001539,                139P    317
-3.14159265358979,3.14159265358979;                                  139P    318
128,1,1,1,1,0,0,1,0,0,-2.501,-2.501,2.501,2.501,-2.501,-2.501,       141P    319
2.501,2.501,1.,1.,1.,1.,96.500999993381,2.50099999999265,200.,       141P    320
91.498999993381,2.50099999999265,200.,96.500999993381,               141P    321
-2.50100000000735,200.,91.498999993381,-2.50100000000735,200.,       141P    322
-2.501,2.501,-2.501,2.501;                                           141P    323
128,1,1,1,1,0,0,1,0,0,-2.501,-2.501,2.501,2.501,-2.501,-2.501,       143P    324
2.501,2.501,1.,1.,1.,1.,91.498999993381,2.50099999999265,71.8,       143P    325
96.500999993381,2.50099999999265,71.8,91.498999993381,               143P    326
-2.50100000000735,71.8,96.500999993381,-2.50100000000735,71.8,       143P    327
-2.501,2.501,-2.501,2.501;                                           143P    328
128,1,8,1,2,0,1,0,0,1,-2.99999999999999,-2.99999999999999,48.28,     145P    329
48.28,-3.14159265358979,-3.14159265358979,-3.14159265358979,         145P    330
-1.5707963267949,-1.5707963267949,0.,0.,1.5707963267949,             145P    331
1.5707963267949,3.14159265358979,3.14159265358979,                   145P    332
3.14159265358979,1.,1.,0.707106781186548,0.707106781186548,1.,       145P    333
1.,0.707106781186548,0.707106781186548,1.,1.,0.707106781186548,      145P    334
0.707106781186548,1.,1.,0.707106781186548,0.707106781186548,1.,      145P    335
1.,91.499999993381,-7.34701188775944D-12,71.8,91.499999993381,       145P    336
-7.34701188775944D-12,200.,91.499999993381,2.49999999999265,         145P    337
71.8,91.499999993381,2.49999999999265,200.,93.999999993381,          145P    338
2.49999999999265,71.8,93.999999993381,2.49999999999265,200.,         145P    339
96.499999993381,2.49999999999265,71.8,96.499999993381,               145P    340
2.49999999999265,200.,96.499999993381,-7.34701188775944D-12,         145P    341
71.8,96.499999993381,-7.34701188775944D-12,200.,96.499999993381,     145P    342
-2.50000000000735,71.8,96.499999993381,-2.50000000000735,200.,       145P    343
93.999999993381,-2.50000000000735,71.8,93.999999993381,              145P    344
-2.50000000000735,200.,91.499999993381,-2.50000000000735,71.8,       145P    345
91.499999993381,-2.50000000000735,200.,91.499999993381,              145P    346
-7.34701188775944D-12,71.8,91.499999993381,                          145P    347
-7.34701188775944D-12,200.,-2.99999999999999,48.28,                  145P    348
-3.14159265358979,3.14159265358979;                                  145P    349
128,1,8,1,2,0,1,0,0,1,-83.2050852400154,-83.2050852400154,           147P    350
-3.08008524001539,-3.08008524001539,-3.14159265358979,               147P    351
-3.14159265358979,-3.14159265358979,-1.5707963267949,                147P    352
-1.5707963267949,0.,0.,1.5707963267949,1.5707963267949,              147P    353
3.14159265358979,3.14159265358979,3.14159265358979,1.,1.,            147P    354
0.707106781186548,0.707106781186548,1.,1.,0.707106781186548,         147P    355
0.707106781186548,1.,1.,0.707106781186548,0.707106781186548,1.,      147P    356
1.,0.707106781186548,0.707106781186548,1.,1.,92.399999993381,        147P    357
-7.33453274733275D-12,71.8,92.399999993381,                          147P    358
-7.35023271929782D-12,200.,92.399999993381,-1.60000000000734,        147P    359
71.8,92.399999993381,-1.60000000000735,200.,93.999999993381,         147P    360
-1.60000000000734,71.8,93.999999993381,-1.60000000000735,200.,       147P    361
95.599999993381,-1.60000000000734,71.8,95.599999993381,              147P    362
-1.60000000000735,200.,95.599999993381,-7.33453274733275D-12,        147P    363
71.8,95.599999993381,-7.35023271929782D-12,200.,95.599999993381,     147P    364
1.59999999999267,71.8,95.599999993381,1.59999999999265,200.,         147P    365
93.999999993381,1.59999999999267,71.8,93.999999993381,               147P    366
1.59999999999265,200.,92.399999993381,1.59999999999267,71.8,         147P    367
92.399999993381,1.59999999999265,200.,92.399999993381,               147P    368
-7.33453274733275D-12,71.8,92.399999993381,                          147P    369
-7.35023271929782D-12,200.,-83.2050852400154,-3.08008524001539,      147P    370
-3.14159265358979,3.14159265358979;                                  147P    371
128,1,1,1,1,0,0,1,0,0,-2.501,-2.501,2.501,2.501,-2.501,-2.501,       149P    372
2.501,2.501,1.,1.,1.,1.,-91.4989999934352,2.50099999999265,200.,     149P    373
-96.5009999934352,2.50099999999265,200.,-91.4989999934352,           149P    374
-2.50100000000735,200.,-96.5009999934352,-2.50100000000735,200.,     149P    375
-2.501,2.501,-2.501,2.501;                                           149P    376
128,1,1,1,1,0,0,1,0,0,-2.501,-2.501,2.501,2.501,-2.501,-2.501,       151P    377
2.501,2.501,1.,1.,1.,1.,-96.5009999934352,2.50099999999265,71.8,     151P    378
-91.4989999934352,2.50099999999265,71.8,-96.5009999934352,           151P    379
-2.50100000000735,71.8,-91.4989999934352,-2.50100000000735,71.8,     151P    380
-2.501,2.501,-2.501,2.501;                                           151P    381
128,1,8,1,2,0,1,0,0,1,-2.99999999999999,-2.99999999999999,48.28,     153P    382
48.28,-3.14159265358979,-3.14159265358979,-3.14159265358979,         153P    383
-1.5707963267949,-1.5707963267949,0.,0.,1.5707963267949,             153P    384
1.5707963267949,3.14159265358979,3.14159265358979,                   153P    385
3.14159265358979,1.,1.,0.707106781186548,0.707106781186548,1.,       153P    386
1.,0.707106781186548,0.707106781186548,1.,1.,0.707106781186548,      153P    387
0.707106781186548,1.,1.,0.707106781186548,0.707106781186548,1.,      153P    388
1.,-91.4999999934352,-7.34701188775944D-12,200.,                     153P    389
-91.4999999934352,-7.34701188775944D-12,71.8,-91.4999999934352,      153P    390
2.49999999999265,200.,-91.4999999934352,2.49999999999265,71.8,       153P    391
-93.9999999934352,2.49999999999265,200.,-93.9999999934352,           153P    392
2.49999999999265,71.8,-96.4999999934352,2.49999999999265,200.,       153P    393
-96.4999999934352,2.49999999999265,71.8,-96.4999999934352,           153P    394
-7.34701188775944D-12,200.,-96.4999999934352,                        153P    395
-7.34701188775944D-12,71.8,-96.4999999934352,-2.50000000000735,      153P    396
200.,-96.4999999934352,-2.50000000000735,71.8,-93.9999999934352,     153P    397
-2.50000000000735,200.,-93.9999999934352,-2.50000000000735,71.8,     153P    398
-91.4999999934352,-2.50000000000735,200.,-91.4999999934352,          153P    399
-2.50000000000735,71.8,-91.4999999934352,-7.34701188775944D-12,      153P    400
200.,-91.4999999934352,-7.34701188775944D-12,71.8,                   153P    401
-2.99999999999999,48.28,-3.14159265358979,3.14159265358979;          153P    402
128,1,8,1,2,0,1,0,0,1,-83.2050852400154,-83.2050852400154,           155P    403
-3.08008524001539,-3.08008524001539,-3.14159265358979,               155P    404
-3.14159265358979,-3.14159265358979,-1.5707963267949,                155P    405
-1.5707963267949,0.,0.,1.5707963267949,1.5707963267949,              155P    406
3.14159265358979,3.14159265358979,3.14159265358979,1.,1.,            155P    407
0.707106781186548,0.707106781186548,1.,1.,0.707106781186548,         155P    408
0.707106781186548,1.,1.,0.707106781186548,0.707106781186548,1.,      155P    409
1.,0.707106781186548,0.707106781186548,1.,1.,-92.3999999934352,      155P    410
-7.35023271929782D-12,200.,-92.3999999934352,                        155P    411
-7.33453274733275D-12,71.8,-92.3999999934352,-1.60000000000735,      155P    412
200.,-92.3999999934352,-1.60000000000734,71.8,-93.9999999934352,     155P    413
-1.60000000000735,200.,-93.9999999934352,-1.60000000000734,71.8,     155P    414
-95.5999999934352,-1.60000000000735,200.,-95.5999999934352,          155P    415
-1.60000000000734,71.8,-95.5999999934352,-7.35023271929782D-12,      155P    416
200.,-95.5999999934352,-7.33453274733275D-12,71.8,                   155P    417
-95.5999999934352,1.59999999999265,200.,-95.5999999934352,           155P    418
1.59999999999267,71.8,-93.9999999934352,1.59999999999265,200.,       155P    419
-93.9999999934352,1.59999999999267,71.8,-92.3999999934352,           155P    420
1.59999999999265,200.,-92.3999999934352,1.59999999999267,71.8,       155P    421
-92.3999999934352,-7.35023271929782D-12,200.,-92.3999999934352,      155P    422
-7.33453274733275D-12,71.8,-83.2050852400154,-3.08008524001539,      155P    423
-3.14159265358979,3.14159265358979;                                  155P    424
502,8,-2.50000000006236,-93.4999999933802,200.,2.49999999993764,     157P    425
-93.4999999933802,200.,1.59999999993763,-93.4999999933802,200.,      157P    426
-2.50000000006236,-93.4999999933802,71.7999999999999,                157P    427
2.49999999993764,-93.4999999933802,71.7999999999999,                 157P    428
1.59999999993763,-93.4999999933802,71.7999999999999,                 157P    429
-2.50000000006236,-93.4999999933802,86.7999999999999,                157P    430
1.59999999993763,-93.4999999933802,86.7999999999999;                 157P    431
502,8,96.499999993381,-7.34701188775944D-12,200.,                    159P    432
91.499999993381,-7.34701188775944D-12,200.,92.399999993381,          159P    433
-7.35042866278568D-12,200.,96.499999993381,                          159P    434
-7.34701188775944D-12,71.8,91.499999993381,                          159P    435
-7.34701188775944D-12,71.8,92.399999993381,                          159P    436
-7.33433680384489D-12,71.8,96.499999993381,                          159P    437
-7.34701188775944D-12,86.8,92.399999993381,                          159P    438
-7.33656566101933D-12,86.8;                                          159P    439
502,8,-96.4999999934352,-7.34701188775944D-12,200.,                  161P    440
-91.4999999934352,-7.34701188775944D-12,200.,-92.3999999934352,      161P    441
-7.35003677580996D-12,200.,-96.4999999934352,                        161P    442
-7.34701188775944D-12,71.8,-91.4999999934352,                        161P    443
-7.34701188775944D-12,71.8,-92.3999999934352,                        161P    444
-7.33433680384489D-12,71.8,-96.4999999934352,                        161P    445
-7.34701188775944D-12,86.8,-92.3999999934352,                        161P    446
-7.33656566101933D-12,86.8;                                          161P    447
504,10,73,157,1,157,2,75,157,2,157,1,77,157,3,157,3,79,157,4,        163P    448
157,5,81,157,5,157,4,83,157,6,157,6,85,157,2,157,5,87,157,7,157,     163P    449
1,89,157,8,157,3,91,157,8,157,6;                                     163P    450
504,10,93,159,1,159,2,95,159,2,159,1,97,159,3,159,3,99,159,4,        165P    451
159,5,101,159,5,159,4,103,159,6,159,6,105,159,7,159,1,107,159,2,     165P    452
159,5,109,159,8,159,3,111,159,8,159,6;                               165P    453
504,10,113,161,1,161,2,115,161,2,161,1,117,161,3,161,3,119,161,      167P    454
4,161,5,121,161,5,161,4,123,161,6,161,6,125,161,2,161,5,127,161,     167P    455
7,161,1,129,161,8,161,3,131,161,8,161,6;                             167P    456
406,1,2H74;                                                          169P    457
406,1,2H78;                                                          171P    458
406,1,2H79;                                                          173P    459
406,2,0,18HLayer 3 to 4 Stand;                                       175P    460
314,76.078431372549,80.7843137254902,83.921568627451,;               177P    461
314,100.,100.,100.,;                                                 179P    462
S      1G      4D    180P    462                                        T      1
