                                                                        S      1
,,,6HMirror,22HAutoCAD 2022 - English,62HAutodesk Translation Framework G      1
DWG producer (atf_dwg_producer),32,38,7,99,15,,1.,2,2HMM,1,0.08,15H20220G      2
120.230102,0.01,10000.,,7Hunknown,11,0,15H20210411.131402;              G      3
     186       1                       1                        00000000D      1
     186             -65       1       0                               0D      2
     514       2                                                00010000D      3
     514                       1       1                               0D      4
     510       3                                                00010000D      5
     510             -65       1       1                               0D      6
     510       4                                                00010000D      7
     510             -65       1       1                               0D      8
     510       5                                                00010000D      9
     510             -65       1       1                               0D     10
     510       6                                                00010000D     11
     510             -65       1       1                               0D     12
     510       7                                                00010000D     13
     510             -65       1       1                               0D     14
     508       8                                                00010000D     15
     508                       1       1                               0D     16
     508       9                                                00010000D     17
     508                       1       1                               0D     18
     508      10                                                00010000D     19
     508                       1       1                               0D     20
     508      11                                                00010000D     21
     508                       1       1                               0D     22
     508      12                                                00010000D     23
     508                       1       1                               0D     24
     508      13                                                00010000D     25
     508                       1       1                               0D     26
     508      14                                                00010000D     27
     508                       1       1                               0D     28
     126      15                                                00010000D     29
     126       0              14       0                               0D     30
     126      29                                                00010000D     31
     126       0               4       0                               0D     32
     126      33                                                00010000D     33
     126       0              16       0                               0D     34
     126      49                                                00010000D     35
     126       0              12       0                               0D     36
     126      61                                                00010000D     37
     126       0               5       0                               0D     38
     126      66                                                00010000D     39
     126       0              16       0                               0D     40
     126      82                                                00010000D     41
     126       0              16       0                               0D     42
     126      98                                                00010000D     43
     126       0               4       0                               0D     44
     128     102                                                00010000D     45
     128       0     -65      24       0                               0D     46
     128     126                                                00010000D     47
     128       0     -65      24       0                               0D     48
     128     150                                                00010000D     49
     128       0     -65       9       0                               0D     50
     128     159                                                00010000D     51
     128       0     -65      28       0                               0D     52
     128     187                                                00010000D     53
     128       0     -65       7       0                               0D     54
     502     194                                                00010000D     55
     502                       5       1                               0D     56
     504     199                                                00010001D     57
     504                       2       1                               0D     58
     406     201                                                00000000D     59
     406                       1      15                               0D     60
     406     202                       1                        00000000D     61
     406             -63       1       3                               0D     62
     314     203                                                00000200D     63
     314                       1       0                               0D     64
     314     204                                                00000200D     65
     314                       1       0                               0D     66
186,3,1,0,0,1,59;                                                      1P      1
514,5,5,1,7,1,9,1,11,1,13,1;                                           3P      2
510,45,1,1,15;                                                         5P      3
510,47,1,1,17;                                                         7P      4
510,49,2,1,19,21;                                                      9P      5
510,51,1,1,23;                                                        11P      6
510,53,2,1,25,27;                                                     13P      7
508,4,0,57,1,0,0,0,57,2,1,0,0,57,3,0,0,0,57,2,0,0;                    15P      8
508,4,0,57,4,0,0,0,57,5,1,0,0,57,6,1,0,0,57,5,0,0;                    17P      9
508,1,0,57,6,0,0;                                                     19P     10
508,1,0,57,7,1,0;                                                     21P     11
508,4,0,57,3,1,0,0,57,8,1,0,0,57,7,0,0,0,57,8,0,0;                    23P     12
508,1,0,57,4,1,0;                                                     25P     13
508,1,0,57,1,1,0;                                                     27P     14
126,8,2,0,1,0,0,-6.28318530717959,-6.28318530717959,                  29P     15
-6.28318530717959,-4.71238898038469,-4.71238898038469,                29P     16
-3.14159265358979,-3.14159265358979,-1.5707963267949,                 29P     17
-1.5707963267949,1.22464679914723D-16,1.22464679914723D-16,           29P     18
1.22464679914723D-16,1.,0.707106781186547,1.,0.707106781186547,       29P     19
1.,0.707106781186548,1.,0.707106781186548,1.,                         29P     20
-2.78292002500066D-11,-36.5964665005887,200.,-36.5964665006445,       29P     21
-36.5964665005887,200.,-36.5964665006445,2.79567963398164D-11,        29P     22
200.,-36.5964665006444,36.5964665006446,200.,                         29P     23
-2.77425742592762D-11,36.5964665006446,200.,36.5964665005889,         29P     24
36.5964665006445,200.,36.5964665005889,2.78746521236421D-11,          29P     25
200.,36.5964665005888,-36.5964665005888,200.,                         29P     26
-2.78247184754505D-11,-36.5964665005887,200.,-6.28318530717959,       29P     27
1.22464679914723D-16,0.,0.,0.;                                        29P     28
126,1,1,0,0,1,0,0.,0.,4.05431114253791,4.05431114253791,1.,1.,        31P     29
-2.78247184754505D-11,-36.5964665005887,200.,                         31P     30
-2.78260830570647D-11,-1.69999999997212,179.360704715954,0.,          31P     31
4.05431114253791,0.,0.,0.;                                            31P     32
126,8,2,0,1,0,0,-6.28318530717959,-6.28318530717959,                  33P     33
-6.28318530717959,-4.71238898038469,-4.71238898038469,                33P     34
-3.14159265358979,-3.14159265358979,-1.5707963267949,                 33P     35
-1.5707963267949,6.12323399570654D-17,6.12323399570654D-17,           33P     36
6.12323399570654D-17,1.,0.707106781186548,1.,0.707106781186548,       33P     37
1.,0.707106781186547,1.,0.707106781186548,1.,                         33P     38
-2.78256699828621D-11,-1.69999999997213,179.360704715954,             33P     39
1.69999999997217,-1.69999999997213,179.360704715954,                  33P     40
1.69999999997217,2.7868196386696D-11,179.360704715954,                33P     41
1.69999999997217,1.70000000002787,179.360704715954,                   33P     42
-2.78258863825D-11,1.70000000002787,179.360704715954,                 33P     43
-1.70000000002783,1.70000000002787,179.360704715954,                  33P     44
-1.70000000002783,2.78681881770139D-11,179.360704715954,              33P     45
-1.70000000002783,-1.69999999997213,179.360704715954,                 33P     46
-2.78259822677959D-11,-1.69999999997213,179.360704715954,             33P     47
-6.28318530717959,6.12323399570654D-17,0.,0.,0.;                      33P     48
126,8,2,0,1,0,0,0.,0.,0.,1.5707963267949,1.5707963267949,             35P     49
3.14159265358979,3.14159265358979,4.71238898038469,                   35P     50
4.71238898038469,6.28318530717959,6.28318530717959,                   35P     51
6.28318530717959,1.,0.707106781186548,1.,0.707106781186548,1.,        35P     52
0.707106781186548,1.,0.707106781186547,1.,-2.78230299437469D-11,      35P     53
-39.5430141564614,200.,39.5430141564614,-39.5430141564614,200.,       35P     54
39.5430141564614,2.78577713279834D-11,200.,39.5430141564614,          35P     55
39.5430141565171,200.,-2.78181873211754D-11,39.5430141565171,         35P     56
200.,-39.543014156517,39.5430141565171,200.,-39.543014156517,         35P     57
2.78674565731265D-11,200.,-39.543014156517,-39.5430141564613,         35P     58
200.,-2.783271518889D-11,-39.5430141564614,200.,0.,                   35P     59
6.28318530717959,0.,0.,0.;                                            35P     60
126,1,1,0,0,1,0,-2.10975281270939D-14,-2.10975281270939D-14,          37P     61
4.24560892071855,4.24560892071855,1.,1.,-2.78247184754505D-11,        37P     62
-39.5430141564614,200.,-2.78230299437469D-11,-2.99999999997214,       37P     63
178.386864477195,-2.10975281270939D-14,4.24560892071855,0.,0.,        37P     64
0.;                                                                   37P     65
126,8,2,0,1,0,0,-3.14159265358979,-3.14159265358979,                  39P     66
-3.14159265358979,-1.5707963267949,-1.5707963267949,                  39P     67
4.44089209850063D-16,4.44089209850063D-16,1.5707963267949,            39P     68
1.5707963267949,3.14159265358979,3.14159265358979,                    39P     69
3.14159265358979,1.,0.707106781186548,1.,0.707106781186548,1.,        39P     70
0.707106781186547,1.,0.707106781186548,1.,-2.78254511195169D-11,      39P     71
-2.99999999997214,178.386864477195,2.99999999997218,                  39P     72
-2.99999999997214,178.386864477195,2.99999999997218,                  39P     73
2.78684369782871D-11,178.386864477195,2.99999999997218,               39P     74
3.00000000002788,178.386864477195,-2.78268230748824D-11,              39P     75
3.00000000002788,178.386864477195,-3.00000000002784,                  39P     76
3.00000000002788,178.386864477195,-3.00000000002784,                  39P     77
2.78674324169613D-11,178.386864477195,-3.00000000002784,              39P     78
-2.99999999997214,178.386864477195,-2.78261859075963D-11,             39P     79
-2.99999999997214,178.386864477195,-3.14159265358979,                 39P     80
3.14159265358979,0.,0.,0.;                                            39P     81
126,8,2,0,1,0,0,-6.28318530717959,-6.28318530717959,                  41P     82
-6.28318530717959,-4.71238898038469,-4.71238898038469,                41P     83
-3.14159265358979,-3.14159265358979,-1.5707963267949,                 41P     84
-1.5707963267949,6.12323399570654D-17,6.12323399570654D-17,           41P     85
6.12323399570654D-17,1.,0.707106781186548,1.,0.707106781186548,       41P     86
1.,0.707106781186547,1.,0.707106781186548,1.,                         41P     87
-2.78257296133786D-11,-1.69999999997213,178.386864477195,             41P     88
1.69999999997217,-1.69999999997213,178.386864477195,                  41P     89
1.69999999997217,2.78681367561794D-11,178.386864477195,               41P     90
1.69999999997217,1.70000000002787,178.386864477195,                   41P     91
-2.78259460130166D-11,1.70000000002787,178.386864477195,              41P     92
-1.70000000002783,1.70000000002787,178.386864477195,                  41P     93
-1.70000000002783,2.78681285464974D-11,178.386864477195,              41P     94
-1.70000000002783,-1.69999999997213,178.386864477195,                 41P     95
-2.78260418983124D-11,-1.69999999997213,178.386864477195,             41P     96
-6.28318530717959,6.12323399570654D-17,0.,0.,0.;                      41P     97
126,1,1,0,0,1,0,0.,0.,0.0973840238759003,0.0973840238759003,1.,       43P     98
1.,-2.78259822677959D-11,-1.69999999997213,179.360704715954,          43P     99
-2.78260830570647D-11,-1.69999999997213,178.386864477195,0.,          43P    100
0.0973840238759003,0.,0.,0.;                                          43P    101
128,1,8,1,2,0,1,0,0,1,-0.781230672514046,-0.781230672514046,          45P    102
7.03107605262635,7.03107605262635,-3.14159265358979,                  45P    103
-3.14159265358979,-3.14159265358979,-1.5707963267949,                 45P    104
-1.5707963267949,0.,0.,1.5707963267949,1.5707963267949,               45P    105
3.14159265358979,3.14159265358979,3.14159265358979,1.,1.,             45P    106
0.707106781186548,0.707106781186548,1.,1.,0.707106781186548,          45P    107
0.707106781186548,1.,1.,0.707106781186548,0.707106781186548,1.,       45P    108
1.,0.707106781186548,0.707106781186548,1.,1.,-0.987884587923155,      45P    109
1.38350426131471,179.360704715954,-21.2665207220208,                  45P    110
29.7831572657008,200.,-2.37138884920997,0.395619673419362,            45P    111
179.360704715954,-51.0496779876937,8.51663654370786,200.,             45P    112
-1.38350426131462,-0.98788458786745,179.360704715954,                 45P    113
-29.7831572657007,-21.266520721965,200.,-0.395619673419277,           45P    114
-2.37138884915426,179.360704715954,-8.51663654370778,                 45P    115
-51.049677987638,200.,0.987884587867535,-1.38350426125892,            45P    116
179.360704715954,21.2665207219651,-29.783157265645,200.,              45P    117
2.37138884915435,-0.395619673363572,179.360704715954,                 45P    118
51.049677987638,-8.51663654365206,200.,1.383504261259,                45P    119
0.98788458792324,179.360704715954,29.7831572656451,                   45P    120
21.2665207220208,200.,0.395619673363657,2.37138884921005,             45P    121
179.360704715954,8.51663654365214,51.0496779876938,200.,              45P    122
-0.987884587923155,1.38350426131471,179.360704715954,                 45P    123
-21.2665207220208,29.7831572657008,200.,-0.781230672514046,           45P    124
7.03107605262635,-3.14159265358979,3.14159265358979;                  45P    125
128,1,8,1,2,0,1,0,0,1,-1.06469353087119,-1.06469353087119,            47P    126
0.118299281207912,0.118299281207912,-3.14159265358979,                47P    127
-3.14159265358979,-3.14159265358979,-1.5707963267949,                 47P    128
-1.5707963267949,0.,0.,1.5707963267949,1.5707963267949,               47P    129
3.14159265358979,3.14159265358979,3.14159265358979,1.,1.,             47P    130
0.707106781186548,0.707106781186548,1.,1.,0.707106781186548,          47P    131
0.707106781186548,1.,1.,0.707106781186548,0.707106781186548,1.,       47P    132
1.,0.707106781186548,0.707106781186548,1.,1.,-22.9787848495126,       47P    133
32.181134464515,200.,-1.7433257433726,2.44147810818108,               47P    134
178.386864477195,-55.1599193139997,9.20234961503028,200.,             47P    135
-4.18480385152582,0.698152364836314,178.386864477195,                 47P    136
-32.181134464515,-22.9787848494569,200.,-2.44147810818106,            47P    137
-1.7433257433169,178.386864477195,-9.20234961503027,                  47P    138
-55.159919313944,200.,-0.698152364836296,-4.18480385147012,           47P    139
178.386864477195,22.9787848494569,-32.1811344644593,200.,             47P    140
1.74332574331692,-2.44147810812536,178.386864477195,                  47P    141
55.159919313944,-9.20234961497457,200.,4.18480385147014,              47P    142
-0.698152364780596,178.386864477195,32.1811344644593,                 47P    143
22.9787848495126,200.,2.44147810812538,1.74332574337262,              47P    144
178.386864477195,9.20234961497458,55.1599193139997,200.,              47P    145
0.698152364780614,4.18480385152584,178.386864477195,                  47P    146
-22.9787848495126,32.181134464515,200.,-1.7433257433726,              47P    147
2.44147810818108,178.386864477195,-1.06469353087119,                  47P    148
0.118299281207912,-3.14159265358979,3.14159265358979;                 47P    149
128,1,1,1,1,0,0,1,0,0,-0.301000000000001,-0.301000000000001,          49P    150
0.301000000000001,0.301000000000001,-0.601100000000002,               49P    151
-0.601100000000002,0.000899999999999956,0.000899999999999956,1.,      49P    152
1.,1.,1.,-3.01000000002784,-3.00999999997214,178.386864477195,        49P    153
-3.01000000002784,3.01000000002788,178.386864477195,                  49P    154
3.00999999997218,-3.00999999997214,178.386864477195,                  49P    155
3.00999999997218,3.01000000002788,178.386864477195,                   49P    156
-0.301000000000001,0.301000000000001,-0.601100000000002,              49P    157
0.000899999999999956;                                                 49P    158
128,1,8,1,2,0,1,0,0,1,-0.286423599634986,-0.286423599634986,          51P    159
0.28642359963502,0.28642359963502,-3.14159265358979,                  51P    160
-3.14159265358979,-3.14159265358979,-1.5707963267949,                 51P    161
-1.5707963267949,0.,0.,1.5707963267949,1.5707963267949,               51P    162
3.14159265358979,3.14159265358979,3.14159265358979,1.,1.,             51P    163
0.707106781186548,0.707106781186548,1.,1.,0.707106781186548,          51P    164
0.707106781186548,1.,1.,0.707106781186548,0.707106781186548,1.,       51P    165
1.,0.707106781186548,0.707106781186548,1.,1.,                         51P    166
-2.78258187511763D-11,1.70000000002787,178.386864477195,              51P    167
-2.78258128918173D-11,1.70000000002787,179.360704715954,              51P    168
-1.70000000002783,1.70000000002787,178.386864477195,                  51P    169
-1.70000000002783,1.70000000002787,179.360704715954,                  51P    170
-1.70000000002783,2.7867849131383D-11,178.386864477195,               51P    171
-1.70000000002783,2.78679087618996D-11,179.360704715954,              51P    172
-1.70000000002783,-1.69999999997213,178.386864477195,                 51P    173
-1.70000000002783,-1.69999999997213,179.360704715954,                 51P    174
-2.78260150127336D-11,-1.69999999997213,178.386864477195,             51P    175
-2.78260091533747D-11,-1.69999999997213,179.360704715954,             51P    176
1.69999999997217,-1.69999999997213,178.386864477195,                  51P    177
1.69999999997217,-1.69999999997213,179.360704715954,                  51P    178
1.69999999997217,2.78676528698257D-11,178.386864477195,               51P    179
1.69999999997217,2.78677125003422D-11,179.360704715954,               51P    180
1.69999999997217,1.70000000002787,178.386864477195,                   51P    181
1.69999999997217,1.70000000002787,179.360704715954,                   51P    182
-2.78258187511763D-11,1.70000000002787,178.386864477195,              51P    183
-2.78258128918173D-11,1.70000000002787,179.360704715954,              51P    184
-0.286423599634986,0.28642359963502,-3.14159265358979,                51P    185
3.14159265358979;                                                     51P    186
128,1,1,1,1,0,0,1,0,0,-7.90970283129784,-7.90970283129784,            53P    187
0.000900000000000567,0.000900000000000567,-4.13685084697339,          53P    188
-4.13685084697339,3.77375198432446,3.77375198432446,1.,1.,1.,1.,      53P    189
-39.5530141565171,39.5530141565171,200.,-39.5530141565171,            53P    190
-39.5530141564614,200.,39.5530141564614,39.5530141565171,200.,        53P    191
39.5530141564614,-39.5530141564614,200.,-7.90970283129784,            53P    192
0.000900000000000567,-4.13685084697339,3.77375198432446;              53P    193
502,5,-2.78247184754505D-11,-36.5964665005887,200.,                   55P    194
-2.78259822677959D-11,-1.69999999997213,179.360704715954,             55P    195
-2.78247184754505D-11,-39.5430141564613,200.,                         55P    196
-2.78260418983124D-11,-2.99999999997213,178.386864477195,             55P    197
-2.78260418983124D-11,-1.69999999997213,178.386864477195;             55P    198
504,8,29,55,1,55,1,31,55,1,55,2,33,55,2,55,2,35,55,3,55,3,37,55,      57P    199
3,55,4,39,55,4,55,4,41,55,5,55,5,43,55,2,55,5;                        57P    200
406,1,2H74;                                                           59P    201
406,2,0,6HMirror;                                                     61P    202
314,76.078431372549,80.7843137254902,83.921568627451,;                63P    203
314,100.,100.,100.,;                                                  65P    204
S      1G      3D     66P    204                                        T      1
